<svg width="30" height="30" viewBox="0 0 30 30" fill="none" xmlns="http://www.w3.org/2000/svg">
<g clip-path="url(#clip0_0_4538)">
<path d="M0 27.3633C0 28.8172 1.18283 30 2.63672 30H27.3633C28.8172 30 30 28.8172 30 27.3633V16.9922H0V27.3633ZM13.8867 21.9727H25.6055C26.0909 21.9727 26.4844 22.3662 26.4844 22.8516C26.4844 23.337 26.0909 23.7305 25.6055 23.7305H13.8867C13.4013 23.7305 13.0078 23.337 13.0078 22.8516C13.0078 22.3662 13.4013 21.9727 13.8867 21.9727ZM13.8867 25.4883H25.6055C26.0909 25.4883 26.4844 25.8818 26.4844 26.3672C26.4844 26.8526 26.0909 27.2461 25.6055 27.2461H13.8867C13.4013 27.2461 13.0078 26.8526 13.0078 26.3672C13.0078 25.8818 13.4013 25.4883 13.8867 25.4883ZM3.51562 20.5078C3.51562 20.0224 3.90914 19.6289 4.39453 19.6289H10.2539C10.7393 19.6289 11.1328 20.0224 11.1328 20.5078V26.3672C11.1328 26.8526 10.7393 27.2461 10.2539 27.2461H4.39453C3.90914 27.2461 3.51562 26.8526 3.51562 26.3672V20.5078Z" fill="white"/>
<path d="M5.27344 21.3867H9.375V25.4883H5.27344V21.3867Z" fill="white"/>
<path d="M17.9877 11.7861L15.5742 15.234H18.7073L19.5628 14.0362L17.9877 11.7861Z" fill="white"/>
<path d="M20.8682 15.234H29.1712L25.0197 9.42188L20.8682 15.234Z" fill="white"/>
<path d="M0 15.2344H13.4292L17.2683 9.74988C17.4328 9.51492 17.7015 9.375 17.9883 9.375C18.275 9.375 18.5438 9.51492 18.7083 9.74988L20.647 12.5195L24.3043 7.39928C24.4693 7.1683 24.7356 7.03125 25.0195 7.03125C25.3034 7.03125 25.5698 7.1683 25.7347 7.39928L30 13.3707V5.27344H0L0 15.2344ZM20.918 7.03125C21.4034 7.03125 21.7969 7.42477 21.7969 7.91016C21.7969 8.39555 21.4034 8.78906 20.918 8.78906C20.4326 8.78906 20.0391 8.39555 20.0391 7.91016C20.0391 7.42477 20.4326 7.03125 20.918 7.03125ZM4.39453 7.03125H9.08203C9.56742 7.03125 9.96094 7.42477 9.96094 7.91016C9.96094 8.39555 9.56742 8.78906 9.08203 8.78906H4.39453C3.90914 8.78906 3.51562 8.39555 3.51562 7.91016C3.51562 7.42477 3.90914 7.03125 4.39453 7.03125ZM4.39453 10.5469H9.08203C9.56742 10.5469 9.96094 10.9404 9.96094 11.4258C9.96094 11.9112 9.56742 12.3047 9.08203 12.3047H4.39453C3.90914 12.3047 3.51562 11.9112 3.51562 11.4258C3.51562 10.9404 3.90914 10.5469 4.39453 10.5469Z" fill="white"/>
<path d="M8.20312 0H10.5469V3.51562H8.20312V0Z" fill="white"/>
<path d="M4.10156 0H6.44531V3.51562H4.10156V0Z" fill="white"/>
<path d="M2.34375 0.0166016C1.02727 0.16291 0 1.28188 0 2.63668V3.51559H2.34375V0.0166016Z" fill="white"/>
<path d="M27.3633 0H12.3047V3.51562H30V2.63672C30 1.18283 28.8172 0 27.3633 0Z" fill="white"/>
</g>
<defs>
<clipPath id="clip0_0_4538">
<rect width="30" height="30" fill="white"/>
</clipPath>
</defs>
</svg>
