<svg width="62" height="62" viewBox="0 0 62 62" fill="none" xmlns="http://www.w3.org/2000/svg">
<circle cx="31" cy="31" r="31" fill="#2928E8"/>
<path d="M16 40.668V41.5469C16 43.0008 17.1828 44.1836 18.6367 44.1836H43.3633C44.8172 44.1836 46 43.0008 46 41.5469V40.668H16Z" fill="white"/>
<path d="M44.6312 35.9805H17.3682L16.2695 38.9102H45.7299L44.6312 35.9805Z" fill="white"/>
<path d="M44.2422 20.4531C44.2422 18.9992 43.0594 17.8164 41.6055 17.8164H20.3945C18.9406 17.8164 17.7578 18.9992 17.7578 20.4531V34.2227H44.2422V20.4531ZM33.2788 30.4998C33.1071 30.6715 32.8822 30.7573 32.6573 30.7573C32.4324 30.7573 32.2074 30.6715 32.0359 30.4998C31.7592 30.2232 31.3913 30.0708 31.0001 30.0708C30.6088 30.0708 30.2409 30.2232 29.9642 30.4998C29.6211 30.8431 29.0645 30.8431 28.7213 30.4998C28.378 30.1566 28.378 29.6001 28.7213 29.2569C29.9778 28.0004 32.0223 28.0004 33.2788 29.2569C33.622 29.6001 33.622 30.1566 33.2788 30.4998ZM35.7647 28.0139C35.4214 28.3572 34.865 28.3572 34.5217 28.0139C33.581 27.0733 32.3303 26.5552 31 26.5552C29.6697 26.5552 28.419 27.0733 27.4783 28.0139C27.135 28.3572 26.5786 28.3572 26.2353 28.0139C25.8921 27.6707 25.8921 27.1142 26.2353 26.771C27.508 25.4983 29.2001 24.7974 31 24.7974C32.7999 24.7974 34.492 25.4983 35.7647 26.771C36.1079 27.1142 36.1079 27.6707 35.7647 28.0139ZM38.2506 25.528C37.9074 25.8712 37.3509 25.8712 37.0077 25.528C33.695 22.2154 28.305 22.2154 24.9923 25.528C24.6491 25.8712 24.0926 25.8712 23.7494 25.528C23.4061 25.1847 23.4061 24.6283 23.7494 24.285C25.6861 22.3483 28.2611 21.2818 31 21.2818C33.7389 21.2818 36.3139 22.3483 38.2506 24.285C38.5939 24.6283 38.5939 25.1848 38.2506 25.528Z" fill="white"/>
</svg>
