<svg width="500" height="500" viewBox="0 0 500 500" fill="none" xmlns="http://www.w3.org/2000/svg">
<path d="M426.14 92.2H116.58C105.258 92.2 96.0801 101.378 96.0801 112.7V252.49C96.0801 263.812 105.258 272.99 116.58 272.99H426.14C437.462 272.99 446.64 263.812 446.64 252.49V112.7C446.64 101.378 437.462 92.2 426.14 92.2Z" fill="white" stroke="#263238" stroke-miterlimit="10"/>
<path d="M434.17 87.34H423.4V84H392.8V87.34H385.85V84H355.25V87.34H348.25V84H317.65V87.34H108.54C103.256 87.3426 98.1894 89.4436 94.4539 93.1809C90.7185 96.9182 88.6201 101.986 88.6201 107.27V257.93C88.6188 260.547 89.1331 263.138 90.1336 265.556C91.134 267.974 92.6011 270.171 94.451 272.022C96.3009 273.873 98.4973 275.341 100.915 276.343C103.332 277.344 105.923 277.86 108.54 277.86H368.32V280.25H398.92V277.86H434.17C436.787 277.86 439.378 277.344 441.796 276.343C444.213 275.341 446.409 273.873 448.259 272.022C450.109 270.171 451.576 267.974 452.577 265.556C453.577 263.138 454.091 260.547 454.09 257.93V107.27C454.09 101.986 451.992 96.9182 448.256 93.1809C444.521 89.4436 439.454 87.3426 434.17 87.34ZM446.64 130.22L437.88 136.1C436.588 136.971 435.529 138.146 434.797 139.521C434.064 140.897 433.681 142.432 433.68 143.99V221.21C433.681 222.768 434.064 224.303 434.797 225.679C435.529 227.054 436.588 228.229 437.88 229.1L446.64 234.98V253.07C446.64 258.356 444.54 263.425 440.803 267.163C437.065 270.9 431.996 273 426.71 273H116C113.383 273 110.792 272.484 108.375 271.483C105.957 270.481 103.761 269.013 101.911 267.162C100.061 265.311 98.594 263.114 97.5936 260.696C96.5931 258.278 96.0788 255.687 96.0801 253.07V112.13C96.0801 106.846 98.1785 101.778 101.914 98.0409C105.649 94.3036 110.716 92.2026 116 92.2H426.71C431.995 92.2026 437.063 94.3033 440.8 98.0403C444.537 101.777 446.637 106.845 446.64 112.13V130.22Z" fill="#263238" stroke="#263238" stroke-miterlimit="10"/>
<path d="M208.78 217.13H112.84V266.12H208.78V217.13Z" stroke="#263238" stroke-miterlimit="10"/>
<path d="M171.35 240.06L150.84 230.37V249.76L171.35 240.06Z" fill="white" stroke="#263238" stroke-miterlimit="10"/>
<path d="M318.51 217.13H222.57V266.12H318.51V217.13Z" stroke="#263238" stroke-miterlimit="10"/>
<path d="M281.08 240.06L260.57 230.37V249.76L281.08 240.06Z" fill="white" stroke="#263238" stroke-miterlimit="10"/>
<path d="M428.23 217.13H332.29V266.12H428.23V217.13Z" stroke="#263238" stroke-miterlimit="10"/>
<path d="M390.8 240.06L370.29 230.37V249.76L390.8 240.06Z" fill="white" stroke="#263238" stroke-miterlimit="10"/>
<path d="M426.46 197.26H112.91V205.22H426.46V197.26Z" stroke="#263238" stroke-miterlimit="10"/>
<path d="M171.7 197.26H112.91V205.22H171.7V197.26Z" fill="#2928E8" stroke="#263238" stroke-miterlimit="10"/>
<path d="M105.561 192.97L195.991 137.75L292.961 191.14L365.831 131.12L427.691 184.4" stroke="#263238" stroke-miterlimit="10"/>
<path d="M156.46 161.73L172.66 157.19L184.97 165.62L199.23 156.55L210.89 162.38L218.67 156.55L230.84 156.97" stroke="#263238" stroke-miterlimit="10"/>
<path d="M337.9 154.6L354.1 161.73L363.82 151.36L374.19 159.79L385.85 148.77" stroke="#263238" stroke-miterlimit="10"/>
<path d="M135.3 129.28H197.48C197.48 129.28 197.48 125.51 195.6 124.1C195.211 123.84 194.772 123.663 194.31 123.58C192.56 123.231 190.909 122.497 189.478 121.429C188.048 120.362 186.873 118.989 186.04 117.41C185.532 116.319 184.763 115.37 183.8 114.648C182.837 113.925 181.71 113.452 180.52 113.27C172.98 111.85 173.93 118.45 169.69 118.92C165.45 119.39 162.62 110.92 155.55 110.92C148.48 110.92 146.13 122.23 146.13 122.23C146.13 122.23 141.42 117.04 137.18 122.7C132.94 128.36 135.3 129.28 135.3 129.28Z" fill="white" stroke="#263238" stroke-miterlimit="10"/>
<path d="M268 129.28H297C297 129.28 297 127.52 296.12 126.86C295.937 126.743 295.733 126.662 295.52 126.62C294.703 126.457 293.932 126.114 293.265 125.616C292.597 125.118 292.049 124.477 291.66 123.74C291.422 123.231 291.062 122.789 290.612 122.452C290.162 122.116 289.636 121.895 289.08 121.81C285.57 121.15 286.01 124.23 284.03 124.45C282.05 124.67 280.73 120.71 277.43 120.71C274.13 120.71 273.04 125.98 273.04 125.98C273.04 125.98 270.84 123.57 268.86 126.2C266.88 128.83 268 129.28 268 129.28Z" fill="white" stroke="#263238" stroke-miterlimit="10"/>
<path d="M112.43 129.28H141.43C141.43 129.28 141.43 127.52 140.55 126.86C140.366 126.743 140.163 126.662 139.95 126.62C139.132 126.459 138.361 126.116 137.693 125.618C137.025 125.12 136.477 124.478 136.09 123.74C135.851 123.231 135.491 122.789 135.041 122.452C134.591 122.116 134.065 121.895 133.51 121.81C130 121.15 130.44 124.23 128.46 124.45C126.48 124.67 125.16 120.71 121.86 120.71C118.56 120.71 117.46 125.98 117.46 125.98C117.46 125.98 115.27 123.57 113.29 126.2C111.31 128.83 112.43 129.28 112.43 129.28Z" fill="white" stroke="#263238" stroke-miterlimit="10"/>
<path d="M347.68 149.76C347.68 166.52 343.11 180.11 337.47 180.11C331.83 180.11 327.25 166.52 327.25 149.76C327.25 133 331.83 103 337.47 103C343.11 103 347.68 133 347.68 149.76Z" fill="#2928E8" stroke="#263238" stroke-miterlimit="10"/>
<path d="M335.83 196.65L337.05 123.77L339.5 197.26L335.83 196.65Z" fill="#263238"/>
<path d="M251.07 162C251.07 174.46 247.67 184.56 243.48 184.56C239.29 184.56 235.88 174.46 235.88 162C235.88 149.54 239.28 127.2 243.48 127.2C247.68 127.2 251.07 149.48 251.07 162Z" fill="#2928E8" stroke="#263238" stroke-miterlimit="10"/>
<path d="M242.26 196.81L243.17 142.63L244.99 197.26L242.26 196.81Z" fill="#263238"/>
<path d="M417.61 162C417.61 174.46 414.21 184.56 410.01 184.56C405.81 184.56 402.42 174.46 402.42 162C402.42 149.54 405.82 127.2 410.01 127.2C414.2 127.2 417.61 149.48 417.61 162Z" fill="#2928E8" stroke="#263238" stroke-miterlimit="10"/>
<path d="M408.8 196.81L409.71 142.63L411.53 197.26L408.8 196.81Z" fill="#263238"/>
<g opacity="0.3">
<path d="M272.27 50.6995V28.3395C272.27 27.3927 272.646 26.4847 273.315 25.8152C273.985 25.1457 274.893 24.7695 275.84 24.7695H295.22C296.166 24.7695 297.074 25.1457 297.744 25.8152C298.413 26.4847 298.79 27.3927 298.79 28.3395V73.6495C298.791 74.1192 298.699 74.5845 298.521 75.0188C298.342 75.4531 298.079 75.8478 297.747 76.1804C297.416 76.5129 297.022 76.7768 296.588 76.9568C296.154 77.1369 295.689 77.2295 295.22 77.2295H275.84" stroke="black" stroke-miterlimit="10"/>
<path d="M274.64 50.6995V30.4395H296.4V71.5695H279.42" stroke="black" stroke-miterlimit="10"/>
<path d="M276.85 50.6992H229.53C228.111 50.6992 226.96 51.8498 226.96 53.2692V74.6592C226.96 76.0786 228.111 77.2292 229.53 77.2292H276.85C278.269 77.2292 279.42 76.0786 279.42 74.6592V53.2692C279.42 51.8498 278.269 50.6992 276.85 50.6992Z" stroke="black" stroke-miterlimit="10"/>
<path d="M273.75 53.0898H232.62V74.8498H273.75V53.0898Z" stroke="black" stroke-miterlimit="10"/>
<path d="M268.55 30.7891C265.343 31.5977 262.439 33.3181 260.188 35.7423C257.938 38.1665 256.438 41.1906 255.87 44.4491" stroke="black" stroke-miterlimit="10" stroke-linecap="round"/>
<path d="M255.999 48.0795L258.769 43.2795H253.229L255.999 48.0795Z" fill="black" stroke="black" stroke-miterlimit="10"/>
</g>
<path d="M29 455.1H478" stroke="#263238" stroke-miterlimit="10"/>
<path d="M315.89 298.19H232.46C226.015 298.19 220.79 303.415 220.79 309.86V387.67C220.79 394.116 226.015 399.34 232.46 399.34H315.89C322.335 399.34 327.56 394.116 327.56 387.67V309.86C327.56 303.415 322.335 298.19 315.89 298.19Z" fill="white" stroke="#B2B2B2" stroke-miterlimit="10"/>
<path d="M209.13 298.19H125.7C119.255 298.19 114.03 303.415 114.03 309.86V387.67C114.03 394.116 119.255 399.34 125.7 399.34H209.13C215.575 399.34 220.8 394.116 220.8 387.67V309.86C220.8 303.415 215.575 298.19 209.13 298.19Z" fill="white" stroke="#B2B2B2" stroke-miterlimit="10"/>
<path d="M174.639 342.47C174.639 342.47 135.479 353.27 128.719 356.65C121.959 360.03 116.569 362.73 119.269 364.75C121.969 366.77 136.829 382.31 148.979 387.75C161.129 393.19 181.389 387.75 200.979 389.1C220.569 390.45 230.679 387.75 230.679 385.72C230.679 383.69 222.579 367.49 209.749 358.04C201.034 351.811 191.769 346.389 182.069 341.84C182.069 341.84 175.999 337.07 174.639 342.47Z" fill="white" stroke="#B2B2B2" stroke-miterlimit="10"/>
<path d="M117.209 341.79L123.149 386.75H115.199L117.209 341.79Z" fill="#B2B2B2" stroke="#B2B2B2" stroke-miterlimit="10"/>
<path d="M422.66 298.19H339.23C332.784 298.19 327.56 303.415 327.56 309.86V387.67C327.56 394.116 332.784 399.34 339.23 399.34H422.66C429.105 399.34 434.33 394.116 434.33 387.67V309.86C434.33 303.415 429.105 298.19 422.66 298.19Z" fill="white" stroke="#B2B2B2" stroke-miterlimit="10"/>
<path d="M432.39 338.11C432.39 338.11 414.84 335.11 405.82 333.11C396.8 331.11 379.76 330.11 379.76 330.11C379.76 330.11 376.25 331.11 376.76 333.11C377.102 335.092 377.269 337.1 377.26 339.11C377.26 339.11 372.75 355.11 368.26 365.17C363.77 375.23 360.26 382.17 360.26 382.17C360.26 382.17 353.75 384.68 357.76 386.68C361.77 388.68 372.29 388.68 372.29 388.68H435.44L436.44 345.07L432.39 338.11Z" fill="white" stroke="#B2B2B2" stroke-miterlimit="10"/>
<path d="M111.62 462.91H437.42V396.15H114.59L111.62 462.91Z" fill="white" stroke="#B2B2B2" stroke-miterlimit="10"/>
<path d="M109.58 408.001C109.58 408.001 192.42 407.001 222.5 407.001C252.58 407.001 308.29 408.271 322.1 408.271C335.91 408.271 432.1 408.891 432.1 408.891L432.27 403.251L107.66 400.971L109.58 408.001Z" fill="#B2B2B2" stroke="#B2B2B2" stroke-miterlimit="10"/>
<path d="M108.49 404.91C108.49 404.91 340.81 406.91 355.02 406.91C369.23 406.91 431.64 405.84 431.64 405.84V387.12C431.64 387.12 270.37 389 264.2 389C258.03 389 128.88 385 123.94 384.62C119 384.24 108.49 384.62 108.49 384.62V404.91Z" fill="white" stroke="#B2B2B2" stroke-miterlimit="10"/>
<path d="M453.519 337.61H437.649C433.783 337.61 430.649 340.744 430.649 344.61V457.1C430.649 460.966 433.783 464.1 437.649 464.1H453.519C457.385 464.1 460.519 460.966 460.519 457.1V344.61C460.519 340.744 457.385 337.61 453.519 337.61Z" fill="white" stroke="#B2B2B2" stroke-miterlimit="10"/>
<path d="M110.21 337.61H94.3398C90.4739 337.61 87.3398 340.744 87.3398 344.61V457.1C87.3398 460.966 90.4739 464.1 94.3398 464.1H110.21C114.076 464.1 117.21 460.966 117.21 457.1V344.61C117.21 340.744 114.076 337.61 110.21 337.61Z" fill="white" stroke="#B2B2B2" stroke-miterlimit="10"/>
<path d="M39.8799 313.2L51.4299 423.85" stroke="#B2B2B2" stroke-linecap="round" stroke-linejoin="round"/>
<path d="M49.1501 402.22L44.3301 397.15" stroke="#B2B2B2" stroke-linecap="round" stroke-linejoin="round"/>
<path d="M45.9201 398.8C45.9094 397.955 45.7183 397.121 45.3596 396.355C45.0009 395.59 44.4828 394.909 43.8401 394.36C42.4901 393.16 35.4201 390.19 34.7501 392.68C34.0001 395.39 41.2601 400.71 45.9201 398.8Z" fill="white" stroke="#B2B2B2" stroke-miterlimit="10"/>
<path d="M45.9195 398.8L39.1895 394.61" stroke="#B2B2B2" stroke-linecap="round" stroke-linejoin="round"/>
<path d="M50.3506 413.64L45.6406 409.73" stroke="#B2B2B2" stroke-linecap="round" stroke-linejoin="round"/>
<path d="M47.23 411.39C47.2135 410.553 47.0196 409.729 46.661 408.972C46.3025 408.215 45.7875 407.543 45.15 407C43.81 405.8 36.73 402.82 36.06 405.31C35.33 408 42.57 413.29 47.23 411.39Z" fill="white" stroke="#B2B2B2" stroke-miterlimit="10"/>
<path d="M47.23 411.39L40.5 407.19" stroke="#B2B2B2" stroke-linecap="round" stroke-linejoin="round"/>
<path d="M45.8801 370.72L41.1201 366.44" stroke="#B2B2B2" stroke-linecap="round" stroke-linejoin="round"/>
<path d="M42.7203 368.1C42.7103 367.253 42.5185 366.419 42.1579 365.653C41.7973 364.887 41.2764 364.207 40.6303 363.66C39.2903 362.46 32.2203 359.48 31.5503 361.97C30.8203 364.68 38.0503 370 42.7203 368.1Z" fill="white" stroke="#B2B2B2" stroke-miterlimit="10"/>
<path d="M42.7205 368.1L35.9805 363.9" stroke="#B2B2B2" stroke-linecap="round" stroke-linejoin="round"/>
<path d="M47.1995 384.1L42.4395 379.02" stroke="#B2B2B2" stroke-linecap="round" stroke-linejoin="round"/>
<path d="M43.9997 380.68C44.0003 379.841 43.8222 379.011 43.4774 378.245C43.1326 377.48 42.6289 376.796 41.9997 376.24C40.6497 375.04 33.5797 372.06 32.9097 374.56C32.1297 377.26 39.3697 382.58 43.9997 380.68Z" fill="white" stroke="#B2B2B2" stroke-miterlimit="10"/>
<path d="M44.0298 380.68L37.2998 376.49" stroke="#B2B2B2" stroke-linecap="round" stroke-linejoin="round"/>
<path d="M43.7602 350.86L38.9902 346" stroke="#B2B2B2" stroke-linecap="round" stroke-linejoin="round"/>
<path d="M40.5806 347.65C40.5699 346.804 40.3788 345.971 40.0201 345.205C39.6614 344.439 39.1433 343.759 38.5006 343.21C37.1506 342.01 30.0806 339.04 29.4106 341.53C28.6806 344.24 35.9206 349.56 40.5806 347.65Z" fill="white" stroke="#B2B2B2" stroke-miterlimit="10"/>
<path d="M40.5796 347.65L33.8496 343.46" stroke="#B2B2B2" stroke-linecap="round" stroke-linejoin="round"/>
<path d="M41.4596 329L36.8496 325.47" stroke="#B2B2B2" stroke-linecap="round" stroke-linejoin="round"/>
<path d="M38.44 327.12C38.4292 326.275 38.2381 325.441 37.8794 324.676C37.5207 323.91 37.0027 323.23 36.36 322.68C35.01 321.48 27.94 318.51 27.27 321C26.54 323.71 33.78 329 38.44 327.12Z" fill="white" stroke="#B2B2B2" stroke-miterlimit="10"/>
<path d="M38.44 327.12L31.71 322.93" stroke="#B2B2B2" stroke-linecap="round" stroke-linejoin="round"/>
<path d="M48.6797 395.23L52.6697 388.74" stroke="#B2B2B2" stroke-linecap="round" stroke-linejoin="round"/>
<path d="M51.4493 390.69C51.2884 389.859 51.305 389.004 51.4981 388.18C51.6911 387.356 52.0562 386.582 52.5693 385.91C53.6393 384.46 59.9393 380.09 61.1193 382.39C62.3893 384.89 56.4093 391.59 51.4493 390.69Z" fill="white" stroke="#B2B2B2" stroke-miterlimit="10"/>
<path d="M51.4502 390.69L56.1902 386.24" stroke="#B2B2B2" stroke-linecap="round" stroke-linejoin="round"/>
<path d="M45.2295 362.12L49.2095 355.62" stroke="#B2B2B2" stroke-linecap="round" stroke-linejoin="round"/>
<path d="M47.9997 357.57C47.8358 356.74 47.8519 355.885 48.0469 355.062C48.2418 354.239 48.6111 353.468 49.1297 352.8C50.1897 351.35 55.1297 347.71 56.2997 350.01C57.5597 352.51 52.9997 358.47 47.9997 357.57Z" fill="white" stroke="#B2B2B2" stroke-miterlimit="10"/>
<path d="M47.9902 357.57L54.0602 351.78" stroke="#B2B2B2" stroke-linecap="round" stroke-linejoin="round"/>
<path d="M43.71 347.56L47.69 341.07" stroke="#B2B2B2" stroke-linecap="round" stroke-linejoin="round"/>
<path d="M46.4804 343C46.3132 342.171 46.3267 341.316 46.5199 340.493C46.7132 339.67 47.0818 338.898 47.6004 338.23C48.6604 336.77 54.9704 332.4 56.1404 334.7C57.4104 337.22 51.4304 343.92 46.4804 343Z" fill="white" stroke="#B2B2B2" stroke-miterlimit="10"/>
<path d="M46.4805 343.02L52.5405 337.23" stroke="#B2B2B2" stroke-linecap="round" stroke-linejoin="round"/>
<path d="M41.4795 326.23L45.4595 319.74" stroke="#B2B2B2" stroke-linecap="round" stroke-linejoin="round"/>
<path d="M44.2501 321.69C44.0892 320.859 44.1058 320.004 44.2988 319.18C44.4919 318.356 44.8569 317.582 45.3701 316.91C46.4401 315.46 52.7401 311.09 53.9101 313.39C55.1901 315.89 49.2001 322.59 44.2501 321.69Z" fill="white" stroke="#B2B2B2" stroke-miterlimit="10"/>
<path d="M44.25 321.69L50.31 315.89" stroke="#B2B2B2" stroke-linecap="round" stroke-linejoin="round"/>
<path d="M39.7804 312.59C39.6195 311.759 39.6361 310.904 39.8291 310.08C40.0221 309.256 40.3872 308.483 40.9004 307.81C41.9704 306.36 48.2704 301.99 49.4504 304.29C50.7204 306.79 44.7404 313.49 39.7804 312.59Z" fill="white" stroke="#B2B2B2" stroke-miterlimit="10"/>
<path d="M39.7803 312.59L45.8403 306.79" stroke="#B2B2B2" stroke-linecap="round" stroke-linejoin="round"/>
<path d="M40.1296 312.84C39.2869 312.916 38.4376 312.811 37.6389 312.532C36.8402 312.252 36.1107 311.805 35.4996 311.22C34.1696 310.01 30.4996 303.28 32.8896 302.36C35.5096 301.35 41.5496 308 40.1296 312.84Z" fill="white" stroke="#B2B2B2" stroke-miterlimit="10"/>
<path d="M40.1298 312.84L35.0098 306.2" stroke="#B2B2B2" stroke-linecap="round" stroke-linejoin="round"/>
<path d="M57.1797 283.38V423.31" stroke="#B2B2B2" stroke-linecap="round" stroke-linejoin="round"/>
<path d="M70.3396 328.44L58.8496 439.1" stroke="#B2B2B2" stroke-linecap="round" stroke-linejoin="round"/>
<path d="M61.2801 416.49L58.6201 413.45" stroke="#B2B2B2" stroke-linecap="round" stroke-linejoin="round"/>
<path d="M58.62 413.45C58.7839 412.621 58.7688 411.767 58.5757 410.944C58.3825 410.122 58.0158 409.35 57.5 408.68C56.43 407.23 50.12 402.86 48.95 405.16C47.68 407.66 53.67 414.36 58.62 413.45Z" fill="white" stroke="#B2B2B2" stroke-miterlimit="10"/>
<path d="M58.6204 413.45L52.9004 407.96" stroke="#B2B2B2" stroke-linecap="round" stroke-linejoin="round"/>
<path d="M64.5201 384.9L60.5801 381.6" stroke="#B2B2B2" stroke-linecap="round" stroke-linejoin="round"/>
<path d="M61.8097 382.74C61.9691 381.915 61.9508 381.065 61.7559 380.248C61.5611 379.43 61.1942 378.664 60.6797 378C59.6197 376.55 53.3097 372.18 52.1397 374.48C50.8697 377 56.8497 383.65 61.8097 382.74Z" fill="white" stroke="#B2B2B2" stroke-miterlimit="10"/>
<path d="M61.8101 382.74L56.0801 377.25" stroke="#B2B2B2" stroke-linecap="round" stroke-linejoin="round"/>
<path d="M63.27 399.87L59.29 393.38" stroke="#B2B2B2" stroke-linecap="round" stroke-linejoin="round"/>
<path d="M60.4999 395.33C60.6608 394.5 60.6442 393.644 60.4511 392.821C60.2581 391.997 59.893 391.223 59.3799 390.55C58.3099 389.1 51.9999 384.73 50.8299 387.03C49.5599 389.53 55.5499 396.23 60.4999 395.33Z" fill="white" stroke="#B2B2B2" stroke-miterlimit="10"/>
<path d="M60.5003 395.33L54.7803 389.84" stroke="#B2B2B2" stroke-linecap="round" stroke-linejoin="round"/>
<path d="M66.52 364.73L62.71 360.35" stroke="#B2B2B2" stroke-linecap="round" stroke-linejoin="round"/>
<path d="M63.9297 362.3C64.0937 361.471 64.0786 360.617 63.8854 359.794C63.6923 358.971 63.3255 358.199 62.8098 357.53C61.7398 356.07 55.4297 351.71 54.2597 354.01C52.9997 356.51 58.9997 363.2 63.9297 362.3Z" fill="white" stroke="#B2B2B2" stroke-miterlimit="10"/>
<path d="M63.93 362.3L58.21 356.81" stroke="#B2B2B2" stroke-linecap="round" stroke-linejoin="round"/>
<path d="M68.5196 345.52L64.8496 339.82" stroke="#B2B2B2" stroke-linecap="round" stroke-linejoin="round"/>
<path d="M66.0594 341.77C66.2189 340.94 66.2015 340.087 66.0085 339.265C65.8155 338.443 65.4512 337.671 64.9394 337C63.8694 335.55 57.5594 331.18 56.3894 333.48C55.1194 336 61.1094 342.67 66.0594 341.77Z" fill="white" stroke="#B2B2B2" stroke-miterlimit="10"/>
<path d="M66.0598 341.77L60.3398 336.28" stroke="#B2B2B2" stroke-linecap="round" stroke-linejoin="round"/>
<path d="M62.0596 410.52L67.2996 404.99" stroke="#B2B2B2" stroke-linecap="round" stroke-linejoin="round"/>
<path d="M65.71 406.65C65.7168 405.804 65.9061 404.969 66.2651 404.203C66.6241 403.437 67.1442 402.757 67.79 402.21C69.13 401.01 76.2 398.03 76.87 400.52C77.6 403.23 70.37 408.55 65.71 406.65Z" fill="white" stroke="#B2B2B2" stroke-miterlimit="10"/>
<path d="M65.71 406.65L72.83 402.23" stroke="#B2B2B2" stroke-linecap="round" stroke-linejoin="round"/>
<path d="M65.5 377.41L70.73 371.88" stroke="#B2B2B2" stroke-linecap="round" stroke-linejoin="round"/>
<path d="M69.1406 373.53C69.1513 372.684 69.3424 371.851 69.7011 371.085C70.0598 370.319 70.5779 369.639 71.2206 369.09C72.5706 367.89 79.6406 364.91 80.3106 367.4C81.0006 370.11 73.8006 375.43 69.1406 373.53Z" fill="white" stroke="#B2B2B2" stroke-miterlimit="10"/>
<path d="M69.1406 373.53L76.2706 369.11" stroke="#B2B2B2" stroke-linecap="round" stroke-linejoin="round"/>
<path d="M67.0098 362.85L72.2398 357.32" stroke="#B2B2B2" stroke-linecap="round" stroke-linejoin="round"/>
<path d="M70.6504 359C70.6598 358.155 70.8503 357.321 71.2091 356.555C71.5679 355.789 72.0867 355.109 72.7304 354.56C74.0804 353.36 81.1504 350.38 81.8204 352.87C82.5504 355.56 75.3104 360.88 70.6504 359Z" fill="white" stroke="#B2B2B2" stroke-miterlimit="10"/>
<path d="M70.6504 358.98L77.7804 354.56" stroke="#B2B2B2" stroke-linecap="round" stroke-linejoin="round"/>
<path d="M69.1602 340.43L74.4602 335.99" stroke="#B2B2B2" stroke-linecap="round" stroke-linejoin="round"/>
<path d="M72.8701 337.64C72.8837 336.79 73.0812 335.953 73.4488 335.187C73.8165 334.42 74.3457 333.743 75.0001 333.2C76.3401 332 83.4101 329.02 84.0801 331.51C84.7601 334.22 77.5301 339.55 72.8701 337.64Z" fill="white" stroke="#B2B2B2" stroke-miterlimit="10"/>
<path d="M72.8701 337.64L79.9901 333.22" stroke="#B2B2B2" stroke-miterlimit="10"/>
<path d="M70.3701 327.82C70.3795 326.974 70.5701 326.14 70.9288 325.374C71.2876 324.608 71.8064 323.928 72.4501 323.38C73.7901 322.18 80.8601 319.2 81.5301 321.69C82.2601 324.4 75.0001 329.72 70.3701 327.82Z" fill="white" stroke="#B2B2B2" stroke-miterlimit="10"/>
<path d="M70.3701 327.82L77.4901 323.4" stroke="#B2B2B2" stroke-linecap="round" stroke-linejoin="round"/>
<path d="M70.6598 328.14C69.8192 328.04 69.0095 327.762 68.2852 327.324C67.5608 326.886 66.9384 326.298 66.4598 325.6C65.4598 324.14 63.1798 316.8 65.7298 316.39C68.4998 316 72.9998 323.7 70.6598 328.14Z" fill="white" stroke="#B2B2B2" stroke-miterlimit="10"/>
<path d="M70.6598 328.14L67.0098 320.59" stroke="#B2B2B2" stroke-linecap="round" stroke-linejoin="round"/>
<path d="M56.9902 402.02L52.6602 396.23" stroke="#B2B2B2" stroke-linecap="round" stroke-linejoin="round"/>
<path d="M54.0701 398C54.146 397.158 54.0407 396.308 53.7613 395.51C53.4818 394.711 53.0348 393.982 52.4501 393.37C51.2401 392.04 44.5201 388.37 43.5901 390.75C42.5801 393.41 49.2301 399.45 54.0701 398Z" fill="white" stroke="#B2B2B2" stroke-miterlimit="10"/>
<path d="M54.0698 398.04L47.7998 393.17" stroke="#B2B2B2" stroke-linecap="round" stroke-linejoin="round"/>
<path d="M57.1402 374.11L52.6602 369.93" stroke="#B2B2B2" stroke-linecap="round" stroke-linejoin="round"/>
<path d="M54.0701 371.75C54.1468 370.906 54.0419 370.055 53.7625 369.255C53.483 368.454 53.0356 367.723 52.4501 367.11C51.2401 365.78 44.5201 362.11 43.5901 364.5C42.5801 367.11 49.2301 373.16 54.0701 371.75Z" fill="white" stroke="#B2B2B2" stroke-miterlimit="10"/>
<path d="M54.0698 371.75L47.7998 366.87" stroke="#B2B2B2" stroke-linecap="round" stroke-linejoin="round"/>
<path d="M57.2902 345.1L52.6602 339.06" stroke="#B2B2B2" stroke-linecap="round" stroke-linejoin="round"/>
<path d="M54.0701 340.87C54.146 340.028 54.0407 339.179 53.7613 338.38C53.4818 337.581 53.0348 336.852 52.4501 336.24C51.2401 334.91 44.5201 331.24 43.5901 333.62C42.5801 336.24 49.2301 342.28 54.0701 340.87Z" fill="white" stroke="#B2B2B2" stroke-miterlimit="10"/>
<path d="M54.0698 340.87L47.7998 336" stroke="#B2B2B2" stroke-linecap="round" stroke-linejoin="round"/>
<path d="M56.9902 322.41L52.6602 318.51" stroke="#B2B2B2" stroke-linecap="round" stroke-linejoin="round"/>
<path d="M54.0701 320.32C54.1466 319.477 54.0416 318.628 53.7622 317.829C53.4827 317.031 53.0353 316.301 52.4501 315.69C51.2401 314.35 44.5201 310.69 43.5901 313.07C42.5801 315.69 49.2301 321.73 54.0701 320.32Z" fill="white" stroke="#B2B2B2" stroke-miterlimit="10"/>
<path d="M54.0698 320.32L47.7998 315.45" stroke="#B2B2B2" stroke-linecap="round" stroke-linejoin="round"/>
<path d="M57.2402 301.85L52.7402 298.55" stroke="#B2B2B2" stroke-linecap="round" stroke-linejoin="round"/>
<path d="M54.0701 299.68C54.1526 298.829 54.0507 297.97 53.7711 297.163C53.4915 296.355 53.0409 295.617 52.4501 295C51.2401 293.67 44.5201 290 43.5901 292.39C42.5801 295 49.2301 301.09 54.0701 299.68Z" fill="white" stroke="#B2B2B2" stroke-miterlimit="10"/>
<path d="M54.0698 299.68L47.7998 294.81" stroke="#B2B2B2" stroke-linecap="round" stroke-linejoin="round"/>
<path d="M58.0801 409L61.8201 404.26" stroke="#B2B2B2" stroke-linecap="round" stroke-linejoin="round"/>
<path d="M60.41 406.07C60.3308 405.229 60.4317 404.382 60.7058 403.583C60.98 402.785 61.4212 402.054 62 401.44C63.21 400.11 69.94 396.44 70.86 398.82C71.89 401.44 65.24 407.48 60.41 406.07Z" fill="white" stroke="#B2B2B2" stroke-miterlimit="10"/>
<path d="M60.4102 406.07L67.0402 400.94" stroke="#B2B2B2" stroke-linecap="round" stroke-linejoin="round"/>
<path d="M57.1895 368.48L61.8195 362.44" stroke="#B2B2B2" stroke-linecap="round" stroke-linejoin="round"/>
<path d="M60.4094 364.25C60.3296 363.409 60.4301 362.561 60.7043 361.763C60.9785 360.964 61.42 360.234 61.9994 359.62C63.2094 358.28 69.9394 354.62 70.8594 357C71.8894 359.62 65.2394 365.66 60.4094 364.25Z" fill="white" stroke="#B2B2B2" stroke-miterlimit="10"/>
<path d="M60.4102 364.25L67.0402 359.12" stroke="#B2B2B2" stroke-linecap="round" stroke-linejoin="round"/>
<path d="M57.1904 347.84L61.8204 341.79" stroke="#B2B2B2" stroke-linecap="round" stroke-linejoin="round"/>
<path d="M60.4101 343.61C60.3376 342.773 60.4417 341.93 60.7156 341.136C60.9895 340.342 61.4271 339.614 62.0001 339C63.2101 337.67 69.9401 334 70.8601 336.39C71.8901 339 65.2401 345 60.4101 343.61Z" fill="white" stroke="#B2B2B2" stroke-miterlimit="10"/>
<path d="M60.4102 343.61L67.0402 338.47" stroke="#B2B2B2" stroke-linecap="round" stroke-linejoin="round"/>
<path d="M57.1895 320.55L61.8195 314.51" stroke="#B2B2B2" stroke-linecap="round" stroke-linejoin="round"/>
<path d="M60.41 316.32C60.3308 315.479 60.4317 314.632 60.7058 313.833C60.98 313.035 61.4212 312.304 62 311.69C63.21 310.36 69.94 306.69 70.86 309.07C71.89 311.69 65.24 317.73 60.41 316.32Z" fill="white" stroke="#B2B2B2" stroke-miterlimit="10"/>
<path d="M60.4102 316.32L67.0402 311.19" stroke="#B2B2B2" stroke-linecap="round" stroke-linejoin="round"/>
<path d="M57.3896 297.01L61.9296 293.46" stroke="#B2B2B2" stroke-linecap="round" stroke-linejoin="round"/>
<path d="M60.41 294.87C60.3308 294.03 60.4317 293.182 60.7058 292.384C60.98 291.586 61.4212 290.855 62 290.24C63.21 288.91 69.94 285.24 70.86 287.62C71.89 290.24 65.24 296.28 60.41 294.87Z" fill="white" stroke="#B2B2B2" stroke-miterlimit="10"/>
<path d="M60.4102 294.87L67.0402 289.74" stroke="#B2B2B2" stroke-linecap="round" stroke-linejoin="round"/>
<path d="M56.9095 285.36C56.8323 284.518 56.9361 283.669 57.2137 282.871C57.4914 282.072 57.9366 281.342 58.5195 280.73C59.7295 279.39 66.4595 275.73 67.3795 278.11C68.3895 280.73 61.7395 286.77 56.9095 285.36Z" fill="white" stroke="#B2B2B2" stroke-miterlimit="10"/>
<path d="M56.9102 285.36L63.5402 280.23" stroke="#B2B2B2" stroke-linecap="round" stroke-linejoin="round"/>
<path d="M57.2304 285.64C56.3849 285.629 55.5515 285.438 54.7858 285.08C54.0201 284.721 53.3398 284.203 52.7904 283.56C51.5904 282.21 48.6304 275.14 51.1204 274.47C53.8304 273.74 59.1404 281 57.2304 285.64Z" fill="white" stroke="#B2B2B2" stroke-miterlimit="10"/>
<path d="M57.2303 285.64L52.8203 278.51" stroke="#B2B2B2" stroke-linecap="round" stroke-linejoin="round"/>
<path d="M62.9298 459.61H48.1098L46.2598 422.18H64.7898L62.9298 459.61Z" fill="#B2B2B2" stroke="#B2B2B2" stroke-miterlimit="10"/>
<path d="M262.96 487.85C304.293 487.85 337.8 481.179 337.8 472.95C337.8 464.721 304.293 458.05 262.96 458.05C221.627 458.05 188.12 464.721 188.12 472.95C188.12 481.179 221.627 487.85 262.96 487.85Z" fill="#263238" stroke="#263238" stroke-miterlimit="10"/>
<path d="M218.411 458.27C218.411 458.27 215.741 460.94 219.251 465.85C222.761 470.76 232.001 472 235.941 471.18C239.881 470.36 242.401 469.08 247.031 469.78C251.661 470.48 252.221 470.48 252.221 470.48C252.221 470.48 237.351 463.61 229.351 460.1C221.351 456.59 218.551 457.85 218.411 458.27Z" fill="white" stroke="#263238" stroke-miterlimit="10"/>
<path d="M243 430.05C243 430.05 221.3 421.05 210.68 418.3C200.06 415.55 189.2 415.58 188.07 422.59C186.94 429.6 186.26 432.09 189.2 435.93C192.14 439.77 236.44 461 255 464.64C273.56 468.28 278.88 473.11 295.38 473.79C311.88 474.47 325.75 470.74 328.47 462.38C331.19 454.02 333.47 447.46 331.18 442.26C330.073 439.528 328.629 436.944 326.88 434.57C326.88 434.57 311.29 423.27 295.01 424.17C278.73 425.07 262.69 430.28 255.23 430.73C251.142 431.05 247.029 430.821 243 430.05Z" fill="#2928E8" stroke="#263238" stroke-miterlimit="10"/>
<path d="M253.19 439.55L264.88 450.41" stroke="#263238" stroke-miterlimit="10"/>
<path d="M219.94 362.46C219.94 362.46 216.33 364.27 215.87 365.63C215.41 366.99 191 411.52 192.14 413.1C193.28 414.68 198.24 421.24 203.22 421.24C208.2 421.24 229 394.56 229 394.56C229 394.56 239.62 414.68 242.11 419.2C242.11 419.2 238.94 421.91 239.62 423.27C241.484 427.817 244.606 431.737 248.62 434.57C254.72 438.64 260.83 441.57 269.62 440C278.41 438.43 283.41 435.48 290.62 430.73C297.83 425.98 314.8 429.6 319.32 435.48C323.84 441.36 328.14 440.22 329.32 438.64C330.5 437.06 332.03 432.76 329.32 427.79C326.61 422.82 313.72 395.69 309.65 381.45C305.58 367.21 298.13 353.65 292.02 352.07C285.91 350.49 283.66 350.48 283.66 350.48L252.39 347.42L219.94 362.46Z" fill="white" stroke="#263238" stroke-miterlimit="10"/>
<path d="M250.87 382.89C251.87 389.01 253.59 397.49 255.53 402.43C258.79 410.77 260.24 415.49 260.24 415.49L257.7 422.74L262.78 431.08" stroke="#263238" stroke-miterlimit="10"/>
<path d="M249.721 375.59C249.721 375.59 249.941 377.19 250.331 379.65" stroke="#263238" stroke-miterlimit="10"/>
<path d="M228.99 394.56L219.48 377.93" stroke="#263238" stroke-miterlimit="10"/>
<path d="M218.7 382.21L217.29 380.78" stroke="#263238" stroke-miterlimit="10"/>
<path d="M226.7 390.4L220.43 383.98" stroke="#263238" stroke-miterlimit="10"/>
<path d="M197.831 403.09C197.831 403.09 198.261 401.78 205.261 403.09C212.261 404.4 214.451 410.53 214.011 412.93C213.571 415.33 208.331 420.81 206.141 421.68C203.951 422.55 201.981 420.59 198.261 417.96C194.541 415.33 190.171 410.53 191.481 407.68C192.791 404.83 197.831 403.09 197.831 403.09Z" fill="white" stroke="#263238" stroke-miterlimit="10"/>
<path d="M237.57 357C237.57 357 237.12 364 237.57 366.94C237.902 368.926 238.356 370.89 238.93 372.82L245.26 367.4L250.69 364.23L263.8 370.34C263.8 370.34 263.8 361.07 263.57 351.34C263.34 341.61 259.95 342.34 258.37 341.84C256.79 341.34 237.57 357 237.57 357Z" fill="white" stroke="#263238" stroke-miterlimit="10"/>
<path d="M240.74 359.75C240.74 359.75 247.07 374.22 249.33 373.09C251.59 371.96 259.05 357.94 259.5 350.94C259.95 343.94 258.37 341.89 258.37 341.89C258.37 341.89 247.97 355.68 246.37 357.49C244.77 359.3 240.74 359.75 240.74 359.75Z" fill="white" stroke="#263238" stroke-miterlimit="10"/>
<path d="M257.58 343.7L256.69 344.11C253.69 348.11 247.57 356.11 246.39 357.49C244.81 359.3 240.74 359.75 240.74 359.75C242.198 363.053 243.833 366.274 245.64 369.4C249.63 361.34 257.58 343.7 257.58 343.7Z" fill="#263238" stroke="#263238" stroke-miterlimit="10"/>
<path d="M219.42 318.17C219.42 318.17 216.76 324.22 217.49 326.64C218.22 329.06 222.81 330.99 222.81 330.99L221.81 317.69C221.81 317.69 220.88 316.72 219.42 318.17Z" fill="#263238" stroke="#263238" stroke-miterlimit="10"/>
<path d="M220.88 317.44C220.88 317.44 221.36 330.27 224.26 336.56C227.16 342.85 228.86 349.14 231.52 352.77C234.18 356.4 238.3 361.24 240.47 361.48C242.64 361.72 246.52 361.24 247.47 360.48C248.42 359.72 255.94 348.14 257.87 344.75C259.8 341.36 259.57 335.56 259.57 335.56C260.156 331.227 260.156 326.834 259.57 322.5C258.57 315.24 247.95 311.12 240.7 311.12C233.45 311.12 220.88 317.44 220.88 317.44Z" fill="white" stroke="#263238" stroke-miterlimit="10"/>
<path d="M237.33 330.75C237.33 330.75 239.51 329.54 245.07 330.51" stroke="#263238" stroke-miterlimit="10"/>
<path d="M230.55 331.72C230.55 331.72 226.44 331.24 224.55 332.93" stroke="#263238" stroke-miterlimit="10"/>
<path d="M232.25 332.45L233.94 336.07L234.18 347.2L239.78 346.2" stroke="#263238" stroke-miterlimit="10"/>
<path d="M236 351.66C236 351.66 243.15 351.8 245.81 350.12C248.47 348.44 248.75 346.48 248.75 346.48" stroke="#263238" stroke-miterlimit="10"/>
<path d="M242.27 334.58C242.53 335.58 242.27 336.46 241.72 336.58C241.17 336.7 240.5 336.06 240.24 335.09C239.98 334.12 240.24 333.21 240.79 333.09C241.34 332.97 242 333.61 242.27 334.58Z" fill="#263238"/>
<path d="M230.57 336C230.83 337 230.57 337.88 230.03 338C229.49 338.12 228.8 337.49 228.54 336.51C228.28 335.53 228.54 334.63 229.09 334.51C229.64 334.39 230.31 335 230.57 336Z" fill="#263238"/>
<path d="M228.62 321.07C228.62 321.07 219.18 320.59 214.62 316.96C210.06 313.33 214.86 304.86 216.07 304.62C217.28 304.38 216.31 306.32 216.31 306.32C216.31 306.32 218 303.17 223.31 301.23C228.62 299.29 226.21 304.14 226.21 304.14C230.777 300.383 236.507 298.329 242.42 298.33C252.34 298.33 256.69 301.23 259.6 305.83C262.51 310.43 261.05 319.14 260.08 324.22C259.11 329.3 253.311 330.51 252.82 329.54C252.33 328.57 251.82 324.22 250.65 323.74C249.48 323.26 245.57 323.98 245.32 322.53C245.07 321.08 246.32 316.53 244.32 315.75C242.32 314.97 233.91 318.65 232.94 320.59C231.97 322.53 228.62 321.07 228.62 321.07Z" fill="#263238" stroke="#263238" stroke-miterlimit="10"/>
<path d="M256 330.51C256 330.51 255 320.59 259.39 320.59C263.78 320.59 263.74 327.85 262.29 331.24C261.289 333.407 259.796 335.311 257.93 336.8" fill="white"/>
<path d="M256 330.51C256 330.51 255 320.59 259.39 320.59C263.78 320.59 263.74 327.85 262.29 331.24C261.289 333.407 259.796 335.311 257.93 336.8" stroke="#263238" stroke-miterlimit="10"/>
<path d="M208.19 423.72C208.19 423.72 213.39 423.5 219.04 428.02C224.69 432.54 234.64 441.13 243.9 448.36C249.889 452.89 256.6 456.376 263.75 458.67C263.75 458.67 257.01 463.51 257.01 467.35C257.159 470.477 257.614 473.582 258.37 476.62C258.37 476.62 253.62 476.39 251.59 475.26C249.56 474.13 249.33 470.74 247.52 470.51C245.71 470.28 233.52 466.22 221.07 460.57C208.62 454.92 188.3 445.62 185.55 433.7C184.72 430.09 185.82 425.7 186.39 422.85C187.22 418.67 192.39 418.3 193.5 418.3" fill="#2928E8"/>
<path d="M208.19 423.72C208.19 423.72 213.39 423.5 219.04 428.02C224.69 432.54 234.64 441.13 243.9 448.36C249.889 452.89 256.6 456.376 263.75 458.67C263.75 458.67 257.01 463.51 257.01 467.35C257.159 470.477 257.614 473.582 258.37 476.62C258.37 476.62 253.62 476.39 251.59 475.26C249.56 474.13 249.33 470.74 247.52 470.51C245.71 470.28 233.52 466.22 221.07 460.57C208.62 454.92 188.3 445.62 185.55 433.7C184.72 430.09 185.82 425.7 186.39 422.85C187.22 418.67 192.39 418.3 193.5 418.3" stroke="#263238" stroke-miterlimit="10"/>
<path d="M283.911 407.67C283.911 407.67 241.191 437.28 240.511 439.32C239.831 441.36 232.831 460.32 233.281 463.32C233.731 466.32 235.771 473.72 235.991 474.85C236.211 475.98 236.901 477.34 237.571 477.34C238.241 477.34 238.251 476.43 238.481 475.53C238.711 474.63 237.351 468.75 237.351 468.75L237.571 462.87C237.571 462.87 239.571 471.87 239.841 472.59C240.111 473.31 241.641 476.43 243.001 476.43C244.361 476.43 243.001 472.36 243.001 472.36L241.871 464C241.871 464 245.491 471.91 245.941 473.27C246.087 473.748 246.389 474.163 246.799 474.449C247.208 474.735 247.702 474.876 248.201 474.85C248.881 474.85 248.201 471.91 248.201 471.91L247.521 470.55L245.521 463.55C245.521 463.55 248.681 467.39 249.591 468.55C250.501 469.71 252.301 470.36 252.521 469.23C252.741 468.1 250.041 466.29 250.041 466.29L247.781 460.86C247.781 460.86 249.781 452.73 250.261 450.01C250.573 447.462 250.727 444.897 250.721 442.33C250.721 442.33 295.471 425.15 298.641 424.24C301.811 423.33 304.971 422.44 304.971 419.72C304.971 417 283.911 407.67 283.911 407.67Z" fill="white" stroke="#263238" stroke-miterlimit="10"/>
<path d="M280.07 375.12L286 396.37C286 396.37 282.61 397.73 283.29 398.86C283.97 399.99 286 403.86 286 403.86V405.67L307.47 416.74C307.47 416.74 309.47 421.27 310.86 419.23C312.25 417.19 315.86 414.94 315.86 410.42C315.86 405.9 305.86 374.7 305.23 371.76C304.6 368.82 300.49 360.46 298.23 357.97C297.536 357.246 296.687 356.69 295.746 356.344C294.805 355.997 293.798 355.869 292.8 355.97" fill="white"/>
<path d="M280.07 375.12L286 396.37C286 396.37 282.61 397.73 283.29 398.86C283.97 399.99 286 403.86 286 403.86V405.67L307.47 416.74C307.47 416.74 309.47 421.27 310.86 419.23C312.25 417.19 315.86 414.94 315.86 410.42C315.86 405.9 305.86 374.7 305.23 371.76C304.6 368.82 300.49 360.46 298.23 357.97C297.536 357.246 296.687 356.69 295.746 356.344C294.805 355.997 293.798 355.869 292.8 355.97" stroke="#263238" stroke-miterlimit="10"/>
<path d="M288 400.89C288 400.89 299.08 398.41 306.76 400.44" stroke="#263238" stroke-miterlimit="10"/>
<path d="M299.32 391.71C300.352 391.514 301.4 391.411 302.45 391.4" stroke="#263238" stroke-miterlimit="10"/>
<path d="M286 396.37C289.541 394.68 293.221 393.298 297 392.24" stroke="#263238" stroke-miterlimit="10"/>
<path d="M286.4 402.47C286.4 402.47 281.88 408.13 283.01 409.03C284.14 409.93 301.32 419.43 302.68 420.78C304.04 422.13 307.42 423.04 308.78 421.46C310.14 419.88 314.66 416.71 314.66 413.55C314.66 410.39 297.66 403.6 293.86 402.02C290.06 400.44 287.76 400.67 286.4 402.47Z" fill="white" stroke="#263238" stroke-miterlimit="10"/>
<path d="M202.6 388.79C202.6 388.79 202.49 389.02 202.26 389.44C199.635 394.162 196.532 398.602 193 402.69C187 409.57 188.79 415.18 191 418.88C193.21 422.58 199.29 423.22 201.58 422.71C203.87 422.2 206.81 418.71 207.45 415.82C208.09 412.93 208.6 403.2 209.11 400.82C209.62 398.44 209.74 397.37 209.74 397.37L202.6 388.79Z" fill="white" stroke="#263238" stroke-miterlimit="10"/>
<path d="M201.71 391.34V387.26C201.71 385.6 203.62 383.31 204.77 381.14C205.92 378.97 205.54 376.93 206.68 376.55C207.82 376.17 209.11 378.84 209.11 380.63C209.11 382.42 206.94 384.33 206.94 384.84C206.94 385.35 206.81 386.75 206.81 386.75C206.81 386.75 210.89 394.4 210.64 396.69C210.39 398.98 207.83 399.5 205.92 397.97C204.01 396.44 201.71 391.34 201.71 391.34Z" fill="white" stroke="#263238" stroke-miterlimit="10"/>
<path d="M201.731 386.31L207.011 399.31C207.095 399.513 207.232 399.69 207.408 399.822C207.584 399.953 207.792 400.036 208.011 400.06L233.711 402.91C233.92 402.932 234.133 402.899 234.326 402.814C234.519 402.729 234.687 402.595 234.812 402.425C234.937 402.256 235.016 402.056 235.04 401.846C235.065 401.637 235.034 401.424 234.951 401.23L229.491 388.63C229.409 388.437 229.279 388.269 229.112 388.143C228.945 388.016 228.748 387.936 228.541 387.91L203.001 384.65C202.792 384.627 202.58 384.658 202.387 384.741C202.193 384.823 202.024 384.954 201.897 385.121C201.769 385.288 201.686 385.486 201.657 385.694C201.628 385.902 201.653 386.114 201.731 386.31Z" fill="#263238" stroke="#263238" stroke-miterlimit="10"/>
<path d="M198.271 383.82C198.271 383.82 198.141 386.37 198.781 387.13C199.421 387.89 206.051 387.51 207.071 387.51C208.091 387.51 208.211 386.11 207.831 385.6C207.451 385.09 203.241 383.69 201.581 383.43C199.921 383.17 198.271 383.18 198.271 383.82Z" fill="white" stroke="#263238" stroke-miterlimit="10"/>
<path d="M200.44 391C200.44 391 201.2 394.19 201.97 394.7C202.74 395.21 211.02 394.95 211.66 394.44C212.3 393.93 212.04 392.44 210.51 392.02C208.98 391.6 202.09 390.49 202.09 390.49C202.09 390.49 200.31 389.81 200.44 391Z" fill="white" stroke="#263238" stroke-miterlimit="10"/>
<path d="M202 394.66C202 394.66 202.63 398.74 203.53 399.25C204.43 399.76 211.43 397.46 212.2 396.44C212.97 395.42 212.32 394.15 211.69 394.44C211.06 394.73 203.11 395 202 394.66Z" fill="white" stroke="#263238" stroke-miterlimit="10"/>
<path d="M204.26 399.5C204.26 399.5 205.79 401.8 206.56 401.8C207.33 401.8 212.56 399.63 212.68 398.23C212.8 396.83 212.17 396.44 212.17 396.44C212.17 396.44 205 399.37 204.26 399.5Z" fill="white" stroke="#263238" stroke-miterlimit="10"/>
<path d="M320.41 468.78C321.32 468.55 330.51 465.3 332.06 456.27C334.06 444.54 330.71 440 325.51 432.99C320.31 425.98 316.01 415.36 303.35 417.17C290.69 418.98 284.82 428.7 278.26 436.38C271.7 444.06 256.34 455.59 256.34 455.59C256.34 455.59 270.11 461.07 281.34 464.41C288.12 466.41 294.05 460.12 301.05 456.27C304.956 454.165 308.733 451.827 312.36 449.27" fill="#2928E8"/>
<path d="M320.41 468.78C321.32 468.55 330.51 465.3 332.06 456.27C334.06 444.54 330.71 440 325.51 432.99C320.31 425.98 316.01 415.36 303.35 417.17C290.69 418.98 284.82 428.7 278.26 436.38C271.7 444.06 256.34 455.59 256.34 455.59C256.34 455.59 270.11 461.07 281.34 464.41C288.12 466.41 294.05 460.12 301.05 456.27C304.956 454.165 308.733 451.827 312.36 449.27" stroke="#263238" stroke-miterlimit="10"/>
<path d="M296.61 458.76C296.61 458.76 310.39 454.58 319.16 450.82" stroke="#263238" stroke-miterlimit="10"/>
<path d="M263.75 458.67C263.75 458.67 259.48 458.67 257.61 464.14C256.775 466.796 256.803 469.649 257.691 472.289C258.578 474.928 260.28 477.218 262.55 478.83C266.96 481.9 275.63 482.17 279.37 480.43C282.909 478.794 286.261 476.782 289.37 474.43C291.5 472.7 291.5 471.63 289.63 469.09C287.76 466.55 285.23 465.22 281.36 464.42C277.49 463.62 263.75 458.67 263.75 458.67Z" fill="white" stroke="#263238" stroke-miterlimit="10"/>
<path d="M266.36 459.6L263.75 458.67C263.75 458.67 259.48 458.67 257.61 464.14C256.775 466.796 256.803 469.649 257.691 472.289C258.578 474.928 260.28 477.218 262.55 478.83C264.738 480.195 267.213 481.034 269.78 481.28C269.02 480.94 268.25 480.57 267.49 480.17C263.22 477.9 259.75 474.02 260.15 468.17C260.46 463.48 264.65 460.59 266.36 459.6Z" fill="white" stroke="#263238" stroke-miterlimit="10"/>
</svg>
