<svg width="309" height="281" viewBox="0 0 309 281" fill="none" xmlns="http://www.w3.org/2000/svg">
<path d="M307.427 92.2624C307.801 92.0843 308.249 92.243 308.427 92.617C308.605 92.9909 308.447 93.4385 308.073 93.6166L307.75 92.9395L307.427 92.2624ZM7.19214 24.7172L7.83109 25.1099L7.19214 24.7172ZM142.466 24.7171L142.038 25.3328V25.3328L142.466 24.7171ZM303.382 95.8134C303.006 95.9867 302.56 95.8223 302.387 95.4461C302.213 95.0699 302.378 94.6244 302.754 94.4511L303.068 95.1322L303.382 95.8134ZM293.268 98.7031C293.648 98.5373 294.09 98.7106 294.256 99.0902C294.421 99.4697 294.248 99.9119 293.868 100.078L293.568 99.3904L293.268 98.7031ZM284.279 104.17C283.897 104.329 283.458 104.149 283.298 103.767C283.139 103.384 283.319 102.945 283.702 102.786L283.99 103.478L284.279 104.17ZM274.081 106.714C274.466 106.56 274.902 106.747 275.056 107.132C275.21 107.516 275.022 107.953 274.638 108.107L274.359 107.41L274.081 106.714ZM264.941 111.9C264.554 112.049 264.12 111.855 263.972 111.468C263.824 111.081 264.018 110.648 264.404 110.5L264.673 111.2L264.941 111.9ZM254.668 114.148C255.057 114.005 255.487 114.205 255.63 114.594C255.772 114.983 255.573 115.414 255.184 115.556L254.926 114.852L254.668 114.148ZM245.367 119.072C244.976 119.209 244.548 119.003 244.411 118.612C244.274 118.221 244.48 117.793 244.871 117.657L245.119 118.365L245.367 119.072ZM235.043 121.011C235.436 120.88 235.861 121.092 235.992 121.485C236.122 121.879 235.91 122.303 235.517 122.434L235.28 121.722L235.043 121.011ZM225.603 125.643C225.208 125.767 224.787 125.548 224.663 125.153C224.538 124.757 224.758 124.336 225.153 124.212L225.378 124.927L225.603 125.643ZM215.212 127.245C215.609 127.128 216.027 127.355 216.144 127.752C216.261 128.149 216.034 128.566 215.637 128.684L215.425 127.964L215.212 127.245ZM205.617 131.542C205.217 131.652 204.805 131.417 204.695 131.017C204.585 130.618 204.82 130.205 205.219 130.095L205.418 130.819L205.617 131.542ZM195.175 132.744C195.576 132.642 195.984 132.886 196.085 133.287C196.187 133.689 195.943 134.097 195.542 134.198L195.358 133.471L195.175 132.744ZM185.402 136.63C184.998 136.722 184.597 136.469 184.505 136.065C184.413 135.661 184.666 135.259 185.07 135.168L185.236 135.899L185.402 136.63ZM174.915 137.335C175.321 137.254 175.716 137.518 175.797 137.924C175.878 138.33 175.614 138.725 175.208 138.806L175.061 138.071L174.915 137.335ZM164.953 140.687C164.544 140.756 164.157 140.48 164.089 140.071C164.021 139.663 164.297 139.276 164.705 139.208L164.829 139.948L164.953 140.687ZM154.434 140.738C154.845 140.684 155.221 140.974 155.274 141.385C155.328 141.796 155.038 142.172 154.627 142.225L154.531 141.481L154.434 140.738ZM144.253 143.349C143.84 143.385 143.477 143.079 143.441 142.666C143.406 142.253 143.712 141.89 144.125 141.855L144.189 142.602L144.253 143.349ZM133.789 142.471C134.203 142.458 134.549 142.783 134.562 143.197C134.575 143.611 134.25 143.957 133.836 143.97L133.812 143.221L133.789 142.471ZM123.659 143.95C123.245 143.932 122.923 143.583 122.941 143.169C122.958 142.755 123.308 142.434 123.722 142.451L123.69 143.201L123.659 143.95ZM113.957 141.642C114.368 141.693 114.661 142.067 114.61 142.478C114.56 142.889 114.186 143.182 113.775 143.131L113.866 142.387L113.957 141.642ZM103.989 141.555C103.583 141.474 103.319 141.079 103.4 140.673C103.481 140.266 103.876 140.003 104.282 140.084L104.136 140.819L103.989 141.555ZM94.7372 137.83C95.1368 137.939 95.3723 138.352 95.2633 138.751C95.1542 139.151 94.7419 139.386 94.3423 139.277L94.5397 138.554L94.7372 137.83ZM84.8769 136.351C84.4854 136.216 84.2777 135.789 84.413 135.398C84.5482 135.006 84.9753 134.798 85.3668 134.934L85.1219 135.642L84.8769 136.351ZM76.2011 131.435C76.5833 131.595 76.7634 132.034 76.6036 132.416C76.4437 132.798 76.0043 132.979 75.6222 132.819L75.9117 132.127L76.2011 131.435ZM66.6074 128.714C66.2359 128.53 66.0833 128.081 66.2665 127.709C66.4498 127.338 66.8994 127.185 67.2709 127.368L66.9392 128.041L66.6074 128.714ZM58.6062 122.759C58.9657 122.965 59.0905 123.423 58.8848 123.782C58.6791 124.142 58.2209 124.267 57.8614 124.061L58.2338 123.41L58.6062 122.759ZM49.424 118.883C49.0779 118.655 48.9817 118.19 49.2092 117.844C49.4368 117.498 49.9018 117.402 50.2479 117.629L49.8359 118.256L49.424 118.883ZM42.2185 111.978C42.5494 112.227 42.6157 112.698 42.3665 113.029C42.1173 113.359 41.6471 113.426 41.3162 113.176L41.7674 112.577L42.2185 111.978ZM33.6133 106.963C33.2999 106.693 33.2654 106.219 33.5363 105.906C33.8071 105.592 34.2808 105.558 34.5941 105.829L34.1037 106.396L33.6133 106.963ZM27.4015 99.1457C27.6943 99.4387 27.6942 99.9136 27.4012 100.206C27.1082 100.499 26.6333 100.499 26.3405 100.206L26.871 99.6759L27.4015 99.1457ZM19.6199 92.926C19.3517 92.6103 19.3902 92.137 19.7059 91.8688C20.0215 91.6006 20.4948 91.6391 20.763 91.9548L20.1914 92.4404L19.6199 92.926ZM14.7647 84.2116C15.0025 84.5507 14.9204 85.0185 14.5813 85.2563C14.2422 85.4942 13.7745 85.4121 13.5366 85.073L14.1507 84.6423L14.7647 84.2116ZM8.26639 76.6438C8.06683 76.2809 8.19928 75.8248 8.56226 75.6253C8.9252 75.4257 9.38123 75.5582 9.58081 75.9211L8.92358 76.2825L8.26639 76.6438ZM5.43558 67.098C5.58588 67.4839 5.39481 67.9187 5.00882 68.069C4.6228 68.2193 4.18808 68.0282 4.03778 67.6422L4.73669 67.3701L5.43558 67.098ZM1.15536 58.1045C1.06891 57.6994 1.32721 57.3009 1.7323 57.2145C2.13739 57.128 2.53586 57.3863 2.62231 57.7914L1.88882 57.948L1.15536 58.1045ZM1.50507 48.1597C1.51123 48.5739 1.18051 48.9147 0.766327 48.9208C0.352173 48.927 0.0114136 48.5963 0.00521851 48.1821L0.755157 48.1709L1.50507 48.1597ZM0.958954 38.2208C1.04501 37.8156 1.44321 37.5569 1.84839 37.6429C2.25357 37.729 2.51227 38.1272 2.42624 38.5324L1.6926 38.3766L0.958954 38.2208ZM5.51962 29.3748C5.34277 29.7494 4.89578 29.9097 4.52121 29.7328C4.14664 29.556 3.98636 29.109 4.16321 28.7344L4.8414 29.0546L5.51962 29.3748ZM9.77386 20.0168C10.0489 19.7071 10.5229 19.679 10.8326 19.954C11.1424 20.2291 11.1705 20.7031 10.8954 21.0128L10.3347 20.5148L9.77386 20.0168ZM18.709 14.2939C18.3658 14.5257 17.8996 14.4354 17.6677 14.0922C17.4359 13.7489 17.5262 13.2827 17.8694 13.0509L18.2892 13.6724L18.709 14.2939ZM27.1887 7.91691C27.5665 7.74728 28.0104 7.9161 28.18 8.29398C28.3497 8.67187 28.1808 9.11572 27.8029 9.28536L27.4958 8.60114L27.1887 7.91691ZM37.5692 5.67983C37.1723 5.79836 36.7545 5.57271 36.6359 5.17581C36.5174 4.77892 36.743 4.36109 37.1399 4.24256L37.3546 4.96119L37.5692 5.67983ZM47.4484 1.78575C47.8559 1.71144 48.2465 1.98153 48.3208 2.38902C48.3951 2.79651 48.125 3.1871 47.7175 3.26141L47.5829 2.52358L47.4484 1.78575ZM58.0691 1.89764C57.6563 1.93206 57.2938 1.62533 57.2594 1.21255C57.225 0.79977 57.5317 0.437245 57.9445 0.40283L58.0068 1.15024L58.0691 1.89764ZM68.5253 0.00267518C68.9395 0.00542647 69.2731 0.343436 69.2703 0.75764C69.2676 1.17184 68.9296 1.50539 68.5154 1.50264L68.5204 0.752659L68.5253 0.00267518ZM78.9594 2.02125C78.547 1.98319 78.2434 1.61797 78.2815 1.20551C78.3196 0.793045 78.6848 0.489536 79.0973 0.527599L79.0283 1.27443L78.9594 2.02125ZM89.5836 1.93644C89.9915 2.00846 90.2638 2.39751 90.1918 2.80541C90.1198 3.21332 89.7307 3.48561 89.3228 3.4136L89.4532 2.67502L89.5836 1.93644ZM99.5364 5.6483C99.1357 5.54347 98.8958 5.13364 99.0006 4.73291C99.1054 4.33218 99.5153 4.0923 99.916 4.19712L99.7262 4.92271L99.5364 5.6483ZM110.031 7.28093C110.422 7.41745 110.628 7.84515 110.491 8.23622C110.355 8.62729 109.927 8.83364 109.536 8.69712L109.783 7.98903L110.031 7.28093ZM119.262 12.5311C118.883 12.3641 118.711 11.9215 118.878 11.5424C119.045 11.1634 119.488 10.9914 119.867 11.1584L119.565 11.8448L119.262 12.5311ZM129.37 15.797C129.735 15.9931 129.872 16.4478 129.676 16.8127C129.479 17.1776 129.025 17.3144 128.66 17.1184L129.015 16.4577L129.37 15.797ZM137.681 22.4232C137.332 22.1998 137.231 21.7359 137.454 21.3871C137.678 21.0383 138.142 20.9368 138.49 21.1602L138.086 21.7917L137.681 22.4232ZM147.041 27.2069C147.364 27.4667 147.415 27.9388 147.155 28.2614C146.895 28.5841 146.423 28.6351 146.1 28.3753L146.571 27.7911L147.041 27.2069ZM153.551 35.2507C153.265 34.9504 153.277 34.4757 153.578 34.1903C153.878 33.905 154.353 33.9171 154.638 34.2174L154.094 34.734L153.551 35.2507ZM161.287 42.1362C161.534 42.4686 161.465 42.9384 161.132 43.1856C160.8 43.4327 160.33 43.3636 160.083 43.0312L160.685 42.5837L161.287 42.1362ZM165.693 51.5026C165.483 51.1458 165.602 50.686 165.958 50.4755C166.315 50.2651 166.775 50.3836 166.985 50.7404L166.339 51.1215L165.693 51.5026ZM171.796 59.8559C171.972 60.2307 171.812 60.6775 171.437 60.8541C171.062 61.0306 170.615 60.87 170.439 60.4953L171.117 60.1756L171.796 59.8559ZM174.395 69.8774C174.249 69.4897 174.445 69.0572 174.833 68.9115C175.221 68.7657 175.653 68.9618 175.799 69.3495L175.097 69.6135L174.395 69.8774ZM179.074 79.1146C179.192 79.5116 178.966 79.9292 178.569 80.0472C178.172 80.1653 177.754 79.9392 177.636 79.5421L178.355 79.3284L179.074 79.1146ZM180.232 89.4088C180.139 89.0052 180.391 88.6025 180.794 88.5094C181.198 88.4162 181.601 88.6679 181.694 89.0715L180.963 89.2402L180.232 89.4088ZM183.724 99.1618C183.794 99.5699 183.52 99.958 183.112 100.029C182.704 100.099 182.316 99.8255 182.245 99.4174L182.984 99.2896L183.724 99.1618ZM183.729 109.523C183.679 109.112 183.972 108.738 184.383 108.688C184.794 108.638 185.168 108.931 185.218 109.342L184.473 109.433L183.729 109.523ZM186.222 119.579C186.254 119.993 185.944 120.353 185.531 120.384C185.118 120.415 184.758 120.105 184.727 119.692L185.475 119.636L186.222 119.579ZM185.275 129.898C185.261 129.484 185.586 129.138 186 129.124C186.414 129.111 186.76 129.435 186.774 129.849L186.024 129.874L185.275 129.898ZM186.901 140.132C186.898 140.546 186.56 140.879 186.145 140.876C185.731 140.873 185.398 140.535 185.401 140.12L186.151 140.126L186.901 140.132ZM185.127 150.341C185.146 149.927 185.497 149.607 185.911 149.626C186.325 149.645 186.645 149.996 186.626 150.41L185.877 150.375L185.127 150.341ZM185.964 160.669C185.93 161.082 185.567 161.388 185.155 161.354C184.742 161.32 184.435 160.957 184.469 160.545L185.217 160.607L185.964 160.669ZM183.436 170.717C183.486 170.306 183.859 170.013 184.27 170.062C184.682 170.111 184.975 170.485 184.926 170.896L184.181 170.807L183.436 170.717ZM183.514 181.078C183.45 181.488 183.066 181.767 182.657 181.703C182.247 181.638 181.968 181.254 182.032 180.845L182.773 180.962L183.514 181.078ZM180.255 190.914C180.335 190.507 180.729 190.243 181.135 190.322C181.542 190.402 181.807 190.796 181.727 191.202L180.991 191.058L180.255 190.914ZM179.555 201.253C179.459 201.656 179.055 201.905 178.652 201.81C178.249 201.714 178 201.31 178.095 200.907L178.825 201.08L179.555 201.253ZM175.536 210.805C175.648 210.406 176.062 210.174 176.461 210.286C176.859 210.398 177.092 210.812 176.98 211.211L176.258 211.008L175.536 210.805ZM173.974 221.052C173.844 221.445 173.42 221.659 173.027 221.529C172.633 221.399 172.42 220.974 172.55 220.581L173.262 220.817L173.974 221.052ZM169.1 230.197C169.25 229.811 169.685 229.62 170.071 229.77C170.457 229.92 170.648 230.354 170.498 230.741L169.799 230.469L169.1 230.197ZM166.494 240.221C166.322 240.598 165.876 240.763 165.5 240.59C165.124 240.418 164.958 239.972 165.131 239.596L165.813 239.909L166.494 240.221ZM160.571 248.685C160.771 248.322 161.227 248.19 161.59 248.389C161.953 248.589 162.085 249.045 161.886 249.408L161.229 249.046L160.571 248.685ZM156.514 258.237C156.282 258.58 155.815 258.669 155.472 258.437C155.129 258.205 155.039 257.739 155.272 257.396L155.893 257.816L156.514 258.237ZM149.084 265.459C149.358 265.148 149.832 265.118 150.143 265.391C150.454 265.665 150.484 266.139 150.211 266.45L149.648 265.954L149.084 265.459ZM142.73 273.619C142.404 273.875 141.933 273.819 141.677 273.493C141.421 273.167 141.477 272.696 141.803 272.44L142.266 273.029L142.73 273.619ZM133.225 277.547C133.609 277.39 134.047 277.574 134.203 277.957C134.36 278.341 134.177 278.779 133.793 278.935L133.509 278.241L133.225 277.547ZM307.75 92.9395L308.073 93.6166C306.594 94.3208 305.029 95.0543 303.382 95.8134L303.068 95.1322L302.754 94.4511C304.396 93.6945 305.955 92.9637 307.427 92.2624L307.75 92.9395ZM293.568 99.3904L293.868 100.078C290.843 101.399 287.64 102.768 284.279 104.17L283.99 103.478L283.702 102.786C287.054 101.387 290.251 100.021 293.268 98.7031L293.568 99.3904ZM274.359 107.41L274.638 108.107C271.503 109.359 268.266 110.627 264.941 111.9L264.673 111.2L264.404 110.5C267.722 109.229 270.953 107.964 274.081 106.714L274.359 107.41ZM254.926 114.852L255.184 115.556C251.971 116.734 248.695 117.908 245.367 119.072L245.119 118.365L244.871 117.657C248.193 116.495 251.462 115.323 254.668 114.148L254.926 114.852ZM235.28 121.722L235.517 122.434C232.247 123.522 228.939 124.593 225.603 125.643L225.378 124.927L225.153 124.212C228.481 123.165 231.781 122.096 235.043 121.011L235.28 121.722ZM215.425 127.964L215.637 128.684C212.312 129.666 208.969 130.621 205.617 131.542L205.418 130.819L205.219 130.095C208.562 129.177 211.896 128.225 215.212 127.245L215.425 127.964ZM195.358 133.471L195.542 134.198C192.158 135.051 188.776 135.864 185.402 136.63L185.236 135.899L185.07 135.168C188.431 134.404 191.802 133.594 195.175 132.744L195.358 133.471ZM175.061 138.071L175.208 138.806C171.766 139.491 168.344 140.121 164.953 140.687L164.829 139.948L164.705 139.208C168.08 138.644 171.487 138.018 174.915 137.335L175.061 138.071ZM154.531 141.481L154.627 142.225C151.12 142.68 147.657 143.058 144.253 143.349L144.189 142.602L144.125 141.855C147.506 141.565 150.946 141.19 154.434 140.738L154.531 141.481ZM133.812 143.221L133.836 143.97C132.075 144.026 130.335 144.055 128.616 144.055V143.305V142.555C130.318 142.555 132.043 142.527 133.789 142.471L133.812 143.221ZM128.616 143.305V144.055C126.965 144.055 125.312 144.02 123.659 143.95L123.69 143.201L123.722 142.451C125.355 142.52 126.986 142.555 128.616 142.555V143.305ZM113.866 142.387L113.775 143.131C110.502 142.73 107.237 142.201 103.989 141.555L104.136 140.819L104.282 140.084C107.495 140.723 110.723 141.246 113.957 141.642L113.866 142.387ZM94.5397 138.554L94.3423 139.277C91.1581 138.408 87.9998 137.43 84.8769 136.351L85.1219 135.642L85.3668 134.934C88.4591 136.002 91.5857 136.97 94.7372 137.83L94.5397 138.554ZM75.9117 132.127L75.6222 132.819C72.5691 131.541 69.561 130.17 66.6074 128.714L66.9392 128.041L67.2709 127.368C70.197 128.812 73.1769 130.17 76.2011 131.435L75.9117 132.127ZM58.2338 123.41L57.8614 124.061C54.9794 122.413 52.1635 120.684 49.424 118.883L49.8359 118.256L50.2479 117.629C52.9615 119.413 55.7509 121.126 58.6062 122.759L58.2338 123.41ZM41.7674 112.577L41.3162 113.176C38.6524 111.17 36.081 109.096 33.6133 106.963L34.1037 106.396L34.5941 105.829C37.0359 107.939 39.581 109.992 42.2185 111.978L41.7674 112.577ZM26.871 99.6759L26.3405 100.206C23.9671 97.8312 21.7224 95.4008 19.6199 92.926L20.1914 92.4404L20.763 91.9548C22.8383 94.3976 25.0555 96.7982 27.4015 99.1457L26.871 99.6759ZM14.1507 84.6423L13.5366 85.073C11.5906 82.2983 9.82797 79.484 8.26639 76.6438L8.92358 76.2825L9.58081 75.9211C11.1145 78.7104 12.8478 81.4787 14.7647 84.2116L14.1507 84.6423ZM4.73669 67.3701L4.03778 67.6422C2.8031 64.4711 1.8342 61.2855 1.15536 58.1045L1.88882 57.948L2.62231 57.7914C3.28308 60.8876 4.22778 63.996 5.43558 67.098L4.73669 67.3701ZM0.755157 48.1709L0.00521851 48.1821C-0.0448608 44.8243 0.263428 41.4958 0.958954 38.2208L1.6926 38.3766L2.42624 38.5324C1.75504 41.6928 1.45657 44.909 1.50507 48.1597L0.755157 48.1709ZM4.8414 29.0546L4.16321 28.7344C4.86627 27.2453 5.66202 25.7745 6.55316 24.3245L7.19214 24.7172L7.83109 25.1099C6.96835 26.5136 6.19888 27.9361 5.51962 29.3748L4.8414 29.0546ZM7.19214 24.7172L6.55316 24.3245C7.46469 22.8414 8.54276 21.4031 9.77386 20.0168L10.3347 20.5148L10.8954 21.0128C9.7175 22.3392 8.69296 23.7076 7.83109 25.1099L7.19214 24.7172ZM18.2892 13.6724L17.8694 13.0509C20.6551 11.1692 23.7776 9.44814 27.1887 7.91691L27.4958 8.60114L27.8029 9.28536C24.4622 10.785 21.4161 12.4653 18.709 14.2939L18.2892 13.6724ZM37.3546 4.96119L37.1399 4.24256C40.4103 3.26587 43.8557 2.44098 47.4484 1.78575L47.5829 2.52358L47.7175 3.26141C44.1766 3.90718 40.7848 4.71947 37.5692 5.67983L37.3546 4.96119ZM58.0068 1.15024L57.9445 0.40283C61.3803 0.11637 64.9138 -0.0213137 68.5253 0.00267518L68.5204 0.752659L68.5154 1.50264C64.9484 1.47895 61.4598 1.61495 58.0691 1.89764L58.0068 1.15024ZM79.0283 1.27443L79.0973 0.527599C82.5472 0.845974 86.0478 1.3122 89.5836 1.93644L89.4532 2.67502L89.3228 3.4136C85.8279 2.79659 82.3684 2.33585 78.9594 2.02125L79.0283 1.27443ZM99.7262 4.92271L99.916 4.19712C103.274 5.07544 106.649 6.10061 110.031 7.28093L109.783 7.98903L109.536 8.69712C106.193 7.53011 102.856 6.51659 99.5364 5.6483L99.7262 4.92271ZM119.565 11.8448L119.867 11.1584C123.044 12.5581 126.215 14.102 129.37 15.797L129.015 16.4577L128.66 17.1184C125.54 15.442 122.404 13.9152 119.262 12.5311L119.565 11.8448ZM138.086 21.7917L138.49 21.1602C139.965 22.105 141.433 23.0851 142.895 24.1013L142.466 24.7171L142.038 25.3328C140.592 24.3274 139.14 23.3578 137.681 22.4232L138.086 21.7917ZM142.466 24.7171L142.895 24.1013C144.315 25.0892 145.697 26.1251 147.041 27.2069L146.571 27.7911L146.1 28.3753C144.783 27.3152 143.43 26.3004 142.038 25.3328L142.466 24.7171ZM154.094 34.734L154.638 34.2174C156.997 36.6999 159.212 39.3449 161.287 42.1362L160.685 42.5837L160.083 43.0312C158.042 40.2858 155.866 37.6873 153.551 35.2507L154.094 34.734ZM166.339 51.1215L166.985 50.7404C168.71 53.6644 170.312 56.7076 171.796 59.8559L171.117 60.1756L170.439 60.4953C168.974 57.3865 167.394 54.3845 165.693 51.5026L166.339 51.1215ZM175.097 69.6135L175.799 69.3495C176.993 72.5254 178.084 75.7843 179.074 79.1146L178.355 79.3284L177.636 79.5421C176.655 76.2439 175.576 73.0185 174.395 69.8774L175.097 69.6135ZM180.963 89.2402L181.694 89.0715C182.458 92.3834 183.134 95.7502 183.724 99.1618L182.984 99.2896L182.245 99.4174C181.66 96.032 180.99 92.6924 180.232 89.4088L180.963 89.2402ZM184.473 109.433L185.218 109.342C185.63 112.725 185.964 116.141 186.222 119.579L185.475 119.636L184.727 119.692C184.469 116.275 184.138 112.883 183.729 109.523L184.473 109.433ZM186.024 129.874L186.774 129.849C186.885 133.266 186.927 136.697 186.901 140.132L186.151 140.126L185.401 140.12C185.427 136.705 185.385 133.294 185.275 129.898L186.024 129.874ZM185.877 150.375L186.626 150.41C186.469 153.836 186.247 157.259 185.964 160.669L185.217 160.607L184.469 160.545C184.751 157.153 184.971 153.749 185.127 150.341L185.877 150.375ZM184.181 170.807L184.926 170.896C184.515 174.316 184.044 177.713 183.514 181.078L182.773 180.962L182.032 180.845C182.559 177.498 183.028 174.119 183.436 170.717L184.181 170.807ZM180.991 191.058L181.727 191.202C181.061 194.599 180.336 197.953 179.555 201.253L178.825 201.08L178.095 200.907C178.872 197.626 179.593 194.292 180.255 190.914L180.991 191.058ZM176.258 211.008L176.98 211.211C176.037 214.566 175.034 217.85 173.974 221.052L173.262 220.817L172.55 220.581C173.602 217.402 174.598 214.139 175.536 210.805L176.258 211.008ZM169.799 230.469L170.498 230.741C169.225 234.017 167.889 237.183 166.494 240.221L165.813 239.909L165.131 239.596C166.512 236.586 167.837 233.448 169.1 230.197L169.799 230.469ZM161.229 249.046L161.886 249.408C160.164 252.542 158.371 255.493 156.514 258.237L155.893 257.816L155.272 257.396C157.101 254.694 158.869 251.783 160.571 248.685L161.229 249.046ZM149.648 265.954L150.211 266.45C147.802 269.19 145.305 271.594 142.73 273.619L142.266 273.029L141.803 272.44C144.295 270.48 146.727 268.141 149.084 265.459L149.648 265.954ZM133.509 278.241L133.793 278.935C132.142 279.611 130.466 280.131 128.769 280.484L128.616 279.75L128.463 279.016C130.066 278.682 131.654 278.19 133.225 277.547L133.509 278.241Z" fill="#140B43"/>
</svg>
