<svg width="110" height="110" viewBox="0 0 110 110" fill="none" xmlns="http://www.w3.org/2000/svg">
<path d="M85.6342 107.32H76.3409C72.654 107.32 69.9289 103.927 70.6744 100.316C70.6796 100.292 70.6847 100.266 70.6899 100.241L73.6173 85.8203C74.3308 82.3108 74.1843 78.7113 73.2287 75.3194C72.5968 73.071 74.3184 70.8474 76.6539 70.8474H85.3214C87.657 70.8474 89.3785 73.071 88.7466 75.3194C87.7912 78.7113 87.6445 82.3108 88.358 85.8203L91.2854 100.241C91.2906 100.266 91.2958 100.292 91.3009 100.316C92.0464 103.927 89.3211 107.32 85.6342 107.32Z" fill="url(#paint0_linear_195_52)"/>
<path d="M85.6342 107.32H76.3409C72.654 107.32 69.9289 103.927 70.6744 100.316C70.6796 100.292 70.6847 100.266 70.6899 100.241L73.6173 85.8203C74.3308 82.3108 74.1843 78.7113 73.2287 75.3194C72.5968 73.071 74.3184 70.8474 76.6539 70.8474H85.3214C87.657 70.8474 89.3785 73.071 88.7466 75.3194C87.7912 78.7113 87.6445 82.3108 88.358 85.8203L91.2854 100.241C91.2906 100.266 91.2958 100.292 91.3009 100.316C92.0464 103.927 89.3211 107.32 85.6342 107.32Z" fill="url(#paint1_linear_195_52)"/>
<path d="M91.3008 100.316C91.2957 100.292 91.2905 100.266 91.2854 100.241L90.5742 96.7378H71.4014L70.6902 100.241C70.6851 100.267 70.6801 100.292 70.6748 100.317C69.9291 103.927 72.6543 107.32 76.3411 107.32H85.6343C89.3213 107.32 92.0466 103.927 91.3008 100.316Z" fill="url(#paint2_linear_195_52)"/>
<path d="M76.341 107.32H85.0093V70.8474H76.654C74.3184 70.8474 72.5969 73.071 73.2287 75.3194C74.1842 78.7113 74.3309 82.3108 73.6172 85.8203L70.6899 100.241C70.6848 100.267 70.6798 100.292 70.6745 100.317C69.929 103.927 72.654 107.32 76.341 107.32Z" fill="url(#paint3_linear_195_52)"/>
<path d="M90.2905 37.3186H101.796C106.327 37.3186 110 44.8701 110 54.1858C110 63.5014 106.327 71.0529 101.796 71.0529H90.2905C85.7596 71.0529 82.0866 63.5012 82.0866 54.1858C82.0866 44.8704 85.7598 37.3186 90.2905 37.3186Z" fill="url(#paint4_linear_195_52)"/>
<path d="M99.4603 43.8852H104.511C105.044 43.8852 105.477 43.4528 105.477 42.9193C105.477 42.3859 105.044 41.9534 104.511 41.9534H99.4603C98.9268 41.9534 98.4944 42.3859 98.4944 42.9193C98.4944 43.4528 98.9268 43.8852 99.4603 43.8852Z" fill="url(#paint5_linear_195_52)"/>
<path d="M100.446 48.3918H105.496C106.029 48.3918 106.462 47.9594 106.462 47.4259C106.462 46.8924 106.029 46.46 105.496 46.46H100.446C99.9122 46.46 99.4797 46.8924 99.4797 47.4259C99.4799 47.9594 99.9124 48.3918 100.446 48.3918Z" fill="url(#paint6_linear_195_52)"/>
<path d="M101.061 52.8984H106.112C106.645 52.8984 107.078 52.4659 107.078 51.9325C107.078 51.399 106.645 50.9666 106.112 50.9666H101.061C100.528 50.9666 100.095 51.399 100.095 51.9325C100.095 52.4662 100.528 52.8984 101.061 52.8984Z" fill="url(#paint7_linear_195_52)"/>
<path d="M101.061 57.4053H106.112C106.645 57.4053 107.078 56.9728 107.078 56.4393C107.078 55.9059 106.645 55.4734 106.112 55.4734H101.061C100.528 55.4734 100.095 55.9059 100.095 56.4393C100.095 56.9728 100.528 57.4053 101.061 57.4053Z" fill="url(#paint8_linear_195_52)"/>
<path d="M100.446 61.9116H105.496C106.029 61.9116 106.462 61.4791 106.462 60.9457C106.462 60.4122 106.029 59.9797 105.496 59.9797H100.446C99.9122 59.9797 99.4797 60.4122 99.4797 60.9457C99.4799 61.4791 99.9124 61.9116 100.446 61.9116Z" fill="url(#paint9_linear_195_52)"/>
<path d="M99.4603 66.4182H104.511C105.044 66.4182 105.477 65.9857 105.477 65.4523C105.477 64.9188 105.044 64.4863 104.511 64.4863H99.4603C98.9268 64.4863 98.4944 64.9188 98.4944 65.4523C98.4944 65.9857 98.9268 66.4182 99.4603 66.4182Z" fill="url(#paint10_linear_195_52)"/>
<path d="M90.2903 37.3186C94.8212 37.3186 98.4941 44.8704 98.4941 54.1858C98.4941 63.5012 94.8212 71.0529 90.2903 71.0529C85.7595 71.0529 82.0865 63.5012 82.0865 54.1858C82.0865 44.8704 85.7597 37.3186 90.2903 37.3186Z" fill="url(#paint11_linear_195_52)"/>
<path d="M90.2903 37.3186C94.8212 37.3186 98.4941 44.8704 98.4941 54.1858C98.4941 63.5012 94.8212 71.0529 90.2903 71.0529C85.7595 71.0529 82.0865 63.5012 82.0865 54.1858C82.0865 44.8704 85.7597 37.3186 90.2903 37.3186Z" fill="url(#paint12_linear_195_52)"/>
<path d="M98.4941 54.1857C98.4941 63.5012 94.8212 71.0529 90.2903 71.0529C85.7595 71.0529 82.0865 63.5012 82.0865 54.1857C82.0865 52.7927 82.1692 51.4394 82.3241 50.1445H98.2565C98.4114 51.4394 98.4941 52.7925 98.4941 54.1857Z" fill="url(#paint13_linear_195_52)"/>
<path d="M82.9185 53.3945H109.991C109.997 53.6566 110 53.9205 110 54.1858C110 63.5012 106.327 71.053 101.796 71.053H90.2904C87.0521 71.053 84.2523 67.1946 82.9183 61.5919L82.9185 53.3945Z" fill="url(#paint14_linear_195_52)"/>
<path d="M32.5997 8.16895V100.203C32.5997 100.203 40.582 88.7429 63.9495 81.7353C68.6885 80.315 74.0622 79.0755 80.1288 78.1541C83.2472 77.6804 86.185 76.8818 88.8847 75.811C91.8659 74.6285 94.1381 72.7441 95.2984 70.5009C96.9349 67.3376 98.9658 61.8646 98.9658 54.1859C98.9658 47.7919 97.4383 41.9071 94.8791 37.2334C94.7293 36.9608 94.5763 36.6925 94.4202 36.4282C93.7043 35.2178 92.4939 34.1779 90.9324 33.4451C87.6947 31.9253 84.0557 30.8156 80.1288 30.2179C74.0622 29.2965 68.6885 28.057 63.9495 26.6367C40.582 19.6289 32.5997 8.16895 32.5997 8.16895Z" fill="url(#paint15_linear_195_52)"/>
<path d="M79.7158 30.1523V78.2193C44.0612 83.7522 32.6006 100.203 32.6006 100.203V8.16821C32.6006 8.16821 44.0612 24.6192 79.7158 30.1523Z" fill="url(#paint16_linear_195_52)"/>
<path d="M98.2268 46.6333C98.7054 49.0337 98.9658 51.5659 98.9658 54.1855C98.9658 61.8642 96.9347 67.3371 95.2984 70.5005C94.1381 72.7437 91.8659 74.6281 88.8847 75.8106C86.185 76.8814 83.2472 77.6799 80.1288 78.1537C74.0622 79.0751 68.6885 80.3146 63.9495 81.7349C40.582 88.7425 32.5997 100.202 32.5997 100.202V46.6333H98.2268Z" fill="url(#paint17_linear_195_52)"/>
<path d="M25.0508 105.692C11.2156 105.692 -3.8147e-06 82.6319 -3.8147e-06 54.1863C-3.8147e-06 25.7406 11.2156 2.68091 25.0508 2.68091C38.8859 2.68091 50.1016 25.7406 50.1016 54.1863C50.1016 82.6319 38.8859 105.692 25.0508 105.692Z" fill="url(#paint18_linear_195_52)"/>
<path d="M25.0507 2.68018C30.0342 2.68018 34.6776 5.67273 38.5796 10.8305V97.5406C34.6776 102.698 30.0342 105.691 25.0507 105.691C11.2154 105.691 -0.000118256 82.631 -0.000118256 54.1855C-0.000118256 25.74 11.2156 2.68018 25.0507 2.68018Z" fill="url(#paint19_linear_195_52)"/>
<path d="M23.187 96.3594C12.8878 96.3594 4.53857 77.4777 4.53857 54.1858C4.53857 30.894 12.8878 12.0122 23.187 12.0122C33.4863 12.0122 41.8354 30.894 41.8354 54.1858C41.8354 77.4777 33.4863 96.3594 23.187 96.3594Z" fill="url(#paint20_linear_195_52)"/>
<path d="M23.187 96.3594C12.8878 96.3594 4.53857 77.4777 4.53857 54.1858C4.53857 30.894 12.8878 12.0122 23.187 12.0122C33.4863 12.0122 41.8354 30.894 41.8354 54.1858C41.8354 77.4777 33.4863 96.3594 23.187 96.3594Z" fill="url(#paint21_linear_195_52)"/>
<path d="M50.0596 57.1458C49.3134 84.2137 38.4026 105.691 25.0509 105.691C11.6992 105.691 0.788372 84.2137 0.0422211 57.1458H50.0596Z" fill="url(#paint22_linear_195_52)"/>
<path d="M4.5475 55.4388L11.1838 48.8027L40.9717 66.8973V66.9061C38.5858 83.9806 31.5263 96.3593 23.1873 96.3593C13.0734 96.359 4.84076 78.1508 4.5475 55.4388Z" fill="url(#paint23_linear_195_52)"/>
<path d="M9.01748 54.1858C9.01748 56.6238 10.0945 58.3619 10.9612 59.3655C11.578 60.0779 12.7824 60.6775 14.3636 61.052C15.7956 61.3923 17.3526 61.6469 19.0073 61.7962C22.2263 62.0899 25.0755 62.4815 27.5894 62.9344C34.1301 64.1094 38.3991 65.6761 40.9718 66.8974C40.9718 66.8974 42.4375 63.3302 42.4375 54.1858C42.4375 45.0414 40.9718 41.4741 40.9718 41.4741C38.3991 42.6955 34.1301 44.2621 27.5894 45.4371C25.0755 45.89 22.2263 46.2817 19.0073 46.5754C16.9242 46.7638 14.9953 47.1164 13.277 47.601C12.4496 47.8335 11.8083 48.1616 11.4263 48.5459C11.3455 48.6316 11.2624 48.7174 11.184 48.8029C9.82529 50.2864 9.01748 52.1564 9.01748 54.1858Z" fill="url(#paint24_linear_195_52)"/>
<path d="M9.01748 54.1858C9.01748 56.6238 10.0945 58.3619 10.9612 59.3655C11.578 60.0779 12.7824 60.6775 14.3636 61.052C15.7956 61.3923 17.3526 61.6469 19.0073 61.7962C22.2263 62.0899 25.0755 62.4815 27.5894 62.9344C34.1301 64.1094 38.3991 65.6761 40.9718 66.8974C40.9718 66.8974 42.4375 63.3302 42.4375 54.1858C42.4375 45.0414 40.9718 41.4741 40.9718 41.4741C38.3991 42.6955 34.1301 44.2621 27.5894 45.4371C25.0755 45.89 22.2263 46.2817 19.0073 46.5754C16.9242 46.7638 14.9953 47.1164 13.277 47.601C12.4496 47.8335 11.8083 48.1616 11.4263 48.5459C11.3455 48.6316 11.2624 48.7174 11.184 48.8029C9.82529 50.2864 9.01748 52.1564 9.01748 54.1858Z" fill="url(#paint25_linear_195_52)"/>
<path d="M9.01748 54.1858C9.01748 56.6238 10.0945 58.3619 10.9612 59.3655C11.578 60.0779 12.7824 60.6775 14.3636 61.052C15.7956 61.3923 17.3526 61.6469 19.0073 61.7962C22.2263 62.0899 25.0755 62.4815 27.5894 62.9344C34.1301 64.1094 38.3991 65.6761 40.9718 66.8974C40.9718 66.8974 42.4375 63.3302 42.4375 54.1858C42.4375 45.0414 40.9718 41.4741 40.9718 41.4741C38.3991 42.6955 34.1301 44.2621 27.5894 45.4371C25.0755 45.89 22.2263 46.2817 19.0073 46.5754C16.9242 46.7638 14.9953 47.1164 13.277 47.601C12.4496 47.8335 11.8083 48.1616 11.4263 48.5459C11.3455 48.6316 11.2624 48.7174 11.184 48.8029C9.82529 50.2864 9.01748 52.1564 9.01748 54.1858Z" fill="url(#paint26_linear_195_52)"/>
<path d="M16.5085 48.547C16.5914 48.6307 16.6724 48.716 16.7519 48.8026C18.1093 50.2868 18.9194 52.1553 18.9194 54.1855C18.9194 56.6238 17.8422 58.3617 16.9742 59.3661C16.4118 60.017 15.3526 60.5709 13.9679 60.9484C12.5833 60.5709 11.5241 60.0172 10.9616 59.3661C10.0936 58.3617 9.01643 56.6238 9.01643 54.1855C9.01643 52.1553 9.8266 50.2865 11.184 48.8026C11.2635 48.716 11.3445 48.6307 11.4274 48.547C11.807 48.1626 12.449 47.8324 13.2772 47.5997C13.5037 47.5361 13.7342 47.4751 13.9679 47.416C14.2017 47.4751 14.4322 47.5361 14.6587 47.5997C15.4869 47.8324 16.1288 48.1626 16.5085 48.547Z" fill="url(#paint27_linear_195_52)"/>
<defs>
<linearGradient id="paint0_linear_195_52" x1="85.4924" y1="89.0683" x2="78.7173" y2="89.0683" gradientUnits="userSpaceOnUse">
<stop stop-color="#5A5A5A"/>
<stop offset="1" stop-color="#444444"/>
</linearGradient>
<linearGradient id="paint1_linear_195_52" x1="80.0558" y1="89.0926" x2="77.1474" y2="81.0656" gradientUnits="userSpaceOnUse">
<stop stop-color="#433F43" stop-opacity="0"/>
<stop offset="1" stop-color="#1A1A1A"/>
</linearGradient>
<linearGradient id="paint2_linear_195_52" x1="95.1211" y1="91.5275" x2="73.3473" y2="106.043" gradientUnits="userSpaceOnUse">
<stop stop-color="#433F43" stop-opacity="0"/>
<stop offset="1" stop-color="#1A1A1A"/>
</linearGradient>
<linearGradient id="paint3_linear_195_52" x1="79.1873" y1="89.0875" x2="72.3326" y2="89.1683" gradientUnits="userSpaceOnUse">
<stop stop-color="#433F43" stop-opacity="0"/>
<stop offset="1" stop-color="#1A1A1A"/>
</linearGradient>
<linearGradient id="paint4_linear_195_52" x1="96.0433" y1="42.6815" x2="96.0433" y2="66.3962" gradientUnits="userSpaceOnUse">
<stop stop-color="#5A5A5A"/>
<stop offset="1" stop-color="#444444"/>
</linearGradient>
<linearGradient id="paint5_linear_195_52" x1="101.985" y1="43.8268" x2="101.985" y2="42.1835" gradientUnits="userSpaceOnUse">
<stop stop-color="#5A5A5A"/>
<stop offset="1" stop-color="#444444"/>
</linearGradient>
<linearGradient id="paint6_linear_195_52" x1="102.971" y1="48.3334" x2="102.971" y2="46.6901" gradientUnits="userSpaceOnUse">
<stop stop-color="#5A5A5A"/>
<stop offset="1" stop-color="#444444"/>
</linearGradient>
<linearGradient id="paint7_linear_195_52" x1="103.587" y1="52.84" x2="103.587" y2="51.1967" gradientUnits="userSpaceOnUse">
<stop stop-color="#5A5A5A"/>
<stop offset="1" stop-color="#444444"/>
</linearGradient>
<linearGradient id="paint8_linear_195_52" x1="103.587" y1="57.3466" x2="103.587" y2="55.7033" gradientUnits="userSpaceOnUse">
<stop stop-color="#5A5A5A"/>
<stop offset="1" stop-color="#444444"/>
</linearGradient>
<linearGradient id="paint9_linear_195_52" x1="102.971" y1="61.853" x2="102.971" y2="60.2098" gradientUnits="userSpaceOnUse">
<stop stop-color="#5A5A5A"/>
<stop offset="1" stop-color="#444444"/>
</linearGradient>
<linearGradient id="paint10_linear_195_52" x1="101.985" y1="66.3598" x2="101.985" y2="64.7164" gradientUnits="userSpaceOnUse">
<stop stop-color="#5A5A5A"/>
<stop offset="1" stop-color="#444444"/>
</linearGradient>
<linearGradient id="paint11_linear_195_52" x1="117.036" y1="28.5549" x2="93.8537" y2="50.7708" gradientUnits="userSpaceOnUse">
<stop stop-color="#5A5A5A"/>
<stop offset="1" stop-color="#444444"/>
</linearGradient>
<linearGradient id="paint12_linear_195_52" x1="103.769" y1="50.4645" x2="89.4561" y2="54.4161" gradientUnits="userSpaceOnUse">
<stop stop-color="#433F43" stop-opacity="0"/>
<stop offset="1" stop-color="#1A1A1A"/>
</linearGradient>
<linearGradient id="paint13_linear_195_52" x1="90.2903" y1="56.8191" x2="90.2903" y2="70.0784" gradientUnits="userSpaceOnUse">
<stop stop-color="#433F43" stop-opacity="0"/>
<stop offset="1" stop-color="#1A1A1A"/>
</linearGradient>
<linearGradient id="paint14_linear_195_52" x1="96.4593" y1="59.0142" x2="96.4593" y2="70.0007" gradientUnits="userSpaceOnUse">
<stop stop-color="#433F43" stop-opacity="0"/>
<stop offset="1" stop-color="#1A1A1A"/>
</linearGradient>
<linearGradient id="paint15_linear_195_52" x1="62.5681" y1="40.4825" x2="64.4003" y2="60.8989" gradientUnits="userSpaceOnUse">
<stop stop-color="#FEF0AE"/>
<stop offset="1" stop-color="#FBC56D"/>
</linearGradient>
<linearGradient id="paint16_linear_195_52" x1="66.999" y1="50.0277" x2="43.1797" y2="52.9071" gradientUnits="userSpaceOnUse">
<stop stop-color="#DC8758" stop-opacity="0"/>
<stop offset="0.2153" stop-color="#DD8654" stop-opacity="0.215"/>
<stop offset="0.4291" stop-color="#E28448" stop-opacity="0.429"/>
<stop offset="0.6424" stop-color="#EA8034" stop-opacity="0.642"/>
<stop offset="0.8543" stop-color="#F47B18" stop-opacity="0.854"/>
<stop offset="1" stop-color="#FE7701"/>
</linearGradient>
<linearGradient id="paint17_linear_195_52" x1="61.971" y1="60.9013" x2="67.7295" y2="81.8412" gradientUnits="userSpaceOnUse">
<stop stop-color="#DC8758" stop-opacity="0"/>
<stop offset="0.2153" stop-color="#DD8654" stop-opacity="0.215"/>
<stop offset="0.4291" stop-color="#E28448" stop-opacity="0.429"/>
<stop offset="0.6424" stop-color="#EA8034" stop-opacity="0.642"/>
<stop offset="0.8543" stop-color="#F47B18" stop-opacity="0.854"/>
<stop offset="1" stop-color="#FE7701"/>
</linearGradient>
<linearGradient id="paint18_linear_195_52" x1="53.4533" y1="54.1863" x2="21.508" y2="54.1863" gradientUnits="userSpaceOnUse">
<stop stop-color="#FEF0AE"/>
<stop offset="1" stop-color="#FBC56D"/>
</linearGradient>
<linearGradient id="paint19_linear_195_52" x1="31.7244" y1="54.1857" x2="-0.707167" y2="54.1857" gradientUnits="userSpaceOnUse">
<stop stop-color="#DC8758" stop-opacity="0"/>
<stop offset="0.2153" stop-color="#DD8654" stop-opacity="0.215"/>
<stop offset="0.4291" stop-color="#E28448" stop-opacity="0.429"/>
<stop offset="0.6424" stop-color="#EA8034" stop-opacity="0.642"/>
<stop offset="0.8543" stop-color="#F47B18" stop-opacity="0.854"/>
<stop offset="1" stop-color="#FE7701"/>
</linearGradient>
<linearGradient id="paint20_linear_195_52" x1="67.3226" y1="44.3917" x2="-2.93004" y2="59.9814" gradientUnits="userSpaceOnUse">
<stop stop-color="#DC8758" stop-opacity="0"/>
<stop offset="0.2153" stop-color="#DD8654" stop-opacity="0.215"/>
<stop offset="0.4291" stop-color="#E28448" stop-opacity="0.429"/>
<stop offset="0.6424" stop-color="#EA8034" stop-opacity="0.642"/>
<stop offset="0.8543" stop-color="#F47B18" stop-opacity="0.854"/>
<stop offset="1" stop-color="#FE7701"/>
</linearGradient>
<linearGradient id="paint21_linear_195_52" x1="7.76509" y1="54.1858" x2="43.8874" y2="54.1858" gradientUnits="userSpaceOnUse">
<stop stop-color="#DC8758" stop-opacity="0"/>
<stop offset="0.2153" stop-color="#DD8654" stop-opacity="0.215"/>
<stop offset="0.4291" stop-color="#E28448" stop-opacity="0.429"/>
<stop offset="0.6424" stop-color="#EA8034" stop-opacity="0.642"/>
<stop offset="0.8543" stop-color="#F47B18" stop-opacity="0.854"/>
<stop offset="1" stop-color="#FE7701"/>
</linearGradient>
<linearGradient id="paint22_linear_195_52" x1="20.4756" y1="75.7633" x2="4.78705" y2="97.076" gradientUnits="userSpaceOnUse">
<stop stop-color="#DC8758" stop-opacity="0"/>
<stop offset="0.2153" stop-color="#DD8654" stop-opacity="0.215"/>
<stop offset="0.4291" stop-color="#E28448" stop-opacity="0.429"/>
<stop offset="0.6424" stop-color="#EA8034" stop-opacity="0.642"/>
<stop offset="0.8543" stop-color="#F47B18" stop-opacity="0.854"/>
<stop offset="1" stop-color="#FE7701"/>
</linearGradient>
<linearGradient id="paint23_linear_195_52" x1="17.7892" y1="75.675" x2="24.4201" y2="60.9006" gradientUnits="userSpaceOnUse">
<stop stop-color="#DC8758" stop-opacity="0"/>
<stop offset="0.2153" stop-color="#DD8654" stop-opacity="0.215"/>
<stop offset="0.4291" stop-color="#E28448" stop-opacity="0.429"/>
<stop offset="0.6424" stop-color="#EA8034" stop-opacity="0.642"/>
<stop offset="0.8543" stop-color="#F47B18" stop-opacity="0.854"/>
<stop offset="1" stop-color="#FE7701"/>
</linearGradient>
<linearGradient id="paint24_linear_195_52" x1="25.7276" y1="49.2293" x2="25.7276" y2="59.5696" gradientUnits="userSpaceOnUse">
<stop stop-color="#EAF9FA"/>
<stop offset="1" stop-color="#B3DAFE"/>
</linearGradient>
<linearGradient id="paint25_linear_195_52" x1="29.3355" y1="52.7047" x2="43.7317" y2="54.5371" gradientUnits="userSpaceOnUse">
<stop stop-color="#7BACDF" stop-opacity="0"/>
<stop offset="1" stop-color="#7BACDF"/>
</linearGradient>
<linearGradient id="paint26_linear_195_52" x1="26.0163" y1="55.1047" x2="24.7367" y2="62.2012" gradientUnits="userSpaceOnUse">
<stop stop-color="#7BACDF" stop-opacity="0"/>
<stop offset="1" stop-color="#7BACDF"/>
</linearGradient>
<linearGradient id="paint27_linear_195_52" x1="27.5703" y1="41.3228" x2="6.71759" y2="61.0414" gradientUnits="userSpaceOnUse">
<stop stop-color="#7BACDF" stop-opacity="0"/>
<stop offset="1" stop-color="#7BACDF"/>
</linearGradient>
</defs>
</svg>
