<svg width="251" height="251" viewBox="0 0 251 251" fill="none" xmlns="http://www.w3.org/2000/svg">
<path d="M-23.7387 82.2868C-24.1127 82.1088 -24.5602 82.2676 -24.7382 82.6416C-24.9163 83.0156 -24.7574 83.4631 -24.3834 83.6412L-23.7387 82.2868ZM244.157 22.1238L243.518 22.5167L244.157 22.1238ZM123.438 22.1237L123.866 22.7396V22.7396L123.438 22.1237ZM-19.6708 85.8423C-19.2943 86.015 -18.8491 85.8498 -18.6763 85.4734C-18.5036 85.0969 -18.6688 84.6516 -19.0453 84.4789L-19.6708 85.8423ZM-9.50056 88.7267C-9.88073 88.5622 -10.3222 88.7371 -10.4867 89.1173C-10.6511 89.4975 -10.4763 89.939 -10.0961 90.1034L-9.50056 88.7267ZM-0.469381 94.1628C-0.0863056 94.3203 0.351967 94.1375 0.509529 93.7544C0.667089 93.3714 0.484274 92.9331 0.101198 92.7755L-0.469381 94.1628ZM9.7853 96.6641C9.39966 96.513 8.96449 96.703 8.81331 97.0887C8.66214 97.4743 8.85221 97.9095 9.23785 98.0607L9.7853 96.6641ZM19.0069 101.799C19.395 101.944 19.827 101.747 19.9719 101.359C20.1168 100.971 19.9197 100.539 19.5317 100.394L19.0069 101.799ZM29.3369 103.964C28.9465 103.826 28.5178 104.03 28.3793 104.42C28.2408 104.811 28.445 105.239 28.8353 105.378L29.3369 103.964ZM38.7237 108.792C39.1164 108.924 39.5416 108.713 39.6734 108.32C39.8052 107.927 39.5937 107.502 39.2011 107.37L38.7237 108.792ZM49.1235 110.602C48.7285 110.478 48.3072 110.697 48.1826 111.092C48.0579 111.487 48.2771 111.908 48.6721 112.033L49.1235 110.602ZM58.6786 115.083C59.076 115.2 59.4929 114.973 59.6097 114.575C59.7265 114.178 59.4991 113.761 59.1017 113.644L58.6786 115.083ZM69.1379 116.479C68.738 116.371 68.3262 116.607 68.2181 117.007C68.1099 117.407 68.3464 117.819 68.7462 117.927L69.1379 116.479ZM78.8808 120.539C79.2831 120.637 79.6891 120.39 79.7874 119.988C79.8858 119.586 79.6394 119.18 79.237 119.081L78.8808 120.539ZM89.3968 121.419C88.9919 121.332 88.593 121.59 88.5058 121.995C88.4187 122.4 88.6763 122.799 89.0813 122.886L89.3968 121.419ZM99.3477 124.926C99.7552 125 100.146 124.73 100.22 124.322C100.294 123.915 100.023 123.524 99.6156 123.45L99.3477 124.926ZM109.892 125.118C109.482 125.06 109.102 125.345 109.044 125.756C108.986 126.166 109.271 126.545 109.681 126.604L109.892 125.118ZM120.089 127.843C120.502 127.882 120.868 127.579 120.907 127.167C120.946 126.754 120.643 126.388 120.231 126.349L120.089 127.843ZM130.607 127.036C130.193 127.021 129.845 127.344 129.831 127.758C129.816 128.172 130.14 128.52 130.553 128.535L130.607 127.036ZM140.716 128.514C141.13 128.495 141.45 128.143 141.431 127.73C141.411 127.316 141.06 126.996 140.646 127.016L140.716 128.514ZM150.309 126.131C149.899 126.186 149.611 126.564 149.667 126.975C149.722 127.385 150.1 127.673 150.511 127.617L150.309 126.131ZM160.192 125.896C160.597 125.807 160.853 125.407 160.764 125.002C160.675 124.598 160.275 124.342 159.871 124.431L160.192 125.896ZM169.27 121.984C168.874 122.103 168.649 122.522 168.768 122.918C168.888 123.315 169.306 123.54 169.703 123.42L169.27 121.984ZM179.003 120.249C179.39 120.101 179.584 119.668 179.436 119.281C179.289 118.894 178.855 118.7 178.468 118.848L179.003 120.249ZM187.424 115.068C187.049 115.242 186.885 115.688 187.059 116.064C187.233 116.44 187.679 116.603 188.055 116.429L187.424 115.068ZM196.822 111.998C197.185 111.798 197.317 111.342 197.118 110.979C196.919 110.616 196.463 110.484 196.1 110.683L196.822 111.998ZM204.455 105.716C204.106 105.94 204.005 106.404 204.229 106.753C204.453 107.101 204.917 107.202 205.265 106.979L204.455 105.716ZM213.345 101.382C213.677 101.134 213.745 100.664 213.498 100.332C213.25 100 212.78 99.9321 212.448 100.18L213.345 101.382ZM220.007 94.088C219.695 94.3599 219.662 94.8337 219.934 95.1461C220.206 95.4586 220.679 95.4914 220.992 95.2195L220.007 94.088ZM228.147 88.4681C228.436 88.1715 228.43 87.6967 228.133 87.4075C227.837 87.1184 227.362 87.1244 227.073 87.4209L228.147 88.4681ZM233.529 80.1724C233.268 80.4944 233.318 80.9666 233.64 81.2272C233.962 81.4877 234.434 81.4379 234.695 81.1159L233.529 80.1724ZM240.48 73.1436C240.704 72.7954 240.603 72.3313 240.255 72.107C239.907 71.8828 239.443 71.9834 239.219 72.3316L240.48 73.1436ZM243.927 63.8888C243.75 64.2635 243.91 64.7104 244.285 64.8871C244.66 65.0638 245.107 64.9034 245.283 64.5288L243.927 63.8888ZM248.784 55.2846C248.897 54.8862 248.666 54.4714 248.268 54.3581C247.869 54.2448 247.454 54.4759 247.341 54.8743L248.784 55.2846ZM249.046 45.4264C249.016 45.8395 249.326 46.1988 249.74 46.2288C250.153 46.2589 250.512 45.9484 250.542 45.5353L249.046 45.4264ZM250.082 35.6208C250.011 35.2126 249.623 34.9387 249.215 35.0091C248.807 35.0794 248.533 35.4673 248.603 35.8755L250.082 35.6208ZM245.779 26.7474C245.951 27.1241 246.396 27.2899 246.773 27.1177C247.15 26.9455 247.315 26.5005 247.143 26.1238L245.779 26.7474ZM241.912 17.8767C241.637 17.5671 241.163 17.5392 240.853 17.8143C240.544 18.0895 240.516 18.5636 240.791 18.8732L241.912 17.8767ZM233.832 12.8939C234.175 13.1256 234.641 13.0351 234.873 12.6918C235.105 12.3485 235.014 11.8823 234.671 11.6506L233.832 12.8939ZM226.342 7.0657C225.964 6.89618 225.52 7.06514 225.35 7.44308C225.181 7.82102 225.35 8.26482 225.728 8.43433L226.342 7.0657ZM217.022 5.22313C217.419 5.34157 217.837 5.11581 217.955 4.71889C218.074 4.32197 217.848 3.90419 217.451 3.78575L217.022 5.22313ZM208.244 1.59326C207.836 1.51901 207.446 1.78916 207.371 2.19666C207.297 2.60417 207.567 2.99471 207.975 3.06896L208.244 1.59326ZM198.745 1.85415C199.158 1.88853 199.521 1.58178 199.555 1.16899C199.59 0.756208 199.283 0.393707 198.87 0.359325L198.745 1.85415ZM189.421 0.00239724C189.007 0.00515199 188.674 0.343164 188.676 0.757369C188.679 1.17157 189.017 1.50512 189.431 1.50236L189.421 0.00239724ZM180.119 1.96455C180.531 1.92651 180.835 1.56131 180.797 1.14885C180.759 0.736382 180.394 0.432852 179.981 0.470891L180.119 1.96455ZM170.617 1.72806C170.209 1.80003 169.937 2.18905 170.009 2.59696C170.081 3.00487 170.47 3.27721 170.878 3.20525L170.617 1.72806ZM161.77 5.19655C162.171 5.0918 162.411 4.68201 162.306 4.28126C162.201 3.88051 161.792 3.64056 161.391 3.74531L161.77 5.19655ZM152.359 6.4971C151.968 6.63354 151.761 7.06119 151.898 7.45228C152.034 7.84338 152.462 8.04983 152.853 7.9134L152.359 6.4971ZM144.179 11.3301C144.558 11.1632 144.73 10.7206 144.564 10.3415C144.397 9.96237 143.954 9.79034 143.575 9.95724L144.179 11.3301ZM135.089 14.0967C134.724 14.2926 134.587 14.7473 134.783 15.1123C134.979 15.4772 135.433 15.6142 135.798 15.4183L135.089 14.0967ZM127.752 20.1462C128.101 19.9229 128.203 19.459 127.979 19.1102C127.756 18.7614 127.292 18.6596 126.943 18.883L127.752 20.1462ZM119.03 24.5034C118.709 24.7648 118.66 25.2372 118.921 25.5585C119.183 25.8799 119.655 25.9285 119.977 25.6672L119.03 24.5034ZM112.891 32.3351C113.172 32.0308 113.154 31.5563 112.849 31.2753C112.545 30.9943 112.07 31.0131 111.789 31.3174L112.891 32.3351ZM105.542 39.0334C105.302 39.371 105.381 39.8392 105.719 40.0793C106.056 40.3194 106.525 40.2403 106.765 39.9028L105.542 39.0334ZM101.576 48.1543C101.777 47.7922 101.647 47.3356 101.285 47.1344C100.922 46.9332 100.466 47.0636 100.265 47.4257L101.576 48.1543ZM95.8803 56.316C95.7147 56.6956 95.8881 57.1377 96.2678 57.3033C96.6474 57.469 97.0895 57.2955 97.2551 56.9159L95.8803 56.316ZM93.7238 66.0434C93.8576 65.6514 93.6482 65.2251 93.2562 65.0914C92.8642 64.9576 92.438 65.1669 92.3042 65.559L93.7238 66.0434ZM89.451 75.0454C89.3457 75.446 89.5851 75.8561 89.9857 75.9614C90.3863 76.0668 90.7964 75.8274 90.9017 75.4268L89.451 75.0454ZM88.7155 84.9825C88.7954 84.5761 88.5306 84.1819 88.1242 84.102C87.7178 84.0221 87.3235 84.2868 87.2436 84.6933L88.7155 84.9825ZM85.6159 94.4388C85.559 94.8491 85.8454 95.2278 86.2557 95.2848C86.6659 95.3418 87.0447 95.0553 87.1017 94.6451L85.6159 94.4388ZM86.0041 104.388C86.0402 103.975 85.7349 103.611 85.3223 103.575C84.9096 103.539 84.5459 103.844 84.5098 104.257L86.0041 104.388ZM83.882 114.116C83.8652 114.53 84.1871 114.879 84.601 114.896C85.0148 114.913 85.364 114.591 85.3808 114.177L83.882 114.116ZM85.1986 123.989C85.1973 123.575 84.8605 123.24 84.4463 123.241C84.0321 123.243 83.6973 123.579 83.6986 123.994L85.1986 123.989ZM83.9339 133.869C83.9523 134.283 84.3027 134.603 84.7165 134.585C85.1303 134.567 85.4508 134.216 85.4325 133.802L83.9339 133.869ZM86.0648 143.6C86.0299 143.187 85.6671 142.881 85.2543 142.916C84.8416 142.951 84.5353 143.314 84.5702 143.726L86.0648 143.6ZM85.5966 153.551C85.6477 153.962 86.0224 154.254 86.4334 154.203C86.8445 154.152 87.1362 153.777 87.0851 153.366L85.5966 153.551ZM88.4895 163.084C88.4221 162.675 88.0362 162.399 87.6275 162.466C87.2188 162.533 86.9421 162.919 87.0095 163.328L88.4895 163.084ZM88.8127 173.041C88.8966 173.446 89.2934 173.707 89.6991 173.623C90.1047 173.539 90.3655 173.142 90.2816 172.737L88.8127 173.041ZM92.4727 182.303C92.3715 181.902 91.9639 181.658 91.5622 181.759C91.1606 181.86 90.917 182.268 91.0181 182.67L92.4727 182.303ZM93.6473 192.189C93.7669 192.585 94.1854 192.81 94.582 192.69C94.9785 192.571 95.203 192.152 95.0835 191.756L93.6473 192.189ZM98.1452 201.055C98.0054 200.665 97.576 200.462 97.1861 200.602C96.7962 200.742 96.5935 201.171 96.7333 201.561L98.1452 201.055ZM100.345 210.784C100.508 211.165 100.949 211.341 101.33 211.179C101.711 211.016 101.888 210.575 101.725 210.194L100.345 210.784ZM105.893 219.077C105.703 218.708 105.25 218.564 104.882 218.754C104.514 218.944 104.37 219.396 104.559 219.764L105.893 219.077ZM109.472 228.346C109.695 228.695 110.159 228.798 110.508 228.575C110.857 228.352 110.96 227.889 110.737 227.539L109.472 228.346ZM116.469 235.449C116.204 235.13 115.732 235.087 115.413 235.352C115.095 235.617 115.051 236.09 115.316 236.408L116.469 235.449ZM122.302 243.47C122.621 243.734 123.094 243.689 123.358 243.37C123.622 243.051 123.578 242.579 123.259 242.314L122.302 243.47ZM131.402 247.39C131.021 247.229 130.58 247.407 130.419 247.788C130.257 248.17 130.435 248.61 130.817 248.771L131.402 247.39ZM-24.3834 83.6412C-22.9077 84.3437 -21.3344 85.0789 -19.6708 85.8423L-19.0453 84.4789C-20.7029 83.7184 -22.2697 82.9861 -23.7387 82.2868L-24.3834 83.6412ZM-10.0961 90.1034C-7.06577 91.4142 -3.84826 92.773 -0.469381 94.1628L0.101198 92.7755C-3.26943 91.3892 -6.47862 90.0339 -9.50056 88.7267L-10.0961 90.1034ZM9.23785 98.0607C12.3968 99.299 15.6587 100.549 19.0069 101.799L19.5317 100.394C16.1912 99.1465 12.9369 97.8996 9.7853 96.6641L9.23785 98.0607ZM28.8353 105.378C32.0754 106.528 35.376 107.669 38.7237 108.792L39.2011 107.37C35.8618 106.25 32.5693 105.111 29.3369 103.964L28.8353 105.378ZM48.6721 112.033C51.9797 113.076 55.3191 114.096 58.6786 115.083L59.1017 113.644C55.7521 112.66 52.4221 111.643 49.1235 110.602L48.6721 112.033ZM68.7462 117.927C72.1201 118.839 75.5022 119.713 78.8808 120.539L79.237 119.081C75.871 118.259 72.5007 117.388 69.1379 116.479L68.7462 117.927ZM89.0813 122.886C92.5236 123.627 95.95 124.309 99.3477 124.926L99.6156 123.45C96.2349 122.837 92.8244 122.157 89.3968 121.419L89.0813 122.886ZM109.681 126.604C113.202 127.104 116.676 127.52 120.089 127.843L120.231 126.349C116.843 126.029 113.391 125.616 109.892 125.118L109.681 126.604ZM130.553 128.535C132.325 128.597 134.074 128.63 135.798 128.63V127.13C134.093 127.13 132.361 127.098 130.607 127.036L130.553 128.535ZM135.798 128.63C137.436 128.63 139.076 128.591 140.716 128.514L140.646 127.016C139.029 127.091 137.412 127.13 135.798 127.13V128.63ZM150.511 127.617C153.751 127.178 156.983 126.601 160.192 125.896L159.871 124.431C156.699 125.127 153.508 125.697 150.309 126.131L150.511 127.617ZM169.703 123.42C172.839 122.476 175.943 121.416 179.003 120.249L178.468 118.848C175.441 120.002 172.372 121.051 169.27 121.984L169.703 123.42ZM188.055 116.429C191.037 115.047 193.964 113.567 196.822 111.998L196.1 110.683C193.271 112.236 190.376 113.701 187.424 115.068L188.055 116.429ZM205.265 106.979C208.047 105.193 210.745 103.323 213.345 101.382L212.448 100.18C209.876 102.1 207.208 103.949 204.455 105.716L205.265 106.979ZM220.992 95.2195C223.504 93.0333 225.894 90.7787 228.147 88.4681L227.073 87.4209C224.849 89.7012 222.489 91.9277 220.007 94.088L220.992 95.2195ZM234.695 81.1159C236.808 78.5046 238.743 75.8419 240.48 73.1436L239.219 72.3316C237.513 74.9815 235.61 77.6004 233.529 80.1724L234.695 81.1159ZM245.283 64.5288C246.728 61.4653 247.904 58.3767 248.784 55.2846L247.341 54.8743C246.486 57.8809 245.34 60.8929 243.927 63.8888L245.283 64.5288ZM250.542 45.5353C250.785 42.1966 250.643 38.882 250.082 35.6208L248.603 35.8755C249.143 39.0098 249.281 42.2021 249.046 45.4264L250.542 45.5353ZM247.143 26.1238C246.464 24.6384 245.683 23.173 244.796 21.7309L243.518 22.5167C244.374 23.9074 245.126 25.3186 245.779 26.7474L247.143 26.1238ZM244.796 21.7309C243.98 20.4035 243.014 19.1166 241.912 17.8767L240.791 18.8732C241.84 20.0532 242.752 21.2701 243.518 22.5167L244.796 21.7309ZM234.671 11.6506C232.18 9.96977 229.39 8.43281 226.342 7.0657L225.728 8.43433C228.705 9.76995 231.42 11.2661 233.832 12.8939L234.671 11.6506ZM217.451 3.78575C214.53 2.91407 211.452 2.17794 208.244 1.59326L207.975 3.06896C211.132 3.64419 214.155 4.36775 217.022 5.22313L217.451 3.78575ZM198.87 0.359325C195.802 0.103756 192.646 -0.019051 189.421 0.00239724L189.431 1.50236C192.612 1.48121 195.722 1.60233 198.745 1.85415L198.87 0.359325ZM179.981 0.470891C176.9 0.755006 173.775 1.17104 170.617 1.72806L170.878 3.20525C173.994 2.65546 177.079 2.24489 180.119 1.96455L179.981 0.470891ZM161.391 3.74531C158.393 4.52907 155.378 5.44386 152.359 6.4971L152.853 7.9134C155.834 6.87346 158.81 5.9703 161.77 5.19655L161.391 3.74531ZM143.575 9.95724C140.738 11.2063 137.906 12.5841 135.089 14.0967L135.798 15.4183C138.581 13.9242 141.378 12.5636 144.179 11.3301L143.575 9.95724ZM126.943 18.883C125.627 19.7261 124.315 20.6008 123.01 21.5078L123.866 22.7396C125.156 21.8434 126.451 20.9792 127.752 20.1462L126.943 18.883ZM123.01 21.5078C121.644 22.4574 120.317 23.4567 119.03 24.5034L119.977 25.6672C121.235 24.6439 122.531 23.6673 123.866 22.7396L123.01 21.5078ZM111.789 31.3174C109.561 33.7305 107.48 36.3085 105.542 39.0334L106.765 39.9028C108.668 37.227 110.709 34.6989 112.891 32.3351L111.789 31.3174ZM100.265 47.4257C98.6803 50.2766 97.2204 53.2451 95.8803 56.316L97.2551 56.9159C98.5772 53.8862 100.016 50.9608 101.576 48.1543L100.265 47.4257ZM92.3042 65.559C91.2507 68.6462 90.3009 71.8126 89.451 75.0454L90.9017 75.4268C91.743 72.2268 92.6825 69.0948 93.7238 66.0434L92.3042 65.559ZM87.2436 84.6933C86.6143 87.896 86.0728 91.1482 85.6159 94.4388L87.1017 94.6451C87.5548 91.381 88.0918 88.1564 88.7155 84.9825L87.2436 84.6933ZM84.5098 104.257C84.2245 107.521 84.0162 110.811 83.882 114.116L85.3808 114.177C85.514 110.894 85.7209 107.627 86.0041 104.388L84.5098 104.257ZM83.6986 123.994C83.7084 127.283 83.7878 130.578 83.9339 133.869L85.4325 133.802C85.2872 130.532 85.2084 127.257 85.1986 123.989L83.6986 123.994ZM84.5702 143.726C84.8486 147.018 85.1917 150.297 85.5966 153.551L87.0851 153.366C86.6826 150.131 86.3416 146.872 86.0648 143.6L84.5702 143.726ZM87.0095 163.328C87.5496 166.605 88.1517 169.846 88.8127 173.041L90.2816 172.737C89.6247 169.562 89.0263 166.341 88.4895 163.084L87.0095 163.328ZM91.0181 182.67C91.8342 185.91 92.7118 189.087 93.6473 192.189L95.0835 191.756C94.1548 188.677 93.2833 185.522 92.4727 182.303L91.0181 182.67ZM96.7333 201.561C97.8746 204.744 99.0801 207.824 100.345 210.784L101.725 210.194C100.472 207.263 99.2771 204.211 98.1452 201.055L96.7333 201.561ZM104.559 219.764C106.128 222.806 107.768 225.674 109.472 228.346L110.737 227.539C109.059 224.91 107.442 222.081 105.893 219.077L104.559 219.764ZM115.316 236.408C117.558 239.103 119.89 241.472 122.302 243.47L123.259 242.314C120.929 240.385 118.662 238.084 116.469 235.449L115.316 236.408ZM130.817 248.771C132.401 249.443 134.012 249.954 135.646 250.295L135.951 248.826C134.419 248.507 132.902 248.026 131.402 247.39L130.817 248.771Z" fill="#140B43"/>
</svg>
