<svg width="65" height="65" viewBox="0 0 65 65" fill="none" xmlns="http://www.w3.org/2000/svg">
<path d="M0 53.4473V55.3516C0 58.5017 2.5628 61.0645 5.71289 61.0645H59.2871C62.4372 61.0645 65 58.5017 65 55.3516V53.4473H0Z" fill="#2928E8"/>
<path d="M62.0353 43.291H2.96533L0.584961 49.6387H64.4157L62.0353 43.291Z" fill="#2928E8"/>
<path d="M61.1914 9.64844C61.1914 6.49835 58.6286 3.93555 55.4785 3.93555H9.52148C6.3714 3.93555 3.80859 6.49835 3.80859 9.64844V39.4824H61.1914V9.64844ZM23.4585 25.5903C23.0392 27.939 20.7961 29.6436 18.125 29.6436C15.9859 29.6436 13.8963 28.7468 12.535 27.2446C11.9464 26.5953 11.9958 25.5916 12.6453 25.0032C13.2948 24.4146 14.2983 24.4641 14.8868 25.1135C15.6564 25.9627 16.8669 26.4699 18.1248 26.4699C19.347 26.4699 20.2078 25.7391 20.334 25.0326C20.5017 24.0937 19.2301 23.5167 18.6756 23.3121C16.711 22.5875 14.9665 21.8109 14.8933 21.7783C14.8168 21.7442 14.7432 21.7042 14.6731 21.6585C13.3363 20.7871 12.6476 19.2585 12.8756 17.6697C13.1187 15.9764 14.3567 14.5969 16.1068 14.0698C19.3441 13.0946 22.3038 14.7968 22.9173 15.9444C23.3304 16.7173 23.0387 17.6789 22.2658 18.0921C21.5672 18.4655 20.7147 18.2631 20.2521 17.6502C19.9325 17.3795 18.6282 16.6251 17.0224 17.1088C16.2114 17.3531 16.0494 17.8979 16.0174 18.1208C15.9944 18.281 15.9829 18.6654 16.3258 18.9414C16.7708 19.1363 18.2188 19.761 19.774 20.3347C22.9719 21.5139 23.7741 23.8229 23.4585 25.5903ZM32.8759 20.1221C33.7523 20.1221 34.4628 20.8325 34.4628 21.709C34.4628 22.5855 33.7523 23.2959 32.8759 23.2959H29.508V26.4697H33.2704C34.1467 26.4697 34.8573 27.1803 34.8573 28.0566C34.8573 28.933 34.1467 29.6436 33.2704 29.6436H27.9211C27.0447 29.6436 26.3341 28.933 26.3341 28.0566V15.3613C26.3341 14.485 27.0447 13.7744 27.9211 13.7744H33.2704C34.1467 13.7744 34.8573 14.485 34.8573 15.3613C34.8573 16.2377 34.1467 16.9482 33.2704 16.9482H29.508V20.1221H32.8759ZM44.9414 29.6436C40.5662 29.6436 37.0068 26.084 37.0068 21.709C37.0068 17.3339 40.5662 13.7744 44.9414 13.7744C49.3166 13.7744 52.876 17.3339 52.876 21.709C52.876 26.084 49.3166 29.6436 44.9414 29.6436Z" fill="#2928E8"/>
<path d="M44.9414 26.4697C47.5707 26.4697 49.7021 24.3383 49.7021 21.709C49.7021 19.0797 47.5707 16.9482 44.9414 16.9482C42.3121 16.9482 40.1807 19.0797 40.1807 21.709C40.1807 24.3383 42.3121 26.4697 44.9414 26.4697Z" fill="#2928E8"/>
</svg>
