<svg width="65" height="65" viewBox="0 0 65 65" fill="none" xmlns="http://www.w3.org/2000/svg">
<path d="M59.9219 17.7734H56.748C55.6964 17.7734 54.8438 18.6261 54.8438 19.6777V48.877C54.8438 49.9286 55.6964 50.7812 56.748 50.7812H59.9219C61.809 50.7812 63.5593 51.3744 65 52.3814V22.8516C65 20.047 62.7264 17.7734 59.9219 17.7734Z" fill="#2928E8"/>
<path d="M22.8516 48.2422H26.6602V53.3203H22.8516V48.2422Z" fill="#2928E8"/>
<path d="M16.5039 42.8959V53.3199H19.043V46.3375C19.043 45.2858 19.8956 44.4332 20.9473 44.4332H28.5645C29.6161 44.4332 30.4688 45.2858 30.4688 46.3375V53.3199H33.0078V42.8959L24.7559 37.2227L16.5039 42.8959Z" fill="#2928E8"/>
<path d="M59.9219 54.5898H56.748C53.5929 54.5898 51.0352 52.0321 51.0352 48.877V25.3906H23.2289C20.3689 27.7677 16.6962 29.1992 12.6953 29.1992C8.69438 29.1992 5.02176 27.7677 2.16176 25.3906H1.9043C0.852617 25.3906 0 26.2432 0 27.2949V62.8418C0 63.8935 0.852617 64.7461 1.9043 64.7461H59.8216C62.669 64.7461 65.0535 62.4159 64.9991 59.5689C64.9463 56.8101 62.6934 54.5898 59.9219 54.5898ZM40.2898 45.5918C39.694 46.4584 38.5084 46.678 37.6419 46.0821L36.8164 45.5146V55.2246C36.8164 56.2763 35.9638 57.1289 34.9121 57.1289H14.5996C13.5479 57.1289 12.6953 56.2763 12.6953 55.2246V45.5147L11.8699 46.0822C11.0033 46.678 9.81767 46.4585 9.22188 45.5919C8.62608 44.7252 8.84559 43.5397 9.71217 42.9438L23.677 33.343C24.3269 32.8961 25.1848 32.8961 25.8347 33.343L39.7995 42.9438C40.6661 43.5396 40.8858 44.7252 40.2898 45.5918Z" fill="#2928E8"/>
<path d="M11.6683 7.8674C11.1658 8.12626 10.9014 8.63445 10.8204 9.06381C10.7242 9.57441 10.8538 10.0549 11.1507 10.2878C11.3014 10.406 11.4766 10.5203 11.6683 10.6314V7.8674Z" fill="#2928E8"/>
<path d="M14.9191 15.6693C14.9816 15.2975 15.0716 14.0438 13.604 13.5251C13.5931 13.5213 13.5831 13.5176 13.5723 13.5137V17.4289C14.3454 17.0868 14.8032 16.3584 14.9191 15.6693Z" fill="#2928E8"/>
<path d="M12.6953 25.3906C19.7068 25.3906 25.3906 19.7068 25.3906 12.6953C25.3906 5.68382 19.7068 0 12.6953 0C5.68382 0 0 5.68382 0 12.6953C0 19.7068 5.68382 25.3906 12.6953 25.3906ZM8.69159 17.2171C8.97939 16.777 9.56947 16.6536 10.0096 16.9415C10.6742 17.3762 11.0777 17.5414 11.668 17.5999V12.7646C10.9435 12.4379 10.4089 12.1262 9.97521 11.7862C9.11219 11.1094 8.71889 9.93116 8.9488 8.71127C9.20004 7.37737 10.1272 6.31668 11.3683 5.94268C11.4698 5.91208 11.5694 5.8858 11.668 5.86155V5.07812C11.668 4.55216 12.0942 4.12598 12.6202 4.12598C13.1461 4.12598 13.5723 4.55216 13.5723 5.07812V5.75123C14.6517 5.90852 15.4105 6.43005 15.7706 6.84379C16.1161 7.24026 16.0747 7.84164 15.6781 8.18708C15.2831 8.53125 14.6844 8.49139 14.3382 8.09847C14.3204 8.08031 14.0679 7.83047 13.5723 7.69526V11.4875C13.7959 11.5713 14.0196 11.6521 14.2387 11.7296C16.1159 12.3932 17.1201 14.0635 16.7972 15.985C16.5443 17.4888 15.3823 19.0135 13.5723 19.425V20.3125C13.5723 20.8385 13.1461 21.2646 12.6202 21.2646C12.0942 21.2646 11.668 20.8385 11.668 20.3125V19.5107C10.7538 19.4472 10.0219 19.225 8.96721 18.5352C8.52706 18.2472 8.40366 17.6573 8.69159 17.2171Z" fill="#2928E8"/>
</svg>
