<svg width="65" height="65" viewBox="0 0 65 65" fill="none" xmlns="http://www.w3.org/2000/svg">
<path d="M59.2871 7.61719H55.9863V13.3301C55.9863 16.4802 53.4235 19.043 50.2734 19.043C49.2218 19.043 48.3691 18.1904 48.3691 17.1387C48.3691 16.087 49.2218 15.2344 50.2734 15.2344C51.3235 15.2344 52.1777 14.3801 52.1777 13.3301V7.61719H48.3691V5.71289C48.3691 4.66286 49.2234 3.80859 50.2734 3.80859C51.3235 3.80859 52.1777 4.66286 52.1777 5.71289V7.61719H55.9863V5.71289C55.9863 2.5628 53.4235 0 50.2734 0C47.1233 0 44.5605 2.5628 44.5605 5.71289V7.61719H38.2129V13.3301C38.2129 16.4802 35.6501 19.043 32.5 19.043C31.4483 19.043 30.5957 18.1904 30.5957 17.1387C30.5957 16.087 31.4483 15.2344 32.5 15.2344C33.55 15.2344 34.4043 14.3801 34.4043 13.3301V7.61719H30.5957V5.71289C30.5957 4.66286 31.45 3.80859 32.5 3.80859C33.55 3.80859 34.4043 4.66286 34.4043 5.71289V7.61719H38.2129V5.71289C38.2129 2.5628 35.6501 0 32.5 0C29.3499 0 26.7871 2.5628 26.7871 5.71289V7.61719H20.4395V13.3301C20.4395 16.4802 17.8766 19.043 14.7266 19.043C13.6749 19.043 12.8223 18.1904 12.8223 17.1387C12.8223 16.087 13.6749 15.2344 14.7266 15.2344C15.7766 15.2344 16.6309 14.3801 16.6309 13.3301V7.61719H12.8223V5.71289C12.8223 4.66286 13.6765 3.80859 14.7266 3.80859C15.7766 3.80859 16.6309 4.66286 16.6309 5.71289V7.61719H20.4395V5.71289C20.4395 2.5628 17.8766 0 14.7266 0C11.5765 0 9.01367 2.5628 9.01367 5.71289V7.61719H5.71289C2.5628 7.61719 0 10.18 0 13.3301V21.8359H65V13.3301C65 10.18 62.4372 7.61719 59.2871 7.61719Z" fill="#2928E8"/>
<path d="M22.3438 56.1133C28.2939 56.1133 33.1348 51.2724 33.1348 45.3223C33.1348 39.3721 28.2939 34.5312 22.3438 34.5312C16.3936 34.5312 11.5527 39.3721 11.5527 45.3223C11.5527 51.2724 16.3936 56.1133 22.3438 56.1133ZM20.4395 38.9746C20.4395 37.9229 21.2921 37.0703 22.3438 37.0703C23.3954 37.0703 24.248 37.9229 24.248 38.9746V43.418H27.4219C28.4736 43.418 29.3262 44.2706 29.3262 45.3223C29.3262 46.3739 28.4736 47.2266 27.4219 47.2266H22.3438C21.2921 47.2266 20.4395 46.3739 20.4395 45.3223V38.9746Z" fill="#2928E8"/>
<path d="M0 59.2871C0 62.4372 2.5628 65 5.71289 65H59.2871C62.4372 65 65 62.4372 65 59.2871V25.6445H0V59.2871ZM42.6562 35.8008H55.3516C56.4032 35.8008 57.2559 36.6534 57.2559 37.7051C57.2559 38.7568 56.4032 39.6094 55.3516 39.6094H42.6562C41.6046 39.6094 40.752 38.7568 40.752 37.7051C40.752 36.6534 41.6046 35.8008 42.6562 35.8008ZM42.6562 43.418H55.3516C56.4032 43.418 57.2559 44.2706 57.2559 45.3223C57.2559 46.3739 56.4032 47.2266 55.3516 47.2266H42.6562C41.6046 47.2266 40.752 46.3739 40.752 45.3223C40.752 44.2706 41.6046 43.418 42.6562 43.418ZM42.6562 51.0352H55.3516C56.4032 51.0352 57.2559 51.8878 57.2559 52.9395C57.2559 53.9911 56.4032 54.8438 55.3516 54.8438H42.6562C41.6046 54.8438 40.752 53.9911 40.752 52.9395C40.752 51.8878 41.6046 51.0352 42.6562 51.0352ZM22.3438 30.7227C30.394 30.7227 36.9434 37.272 36.9434 45.3223C36.9434 53.3725 30.394 59.9219 22.3438 59.9219C14.2935 59.9219 7.74414 53.3725 7.74414 45.3223C7.74414 37.272 14.2935 30.7227 22.3438 30.7227Z" fill="#2928E8"/>
</svg>
