<svg width="1290" height="260" viewBox="0 0 1290 260" fill="none" xmlns="http://www.w3.org/2000/svg">
<g opacity="0.2">
<g clip-path="url(#clip0_2519_227)">
<path d="M1869.67 620.575C1826.38 620.575 1778.03 600.388 1725.24 560.112C1706.4 545.776 1687.74 529.831 1669.73 514.423C1631.26 481.558 1591.44 447.522 1547.83 427.189C1475.98 393.69 1396.61 398.079 1319.84 402.37C1274.1 404.905 1226.84 407.538 1182.1 401.979C1158.02 399.005 1136.54 393.934 1116.44 386.474C1093.87 378.135 1073.59 367.067 1054.38 352.585C1019.67 326.4 989.982 289.049 961.271 252.966C935.307 220.296 908.476 186.553 877.956 161.1C770.667 71.672 643.237 100.636 576.809 125.846C494.833 157.004 417.883 211.665 343.464 264.571C327.192 276.127 310.341 288.122 293.707 299.63C237.151 338.834 171.737 374.283 115.109 339.955C95.8352 328.302 78.8035 308.895 64.4839 282.369C52.0807 259.402 41.9557 231.755 34.4704 200.157C27.1298 169.194 22.3927 136.817 17.8365 105.463C13.895 78.3035 9.80882 50.2659 4.0231 23.2523C-28.16 -127.176 -116.609 -251.273 -226.791 -300.668L-226.321 -302.521C-172.369 -278.237 -122.178 -235.084 -81.2801 -177.692C-40.3462 -120.252 -10.4051 -50.9621 5.39719 22.7647C11.1829 49.8271 15.2691 77.9622 19.2468 105.122C23.803 136.427 28.5039 168.755 35.8446 199.621C45.174 238.971 67.9915 309.285 115.724 338.2C171.809 372.187 236.862 336.883 293.092 297.923C309.69 286.416 326.541 274.421 342.813 262.864C417.304 209.958 494.327 155.2 576.448 123.993C602.086 114.24 628.013 107.219 653.47 103.074C680.301 98.7344 706.699 97.6129 731.903 99.7097C787.446 104.391 836.841 124.48 878.752 159.442C909.38 184.993 936.283 218.833 962.283 251.552C990.922 287.586 1020.54 324.84 1055.11 350.878C1134.48 410.708 1228.68 405.442 1319.8 400.37C1358.17 398.225 1397.84 396.031 1436.21 398.566C1479.31 401.443 1515.98 410.171 1548.34 425.287C1592.09 445.718 1631.98 479.753 1670.53 512.716C1688.54 528.124 1707.19 544.021 1726 558.356C1799.91 614.724 1865.07 631.595 1919.6 608.58L1920.04 610.433C1904.09 617.26 1887.31 620.575 1869.67 620.575Z" fill="white"/>
<path d="M1878.52 603.216C1859.03 603.216 1838.39 599.413 1816.69 591.806C1786.42 581.176 1753.26 562.842 1718.12 537.194C1700.94 524.662 1683.8 511.107 1667.2 497.99C1629.59 468.246 1590.69 437.477 1549.43 417.388C1543.53 414.511 1537.64 411.878 1531.89 409.586C1454 378.135 1369.24 388.082 1287.26 397.737C1242.82 402.955 1196.86 408.367 1153.68 406.66C1128.23 405.588 1107.47 402.711 1088.38 397.542C1065.23 391.252 1044.73 381.646 1025.78 368.139C991.321 343.612 962.175 307.042 934.042 271.69C909.561 240.97 884.249 209.178 855.465 185.285C752.226 99.7094 629.677 126.284 565.817 149.738C487.131 178.702 413.255 229.853 341.837 279.345C326.107 290.219 309.871 301.483 293.816 312.356C270.275 328.253 239.358 347.708 208.621 357.07C175.317 367.213 147.148 364.531 122.414 348.83C77.0682 320.061 52.4789 255.013 39.8226 205.521C31.9396 174.655 26.4431 142.375 21.1275 111.168C16.3904 83.3256 11.5088 54.5566 4.92751 26.9091C0.949829 10.184 -3.82338 -6.54105 -9.21133 -22.7785C-52.785 -153.556 -137.582 -255.759 -236.156 -295.987L-235.758 -297.791C-211.025 -287.697 -186.869 -273.557 -163.835 -255.759C-141.307 -238.351 -119.936 -217.433 -100.3 -193.589C-61.102 -146.047 -29.2083 -87.2407 -8.01807 -23.4612C-2.59395 -7.17496 2.17931 9.59888 6.15698 26.4214C12.7744 54.1177 17.6561 82.9355 22.3931 110.827C27.7088 141.985 33.1691 174.168 41.0521 204.985C53.636 254.136 78.0445 318.744 122.92 347.221C175.606 380.671 235.85 349.464 293.093 310.747C309.112 299.922 325.384 288.659 341.078 277.785C412.568 228.244 486.516 177.044 565.347 148.032C590.009 138.962 614.923 132.477 639.368 128.722C665.151 124.773 690.535 123.895 714.763 126.089C768.173 130.916 815.688 150.323 856.079 183.773C885.008 207.715 910.357 239.605 934.91 270.373C963.007 305.627 992.044 342.101 1026.36 366.53C1069.72 397.396 1115.03 403.198 1153.65 404.807C1196.75 406.465 1242.67 401.102 1287.08 395.884C1369.2 386.229 1454.11 376.282 1532.25 407.831C1538.04 410.171 1543.97 412.804 1549.86 415.681C1591.23 435.819 1630.21 466.637 1667.85 496.43C1684.41 509.546 1701.55 523.102 1718.73 535.585C1796.37 592.148 1863.34 612.335 1917.83 595.658L1918.16 597.511C1905.61 601.315 1892.37 603.216 1878.52 603.216Z" fill="white"/>
<path d="M1889.26 586.93C1865.8 586.93 1840.23 581.664 1813 571.132C1781.94 559.137 1748.6 540.559 1710.99 514.325C1696.06 503.89 1681.09 492.87 1666.62 482.192C1624.24 450.985 1580.42 418.705 1534.2 399.054C1528.09 396.47 1521.91 394.08 1515.94 391.984C1431.32 362.727 1340.63 378.867 1252.94 394.519C1209.51 402.272 1168.51 409.586 1128.26 411.683C1120.38 412.073 1112.28 412.366 1104 412.366C1069.75 412.366 1032.54 407.441 997.178 383.694C963.151 360.777 934.692 325.181 907.138 290.756C883.995 261.84 860.093 231.901 832.9 209.52C733.675 127.796 616.044 151.982 554.751 173.631C479.356 200.353 408.589 248.041 340.137 294.169C324.986 304.36 309.292 314.941 293.851 325.083C269.624 340.98 240.948 358.387 212.128 366.872C180.126 376.283 153.15 373.259 129.682 357.705C110.299 344.832 92.8338 324.108 77.7547 296.022C65.1346 272.519 54.1417 243.847 45.1015 210.836C36.6761 180.068 30.4565 148.032 24.4538 117.02C18.9211 88.4459 13.1716 58.8966 5.72246 30.5664C1.27469 13.6464 -3.89629 -3.17623 -9.68201 -19.4624C-56.9803 -152.531 -145.104 -254.198 -245.486 -291.452L-245.125 -293.207C-219.812 -283.845 -194.934 -270.192 -171.176 -252.687C-148.033 -235.62 -125.903 -214.897 -105.472 -191.053C-64.9357 -143.754 -31.4146 -84.7047 -8.52489 -20.2426C-2.703 -3.85888 2.468 13.0125 6.95193 29.9813C14.4011 58.3603 20.1506 87.9582 25.7194 116.581C31.7221 147.544 37.9417 179.532 46.331 210.202C60.1083 260.475 85.8186 326.595 130.224 356.047C179.764 388.912 237.838 359.801 293.237 323.426C308.677 313.283 324.371 302.702 339.522 292.511C408.011 246.383 478.85 198.646 554.39 171.876C578.075 163.489 601.977 157.54 625.446 154.225C650.216 150.714 674.552 150.031 697.803 152.274C749.079 157.248 794.75 175.972 833.587 207.959C860.888 230.438 884.863 260.426 908.042 289.39C935.488 323.718 963.874 359.216 997.757 382.036C1041.4 411.391 1087.94 411.781 1128.19 409.879C1168.36 407.782 1209.33 400.468 1252.76 392.715C1340.6 377.063 1431.4 360.874 1516.27 390.228C1522.3 392.325 1528.45 394.714 1534.6 397.299C1580.92 416.998 1624.82 449.278 1667.27 480.534C1681.74 491.212 1696.71 502.232 1711.64 512.619C1794.31 570.303 1861.24 593.172 1916.24 582.542L1916.42 584.346C1907.67 586.053 1898.63 586.93 1889.26 586.93Z" fill="white"/>
<path d="M1901.88 571.814C1832.31 571.814 1756.19 526.466 1703.8 491.358C1691.86 483.362 1679.86 475.072 1668.21 467.027C1620.3 433.967 1570.76 399.785 1518.87 380.671C1512.51 378.33 1506.1 376.233 1499.85 374.38C1408.18 347.611 1311.49 370.675 1217.94 392.958C1177.77 402.516 1139.87 411.585 1102.7 416.754C1056.55 423.142 1011.61 426.652 968.431 399.2C934.982 377.94 907.247 343.466 880.415 310.065C858.538 282.856 835.938 254.721 810.227 233.705C715.052 155.833 602.303 177.581 543.578 197.524C471.473 222.051 403.817 266.228 338.366 308.943C323.757 318.5 308.641 328.35 293.743 337.81C269.118 353.462 242.576 369.017 215.491 376.623C184.791 385.254 159.081 381.938 136.806 366.53C101.296 342.003 72.1863 291.389 50.2729 216.151C41.3774 185.578 34.4345 153.834 27.7448 123.115C21.3443 93.7117 14.7269 63.3335 6.40988 34.2719C1.5282 17.2056 -4.07672 0.236694 -10.2602 -16.147C-61.2107 -151.41 -152.661 -252.638 -254.815 -286.869L-254.49 -288.575C-228.599 -279.896 -203.033 -266.779 -178.516 -249.566C-154.722 -232.841 -131.869 -212.313 -110.642 -188.469C-68.7683 -141.463 -33.62 -82.1695 -9.03073 -16.976C-2.81108 -0.543457 2.79382 16.4741 7.71167 33.5893C16.0648 62.7484 22.6822 93.1753 29.0827 122.578C35.7724 153.249 42.6791 184.992 51.5747 215.468C73.3796 290.316 102.272 340.589 137.493 364.921C184.032 397.103 239.9 370.138 293.309 336.152C308.208 326.692 323.287 316.842 337.896 307.285C403.383 264.522 471.148 220.344 543.361 195.769C566.07 188.064 588.96 182.701 611.416 179.726C635.137 176.606 658.461 176.167 680.736 178.507C729.842 183.627 773.669 201.669 810.987 232.193C836.806 253.307 859.442 281.491 881.356 308.748C908.115 342.052 935.778 376.428 969.045 397.591C1011.9 424.799 1056.66 421.337 1102.62 414.95C1139.72 409.781 1177.66 400.76 1217.76 391.203C1311.42 368.87 1408.25 345.758 1500.17 372.625C1506.43 374.478 1512.87 376.575 1519.23 378.915C1571.27 398.078 1620.84 432.309 1668.83 465.417C1680.44 473.463 1692.48 481.752 1704.37 489.749C1759.81 526.905 1841.89 575.569 1914.43 569.522L1914.5 571.278C1910.35 571.668 1906.12 571.814 1901.88 571.814Z" fill="white"/>
<path d="M1912.7 558.21C1881.45 557.43 1846.38 548.117 1805.55 529.685C1774.09 515.495 1739.49 496.04 1696.67 468.441C1688.64 463.272 1680.51 457.957 1672.63 452.837C1618.31 417.437 1562.15 380.817 1503.65 362.337C1497.03 360.24 1490.41 358.387 1483.9 356.827C1384.06 332.593 1280.43 363.605 1180.15 393.544C1144.32 404.271 1110.47 414.365 1077.27 421.825C1056.12 426.604 1032.18 431.968 1008.53 432.358C982.714 432.748 960.259 426.994 939.828 414.755C907.102 395.104 880.162 361.8 854.091 329.618C833.407 304.067 812.036 277.639 787.736 257.939C696.611 183.92 588.779 203.278 532.585 221.417C463.808 243.75 399.224 284.417 336.811 323.718C322.745 332.593 308.208 341.76 293.852 350.537C245.686 380.037 190.396 408.709 144.11 375.405C108.637 349.854 79.7081 299.484 55.625 221.466C46.2594 191.185 38.7018 159.735 31.3612 129.356C24.0567 99.0758 16.5353 67.8199 7.27811 37.8806C1.96249 20.668 -4.07635 3.55279 -10.6576 -12.8797C-65.5135 -150.288 -160.291 -250.98 -264.145 -282.285L-263.891 -283.894C-237.386 -275.897 -211.133 -263.268 -185.893 -246.397C-161.448 -230.062 -137.871 -209.679 -115.849 -185.835C-72.6372 -139.122 -35.8978 -79.5361 -9.53664 -13.6111C-2.91922 2.91891 3.1196 20.0341 8.47137 37.2955C17.7285 67.2835 25.2862 98.5882 32.5906 128.869C39.8951 159.247 47.4527 190.6 56.8184 220.832C80.7929 298.509 109.541 348.586 144.761 373.942C190.577 406.953 245.505 378.379 293.418 349.025C307.738 340.248 322.311 331.081 336.341 322.206C398.827 282.856 463.446 242.141 532.368 219.759C576.955 205.375 622.373 200.206 663.74 204.79C710.713 210.007 752.696 227.415 788.459 256.477C812.831 276.274 834.275 302.751 854.995 328.35C880.994 360.484 907.862 393.69 940.406 413.195C986.114 440.598 1034.46 429.725 1077.13 420.119C1110.29 412.658 1144.14 402.516 1179.94 391.837C1229.37 377.063 1280.46 361.8 1331.59 353.267C1389.45 343.613 1439.35 344.246 1484.16 355.12C1490.66 356.729 1497.32 358.582 1503.94 360.679C1562.59 379.208 1618.78 415.877 1673.17 451.326C1681.05 456.446 1689.19 461.761 1697.21 466.929C1760.6 507.742 1842.4 554.846 1912.73 556.552L1912.7 558.21Z" fill="white"/>
<path d="M1910.89 545.142C1879.57 541.095 1843.88 529.246 1801.83 509.01C1762.38 489.993 1722.89 466.246 1689.48 445.523C1686.4 443.621 1683.33 441.671 1680.26 439.769C1615.64 399.59 1554.6 361.605 1488.35 343.954C1481.52 342.149 1474.61 340.54 1467.88 339.175C1358.86 317.769 1247.56 357.802 1139.94 396.518C1109.28 407.538 1080.28 417.973 1051.78 426.799L1048.13 427.92C1021.48 436.21 994.249 444.645 966.948 444.645C948.361 444.645 929.739 440.744 911.188 430.212C879.294 412.17 853.15 380.183 827.874 349.22C808.311 325.278 788.097 300.507 765.171 282.076C678.06 211.957 575.146 228.877 521.556 245.212C456.105 265.351 394.668 302.507 335.219 338.395C321.695 346.587 307.701 355.022 293.888 363.165C272.517 375.697 247.638 389.643 222.579 395.884C194.554 402.906 171.267 399.054 151.342 384.133C131.49 369.261 113.843 347.074 97.4625 316.257C84.6616 292.218 72.6923 262.864 60.9039 226.634C51.1405 196.695 42.9682 165.683 35.0851 135.744C26.8405 104.537 18.3427 72.2568 8.10919 41.3911C2.32349 23.9834 -4.11313 6.81949 -11.0922 -9.75928C-69.8172 -149.118 -167.921 -249.322 -273.475 -277.75L-273.258 -279.311C-246.173 -271.996 -219.233 -259.904 -193.198 -243.325C-168.102 -227.331 -143.802 -207.144 -120.985 -183.3C-76.4708 -136.831 -38.1042 -77.0496 -10.0073 -10.3932C-3.02832 6.18561 3.48065 23.447 9.26636 40.9035C19.536 71.7692 28.0338 104.098 36.2784 135.354C44.1615 165.293 52.3338 196.256 62.0611 226.147C78.5504 276.858 105.816 348.245 151.993 382.865C194.843 414.95 247.493 388.814 293.454 361.8C307.231 353.706 321.225 345.221 334.786 337.03C394.27 301.093 455.743 263.888 521.339 243.75C564.515 230.584 606.678 226.342 646.672 231.12C691.511 236.484 731.614 253.209 765.858 280.759C788.856 299.288 809.142 324.108 828.741 348.098C853.946 378.964 880.017 410.854 911.694 428.798C957.184 454.544 1003.33 440.257 1047.91 426.409L1051.56 425.287C1080.02 416.461 1109.02 406.026 1139.69 395.007C1192.52 375.99 1247.12 356.339 1302.38 344.051C1365.01 330.106 1419.21 328.009 1468.1 337.615C1474.83 338.931 1481.73 340.54 1488.6 342.393C1518.4 350.341 1550.22 363.409 1585.88 382.28C1617.7 399.151 1649.77 419.094 1680.8 438.355C1683.87 440.257 1686.94 442.207 1690.02 444.109C1765.02 490.627 1843.7 534.853 1911.03 543.581L1910.89 545.142Z" fill="white"/>
<path d="M1909.08 532.025C1837.55 515.398 1751.49 463.906 1682.35 422.557C1606.31 377.014 1542.59 340.931 1473.09 325.522C1466 323.962 1458.88 322.597 1451.9 321.524C1332.46 303.238 1207.38 356.047 1097.05 402.662C1072.5 413.048 1049.29 422.849 1026.32 431.821C1023.79 432.797 1021.26 433.821 1018.69 434.845C989.983 446.206 960.656 457.811 930.968 457.811C914.913 457.811 898.785 454.398 882.549 445.767C851.595 429.237 826.283 398.615 801.838 369.066C783.36 346.684 764.231 323.572 742.643 306.31C681.097 257.208 598.651 243.994 510.527 269.154C448.403 287.098 390.112 320.744 333.701 353.267C320.683 360.776 307.231 368.53 293.96 375.99C273.421 387.498 249.555 400.175 226.159 405.588C199.472 411.781 177.414 407.685 158.647 393.056C113.482 357.9 85.5298 288.561 66.2199 232.047C56.131 202.547 47.4163 172.071 38.9908 142.619C29.7698 110.34 20.2234 76.987 8.94125 45.146C2.72162 27.592 -4.18509 10.2818 -11.5257 -6.34571C-74.1561 -147.85 -175.587 -247.616 -282.804 -273.166L-282.623 -274.678C-254.924 -268.095 -227.297 -256.49 -200.538 -240.204C-174.792 -224.552 -149.768 -204.559 -126.155 -180.715C-80.3396 -134.539 -40.3459 -74.5137 -10.5132 -7.1259C-3.13644 9.5504 3.77026 26.9094 10.0261 44.5121C21.3444 76.4018 30.8908 109.754 40.1118 142.083C48.5373 171.535 57.252 201.962 67.3047 231.462C86.5422 287.781 114.386 356.876 159.262 391.789C199.255 422.898 247.53 400.37 293.562 374.576C306.834 367.164 320.285 359.411 333.303 351.902C389.75 319.33 448.114 285.684 510.346 267.74C551.497 255.989 591.636 252.527 629.641 257.452C672.346 262.962 710.605 279.004 743.294 305.091C764.99 322.402 784.156 345.563 802.67 367.993C827.042 397.494 852.282 428.018 883.055 444.45C928.871 468.929 974.433 450.887 1018.44 433.479C1020.97 432.455 1023.54 431.48 1026.07 430.456C1049 421.435 1072.21 411.634 1096.77 401.297C1153.28 377.404 1211.72 352.731 1271.57 336.055C1339.55 317.135 1398.6 311.918 1452.08 320.11C1459.06 321.182 1466.22 322.548 1473.31 324.108C1505.92 331.325 1540.57 344.1 1579.26 363.215C1613.86 380.281 1648 400.419 1682.82 421.24C1751.93 462.541 1837.88 513.984 1909.26 530.563L1909.08 532.025Z" fill="white"/>
<path d="M1907.27 518.957C1844.72 498.136 1771.74 455.714 1701.12 414.706C1692.59 409.732 1683.8 404.612 1675.19 399.688C1610.36 362.19 1534.74 321.036 1457.83 307.188C1450.49 305.871 1443.15 304.798 1435.92 303.969C1423.15 302.507 1410.32 301.824 1397.51 301.824C1278.55 301.824 1158.35 360.386 1051.06 412.707C1033.7 421.191 1017.28 429.188 1000.9 436.941C997.432 438.599 993.852 440.305 990.417 441.963C959.933 456.592 928.727 471.561 896.869 471.561C882.694 471.561 868.411 468.587 853.982 461.37C824.041 446.303 799.597 417.193 775.984 389.009C758.518 368.188 740.474 346.635 720.151 330.593C661.607 284.319 583.247 271.007 499.535 293.096C440.773 308.846 385.628 338.931 332.255 368.09C319.743 374.917 306.798 381.987 294.069 388.716C273.458 399.59 251.544 410.61 229.775 415.193C204.463 420.508 183.598 416.169 165.988 401.93C121.98 366.384 93.5578 298.801 71.6083 237.362C61.2301 208.398 52.0453 178.556 43.1859 149.689C32.9162 116.288 22.285 81.7165 9.84567 48.8027C3.15594 31.1025 -4.14853 13.646 -11.9231 -3.07904C-78.5312 -146.632 -183.289 -245.86 -292.133 -268.632L-291.952 -270.095C-263.674 -264.146 -235.36 -253.077 -207.842 -237.083C-181.445 -221.772 -155.698 -201.976 -131.29 -178.131C-84.2085 -132.198 -42.5874 -71.9297 -10.9829 -3.81046C-3.20834 12.9146 4.13226 30.4198 10.822 48.1689C23.2613 81.1313 33.8926 115.703 44.1984 149.153C53.0578 178.02 62.2426 207.813 72.6207 236.777C94.5341 298.021 122.812 365.36 166.566 400.711C203.812 430.797 247.928 411.536 293.708 387.4C306.436 380.671 319.382 373.6 331.893 366.774C385.303 337.615 440.52 307.48 499.354 291.73C538.48 281.393 576.557 278.711 612.609 283.734C653.182 289.39 689.559 304.75 720.73 329.374C741.161 345.514 759.241 367.066 776.743 387.936C800.284 416.022 824.656 445.084 854.38 460.005C900.919 483.41 946.229 461.663 990.055 440.598C993.491 438.94 997.071 437.234 1000.54 435.576C1016.92 427.823 1033.34 419.826 1050.7 411.39C1158.06 359.07 1278.4 300.459 1397.51 300.459C1410.39 300.459 1423.19 301.141 1436.03 302.604C1443.26 303.433 1450.64 304.506 1457.98 305.822C1492.18 311.966 1528.16 323.669 1568.01 341.662C1605.98 358.777 1643.73 379.988 1675.66 398.42C1684.27 403.393 1693.09 408.513 1701.59 413.438C1772.14 454.397 1845.11 496.82 1907.56 517.592L1907.27 518.957Z" fill="white"/>
<path d="M1905.5 505.841C1854.19 483.703 1796.87 450.643 1736.23 415.633C1713.81 402.711 1690.67 389.351 1668.07 376.722C1601.61 339.566 1522.85 300.021 1442.57 288.805C1435.01 287.733 1427.38 286.904 1419.93 286.367C1411.04 285.685 1402.11 285.392 1393.21 285.392C1257.17 285.392 1121.75 360.679 1001.41 427.579C992.839 432.358 983.98 437.283 975.446 441.964C971.251 444.256 966.984 446.694 962.826 449.034C930.751 467.076 897.881 485.605 863.926 485.605C851.234 485.605 838.397 483.021 825.379 476.877C796.522 463.224 772.982 435.625 750.2 408.953C733.747 389.643 716.716 369.7 697.623 354.779C642.08 311.382 567.806 297.973 488.505 316.989C433.143 330.545 381.144 357.12 330.844 382.866C318.803 389.009 306.363 395.397 294.105 401.444C273.565 411.586 253.496 420.997 233.355 424.751C209.416 429.189 189.745 424.654 173.256 410.806C153.186 393.983 134.889 369.7 117.351 336.591C101.187 306.067 87.8439 271.983 76.8871 242.677C66.2921 214.347 56.7456 185.237 47.4884 157.102C36.0616 122.384 24.2733 86.5445 10.6768 52.4605C3.55316 34.5652 -4.18527 17.0112 -12.3576 0.237366C-82.9073 -145.217 -190.992 -244.007 -301.499 -263.999L-301.354 -265.364C-272.462 -260.147 -243.461 -249.566 -215.219 -233.913C-188.171 -218.944 -161.702 -199.293 -136.497 -175.546C-88.1144 -129.955 -44.8661 -69.4422 -11.4897 -0.591583C-3.31741 16.231 4.42102 33.8337 11.5808 51.7291C25.2134 85.8618 37.0018 121.75 48.4286 156.468C57.6858 184.603 67.2684 213.713 77.8273 241.995C100.717 303.336 128.922 371.992 173.798 409.538C211.188 440.842 258.92 417.291 293.743 400.078C306.002 394.032 318.441 387.644 330.483 381.5C380.818 355.754 432.854 329.131 488.324 315.575C525.389 306.701 561.477 304.799 595.541 309.919C633.98 315.722 668.513 330.399 698.129 353.56C717.294 368.53 734.362 388.522 750.851 407.88C773.56 434.504 797.029 462.005 825.704 475.56C873.183 497.99 918.529 472.44 962.392 447.767C966.55 445.426 970.853 442.988 975.012 440.696C983.582 435.966 992.405 431.042 1000.98 426.312C1065.81 390.277 1132.89 352.975 1203.58 325.132C1284.4 293.291 1355.21 280.175 1419.93 285.002C1427.42 285.587 1435.05 286.416 1442.61 287.44C1478.41 292.462 1515.72 303.092 1556.69 320.013C1589.6 333.568 1624.06 350.683 1668.39 375.503C1690.99 388.132 1714.14 401.492 1736.56 414.414C1797.2 449.424 1854.48 482.436 1905.75 504.573L1905.5 505.841Z" fill="white"/>
<path d="M831.599 499.794C819.485 499.794 807.914 497.307 796.74 492.382C769.005 480.095 746.368 454.056 724.454 428.895C708.978 411.098 692.958 392.715 675.095 378.964C622.553 338.444 552.365 324.888 477.476 340.833C425.513 352.194 376.733 375.258 329.543 397.591C317.971 403.052 305.966 408.757 294.178 414.121C277.616 421.679 257.04 431.041 236.971 434.21C214.407 437.77 195.965 432.991 180.56 419.631C136.553 381.402 107.841 313.868 82.2393 247.992C71.5358 220.442 61.6639 192.209 52.1174 164.903C39.4973 128.82 26.4433 91.4688 11.545 56.0682C3.95126 38.0266 -4.22104 20.3263 -12.755 3.45499C-87.3185 -143.95 -198.73 -242.252 -310.828 -259.514L-310.72 -260.83C-281.212 -256.295 -251.561 -246.202 -222.524 -230.891C-194.861 -216.262 -167.632 -196.807 -141.632 -173.06C-92.0194 -127.712 -47.18 -66.956 -11.9956 2.6748C-3.46167 19.5949 4.74686 37.2952 12.3406 55.3855C27.2388 90.8348 40.329 128.186 52.9491 164.269C62.4955 191.575 72.3675 219.808 83.0711 247.309C108.637 313.039 137.24 380.427 181.067 418.461C215.636 448.449 258.993 428.7 293.852 412.853C305.641 407.489 317.61 401.784 329.181 396.323C376.407 373.99 425.26 350.829 477.296 339.468C512.335 332.007 546.399 330.886 578.51 336.152C614.815 342.101 647.468 356.095 675.565 377.745C693.501 391.593 709.556 410.025 725.069 427.823C746.91 452.886 769.475 478.827 797.029 491.066C845.665 512.618 891.228 483.264 935.272 454.836C939.973 451.813 944.782 448.692 949.519 445.718C1015.01 404.466 1089.28 357.704 1167.03 322.45C1255.08 282.515 1332.61 264.522 1403.95 267.35C1411.65 267.691 1419.54 268.228 1427.35 269.057C1514.64 278.077 1598.21 318.403 1661.27 352.536C1702.78 374.966 1744.8 399.785 1785.45 423.776C1827.72 448.692 1867.64 472.244 1904.05 491.505L1903.69 492.724C1867.24 473.463 1827.32 449.911 1785.05 424.995C1744.4 401.004 1702.42 376.233 1660.91 353.803C1597.92 319.719 1514.46 279.394 1427.27 270.422C1419.46 269.642 1411.62 269.057 1403.92 268.715C1399.14 268.52 1394.3 268.423 1389.52 268.423C1233.42 268.423 1076.66 367.164 949.917 446.937C945.216 449.911 940.37 453.032 935.67 456.055C913.865 470.099 891.336 484.629 868.193 492.87C855.429 497.502 843.243 499.794 831.599 499.794Z" fill="white"/>
<path d="M799.921 514.276C788.964 514.276 778.406 512.131 768.1 507.889C741.558 496.869 719.789 472.488 698.743 448.937C684.207 432.65 669.2 415.828 652.53 403.15C602.773 365.311 536.671 351.658 466.411 364.677C418.1 373.649 372.718 393.203 328.819 412.122C317.464 416.998 305.748 422.069 294.213 426.848C277.688 433.674 258.92 441.379 240.55 443.67C219.396 446.303 202.148 441.33 187.828 428.457C167.614 410.269 148.919 384.572 130.622 349.952C114.747 319.915 101.187 287.05 87.5543 253.258C76.8146 226.684 66.7257 199.426 56.9985 173.095C43.0766 135.452 28.6846 96.5402 12.3761 59.6768C4.31226 41.4889 -4.25784 23.6424 -13.1895 6.72229C-91.7307 -142.584 -206.505 -240.35 -320.158 -254.93L-320.086 -256.197C-289.964 -252.345 -259.625 -242.788 -229.865 -227.77C-201.551 -213.483 -173.599 -194.222 -146.804 -170.475C-95.9254 -125.371 -49.4949 -64.3714 -12.4663 5.94214C-3.53461 22.911 5.07162 40.7575 13.1355 58.9942C29.444 95.8576 43.8721 134.818 57.794 172.51C67.5212 198.841 77.6101 226.098 88.3498 252.624C112.288 311.967 142.085 385.791 188.334 427.384C220.156 456.007 261.054 439.136 293.96 425.629C305.495 420.85 317.211 415.828 328.566 410.952C372.501 392.032 417.919 372.43 466.338 363.458C499.245 357.363 531.247 356.973 561.513 362.386C595.649 368.481 626.458 381.841 653.036 402.077C669.779 414.804 684.822 431.675 699.394 447.961C721.344 472.537 742.064 495.747 768.425 506.67C818.363 527.344 864.251 494.138 908.62 462.004C913.719 458.299 918.962 454.495 924.097 450.887C1062.7 353.072 1224.34 248.821 1388 249.845C1395.96 249.894 1404.06 250.235 1412.12 250.771C1484.01 255.696 1560.92 280.76 1654.15 329.667C1724.26 366.384 1795.32 411.147 1857.98 450.643C1873.5 460.395 1888.14 469.611 1902.35 478.486L1901.96 479.607C1887.75 470.782 1873.1 461.517 1857.59 451.765C1794.92 412.268 1723.9 367.554 1653.79 330.837C1560.64 281.979 1483.83 256.915 1412.05 251.991C1404.02 251.454 1395.92 251.113 1387.97 251.064C1387.17 251.064 1386.38 251.064 1385.58 251.064C1222.93 251.064 1062.34 354.73 924.495 451.96C919.396 455.568 914.117 459.371 909.054 463.077C887.141 478.925 864.504 495.357 841.036 505.158C826.608 511.253 812.975 514.276 799.921 514.276Z" fill="white"/>
<path d="M768.606 528.904C758.626 528.904 748.935 527.052 739.461 523.443C714.112 513.691 693.247 490.968 673.07 469.026C659.509 454.251 645.479 438.989 630.002 427.384C583.246 392.373 521.231 378.623 455.382 388.619C410.579 395.397 368.488 411.488 327.771 427.043C316.778 431.236 305.423 435.576 294.25 439.623L293.092 440.013C277.76 445.572 260.403 451.862 243.516 453.227C224.062 454.788 208.223 449.619 195.061 437.38C174.883 418.558 156.043 392.325 137.457 357.168C121.04 326.156 106.901 292.364 93.2319 259.646L92.798 258.622C82.1306 233.12 71.9694 207.081 62.1698 181.872C46.8377 142.522 30.9631 101.806 13.1359 63.3336C4.63806 44.9507 -4.4021 27.0067 -13.6954 9.98904C-96.1781 -141.122 -214.243 -238.449 -329.487 -250.395L-329.415 -251.565C-298.715 -248.396 -267.652 -239.326 -237.169 -224.649C-208.204 -210.704 -179.529 -191.589 -151.938 -167.891C-99.8304 -123.08 -51.7727 -61.8361 -12.936 9.20883C-3.64273 26.2265 5.43362 44.2193 13.9314 62.6022C31.7587 101.075 47.6332 141.79 63.0015 181.189C72.8373 206.399 82.9622 232.437 93.6297 257.89L94.0636 258.914C121.907 325.522 150.728 394.373 195.639 436.258C224.785 463.418 262.573 449.765 292.948 438.745L294.105 438.355C305.279 434.308 316.633 429.968 327.59 425.775C368.343 410.22 410.47 394.129 455.346 387.351C486.227 382.67 516.204 383.109 544.482 388.619C576.484 394.86 605.413 407.538 630.472 426.262C646.021 437.868 660.088 453.179 673.684 468.002C694.73 490.92 714.582 512.521 739.75 522.224C791.135 542.021 837.456 504.914 882.223 468.977C887.611 464.637 893.18 460.2 898.604 455.958C958.016 409.635 1037.21 350.683 1123.09 305.579C1165.4 283.344 1206.62 265.985 1245.68 253.989C1289.18 240.58 1331.67 233.315 1371.98 232.291C1380.19 232.096 1388.55 232.145 1396.83 232.437C1437.33 233.9 1478.66 241.312 1523.1 255.208C1562.19 267.399 1602.73 284.27 1646.99 306.798C1720.61 344.198 1803.56 396.128 1900.62 465.466L1900.22 466.49C1803.2 397.152 1720.29 345.27 1646.7 307.87C1553.76 260.572 1472.04 236.289 1396.83 233.607C1388.55 233.315 1380.23 233.266 1372.02 233.461C1202.43 237.752 1037.75 348.879 899.074 457.031C893.65 461.224 888.081 465.71 882.73 470.05C860.672 487.75 837.818 506.036 814.06 517.446C798.041 525.101 783.034 528.904 768.606 528.904Z" fill="white"/>
<path d="M737.617 543.582C728.505 543.582 719.609 542.021 710.858 538.901C686.739 530.319 667.646 510.229 647.432 489.018C634.812 475.755 621.758 462.053 607.474 451.521C551.425 410.318 487.819 407.538 444.389 412.414C403.166 417.047 364.438 429.676 326.975 441.817C316.272 445.279 305.207 448.888 294.358 452.203L292.189 452.837C278.086 457.128 262.103 462.004 246.626 462.492C228.835 463.028 214.371 457.665 202.402 446.06C158.611 403.686 129.682 336.688 101.694 271.885C100.537 269.154 99.3435 266.472 98.1863 263.742C87.7359 239.556 77.647 214.883 67.8836 191.039C50.9965 149.738 33.5309 107.073 14.0402 66.7959C5.07236 48.2667 -4.40173 30.1763 -14.0567 13.1099C-100.589 -139.756 -221.981 -236.596 -338.78 -245.909L-338.744 -247.03C-307.429 -244.544 -275.716 -236.01 -244.473 -221.626C-214.857 -208.022 -185.459 -189.102 -157.072 -165.404C-103.735 -120.837 -54.0505 -59.349 -13.4058 12.4273C-3.71472 29.5424 5.75943 47.6328 14.7273 66.2108C34.2179 106.487 51.6836 149.202 68.5707 190.503C78.3341 214.347 88.4229 239.02 98.8734 263.206C100.03 265.887 101.224 268.618 102.381 271.349C130.333 336.055 159.226 403.004 202.872 445.182C229.414 470.879 262.682 460.737 292.008 451.765L294.178 451.131C305.026 447.815 316.091 444.207 326.795 440.745C364.293 428.554 403.058 415.925 444.353 411.293C473.173 408.026 501.162 409.245 527.451 414.852C557.319 421.24 584.404 433.235 607.908 450.497C622.264 461.029 635.354 474.78 647.974 488.092C668.116 509.254 687.137 529.246 711.075 537.779C764.051 556.65 810.806 515.593 856.08 475.853C861.685 470.928 867.47 465.857 873.111 461.078C912.093 427.872 947.892 399.346 982.57 373.991C1023.36 344.149 1063.24 318.257 1101.07 297.094C1143.96 273.104 1186.12 254.087 1226.33 240.58C1270.74 225.659 1314.34 216.98 1355.97 214.688C1364.39 214.249 1373 214.006 1381.53 214.054C1423.01 214.249 1466.83 220.832 1511.86 233.559C1552.39 245.018 1595.46 261.938 1639.83 283.88C1722.64 324.742 1814.67 384.621 1898.88 452.447L1898.45 453.422C1814.27 385.645 1722.31 325.815 1639.54 284.953C1545.41 238.435 1461.01 215.615 1381.53 215.225C1373.03 215.176 1364.43 215.371 1356 215.859C1170.53 226.05 991.827 361.264 873.582 462.053C867.977 466.832 862.155 471.903 856.55 476.828C834.275 496.381 811.24 516.568 787.085 529.587C769.655 538.949 753.311 543.582 737.617 543.582Z" fill="white"/>
<path d="M706.735 558.405C698.418 558.405 690.246 557.089 682.182 554.456C659.328 546.995 641.067 528.612 621.721 509.108C610.041 497.356 598 485.166 584.91 475.755C532.73 438.209 473.679 433.626 433.324 436.356C395.825 438.892 360.496 448.059 326.36 456.933C315.873 459.664 304.989 462.492 294.358 465.028C293.345 465.272 292.333 465.515 291.32 465.759C278.447 468.831 263.838 472.342 249.772 471.952C233.608 471.464 220.481 465.954 209.633 455.08C167 412.268 137.999 346.928 109.902 283.734C107.732 278.858 105.563 273.982 103.429 269.154C93.3402 246.529 83.4683 223.465 73.9218 201.182C55.3352 157.735 36.1339 112.778 14.799 70.5506C5.36105 51.8263 -4.5108 33.6384 -14.5635 16.4745C-106.448 -140.487 -228.057 -234.401 -348.183 -241.277L-348.146 -242.301C-316.217 -240.496 -283.816 -232.451 -251.814 -218.408C-221.548 -205.145 -191.426 -186.42 -162.244 -162.722C-107.677 -118.447 -56.3653 -56.7159 -13.9126 15.7918C-3.85989 32.9557 6.04813 51.1924 15.4861 69.9167C36.8209 112.193 56.0223 157.15 74.6451 200.596C84.1915 222.88 94.0273 245.944 104.152 268.569C106.322 273.397 108.455 278.273 110.625 283.149C138.65 346.246 167.651 411.488 210.139 454.154C234.223 478.339 264.489 471.074 291.248 464.686C292.26 464.443 293.273 464.199 294.286 463.955C304.917 461.419 315.765 458.591 326.288 455.861C360.46 446.986 395.789 437.819 433.36 435.283C473.824 432.553 533.019 437.185 585.38 474.829C598.542 484.288 610.62 496.479 622.3 508.23C641.573 527.637 659.762 546.02 682.471 553.383C737.11 571.181 784.445 526.174 830.224 482.679C835.974 477.218 841.904 471.562 847.69 466.247C929.919 390.277 1005.64 332.203 1079.12 288.708C1122.62 262.962 1165.65 242.287 1207.02 227.317C1252.33 210.885 1297.06 200.791 1339.98 197.232C1348.66 196.5 1357.52 196.062 1366.27 195.818C1409.27 194.794 1454.47 200.255 1500.64 212.055C1543.1 222.88 1587.5 239.41 1632.67 261.109C1722.89 304.409 1816.83 367.749 1897.15 439.526L1896.71 440.403C1816.47 368.676 1722.6 305.384 1632.41 262.084C1538.25 216.834 1448.72 194.891 1366.31 196.891C1357.56 197.086 1348.73 197.573 1340.05 198.256C1191.61 210.592 1030.7 298.509 848.124 467.124C842.374 472.439 836.444 478.096 830.694 483.557C808.202 504.963 784.915 527.052 760.325 541.68C741.449 552.846 723.803 558.405 706.735 558.405Z" fill="white"/>
<path d="M675.962 573.229C668.404 573.229 660.955 572.156 653.578 569.962C631.954 563.574 614.488 546.849 596.01 529.149C585.307 518.909 574.278 508.279 562.381 499.99C514.106 466.149 459.54 459.713 422.294 460.249C388.628 460.737 356.915 466.54 326.251 472.147C315.801 474.049 304.989 476.048 294.43 477.755C293.2 477.95 291.934 478.145 290.705 478.34C266.405 482.289 238.851 486.727 216.973 463.858C175.425 420.46 146.279 356.583 118.11 294.803C115.036 288.074 111.89 281.15 108.78 274.421C99.1977 253.649 89.7597 232.486 80.6472 212.007C60.1802 166.123 39.0262 118.629 15.7025 74.1592C5.79443 55.2886 -4.51135 36.9545 -14.9618 19.7418C-111.005 -138.976 -235.832 -232.402 -357.549 -236.693L-357.513 -237.668C-324.968 -236.546 -291.881 -228.988 -259.155 -215.287C-228.274 -202.365 -197.393 -183.787 -167.416 -160.138C-111.656 -116.155 -58.7525 -54.18 -14.4194 19.1079C-3.96896 36.3694 6.33682 54.7035 16.2449 73.574C39.6047 118.093 60.7588 165.586 81.2258 211.47C90.3383 231.95 99.7762 253.112 109.359 273.885C112.469 280.614 115.615 287.586 118.688 294.267C146.821 355.949 175.895 419.778 217.371 463.078C239.031 485.703 266.405 481.265 290.597 477.365C291.862 477.169 293.092 476.974 294.321 476.779C304.88 475.073 315.692 473.122 326.143 471.221C356.843 465.613 388.592 459.811 422.294 459.323C459.648 458.787 514.323 465.223 562.742 499.161C574.675 507.499 585.741 518.129 596.444 528.417C614.85 546.069 632.243 562.745 653.723 569.084C710.17 585.712 760.252 534.513 804.441 489.36C810.263 483.411 816.266 477.267 822.124 471.464C902.256 391.886 981.267 327.57 1057.02 280.321C1101.14 252.82 1145.08 230.487 1187.6 214.006C1233.81 196.111 1279.67 184.554 1323.89 179.727C1332.82 178.752 1341.9 178.02 1350.9 177.581C1437.36 173.144 1529.72 193.575 1625.43 238.289C1721.22 283.003 1817.05 349.854 1895.3 426.555L1894.87 427.336C1816.65 350.683 1720.9 283.881 1625.18 239.215C1529.57 194.55 1437.29 174.119 1350.94 178.557C1341.97 179.044 1332.89 179.727 1323.96 180.702C1168.91 197.671 1000.22 295.778 822.557 472.245C816.736 478.047 810.733 484.191 804.911 490.14C782.166 513.399 758.625 537.438 733.602 553.724C713.388 566.744 694.368 573.229 675.962 573.229Z" fill="white"/>
<path d="M645.117 588.101C638.319 588.101 631.593 587.223 624.903 585.468C604.472 580.104 587.802 565.085 570.12 549.141C560.429 540.412 550.448 531.392 539.817 524.175C504.741 500.282 460.263 486.434 411.229 484.093C381.686 482.679 353.77 485.264 326.794 487.702C316.163 488.677 305.17 489.701 294.466 490.383C293.056 490.481 291.61 490.578 290.163 490.676C268.43 492.188 243.769 493.943 224.206 472.683C183.634 428.506 154.379 365.896 126.102 305.384C122.16 296.948 118.074 288.171 114.06 279.687C105.237 261.06 96.4499 242.092 87.9883 223.807C65.4601 175.143 42.1365 124.822 16.4985 77.7672C6.12036 58.7016 -4.61945 40.2699 -15.4315 23.0085C-115.524 -137.415 -243.606 -230.403 -366.878 -232.158V-233.085C-333.719 -232.597 -299.944 -225.576 -266.496 -212.215C-234.963 -199.586 -203.359 -181.252 -172.586 -157.603C-115.597 -113.864 -61.0664 -51.6447 -14.9252 22.3258C-4.11319 39.636 6.62662 58.1164 17.0048 77.1333C42.6427 124.188 65.9664 174.558 88.4946 223.221C96.9923 241.556 105.743 260.475 114.566 279.102C118.58 287.586 122.666 296.314 126.608 304.799C154.85 365.263 184.067 427.823 224.568 471.903C243.914 492.968 268.43 491.212 290.055 489.701C291.501 489.603 292.948 489.506 294.358 489.408C305.061 488.677 316.054 487.702 326.685 486.726C353.698 484.24 381.614 481.704 411.193 483.118C433.974 484.191 455.852 487.75 476.21 493.65C499.679 500.477 521.158 510.424 540.07 523.297C550.738 530.563 560.754 539.583 570.445 548.312C588.055 564.208 604.689 579.177 624.976 584.541C683.339 599.852 734.073 544.46 778.84 495.552C784.662 489.213 790.664 482.63 796.522 476.438C876.004 392.081 956.208 323.182 1034.89 271.739C1128.08 210.836 1219.86 173.924 1307.76 162.075C1316.91 160.856 1326.24 159.881 1335.5 159.149C1381.49 155.59 1429.41 158.857 1477.97 168.853C1524.04 178.313 1571.19 193.965 1618.13 215.322C1718.51 260.963 1816.29 331.325 1893.42 413.438L1892.99 414.17C1815.93 332.105 1718.22 261.791 1617.91 216.2C1520.75 171.974 1425.72 153.103 1335.53 160.125C1326.31 160.856 1316.98 161.831 1307.84 163.05C1144.46 185.09 972.589 290.756 796.956 477.218C791.134 483.411 785.095 489.993 779.31 496.332C756.275 521.493 732.482 547.483 706.952 565.427C685.4 580.591 664.969 588.101 645.117 588.101Z" fill="white"/>
<path d="M614.128 603.022C608.161 603.022 602.195 602.34 596.3 601.023C577.027 596.635 561.044 583.274 544.12 569.133C535.514 561.966 526.655 554.505 517.325 548.41C484.998 527.199 445.582 513.594 400.237 508.036C375.286 504.964 351.564 504.525 328.638 504.135C316.886 503.94 305.821 503.745 294.539 503.208C292.984 503.111 291.393 503.062 289.802 503.013C270.564 502.184 248.759 501.307 231.511 481.656C191.878 436.552 162.48 375.016 134.021 315.527C129.212 305.482 124.258 295.145 119.376 285.051C111.565 269.009 103.719 252.674 96.1609 236.875C71.2823 184.994 45.5359 131.405 17.3305 81.425C6.48224 62.2132 -4.69141 43.6352 -15.8651 26.2762C-120.08 -135.757 -251.416 -228.257 -376.207 -227.525V-228.354C-342.469 -228.549 -308.008 -222.064 -273.8 -208.996C-241.617 -196.708 -209.289 -178.52 -177.721 -154.92C-119.538 -111.425 -63.4165 -48.9621 -15.3588 25.7399C-4.18515 43.1476 6.98849 61.6768 17.8367 80.9374C46.0421 130.918 71.7886 184.555 96.6672 236.436C104.225 252.235 112.072 268.57 119.882 284.612C124.764 294.657 129.754 305.043 134.528 315.088C162.95 374.528 192.312 436.016 231.872 481.022C248.976 500.478 270.673 501.404 289.802 502.184C291.393 502.233 292.984 502.331 294.539 502.379C305.821 502.916 316.886 503.111 328.638 503.306C351.564 503.696 375.286 504.135 400.273 507.207C445.727 512.814 485.178 526.419 517.578 547.679C526.944 553.822 535.84 561.234 544.446 568.451C561.333 582.591 577.244 595.903 596.409 600.243C656.617 613.896 707.965 554.554 753.238 502.184C759.132 495.358 765.244 488.336 771.138 481.705C849.896 392.521 931.257 319.038 1012.91 263.304C1107.11 199.037 1200.98 159.101 1291.85 144.668C1301.25 143.205 1310.84 141.938 1320.31 140.962C1367.79 136.135 1417.08 138.28 1466.83 147.399C1514.64 156.127 1563.17 171.34 1611.04 192.552C1663.04 215.567 1713.63 245.213 1761.51 280.614C1809.64 316.21 1853.47 356.584 1891.76 400.566L1891.36 401.2C1814.92 313.43 1715.3 239.606 1610.9 193.38C1512.07 149.593 1414.33 132.234 1320.38 141.84C1310.95 142.815 1301.36 144.034 1291.96 145.546C1077.67 179.581 890.685 347.514 771.572 482.387C765.677 489.019 759.566 496.089 753.672 502.867C730.385 529.783 706.301 557.626 680.338 577.179C657.267 594.44 635.463 603.022 614.128 603.022Z" fill="white"/>
<path d="M582.885 617.943C577.787 617.943 572.724 617.456 567.625 616.529C549.364 613.116 533.96 601.365 517.651 588.931C510.274 583.323 502.644 577.472 494.725 572.547C465.435 554.164 430.902 540.852 389.136 531.831C369.645 527.638 350.986 524.81 332.978 522.079C319.707 520.08 307.196 518.178 294.539 515.789C292.912 515.496 291.285 515.204 289.585 514.862C272.807 511.839 253.822 508.377 238.743 490.336C200.051 444.061 170.399 383.451 141.724 324.841C136.155 313.43 130.369 301.63 124.656 290.22C118.147 277.201 111.602 263.987 105.274 251.211C77.7556 195.672 49.2609 138.232 18.1265 84.936C6.80814 65.5291 -4.79947 46.8536 -16.3347 29.4459C-122.792 -131.466 -254.67 -223.088 -379.172 -223.088C-381.341 -223.088 -383.475 -223.039 -385.608 -222.99V-223.77C-351.256 -224.648 -316.107 -218.651 -281.176 -205.924C-248.342 -193.977 -215.291 -175.985 -182.927 -152.384C-152.444 -130.198 -122.394 -102.94 -93.6103 -71.3433C-66.3089 -41.404 -40.1647 -7.66127 -15.9008 29.0071C-4.32935 46.4635 7.24207 65.139 18.5965 84.5459C49.7309 137.891 78.2256 195.331 105.744 250.87C112.072 263.645 118.617 276.86 125.126 289.879C130.84 301.338 136.625 313.138 142.194 324.548C170.833 383.11 200.485 443.671 239.141 489.897C254.075 507.792 272.987 511.205 289.694 514.229C291.357 514.521 293.021 514.814 294.648 515.155C307.304 517.544 319.816 519.446 333.087 521.396C351.131 524.127 369.79 526.906 389.281 531.149C431.082 540.169 465.688 553.53 495.015 571.913C502.934 576.887 510.564 582.689 517.977 588.297C534.249 600.682 549.581 612.385 567.77 615.798C630.22 627.549 682.4 563.867 728.396 507.695C734.073 500.771 739.968 493.554 745.681 486.776C824.294 392.667 906.813 314.601 990.923 254.82C1086.24 187.091 1182.11 144.083 1275.83 127.066C1285.49 125.31 1295.29 123.799 1305.02 122.58C1353.94 116.436 1404.64 117.508 1455.63 125.749C1505.13 133.746 1555.03 148.52 1603.88 169.634C1657.58 192.796 1709.36 223.174 1757.78 259.94C1807 297.291 1851.48 340.2 1889.95 387.499L1889.55 388.084C1813.4 294.414 1711.9 217.127 1603.67 170.414C1504.55 127.602 1401.31 111.365 1305.02 123.409C1295.32 124.628 1285.52 126.139 1275.87 127.895C1052.18 168.513 864.252 345.808 746.006 487.41C740.293 494.188 734.435 501.356 728.722 508.328C705.072 537.195 680.628 566.988 654.086 588.394C629.424 608.142 605.992 617.943 582.885 617.943Z" fill="white"/>
<path d="M551.172 632.912C547.122 632.912 543.072 632.62 538.985 632.034C521.484 629.499 506.405 619.357 490.458 608.58C484.527 604.582 478.416 600.437 472.197 596.78C438.639 576.934 402.442 563.866 378.106 555.723C366.39 551.822 354.963 548.263 343.898 544.801C326.794 539.486 310.594 534.464 294.575 528.515C292.948 527.93 291.32 527.344 289.693 526.711C275.337 521.542 259.065 515.642 246.047 499.209C208.259 451.472 178.246 391.545 149.209 333.617C142.917 321.085 136.408 308.115 129.971 295.485C125.198 286.123 120.425 276.81 115.651 267.448C85.0956 207.618 53.4911 145.74 18.9937 88.4946C7.20532 68.9414 -4.83624 50.1197 -16.7331 32.6144C-129.157 -132.686 -266.966 -224.21 -394.902 -218.554V-219.237C-359.935 -220.797 -324.1 -215.287 -288.409 -202.902C-254.924 -191.296 -221.15 -173.45 -187.99 -149.947C-156.82 -127.81 -126.011 -100.503 -96.3953 -68.7599C-68.3707 -38.7718 -41.4309 -4.78533 -16.2992 32.1268C-4.36615 49.632 7.63922 68.4538 19.4638 88.007C53.9973 145.253 85.6018 207.13 116.158 267.009C120.931 276.322 125.704 285.684 130.477 295.047C136.95 307.627 143.423 320.597 149.715 333.178C178.716 391.057 208.729 450.936 246.481 498.624C259.39 514.959 274.903 520.567 289.91 525.979C291.573 526.564 293.201 527.149 294.792 527.783C310.811 533.683 326.975 538.706 344.115 544.069C355.18 547.531 366.607 551.042 378.323 554.992C402.659 563.086 438.929 576.203 472.486 596.097C478.742 599.803 484.853 603.948 490.783 607.946C506.694 618.674 521.701 628.816 539.13 631.352C604.039 640.665 657.123 572.595 703.987 512.521C709.339 505.646 714.871 498.575 720.223 491.846C798.8 392.764 882.513 310.114 968.973 246.334C1065.41 175.143 1163.26 129.113 1259.89 109.511C1269.79 107.511 1279.85 105.756 1289.79 104.293C1340.2 96.8328 1392.23 96.8328 1444.45 104.196C1495.65 111.412 1546.89 125.748 1596.8 146.764C1652.16 170.072 1705.1 201.23 1754.17 239.264C1804.47 278.273 1849.6 323.767 1888.29 374.43L1887.93 374.917C1810.76 273.836 1710.02 195.184 1596.65 147.398C1495.8 104.878 1389.7 90.2013 1289.86 104.976C1279.92 106.439 1269.87 108.194 1259.99 110.193C1027.19 157.492 838.18 344.149 720.621 492.383C715.269 499.112 709.736 506.182 704.385 513.057C680.338 543.874 655.459 575.764 628.266 599.023C601.616 621.697 576.303 632.912 551.172 632.912Z" fill="white"/>
<path d="M506.803 647.736C492.049 647.736 478.308 638.91 465.001 630.328C460.011 627.11 454.84 623.794 449.669 620.966C426.888 608.483 403.492 597.171 380.819 586.248C376.19 584.005 371.598 581.811 367.078 579.617C338.438 565.72 316.344 554.456 294.612 541.291C293.165 540.413 291.719 539.535 290.236 538.657C277.544 531.051 264.417 523.151 253.316 508.182C216.432 458.397 185.804 398.908 156.188 341.321C149.354 328.01 142.266 314.259 135.251 300.898C132.684 295.974 130.08 291.097 127.513 286.173C93.4492 221.223 58.2286 154.079 19.7536 92.2497C7.49509 72.5015 -4.98041 53.5822 -17.2389 36.0282C-128.939 -124.054 -263.277 -214.409 -388.321 -214.409C-393.672 -214.409 -398.988 -214.262 -404.304 -213.921L-404.34 -214.555C-334.984 -218.895 -263.964 -196.27 -193.269 -147.313C-161.448 -125.273 -129.843 -97.9185 -99.3961 -65.98C-70.6845 -35.8944 -42.9492 -1.76164 -16.9135 35.4918C-4.61877 53.0946 7.82053 72.0139 20.1152 91.7621C58.5902 153.591 93.8108 220.784 127.874 285.734C130.442 290.659 133.009 295.535 135.613 300.46C142.628 313.82 149.715 327.571 156.55 340.883C186.165 398.421 216.757 457.909 253.605 507.645C264.67 522.566 277.761 530.417 290.381 538.024C291.863 538.901 293.31 539.779 294.756 540.657C316.453 553.822 338.547 565.086 367.186 578.983C371.706 581.177 376.299 583.371 380.927 585.614C403.564 596.537 426.996 607.849 449.777 620.332C454.948 623.16 460.119 626.525 465.146 629.743C479.465 638.959 494.291 648.516 510.31 646.907C586.79 639.252 646.6 560.356 694.622 496.967C773.308 392.862 858.141 305.677 946.843 237.899C1044.4 163.343 1144.28 114.241 1243.72 91.9572C1253.85 89.7142 1264.15 87.6662 1274.35 85.9595C1304.08 80.9371 1334.31 78.4503 1364.64 78.4503C1439.9 78.4503 1516.23 93.7613 1589.46 123.896C1646.45 147.35 1700.54 179.239 1750.3 218.638C1801.61 259.305 1847.39 307.335 1886.34 361.411L1886.01 361.85C1808.77 254.624 1706.18 172.559 1589.31 124.481C1486.65 82.2537 1377.77 69.137 1274.42 86.5934C1264.26 88.3001 1253.96 90.348 1243.83 92.591C1002.17 146.716 811.964 342.589 694.983 497.454C666.38 535.195 640.344 568.646 610.91 595.805C576.774 627.305 543.904 644.274 510.347 647.59C509.189 647.639 507.996 647.736 506.803 647.736Z" fill="white"/>
<path d="M478.054 663.192C462.722 663.192 448.186 655.829 434.119 648.661C431.841 647.491 429.454 646.272 427.14 645.15C402.153 632.814 378.214 618.771 356.048 603.46C334.279 588.392 314.21 572.204 294.683 553.918C293.888 553.187 293.092 552.455 292.296 551.675C281.484 541.582 270.311 531.098 260.583 516.909C224.35 464.003 192.565 404.027 161.792 346.001C154.849 332.884 147.653 319.329 140.53 306.066C102.778 235.752 63.7243 163.049 20.5846 95.7591C7.81979 75.8646 -5.05341 56.799 -17.6735 39.1475C-85.5834 -55.6928 -222.307 -210.217 -391.54 -210.217C-398.844 -210.217 -406.185 -209.924 -413.634 -209.339L-413.67 -209.875C-343.193 -215.483 -270.763 -193.589 -198.405 -144.682C-165.896 -122.739 -133.533 -95.3355 -102.217 -63.202C-72.8186 -33.0676 -44.2516 1.26015 -17.3481 38.8062C-4.69177 56.4577 8.18143 75.5233 20.9462 95.4178C64.0859 162.757 103.14 235.46 140.928 305.773C148.051 319.036 155.211 332.592 162.19 345.708C192.927 403.685 224.712 463.661 260.945 516.567C270.636 530.708 281.81 541.143 292.586 551.236C293.381 551.968 294.177 552.699 294.972 553.479C314.463 571.765 334.532 587.954 356.301 602.972C378.468 618.283 402.37 632.326 427.357 644.663C429.707 645.833 432.058 647.003 434.336 648.173C449.523 655.878 465.181 663.826 481.779 662.509C557.608 656.463 616.261 575.373 668.007 503.841L669.272 502.085C707.603 449.033 748.247 399.346 790.122 354.485C833.659 307.821 879.005 265.74 924.965 229.462C1023.68 151.493 1125.58 99.3187 1227.85 74.4018C1238.23 71.8662 1248.78 69.5744 1259.2 67.624C1366.09 47.4369 1477.86 58.9445 1582.4 100.977C1640.98 124.528 1696.27 157.149 1746.72 197.962C1799.04 240.287 1845.44 290.901 1884.67 348.39L1884.38 348.78C1806.96 235.362 1702.49 149.884 1582.3 101.562C1511.28 72.9877 1436.89 58.5544 1363.02 58.5544C1328.19 58.5544 1293.48 61.7727 1259.27 68.2579C1248.86 70.2083 1238.33 72.5001 1227.96 75.0357C1032.69 122.626 834.382 274.42 669.634 502.524L668.368 504.28C641.826 540.997 614.344 578.982 583.825 608.823C549.182 642.664 515.842 660.461 481.887 663.143C480.513 663.143 479.284 663.192 478.054 663.192Z" fill="white"/>
<path d="M448.692 678.65C432.275 678.65 415.677 674.7 399.26 666.947C383.133 659.291 366.68 647.686 350.371 632.473C323.829 607.653 297.613 573.764 267.852 525.784C229.341 463.662 192.963 397.347 157.779 333.177C103.429 233.997 47.1993 131.501 -18.1432 42.4637C-87.7165 -52.4253 -226.682 -206.071 -396.095 -206.071C-404.991 -206.071 -413.923 -205.633 -422.999 -204.755L-423.035 -205.243C-351.437 -212.167 -277.597 -190.907 -203.576 -142.097C-170.416 -120.203 -137.293 -92.7507 -105.11 -60.4709C-74.9879 -30.239 -45.6615 4.2838 -17.8539 42.1224C47.5247 131.16 103.719 233.753 158.104 332.885C193.253 397.006 229.63 463.369 268.142 525.491C309.003 591.367 371.851 678.211 448.692 678.211C450.139 678.211 451.621 678.162 453.068 678.113C527.993 674.895 585.597 591.416 636.439 517.738C638.862 514.227 641.321 510.668 643.707 507.206C684.207 448.692 727.492 394.177 772.331 345.075C818.761 294.266 867.398 248.772 916.865 209.812C1022.74 126.479 1132.75 72.4518 1243.76 49.3391C1301.47 37.2951 1360.63 34.2719 1419.54 40.2695C1478.73 46.3159 1536.81 61.4318 1592.2 85.1785C1648.94 109.51 1702.13 142.619 1750.37 183.676C1800.56 226.391 1845.11 277.395 1882.76 335.372L1882.47 335.713C1760.17 147.154 1563.46 37.8314 1359.8 37.8314C1321.25 37.8314 1282.45 41.7323 1243.87 49.7779C1030.66 94.1992 817.604 256.769 644.033 507.498C641.61 511.009 639.187 514.52 636.764 518.031C610.729 555.772 583.789 594.781 553.739 625.159C519.603 659.633 486.697 677.138 453.14 678.552C451.657 678.601 450.175 678.65 448.692 678.65Z" fill="white"/>
</g>
</g>
<defs>
<clipPath id="clip0_2519_227">
<rect width="1290" height="260" rx="20" fill="white"/>
</clipPath>
</defs>
</svg>
