<svg width="65" height="64" viewBox="0 0 65 64" fill="none" xmlns="http://www.w3.org/2000/svg">
<g opacity="0.5">
<path d="M62.4552 25.9314C55.6836 19.6081 40.1616 12.4752 32.1635 20.1537C41.7607 21.9206 53.2377 29.2392 48.3749 39.1677C45.171 45.7019 38.7351 45.7177 33.3335 41.995C27.3378 37.8739 25.7106 31.2667 27.4594 24.5962C26.531 24.5866 25.6037 24.6605 24.6887 24.8172C9.80967 27.7447 14.0711 47.6353 20.9185 55.948C22.4526 57.8045 19.7486 60.3159 18.1391 58.4837C7.86379 46.8126 6.49325 23.0691 25.553 19.9295C26.889 19.7254 28.2444 19.6801 29.591 19.7945C36.9843 9.42055 56.5696 17.4866 64.0548 24.4366C65.1094 25.4175 63.4829 26.8926 62.4552 25.9314ZM33.9936 39.0327C38.3925 42.4636 44.2427 40.8527 44.3917 34.8698C44.6034 28.2263 35.7462 25.0921 29.1455 24.655C27.1452 29.9313 29.4425 35.4836 33.9936 39.0327Z" fill="#4F4747"/>
</g>
</svg>
