<svg width="149" height="140" viewBox="0 0 149 140" fill="none" xmlns="http://www.w3.org/2000/svg">
<g opacity="0.3" clip-path="url(#clip0_0_5530)">
<path d="M26.8882 110.302L43.9724 108.538C45.8234 108.347 47.8489 106.775 48.4954 105.029C49.1427 103.28 48.164 102.019 46.3113 102.211L32.5765 103.63L37.3575 90.6767C38.0032 88.9294 37.0245 87.6686 35.1699 87.8621C34.2438 87.9605 33.2763 88.3987 32.4567 89.0349C31.637 89.6712 30.97 90.5 30.6501 91.3758L24.7039 107.489C24.0576 109.235 25.0353 110.494 26.8882 110.302Z" fill="#F9A78F"/>
<path d="M37.5939 99.7513C38.4471 100.85 40.5706 100.631 42.338 99.2594L46.0493 96.3786C53.2813 90.7648 49.6752 83.9872 46.1867 77.4362C44.6744 74.5935 41.2397 68.1408 42.6375 66.0998C46.5003 66.0966 55.4072 75.6539 60.7984 81.4365C72.7182 94.2273 79.2694 100.646 86.3177 95.1747C93.3679 89.702 88.7712 81.7628 79.3351 67.0387C75.2635 60.6881 68.6599 50.3816 68.8996 46.2048C73.0072 47.0037 81.3573 55.9649 86.5031 61.4851C98.4246 74.2745 104.973 80.6934 112.027 75.2181C119.074 69.7481 114.478 61.8135 105.043 47.0985C100.777 40.443 93.7245 29.4406 94.6846 25.6985C97.0093 24.8479 102.408 29.7781 104.787 31.9483C110.268 36.9524 115.939 42.1268 123.171 36.513C124.939 35.1408 125.687 33.1359 124.834 32.037C123.981 30.9379 121.866 31.1572 120.1 32.5278C118.08 33.2126 113.358 28.9001 110.819 26.5845C105.036 21.3053 99.0536 15.845 91.236 21.9133C83.6418 27.8083 88.7686 36.6738 98.4855 51.8315C102.286 57.7616 107.783 66.3346 108.356 70.4924C104.47 68.9096 97.5239 61.4564 92.7193 56.3004C80.4459 43.129 73.1323 35.9645 65.5313 41.8648C57.9406 47.757 63.0641 56.6182 72.775 71.7718C76.579 77.7063 82.0775 86.2885 82.6488 90.4475C78.7637 88.8623 71.8177 81.4091 67.0113 76.2544C54.7387 63.0841 47.4233 55.921 39.8291 61.8159C32.0114 67.8844 35.8174 75.034 39.4976 81.946C41.1121 84.9808 44.118 90.6239 42.9597 92.394L39.2467 95.2762C37.4788 96.6483 36.7408 98.6523 37.5939 99.7513Z" fill="#F9A78F"/>
</g>
<defs>
<clipPath id="clip0_0_5530">
<rect width="126.548" height="78.7706" fill="white" transform="translate(148.267 62.2239) rotate(142.18)"/>
</clipPath>
</defs>
</svg>
