<svg width="85" height="119" viewBox="0 0 85 119" fill="none" xmlns="http://www.w3.org/2000/svg">
<path opacity="0.1" d="M69.4977 18.62C75.1468 19.7953 78.0371 26.3245 85 24.2351C84.0804 22.9293 83.5549 22.0152 82.898 21.4929C75.0155 14.9637 67.0015 8.30394 58.9876 1.90533C57.6739 0.860664 55.4405 -0.314591 54.1267 0.0771599C51.6306 0.860662 52.1561 3.34175 52.6816 5.43109C54.2581 12.0909 55.7032 18.8812 57.2798 25.6716C61.0896 23.8434 61.0896 23.8434 60.17 12.352C75.0155 27.7609 72.6507 51.1354 54.7836 62.235C53.7326 60.4068 52.813 58.5787 51.762 56.7505C48.609 51.5271 44.4049 47.7402 38.3617 45.912C34.0263 44.6062 29.9536 44.998 26.6692 48.3931C23.3848 51.9189 23.6476 55.967 25.3555 60.1457C28.9026 69.1559 36.9165 73.5958 46.507 71.7676C47.6893 71.5064 48.8717 71.5064 50.5796 71.3759C51.4992 83.5201 49.1345 94.7503 41.7774 104.152C30.4791 118.778 14.7141 115.383 4.3354 107.548C3.02164 106.633 1.97063 105.328 0 103.63C0.394127 107.678 2.49613 109.767 4.59814 111.726C12.7434 119.431 26.4065 121.259 36.391 116.035C42.6971 112.64 47.558 107.809 50.711 101.41C55.3091 92.0081 57.5425 82.0837 56.3601 71.637C56.2287 70.5924 56.2287 69.5477 56.0974 68.2418C63.9799 62.6267 70.9428 56.0976 73.7017 46.1732C76.1978 36.51 72.3879 27.7609 69.4977 18.62ZM49.3972 65.2384C40.3323 69.4171 32.0556 66.4137 29.5595 58.3175C28.9026 56.3587 29.1654 53.6165 30.2164 51.9189C31.6615 49.5684 34.5518 49.8296 37.0479 50.8742C43.6167 53.3553 47.2952 58.3175 49.3972 65.2384Z" fill="#140B43"/>
</svg>
