<svg width="25" height="25" viewBox="0 0 25 25" fill="none" xmlns="http://www.w3.org/2000/svg">
<g clip-path="url(#clip0_213_20)">
<path d="M0 22.8027C0 24.0143 0.985693 25 2.19727 25H22.8027C24.0143 25 25 24.0143 25 22.8027V14.1602H0V22.8027ZM11.5723 18.3105H21.3379C21.7424 18.3105 22.0703 18.6385 22.0703 19.043C22.0703 19.4475 21.7424 19.7754 21.3379 19.7754H11.5723C11.1678 19.7754 10.8398 19.4475 10.8398 19.043C10.8398 18.6385 11.1678 18.3105 11.5723 18.3105ZM11.5723 21.2402H21.3379C21.7424 21.2402 22.0703 21.5682 22.0703 21.9727C22.0703 22.3771 21.7424 22.7051 21.3379 22.7051H11.5723C11.1678 22.7051 10.8398 22.3771 10.8398 21.9727C10.8398 21.5682 11.1678 21.2402 11.5723 21.2402ZM2.92969 17.0898C2.92969 16.6854 3.25762 16.3574 3.66211 16.3574H8.54492C8.94941 16.3574 9.27734 16.6854 9.27734 17.0898V21.9727C9.27734 22.3771 8.94941 22.7051 8.54492 22.7051H3.66211C3.25762 22.7051 2.92969 22.3771 2.92969 21.9727V17.0898Z" fill="#2829E8"/>
<path d="M4.39453 17.8223H7.8125V21.2402H4.39453V17.8223Z" fill="#2829E8"/>
<path d="M14.9902 9.82178L12.979 12.695H15.5899L16.3028 11.6968L14.9902 9.82178Z" fill="#2829E8"/>
<path d="M17.3901 12.695H24.3094L20.8498 7.85156L17.3901 12.695Z" fill="#2829E8"/>
<path d="M0 12.6953H11.191L14.3902 8.1249C14.5273 7.9291 14.7513 7.8125 14.9902 7.8125C15.2292 7.8125 15.4532 7.9291 15.5902 8.1249L17.2059 10.4329L20.2536 6.16606C20.3911 5.97358 20.613 5.85938 20.8496 5.85938C21.0862 5.85938 21.3082 5.97358 21.4456 6.16606L25 11.1422V4.39453H0L0 12.6953ZM17.4316 5.85938C17.8361 5.85938 18.1641 6.1873 18.1641 6.5918C18.1641 6.99629 17.8361 7.32422 17.4316 7.32422C17.0271 7.32422 16.6992 6.99629 16.6992 6.5918C16.6992 6.1873 17.0271 5.85938 17.4316 5.85938ZM3.66211 5.85938H7.56836C7.97285 5.85938 8.30078 6.1873 8.30078 6.5918C8.30078 6.99629 7.97285 7.32422 7.56836 7.32422H3.66211C3.25762 7.32422 2.92969 6.99629 2.92969 6.5918C2.92969 6.1873 3.25762 5.85938 3.66211 5.85938ZM3.66211 8.78906H7.56836C7.97285 8.78906 8.30078 9.11699 8.30078 9.52148C8.30078 9.92598 7.97285 10.2539 7.56836 10.2539H3.66211C3.25762 10.2539 2.92969 9.92598 2.92969 9.52148C2.92969 9.11699 3.25762 8.78906 3.66211 8.78906Z" fill="#2829E8"/>
<path d="M6.83594 0H8.78906V2.92969H6.83594V0Z" fill="#2829E8"/>
<path d="M3.41797 0H5.37109V2.92969H3.41797V0Z" fill="#2829E8"/>
<path d="M1.95312 0.013916C0.856055 0.13584 0 1.06831 0 2.19731V2.92974H1.95312V0.013916Z" fill="#2829E8"/>
<path d="M22.8027 0H10.2539V2.92969H25V2.19727C25 0.985693 24.0143 0 22.8027 0Z" fill="#2829E8"/>
</g>
<defs>
<clipPath id="clip0_213_20">
<rect width="25" height="25" fill="white"/>
</clipPath>
</defs>
</svg>
