<svg width="25" height="25" viewBox="0 0 25 25" fill="none" xmlns="http://www.w3.org/2000/svg">
<path d="M0 20.5566V21.2891C0 22.5006 0.985693 23.4863 2.19727 23.4863H22.8027C24.0143 23.4863 25 22.5006 25 21.2891V20.5566H0Z" fill="#2928E8"/>
<path d="M23.8599 16.6504H1.14062L0.225098 19.0918H24.7754L23.8599 16.6504Z" fill="#2928E8"/>
<path d="M23.5352 3.71094C23.5352 2.49937 22.5495 1.51367 21.3379 1.51367H3.66211C2.45054 1.51367 1.46484 2.49937 1.46484 3.71094V15.1855H23.5352V3.71094ZM14.399 12.0832C14.256 12.2262 14.0685 12.2978 13.8811 12.2978C13.6937 12.2978 13.5062 12.2263 13.3632 12.0832C13.1327 11.8526 12.8261 11.7257 12.5 11.7257C12.174 11.7257 11.8674 11.8527 11.6369 12.0832C11.3509 12.3692 10.8871 12.3692 10.6011 12.0832C10.315 11.7972 10.315 11.3334 10.6011 11.0474C11.6481 10.0003 13.3519 10.0003 14.399 11.0474C14.685 11.3334 14.685 11.7972 14.399 12.0832ZM16.4706 10.0116C16.1845 10.2977 15.7208 10.2977 15.4348 10.0116C14.6508 9.22773 13.6086 8.796 12.5 8.796C11.3914 8.796 10.3492 9.22773 9.56523 10.0116C9.2792 10.2977 8.81548 10.2977 8.52944 10.0116C8.24341 9.72559 8.24341 9.26187 8.52944 8.97583C9.58999 7.91523 11.0001 7.33115 12.5 7.33115C13.9999 7.33115 15.41 7.91523 16.4706 8.97583C16.7566 9.26187 16.7566 9.72559 16.4706 10.0116ZM18.5422 7.93999C18.2562 8.22603 17.7924 8.22603 17.5064 7.93999C14.7458 5.17949 10.2542 5.17949 7.4936 7.93999C7.20757 8.22603 6.74385 8.22603 6.45781 7.93999C6.17178 7.65395 6.17178 7.19023 6.45781 6.9042C8.07173 5.29028 10.2176 4.40146 12.5 4.40146C14.7824 4.40146 16.9282 5.29028 18.5422 6.9042C18.8282 7.19023 18.8282 7.654 18.5422 7.93999Z" fill="#2928E8"/>
</svg>
