<svg width="420" height="13" viewBox="0 0 420 13" fill="none" xmlns="http://www.w3.org/2000/svg">
<g clip-path="url(#clip0_161_821)">
<mask id="mask0_161_821" style="mask-type:luminance" maskUnits="userSpaceOnUse" x="0" y="0" width="420" height="13">
<path d="M420 0H0V13H420V0Z" fill="white"/>
</mask>
<g mask="url(#mask0_161_821)">
<path d="M419.682 12.1884C420.02 12.0415 420.174 11.6597 419.53 11.6891L418.641 12.296L419.682 12.1884Z" fill="#F6781D"/>
<path d="M416.513 10.748C415.594 11.0026 414.368 11.492 414.43 12.099C415.564 11.541 415.564 11.8053 416.819 11.1298C417.462 11.1005 417.708 11.4039 417.462 11.6291C417.8 11.4822 418.29 11.8346 418.904 11.4529C418.474 10.9145 417.495 10.8264 416.175 11.1592C416.053 11.0124 416.391 10.8655 416.513 10.748Z" fill="#F6781D"/>
<path d="M358.063 6.09766L358.401 6.19555C358.339 6.1466 358.218 6.11723 358.063 6.09766Z" fill="#F6781D"/>
<path d="M321.28 4.06278C321.556 4.06278 321.71 3.99426 321.74 3.94531C321.464 3.96489 321.22 4.00405 321.28 4.06278Z" fill="#F6781D"/>
<path d="M315.174 3.11342C315.298 3.14279 315.42 3.15257 315.542 3.17215C315.42 3.11342 315.266 3.07426 315.174 3.11342Z" fill="#F6781D"/>
<path d="M358.064 6.09827L357.177 5.84375C357.023 6.04932 357.636 6.01996 358.064 6.09827Z" fill="#F6781D"/>
<path d="M407.34 11.7269C407.557 11.7073 407.77 11.6583 407.984 11.5996C407.8 11.6192 407.616 11.629 407.432 11.629C407.432 11.6681 407.402 11.6975 407.34 11.7269Z" fill="#F6781D"/>
<path d="M374.625 6.42244L374.931 6.43223C375.055 6.36371 375.207 6.28539 375.331 6.1875L374.625 6.42244Z" fill="#F6781D"/>
<path d="M387.128 7.09777C386.852 7.05861 386.422 7.58722 386.179 7.82216C386.484 7.6068 386.73 7.5187 387.006 7.48933C387.066 7.38165 387.096 7.26418 387.128 7.09777Z" fill="#F6781D"/>
<path d="M406.078 9.36926L406.478 9.32031C406.386 9.3301 406.232 9.34968 406.078 9.36926Z" fill="#F6781D"/>
<path d="M365.759 5.83446C365.789 5.75614 365.789 5.67783 365.759 5.63867C365.699 5.7072 365.699 5.77572 365.759 5.83446Z" fill="#F6781D"/>
<path d="M16.886 12.2756C16.8559 12.2365 16.8258 12.2169 16.8258 12.1777C16.7655 12.2463 16.7957 12.2854 16.886 12.2756Z" fill="#F6781D"/>
<path d="M0.729371 10.788L0.913219 10.739C0.821296 10.6411 0.760013 10.5334 0.69873 10.4355L0.729371 10.788Z" fill="#F6781D"/>
<path d="M303.777 1.98723C303.809 1.99702 303.809 1.99702 303.839 1.99702C304.145 1.94807 303.961 1.94807 303.777 1.98723Z" fill="#F6781D"/>
<path d="M196.23 0.880859C197.456 1.37032 194.269 1.51715 196.138 2.05556C195.955 1.84999 197.762 1.2039 196.23 0.880859Z" fill="#F6781D"/>
<path d="M407.104 11.6387C406.92 11.629 406.769 11.629 406.585 11.6094C406.799 11.6387 406.953 11.6485 407.104 11.6387Z" fill="#F6781D"/>
<path d="M196.137 2.06641L196.321 2.12514C196.229 2.09577 196.198 2.08598 196.137 2.06641Z" fill="#F6781D"/>
<path d="M276.75 1.5957C276.782 1.69359 276.874 1.77191 276.966 1.84043C276.966 1.7817 276.934 1.71317 276.75 1.5957Z" fill="#F6781D"/>
<path d="M296.567 2.8381L296.107 2.75C296.291 2.80873 296.445 2.82831 296.567 2.8381Z" fill="#F6781D"/>
<path d="M266.185 2.12469C265.909 2.07574 265.85 1.99743 265.45 2.06595C265.482 2.09532 265.512 2.1149 265.542 2.13448C265.726 2.06595 265.909 2.03659 266.185 2.12469Z" fill="#F6781D"/>
<path d="M255.355 1.89844C255.417 1.93759 255.477 1.97675 255.539 2.01591C255.661 2.00612 255.785 1.99633 255.877 1.98654L255.355 1.89844Z" fill="#F6781D"/>
<path d="M48.4106 9.90736C48.1042 9.77031 47.8591 9.61368 47.6446 9.44727C48.0122 9.82904 46.5723 10.064 48.4106 9.90736Z" fill="#F6781D"/>
<path d="M407.549 11.4238C407.395 11.5511 407.241 11.6196 407.089 11.6294C407.211 11.6294 407.333 11.6294 407.457 11.6196C407.517 11.5511 407.579 11.4826 407.549 11.4238Z" fill="#F6781D"/>
<path d="M264.923 6.45145L263.238 6.33398C263.698 6.39272 264.309 6.43188 264.923 6.45145Z" fill="#F6781D"/>
<path d="M124.395 6.53906L124.027 6.61738C124.181 6.61738 124.303 6.5978 124.395 6.53906Z" fill="#F6781D"/>
<path d="M258.185 6.29393C257.91 6.08836 257.604 5.97089 257.298 5.89258C257.206 5.93173 257.144 5.97089 257.082 6.02963L258.185 6.29393Z" fill="#F6781D"/>
<path d="M37.4419 11.3946C39.0352 11.3163 37.7483 10.6506 37.8403 10.2297C39.6174 9.91642 39.0352 10.6995 39.9239 11.0226C40.9962 10.7583 41.4866 10.0535 42.4058 10.0339C42.5284 10.1514 42.7428 10.1807 42.6203 10.3373C43.5396 9.70105 46.328 10.0828 47.3698 9.28012C47.5229 9.33885 47.6148 9.39759 47.676 9.44654C47.247 9.10392 47.002 8.74172 46.8795 8.4872C47.5843 8.42846 47.9518 7.95858 48.5033 8.40889C48.0438 8.41868 48.1357 8.61446 48.0132 8.77108L48.6566 8.52636C49.6984 9.15286 47.7679 8.82003 48.0438 9.30949C49.3614 9.00602 50.7708 8.35015 51.9965 8.46762C52.5788 9.10392 49.5145 8.8494 51.3225 9.33886L49.4534 9.19202C51.3531 10.1416 48.3502 9.18223 50.1888 10.2101C52.548 10.259 52.548 9.72063 54.9074 9.78916C55.2139 9.39759 54.4479 9.26054 54.7543 8.86898C57.6653 8.04669 58.1862 10.3863 60.1164 9.3878C60.5148 8.91792 60.3003 8.07605 62.2306 8.42846L61.9855 9.20181C64.2225 9.16265 62.6904 8.06627 65.2643 8.44804C64.9884 8.7613 63.6402 8.78087 64.0386 8.85919C65.8463 9.36822 64.8965 8.37952 66.0302 8.32078L66.6125 8.96687C68.9106 8.74172 71.2698 8.125 73.8437 7.88027C73.7826 8.08584 73.4453 8.31099 74.1501 8.4872C77.3061 8.01732 81.2588 8.26205 84.5989 8.51657L85.5794 7.89006C85.8552 7.88027 86.2228 8.125 85.9472 8.25226C87.2646 8.41868 85.8552 7.89006 86.3761 7.63554C87.0807 7.56702 87.4485 7.91943 87.0807 8.11521C89.0726 7.53765 92.9025 6.80346 95.4459 7.3125L95.0475 7.49849C96.9472 7.65512 96.6408 6.23569 98.5099 6.71536L98.2343 6.82304C102.248 6.94051 106.415 6.26506 109.694 7.02861C110 6.18675 113.677 7.26355 113.585 6.10843C116.006 6.59789 115.424 6.83283 118.703 7.10693C119.561 7.12651 119.744 6.34337 120.755 6.19654L120.97 6.79367L122.196 6.11822L123.146 6.81325L124.065 6.62726C123.666 6.60768 123.176 6.38253 123.176 6.20633C124.616 5.88328 127.037 6.52937 127.129 6.83283L130.622 6.23569C130.591 6.48042 130.009 6.57831 129.58 6.74473C131.357 6.08886 130.101 7.37123 131.725 6.76431C131.449 6.63705 131.756 6.40211 131.756 6.28464C132.736 6.62726 134.728 6.57831 136.199 6.39232L136.015 6.81325C138.711 6.85241 141.622 6.48042 144.625 6.4119C143.491 6.24548 143.583 5.52108 144.472 5.43298L144.962 6.05949C145.452 5.64834 143.982 5.84413 145.054 5.33509C146.188 5.38404 145.973 6.03991 145.361 6.26506L146.678 6.01054C146.801 6.19654 146.494 6.30422 146.463 6.54895C146.954 6.1378 148.945 7.1363 149.62 6.42169L149.742 6.60768C152.745 6.53916 154.063 6.28464 156.514 6.2259C156.453 5.67771 157.433 5.78539 158.107 5.33509C159.946 5.49172 162.029 5.89307 164.174 5.81476C165.676 5.52108 164.542 5.34488 165.186 5.01205C165.369 5.5113 167.545 5.43298 166.472 5.81476C169.077 5.69729 169.782 5.66792 173.06 5.21762C172.693 5.02184 172.264 4.93374 172.447 4.75753C173.03 4.66943 173.826 4.95331 173.765 5.18825L173.612 5.24699C177.258 4.44428 182.314 6.59789 185.164 5.5113L185.01 5.57003C186.022 5.37425 187.033 5.19804 188.044 5.01205C189.453 5.10015 187.216 5.39383 188.289 5.69729C191.537 4.85542 193.498 5.80497 196.194 5.24699C198.339 6.72515 203.671 5.12952 206.52 6.06928L206.367 5.71687C207.103 5.37425 207.256 5.91265 207.807 5.99096C207.715 5.71687 207.011 5.67771 207.47 5.49172C213.691 5.07078 220.309 5.94202 226.652 6.36295C228.981 6.48042 228.092 4.57154 230.972 5.43298L230.084 6.06928C234.864 5.34488 239.674 6.19654 244.362 5.57982C244.056 5.72666 244.025 5.92244 243.597 5.91265C244.516 6.39232 247.181 5.97139 247.243 5.58961C247.947 5.63855 247.365 5.94202 247.794 6.1378C248.744 6.42169 250.337 5.56024 250.767 6.03991C250.859 6.11822 250.459 6.18675 250.275 6.2259C250.951 6.00075 253.218 6.31401 252.696 5.76581C254.383 6.0497 256.036 5.55045 257.353 5.90286C258.365 5.31551 260.266 6.26506 260.693 5.4134C260.417 6.29443 263.606 6.19654 264.769 5.80497C264.342 6.05949 265.659 6.10843 265.167 6.46084C266.424 6.48042 267.59 6.34337 267.465 5.88328C269.551 6.98946 272.247 5.13931 273.256 6.51958C277.056 6.12801 280.55 5.88328 283.95 5.75602C283.614 6.63705 280.244 5.75602 280.152 6.68599C283.401 6.39232 285.421 5.67771 288.485 5.97139C289.251 6.10843 287.934 6.34337 287.598 6.49021C290.846 6.20633 293.665 6.68599 296.607 6.3238C296.575 6.40211 296.239 6.48042 295.931 6.53916C296.483 6.52937 297.189 6.71536 297.218 6.31401L296.637 6.40211C295.931 5.78539 299.179 5.27636 299.395 4.97289C298.108 6.07907 302.089 5.36446 300.129 6.75452C300.529 6.69578 301.018 6.51958 301.018 6.24548C301.54 6.34337 301.662 6.50979 301.018 6.79367C303.071 6.64684 302.489 6.19654 304.296 6.27485C304.237 6.47063 303.836 6.52937 303.593 6.75452C304.604 6.4119 305.646 6.06928 307.117 6.28464C306.993 6.40211 307.117 6.55873 306.657 6.53916C309.262 6.57831 311.436 5.69729 314.163 6.16717C313.029 6.97967 315.022 6.48042 314.93 7.21461L316.553 7.05798L316.064 6.68599C317.411 6.74473 318.79 6.26506 319.864 6.53916L318.76 6.80346L321.332 6.75452L320.015 6.43148C321.516 6.10843 320.231 5.5113 321.946 5.7756C321.549 5.83434 323.293 5.83434 323.815 6.28464C324.58 6.07907 325.348 5.86371 326.265 6.07907C326.42 6.3238 325.746 6.87199 325.838 7.0384C326.725 6.46084 329.054 6.98946 330.157 6.37274C329.822 6.50979 329.638 6.89157 329.698 6.97967L330.465 6.50979C331.017 6.68599 331.077 6.7741 330.863 7.06777C332.702 7.2244 330.649 6.12801 332.702 6.60768C332.518 6.63705 332.548 6.71536 332.18 6.7741C334.325 7.04819 336.624 6.62726 338.555 6.98946C338.831 7.75301 336.683 7.07756 337.113 7.72364C340.116 7.74322 343.58 7.16566 346.368 7.47892L345.876 7.37124C346.766 6.36295 347.745 7.98795 349.433 7.57681C349.032 7.63554 348.697 8.125 348.849 8.01732C350.717 8.28163 352.954 7.96837 356.081 7.80196L355.591 8.04669C356.632 8.34036 358.563 8.34036 359.726 8.52636C360.218 8.28163 360.922 8.35994 360.676 7.95858C363.71 9.65211 368.429 7.53765 371.126 8.95708C370.728 8.9375 370.023 9.13328 370.361 9.15286L373.392 9.05497C373.422 8.59488 373.179 8.7613 372.749 8.38931C373.271 8.14458 374.19 7.97816 374.926 8.01732C373.455 8.24247 374.526 8.73193 374.956 9.00602C374.926 8.86898 375.232 8.72214 375.261 8.58509C376.303 9.45633 376.029 7.69428 377.806 8.35015L377.56 8.5753C378.388 8.50678 379.275 8.24247 380.073 8.36973C380.103 8.90813 379.123 8.55572 378.815 8.97666C379.981 9.0256 381.696 8.15437 382.431 8.74172C381.85 8.8494 381.146 8.81024 380.562 8.91792C381.36 9.60316 381.574 9.45633 382.371 9.60316L382.309 9.58358L384.116 9.98494L383.718 9.78916C385.987 8.54593 386.813 9.74021 389.325 8.99623C386.905 9.70105 388.714 9.45633 388.192 10.0241C388.592 10.2199 389.233 10.4548 388.927 10.6017C390.153 10.1905 390.245 11.0715 391.962 10.4744C391.9 10.6702 392.941 10.5625 392.422 11.0128C393.709 10.9443 392.36 10.6702 392.606 10.445C394.872 9.93599 396.435 11.512 399.683 10.817C402.226 10.6114 403.053 10.0143 405.412 9.8381C405.934 10.1807 404.371 10.4744 404.371 10.4744C405.352 10.8268 406.239 10.8366 407.497 10.6995C407.159 10.8464 407.283 11.003 407.497 11.2282C408.416 11.238 408.568 10.5919 409.52 10.9443C409.182 11.1401 408.692 11.4533 408.108 11.6295C409.274 11.5316 410.529 11.2477 411.724 11.1498C411.786 11.4925 410.745 11.6002 410.193 11.7861C411.511 11.7176 413.501 11.698 414.269 11.2086L413.625 10.9736C414.085 10.9834 413.534 11.4337 413.136 11.5023C411.816 11.8351 411.786 11.2282 411.849 11.0324L412.706 10.9639C412.706 9.81852 409.52 10.9345 408.016 10.7681L409.212 10.0143L407.191 10.5723C407.007 10.3471 407.067 9.88705 407.924 9.81852C407.099 9.34864 406.761 10.0339 406.118 9.53464C406.056 9.45633 406.147 9.42696 406.239 9.39759L404.984 9.56401C405.32 9.40738 405.198 8.98645 405.78 9.15286C404.157 8.56551 402.258 9.53464 401.92 8.88855L401.982 8.81024C399.102 8.89834 401.339 9.37801 398.856 9.92621L398.458 8.38931L397.815 8.95708C397.539 8.91792 397.017 8.83961 397.293 8.60467C396.005 8.9375 397.293 8.86898 396.465 9.2116C395.486 8.58509 392.635 9.2116 392.911 8.26205C392.146 8.67319 393.985 8.69277 392.36 8.90813C392.573 7.88027 390.612 8.96687 389.663 8.42846C390.369 7.93901 391.348 8.29142 390.429 7.74322C389.144 8.56551 388.162 7.39081 387.029 7.48871C386.539 8.18373 384.608 7.62575 382.739 7.74322C382.983 7.51807 379.705 7.1363 378.234 6.78389L378.358 6.66642C377.622 7.36145 376.029 7.1363 374.742 7.2244C375.018 6.80346 375.353 6.64684 376.119 6.49021L374.956 6.43148C374.558 6.64684 374.128 6.74473 373.333 6.78389L373.914 6.27485C372.351 6.2259 370.482 6.73494 368.705 6.28464C368.338 6.7741 369.501 7.74322 367.264 7.95858C367.326 7.68449 367.51 7.2244 368.092 7.14608C367.908 7.17545 367.326 7.33208 367.05 7.20482L368.124 6.79367C367.326 6.54895 367.448 7.14608 366.774 7.06777C366.988 6.68599 366.407 6.76431 366.653 6.47063C366.866 6.44127 367.204 6.65663 367.54 6.52937C366.774 6.42169 365.917 6.14759 365.763 5.83434C365.733 6.05949 365.487 6.34337 364.876 6.36295C363.342 6.31401 364.6 5.87349 363.802 5.63855C363.28 5.88328 362.455 5.56024 362.147 6.12801C361.687 6.09865 361.749 5.83434 361.657 5.66792C360.738 5.87349 357.92 5.55045 358.501 6.20633L358.685 6.25527C358.655 6.26506 358.593 6.26506 358.531 6.27485C355.651 6.70557 353.322 5.67771 350.625 5.78539L350.717 5.58961C349.095 5.72666 347.256 5.54066 345.968 5.89307C345.508 5.87349 345.049 5.49172 345.357 5.26657C344.132 5.35467 343.886 5.56024 342.322 5.15889C343.64 4.88479 342.047 4.84563 343.64 4.97289C342.201 4.72816 341.984 4.40512 340.116 4.84563C340.883 4.38554 339.228 4.17018 338.463 4.27786L339.38 4.67922C338.523 4.70858 337.849 4.63027 337.143 4.55196L337.819 3.92545C334.999 2.98569 331.599 5.04142 329.73 3.63178C328.718 4.05271 331.323 4.01355 330.341 4.5128C328.932 4.37575 327.799 3.38705 327.339 3.36747C325.5 2.93675 325.102 4.23871 323.142 3.92545C323.325 4.17018 323.325 4.7869 321.7 4.95331C320.291 4.81627 320.291 3.91566 321.273 3.76883C321.641 3.75904 321.762 3.83735 321.732 3.91566C322.222 3.84714 322.896 3.76883 322.406 3.50452L322.13 3.72967C321.486 3.46536 319.496 3.41642 320.107 3.05422C318.944 3.23042 319.496 3.41642 320.261 3.56325C318.514 3.1619 317.351 3.44578 315.542 3.15211C315.788 3.28916 315.972 3.57304 315.696 3.56325C312.999 3.17169 314.317 3.95482 312.386 3.98419C311.436 3.59262 313.059 3.1619 311.039 3.38705C309.965 3.10316 311.006 2.76054 311.528 2.59413C309.629 2.9759 308.372 2.18298 307.39 2.06551L308.372 1.90889C307.79 1.99699 307.331 1.97741 306.871 1.95783L307.239 2.4375C306.717 2.33961 306.257 2.32003 306.349 2.12425C305.705 2.40813 306.533 2.90738 305.278 3.27937C304.634 3.01506 303.009 3.45557 302.949 2.82907C305.154 3.12274 302.887 2.20256 304.848 2.17319C304.45 2.23193 303.991 2.21235 303.501 2.11446C303.439 2.04593 303.623 1.9872 303.777 1.95783C301.784 1.33133 302.549 2.6137 300.312 2.51581C300.713 2.18298 300.007 1.84036 299.609 1.8991C300.496 1.93825 299.853 2.49623 298.965 2.73117C297.616 2.40813 297.34 2.87801 296.607 2.81928L297.432 2.9759C297.034 3.31852 296.331 3.23042 295.32 3.31852C295.32 3.04443 296.269 3.1619 295.963 3.02485C294.676 3.60241 293.635 2.33961 291.947 2.7116C291.306 2.45708 292.072 2.05572 291.458 1.88931C289.589 2.30045 289.681 1.37048 287.75 1.70331C288.15 2.18298 288.272 2.06551 286.863 2.49623L289.957 2.24172L287.842 2.87801C288.761 2.90738 289.835 2.63328 290.354 2.72139C289.343 3.08358 289.467 2.96611 289.773 3.35768C288.731 2.63328 287.198 3.71009 285.881 3.20105L286.219 2.04593C284.166 1.47816 282.235 2.54518 279.476 2.19277L280.336 2.41792C279.844 2.86822 278.589 2.4375 277.64 2.60392C277.824 2.22214 277.272 2.06551 276.934 1.82078C276.904 2.10467 274.881 1.74247 274.451 2.51581L273.318 1.97741C271.081 1.7131 270.5 3.01506 268.355 2.83886C269.091 2.4375 268.171 2.13404 269.672 1.86973C268.937 1.85015 268.293 1.76205 268.231 2.02636C267.863 1.77184 266.118 2.49624 265.505 2.11446C265.169 2.28087 264.985 2.68223 264.187 2.62349C264.125 2.54518 264.217 2.4375 264.217 2.4375C264.187 2.62349 262.9 2.66265 263.514 3.11295C261.491 1.86973 257.261 3.03464 255.484 1.99699C253.861 2.11446 251.93 2.21235 250.491 2.23193C250.613 2.11446 250.521 2.03614 250.797 2.08509C248.866 1.70331 249.418 3.18148 247.212 2.76054C246.14 2.12425 248.468 2.4375 247.764 2.19277C247.61 0.920181 245.006 2.33961 243.566 1.57605L243.934 1.50753C242.8 1.06702 241.023 1.95783 239.123 1.85015C239.123 1.85015 239.215 1.74247 239.153 1.65437C237.775 2.29066 235.293 2.47666 233.454 2.64307C234.067 2.15361 234.312 2.38855 234.006 1.87952C233.178 1.93825 234.19 2.69202 232.535 2.81928C232.014 2.54518 230.85 2.29066 230.758 1.75226L232.32 1.74247C231.585 1.03765 230.329 1.74247 229.501 1.61521L229.624 1.31175C227.234 1.39006 227.173 2.15361 224.629 2.0753L224.874 2.31024C223.435 3.05422 223.741 1.86973 222.331 2.41792L221.933 1.64458C221.014 1.81099 218.685 2.36898 217.03 2.5256C217.98 1.95783 219.911 1.64458 221.136 1.32154C220.217 1.29217 218.042 1.37048 217.551 1.75226C217.919 1.67395 218.379 1.48795 218.746 1.60542C217.613 2.21235 216.142 2.51581 214.334 2.50602C214.732 1.00828 209.676 2.14383 208.359 0.978916C205.142 1.5369 201.985 0.753765 198.217 0.851657C199.595 2.01657 197.114 0.890813 197.389 2.08509C196.531 2.1634 196.194 2.14383 196.102 2.06551L193.437 1.3509C192.793 1.00828 194.264 1.0866 194.172 0.8125C192.242 0.734187 193.345 0.313253 192.058 0C192.334 0.430723 191.414 0.616717 190.311 0.450301L191.874 0.998494C189.269 1.64458 189.514 0 186.849 0.636295L187.676 0.254518C186.297 0.46988 182.559 0.283886 181.303 1.2628C181.058 1.12575 180.69 0.802711 181.303 0.714608C177.963 0.616717 174.071 1.83057 171.436 1.27259L171.651 0.978916C171.038 1.06702 170.64 1.54669 169.843 1.2628C169.874 1.14533 170.057 0.969127 169.782 0.949548C169.475 1.05723 168.219 1.48795 167.361 1.32154L168.004 0.978916C164.726 0.636295 163.163 1.85015 160.528 2.08509C160.405 1.22364 157.832 0.978916 156.514 0.851657L156.544 0.724398C152.776 0.655874 150.294 1.54669 146.893 1.96762C144.564 1.0866 139.539 1.75226 135.954 1.31175C136.505 1.45858 136.015 1.9872 135.433 2.08509C134.575 1.94804 133.318 2.75075 133.257 1.95783L133.563 1.96762C132.767 1.21386 131.143 1.45858 129.825 1.46837L129.887 2.50602C126.087 1.07681 121.123 3.26958 118.886 2.00678C118.151 2.29066 117.14 2.32003 116.404 2.60392L116.282 2.05572C113.953 1.9872 112.819 1.95783 110.031 2.19277L110.491 1.78163C108.897 1.8012 109.02 3.43599 107.58 3.5241L106.875 2.7116C104.117 2.81928 101.053 2.19277 98.6018 3.02485C98.6018 2.90738 98.6018 2.66265 99.0308 2.6137C97.7134 2.63328 93.7912 2.23193 94.6797 3.34789C94.3735 2.6137 91.7996 3.39684 90.4514 3.7884V3.24021C89.4707 3.98419 89.5015 4.17997 87.8469 4.44428C87.4179 4.39533 87.2951 4.02334 87.908 4.14081C86.4067 3.91566 87.0501 4.6988 85.2424 4.48343L85.7324 4.11145C84.2925 4.13102 84.4762 4.30723 83.8633 4.74774C83.0668 5.00226 81.1057 4.72816 80.6768 4.24849C80.6154 4.55196 80.0026 4.98268 79.1141 4.88479C78.9302 4.70858 79.1752 4.58133 79.298 4.5128C76.7546 4.24849 76.0498 5.29593 74.1807 4.83584C74.0582 4.65964 73.9051 4.57154 73.7518 4.52259C75.6515 4.45407 77.1836 4.41491 77.0611 4.46386C76.8466 3.96461 75.2533 3.94503 76.1726 3.20105C75.1 3.63178 73.3842 4.53238 71.7907 4.36596C71.6987 4.31702 71.607 4.27786 71.5151 4.19955L71.6376 4.14081C71.2698 4.10166 70.9942 4.17018 70.7489 4.26807C70.228 4.20934 69.9216 4.17018 69.462 4.17997C69.0942 3.77861 67.5929 4.05271 66.827 4.07229C67.164 4.61069 66.1222 4.58133 67.2559 4.98268C67.1026 4.95331 67.3784 4.91416 67.8688 4.86521C67.9607 4.84563 68.1138 4.82605 68.1752 4.79669L68.1444 4.84563C68.6347 4.80648 69.2781 4.75753 70.0135 4.70858C69.554 5.01205 69.0331 5.28614 68.0524 5.02184C67.8074 5.37425 67.5623 5.75602 67.409 5.94202C65.9997 5.2372 63.7933 4.93373 63.2724 4.48343C61.0971 4.91416 57.9103 4.97289 56.991 6.06928C56.4087 6.23569 56.0717 5.81476 55.7347 5.66792C56.0717 5.55045 56.5315 5.54066 56.654 5.38404C55.4897 5.71687 52.8238 5.6875 52.8852 6.42169C51.0467 6.18675 53.4672 5.71687 51.2306 5.95181L51.4142 5.71687C46.2972 4.83584 45.2248 7.96837 39.403 6.80346C39.8013 6.87199 39.9852 6.90136 40.1383 7.01883C34.102 6.70557 28.9542 8.35015 22.7341 7.72364C21.0795 7.61596 21.2327 8.08584 20.5279 8.4872L19.7619 7.93901L18.5975 8.72214C16.6671 9.37801 13.5417 7.61596 11.2742 8.7613L11.9484 9.11371C10.8453 9.1235 8.79229 9.60316 8.6391 9.14307C8.57782 9.22139 8.60846 9.5738 8.02627 9.40738L7.75049 9.10392L5.57497 9.82831C3.43008 9.78916 4.9315 8.62425 1.92865 8.81024C0.917493 9.01581 -0.461364 9.95557 0.15146 10.122C0.61108 10.0926 1.43839 10.2101 1.74481 10.5038L0.886851 10.7485C1.49968 11.6393 1.65288 12.5986 4.44124 13.0098C4.80893 12.7846 5.20728 12.5595 5.60561 12.3343L6.49419 12.7161L5.14599 12.863C6.27972 13.1958 6.46355 12.8042 6.83126 12.5105C7.13766 12.7259 7.50538 12.863 7.9037 12.9217L8.82293 11.9428C9.28257 12.2756 8.6391 12.6867 9.8954 12.7846C10.3244 12.3343 8.54717 12.07 9.58897 11.7078C10.6921 12.0407 10.7227 12.3833 11.3968 11.9721C11.7032 12.1875 11.6113 12.3539 11.3355 12.4812C11.9484 12.1483 13.4498 12.1973 13.5111 11.698C14.7367 12.1288 16.2381 11.3554 16.7897 12.1973C16.9122 11.9721 17.7702 11.4239 18.5056 11.3358C17.8315 12.4518 21.4165 11.1792 21.8149 12.2854C22.2132 11.3065 25.2773 11.6197 26.7789 10.9932C26.7175 11.0715 26.6255 11.2282 26.4416 11.1988C27.5448 11.1988 28.0351 11.4533 28.8011 11.5806C28.4333 10.817 29.9348 10.5429 30.5169 10.0143C32.2635 10.6506 30.3332 10.9541 31.1911 11.6197C30.7316 11.0128 32.9988 10.8562 32.2329 10.3863C33.4892 10.7681 33.2133 10.5429 34.1326 11.1303C33.7036 10.1807 34.9293 10.9051 35.3889 10.2786C37.1049 10.6604 36.3081 11.1401 37.6869 10.7583C38.6062 10.9834 37.4419 11.3946 37.4419 11.3946ZM73.7518 7.69428C73.7518 7.70407 73.7518 7.70407 73.7518 7.70407C73.4453 7.73343 73.1697 7.75301 72.9858 7.77259C73.1697 7.75301 73.3842 7.73343 73.7518 7.69428ZM76.908 7.54744C76.5096 7.54744 76.0193 7.55723 75.5289 7.5866C75.3453 7.4006 75.3758 7.20482 75.6823 7.20482C75.5903 7.33208 76.3871 7.41039 76.908 7.54744ZM68.4202 4.09187C68.8798 3.98419 69.0942 4.08208 69.217 4.18976C68.9717 4.20934 68.7267 4.24849 68.3589 4.29744C68.3589 4.31702 68.3283 4.34639 68.3283 4.36596C68.3589 4.26807 68.3589 4.17018 68.4202 4.09187Z" fill="#F6781D"/>
<path d="M67.867 4.85552C67.8056 4.8653 67.7751 4.89467 67.6831 4.90446C67.8056 4.94362 67.9281 4.98277 68.0507 5.01214C68.0815 4.95341 68.1121 4.89467 68.1426 4.83594C68.0507 4.83594 67.9587 4.84573 67.867 4.85552Z" fill="#F6781D"/>
<path d="M358.493 6.20708L358.434 6.1875C358.463 6.20708 358.524 6.23645 358.524 6.2756C358.493 6.24623 358.493 6.22666 358.493 6.20708Z" fill="#F6781D"/>
<path d="M120.944 6.92025L120.914 6.7832L120.668 6.91046L120.944 6.92025Z" fill="#F6781D"/>
<path d="M374.898 8.9668C374.898 9.01574 374.928 9.06469 375.05 9.11364C375.082 9.08427 374.99 9.02553 374.898 8.9668Z" fill="#F6781D"/>
<path d="M382.274 9.55469L383.226 9.81899C382.826 9.68195 382.52 9.60363 382.274 9.55469Z" fill="#F6781D"/>
<path d="M387.829 10.2095C387.951 10.1214 388.013 10.0529 388.073 9.98438L387.829 10.2095Z" fill="#F6781D"/>
<path d="M295.891 6.5293C295.802 6.5293 295.74 6.5293 295.648 6.54888C295.126 6.62719 295.493 6.59782 295.891 6.5293Z" fill="#F6781D"/>
<path d="M323.785 6.25586C323.45 6.34396 323.142 6.43206 322.806 6.48101C323.266 6.53974 323.634 6.56911 323.785 6.25586Z" fill="#F6781D"/>
<path d="M321.523 6.42142C321.983 6.54868 322.381 6.53889 322.811 6.48016C322.413 6.43121 321.953 6.3529 321.523 6.42142Z" fill="#F6781D"/>
<path d="M412.408 12.1193L412.654 12.1584C412.684 12.1193 412.716 12.0997 412.746 12.0703L412.408 12.1193Z" fill="#F6781D"/>
<path d="M412.758 12.0798L413.096 12.0406C412.972 12.0308 412.85 12.021 412.758 12.0798Z" fill="#F6781D"/>
<path d="M413.842 11.9434L413.108 12.0315C413.322 12.051 413.598 12.0902 413.842 11.9434Z" fill="#F6781D"/>
<path d="M405.012 11.3652L404.798 11.5512C404.89 11.5219 404.949 11.4533 405.012 11.3652Z" fill="#F6781D"/>
<path d="M402.681 11.2681C403.203 11.3464 403.784 11.7772 404.612 11.7086L404.796 11.5618C404.244 11.8163 403.416 10.9745 402.681 11.2681Z" fill="#F6781D"/>
<path d="M394.663 8.20264L396.5 8.48652C396.286 8.25158 396.042 7.94812 396.959 7.95791C394.907 7.17477 397.143 8.45715 394.663 8.20264Z" fill="#F6781D"/>
<path d="M388.843 7.49906C389.947 7.46969 389.027 7.1956 389.151 7.07812C388.354 7.22497 388.17 7.26412 388.843 7.49906Z" fill="#F6781D"/>
<path d="M344.989 5.07149L345.324 4.58203C344.497 4.6114 345.232 4.76803 344.989 5.07149Z" fill="#F6781D"/>
<path d="M335.483 7.1955L336.127 7.54791L336.708 7.11719L335.483 7.1955Z" fill="#F6781D"/>
<path d="M332.031 3.47475L332.399 3.41602L330.96 3.54327L332.031 3.47475Z" fill="#F6781D"/>
<path d="M257.355 1.43969L257.507 2.05641C258.091 1.96831 258.305 1.27328 257.355 1.43969Z" fill="#F6781D"/>
<path d="M224.991 1.73219C224.654 1.41893 223.765 1.21336 223.183 1.50703C223.918 1.56577 224.623 1.8105 224.991 1.73219Z" fill="#F6781D"/>
<path d="M128.046 1.76226L128.659 1.53711L127.464 1.74268L128.046 1.76226Z" fill="#F6781D"/>
</g>
</g>
<defs>
<clipPath id="clip0_161_821">
<rect width="420" height="13" fill="white"/>
</clipPath>
</defs>
</svg>
