<svg width="287" height="13" viewBox="0 0 287 13" fill="none" xmlns="http://www.w3.org/2000/svg">
<g clip-path="url(#clip0_232_16)">
<mask id="mask0_232_16" style="mask-type:luminance" maskUnits="userSpaceOnUse" x="0" y="0" width="287" height="13">
<path d="M287 0H0V13H287V0Z" fill="white"/>
</mask>
<g mask="url(#mask0_232_16)">
<path d="M286.783 12.1884C287.014 12.0415 287.119 11.6597 286.679 11.6891L286.071 12.296L286.783 12.1884Z" fill="#F6781D"/>
<path d="M284.618 10.748C283.989 11.0026 283.152 11.492 283.194 12.099C283.969 11.541 283.969 11.8053 284.826 11.1298C285.266 11.1005 285.434 11.4039 285.266 11.6291C285.497 11.4822 285.832 11.8346 286.251 11.4529C285.957 10.9145 285.288 10.8264 284.387 11.1592C284.303 11.0124 284.534 10.8655 284.618 10.748Z" fill="#F6781D"/>
<path d="M244.677 6.09766L244.908 6.19555C244.865 6.1466 244.782 6.11723 244.677 6.09766Z" fill="#F6781D"/>
<path d="M219.541 4.06278C219.73 4.06278 219.835 3.99426 219.856 3.94531C219.667 3.96489 219.501 4.00405 219.541 4.06278Z" fill="#F6781D"/>
<path d="M215.369 3.11342C215.454 3.14279 215.537 3.15257 215.62 3.17215C215.537 3.11342 215.431 3.07426 215.369 3.11342Z" fill="#F6781D"/>
<path d="M244.677 6.09827L244.071 5.84375C243.965 6.04932 244.385 6.01996 244.677 6.09827Z" fill="#F6781D"/>
<path d="M278.349 11.7269C278.497 11.7073 278.643 11.6583 278.789 11.5996C278.663 11.6192 278.538 11.629 278.412 11.629C278.412 11.6681 278.392 11.6975 278.349 11.7269Z" fill="#F6781D"/>
<path d="M255.994 6.42244L256.203 6.43223C256.287 6.36371 256.391 6.28539 256.476 6.1875L255.994 6.42244Z" fill="#F6781D"/>
<path d="M264.537 7.09777C264.349 7.05861 264.055 7.58722 263.889 7.82216C264.098 7.6068 264.266 7.5187 264.454 7.48933C264.495 7.38165 264.515 7.26418 264.537 7.09777Z" fill="#F6781D"/>
<path d="M277.486 9.36926L277.76 9.32031C277.697 9.3301 277.592 9.34968 277.486 9.36926Z" fill="#F6781D"/>
<path d="M249.936 5.83446C249.956 5.75614 249.956 5.67783 249.936 5.63867C249.894 5.7072 249.894 5.77572 249.936 5.83446Z" fill="#F6781D"/>
<path d="M11.5395 12.2756C11.5186 12.2365 11.4978 12.2169 11.4978 12.1777C11.4561 12.2463 11.4769 12.2854 11.5395 12.2756Z" fill="#F6781D"/>
<path d="M0.498476 10.788L0.624106 10.739C0.561292 10.6411 0.519416 10.5334 0.477539 10.4355L0.498476 10.788Z" fill="#F6781D"/>
<path d="M207.581 1.98723C207.603 1.99702 207.603 1.99702 207.624 1.99702C207.832 1.94807 207.707 1.94807 207.581 1.98723Z" fill="#F6781D"/>
<path d="M134.091 0.880859C134.928 1.37032 132.751 1.51715 134.028 2.05556C133.902 1.84999 135.138 1.2039 134.091 0.880859Z" fill="#F6781D"/>
<path d="M278.188 11.6387C278.062 11.629 277.959 11.629 277.833 11.6094C277.979 11.6387 278.084 11.6485 278.188 11.6387Z" fill="#F6781D"/>
<path d="M134.027 2.06641L134.153 2.12514C134.09 2.09577 134.069 2.08598 134.027 2.06641Z" fill="#F6781D"/>
<path d="M189.113 1.5957C189.135 1.69359 189.198 1.77191 189.261 1.84043C189.261 1.7817 189.238 1.71317 189.113 1.5957Z" fill="#F6781D"/>
<path d="M202.654 2.8381L202.34 2.75C202.466 2.80873 202.571 2.82831 202.654 2.8381Z" fill="#F6781D"/>
<path d="M181.893 2.12469C181.705 2.07574 181.664 1.99743 181.391 2.06595C181.413 2.09532 181.433 2.1149 181.453 2.13448C181.579 2.06595 181.705 2.03659 181.893 2.12469Z" fill="#F6781D"/>
<path d="M174.493 1.89844C174.535 1.93759 174.576 1.97675 174.618 2.01591C174.702 2.00612 174.786 1.99633 174.849 1.98654L174.493 1.89844Z" fill="#F6781D"/>
<path d="M33.0802 9.90736C32.8708 9.77031 32.7034 9.61368 32.5568 9.44727C32.808 9.82904 31.824 10.064 33.0802 9.90736Z" fill="#F6781D"/>
<path d="M278.492 11.4238C278.387 11.5511 278.281 11.6196 278.178 11.6294C278.261 11.6294 278.344 11.6294 278.429 11.6196C278.47 11.5511 278.512 11.4826 278.492 11.4238Z" fill="#F6781D"/>
<path d="M181.031 6.45145L179.879 6.33398C180.194 6.39272 180.611 6.43188 181.031 6.45145Z" fill="#F6781D"/>
<path d="M85.0033 6.53906L84.752 6.61738C84.8567 6.61738 84.9405 6.5978 85.0033 6.53906Z" fill="#F6781D"/>
<path d="M176.427 6.29393C176.238 6.08836 176.029 5.97089 175.821 5.89258C175.758 5.93173 175.715 5.97089 175.673 6.02963L176.427 6.29393Z" fill="#F6781D"/>
<path d="M25.5853 11.3946C26.674 11.3163 25.7947 10.6506 25.8575 10.2297C27.0719 9.91642 26.674 10.6995 27.2813 11.0226C28.0141 10.7583 28.3491 10.0535 28.9773 10.0339C29.061 10.1514 29.2076 10.1807 29.1239 10.3373C29.7521 9.70105 31.6575 10.0828 32.3694 9.28012C32.474 9.33885 32.5368 9.39759 32.5786 9.44654C32.2855 9.10392 32.118 8.74172 32.0343 8.4872C32.5159 8.42846 32.7671 7.95858 33.1439 8.40889C32.8299 8.41868 32.8927 8.61446 32.809 8.77108L33.2487 8.52636C33.9606 9.15286 32.6414 8.82003 32.8299 9.30949C33.7303 9.00602 34.6934 8.35015 35.5309 8.46762C35.9288 9.10392 33.8349 8.8494 35.0704 9.33886L33.7931 9.19202C35.0913 10.1416 33.0393 9.18223 34.2957 10.2101C35.9078 10.259 35.9078 9.72063 37.5201 9.78916C37.7295 9.39759 37.2061 9.26054 37.4155 8.86898C39.4046 8.04669 39.7605 10.3863 41.0796 9.3878C41.3518 8.91792 41.2052 8.07605 42.5242 8.42846L42.3568 9.20181C43.8854 9.16265 42.8384 8.06627 44.5973 8.44804C44.4088 8.7613 43.4875 8.78087 43.7597 8.85919C44.995 9.36822 44.3459 8.37952 45.1207 8.32078L45.5185 8.96687C47.0889 8.74172 48.701 8.125 50.4599 7.88027C50.4181 8.08584 50.1876 8.31099 50.6693 8.4872C52.8258 8.01732 55.5269 8.26205 57.8093 8.51657L58.4792 7.89006C58.6677 7.88027 58.9189 8.125 58.7306 8.25226C59.6308 8.41868 58.6677 7.89006 59.0237 7.63554C59.5051 7.56702 59.7565 7.91943 59.5051 8.11521C60.8663 7.53765 63.4834 6.80346 65.2214 7.3125L64.9491 7.49849C66.2472 7.65512 66.0379 6.23569 67.3151 6.71536L67.1268 6.82304C69.8696 6.94051 72.7171 6.26506 74.9576 7.02861C75.167 6.18675 77.6795 7.26355 77.6167 6.10843C79.2709 6.59789 78.873 6.83283 81.1135 7.10693C81.6997 7.12651 81.8254 6.34337 82.5162 6.19654L82.6628 6.79367L83.5004 6.11822L84.1494 6.81325L84.7776 6.62726C84.5054 6.60768 84.1705 6.38253 84.1705 6.20633C85.1544 5.88328 86.8087 6.52937 86.8715 6.83283L89.2584 6.23569C89.2375 6.48042 88.8396 6.57831 88.5465 6.74473C89.7609 6.08886 88.9024 7.37123 90.0122 6.76431C89.8237 6.63705 90.0331 6.40211 90.0331 6.28464C90.703 6.62726 92.0642 6.57831 93.0692 6.39232L92.9435 6.81325C94.7861 6.85241 96.7752 6.48042 98.8272 6.4119C98.0525 6.24548 98.1153 5.52108 98.7224 5.43298L99.0575 6.05949C99.3925 5.64834 98.3875 5.84413 99.1203 5.33509C99.895 5.38404 99.7485 6.03991 99.3297 6.26506L100.23 6.01054C100.314 6.19654 100.104 6.30422 100.083 6.54895C100.418 6.1378 101.779 7.1363 102.24 6.42169L102.324 6.60768C104.376 6.53916 105.276 6.28464 106.951 6.2259C106.909 5.67771 107.579 5.78539 108.04 5.33509C109.296 5.49172 110.72 5.89307 112.186 5.81476C113.212 5.52108 112.437 5.34488 112.877 5.01205C113.002 5.5113 114.489 5.43298 113.756 5.81476C115.536 5.69729 116.017 5.66792 118.258 5.21762C118.007 5.02184 117.713 4.93374 117.839 4.75753C118.237 4.66943 118.781 4.95331 118.739 5.18825L118.635 5.24699C121.126 4.44428 124.581 6.59789 126.528 5.5113L126.424 5.57003C127.115 5.37425 127.806 5.19804 128.497 5.01205C129.46 5.10015 127.931 5.39383 128.664 5.69729C130.884 4.85542 132.224 5.80497 134.066 5.24699C135.532 6.72515 139.175 5.12952 141.122 6.06928L141.018 5.71687C141.52 5.37425 141.625 5.91265 142.002 5.99096C141.939 5.71687 141.457 5.67771 141.771 5.49172C146.022 5.07078 150.545 5.94202 154.879 6.36295C156.47 6.48042 155.863 4.57154 157.831 5.43298L157.224 6.06928C160.49 5.34488 163.777 6.19654 166.981 5.57982C166.772 5.72666 166.751 5.92244 166.458 5.91265C167.086 6.39232 168.907 5.97139 168.949 5.58961C169.431 5.63855 169.033 5.94202 169.326 6.1378C169.975 6.42169 171.064 5.56024 171.358 6.03991C171.421 6.11822 171.147 6.18675 171.021 6.2259C171.483 6.00075 173.032 6.31401 172.676 5.76581C173.829 6.0497 174.958 5.55045 175.858 5.90286C176.549 5.31551 177.848 6.26506 178.14 5.4134C177.952 6.29443 180.131 6.19654 180.926 5.80497C180.633 6.05949 181.533 6.10843 181.197 6.46084C182.057 6.48042 182.853 6.34337 182.768 5.88328C184.193 6.98946 186.035 5.13931 186.725 6.51958C189.322 6.12801 191.709 5.88328 194.032 5.75602C193.803 6.63705 191.5 5.75602 191.438 6.68599C193.657 6.39232 195.038 5.67771 197.132 5.97139C197.655 6.10843 196.755 6.34337 196.525 6.49021C198.745 6.20633 200.671 6.68599 202.681 6.3238C202.659 6.40211 202.43 6.48042 202.22 6.53916C202.597 6.52937 203.079 6.71536 203.099 6.31401L202.702 6.40211C202.22 5.78539 204.439 5.27636 204.587 4.97289C203.707 6.07907 206.428 5.36446 205.088 6.75452C205.361 6.69578 205.696 6.51958 205.696 6.24548C206.052 6.34337 206.136 6.50979 205.696 6.79367C207.099 6.64684 206.701 6.19654 207.936 6.27485C207.895 6.47063 207.622 6.52937 207.455 6.75452C208.146 6.4119 208.858 6.06928 209.863 6.28464C209.778 6.40211 209.863 6.55873 209.549 6.53916C211.329 6.57831 212.815 5.69729 214.678 6.16717C213.903 6.97967 215.265 6.48042 215.202 7.21461L216.311 7.05798L215.977 6.68599C216.897 6.74473 217.84 6.26506 218.573 6.53916L217.819 6.80346L219.577 6.75452L218.677 6.43148C219.703 6.10843 218.825 5.5113 219.997 5.7756C219.725 5.83434 220.917 5.83434 221.274 6.28464C221.797 6.07907 222.321 5.86371 222.948 6.07907C223.053 6.3238 222.593 6.87199 222.656 7.0384C223.262 6.46084 224.853 6.98946 225.607 6.37274C225.378 6.50979 225.253 6.89157 225.293 6.97967L225.818 6.50979C226.195 6.68599 226.236 6.7741 226.09 7.06777C227.346 7.2244 225.944 6.12801 227.346 6.60768C227.221 6.63705 227.241 6.71536 226.99 6.7741C228.455 7.04819 230.026 6.62726 231.346 6.98946C231.534 7.75301 230.067 7.07756 230.361 7.72364C232.412 7.74322 234.78 7.16566 236.685 7.47892L236.349 7.37124C236.957 6.36295 237.626 7.98795 238.779 7.57681C238.506 7.63554 238.276 8.125 238.38 8.01732C239.657 8.28163 241.185 7.96837 243.322 7.80196L242.987 8.04669C243.699 8.34036 245.018 8.34036 245.813 8.52636C246.149 8.28163 246.63 8.35994 246.462 7.95858C248.535 9.65211 251.76 7.53765 253.603 8.95708C253.331 8.9375 252.849 9.13328 253.08 9.15286L255.152 9.05497C255.172 8.59488 255.005 8.7613 254.712 8.38931C255.068 8.14458 255.697 7.97816 256.199 8.01732C255.194 8.24247 255.926 8.73193 256.22 9.00602C256.199 8.86898 256.408 8.72214 256.429 8.58509C257.14 9.45633 256.953 7.69428 258.168 8.35015L257.999 8.5753C258.565 8.50678 259.171 8.24247 259.716 8.36973C259.737 8.90813 259.068 8.55572 258.857 8.97666C259.654 9.0256 260.825 8.15437 261.328 8.74172C260.931 8.8494 260.45 8.81024 260.051 8.91792C260.596 9.60316 260.742 9.45633 261.287 9.60316L261.245 9.58358L262.479 9.98494L262.208 9.78916C263.758 8.54593 264.322 9.74021 266.039 8.99623C264.385 9.70105 265.621 9.45633 265.264 10.0241C265.538 10.2199 265.976 10.4548 265.767 10.6017C266.604 10.1905 266.667 11.0715 267.841 10.4744C267.798 10.6702 268.51 10.5625 268.155 11.0128C269.035 10.9443 268.112 10.6702 268.281 10.445C269.829 9.93599 270.897 11.512 273.117 10.817C274.854 10.6114 275.42 10.0143 277.031 9.8381C277.388 10.1807 276.32 10.4744 276.32 10.4744C276.991 10.8268 277.597 10.8366 278.456 10.6995C278.225 10.8464 278.31 11.003 278.456 11.2282C279.085 11.238 279.188 10.5919 279.839 10.9443C279.608 11.1401 279.273 11.4533 278.874 11.6295C279.67 11.5316 280.528 11.2477 281.345 11.1498C281.387 11.4925 280.676 11.6002 280.299 11.7861C281.199 11.7176 282.559 11.698 283.084 11.2086L282.644 10.9736C282.958 10.9834 282.581 11.4337 282.31 11.5023C281.408 11.8351 281.387 11.2282 281.43 11.0324L282.016 10.9639C282.016 9.81852 279.839 10.9345 278.811 10.7681L279.628 10.0143L278.247 10.5723C278.122 10.3471 278.162 9.88705 278.748 9.81852C278.185 9.34864 277.954 10.0339 277.514 9.53464C277.471 9.45633 277.534 9.42696 277.597 9.39759L276.739 9.56401C276.969 9.40738 276.885 8.98645 277.283 9.15286C276.174 8.56551 274.876 9.53464 274.645 8.88855L274.688 8.81024C272.72 8.89834 274.248 9.37801 272.552 9.92621L272.28 8.38931L271.84 8.95708C271.651 8.91792 271.295 8.83961 271.483 8.60467C270.604 8.9375 271.483 8.86898 270.918 9.2116C270.249 8.58509 268.301 9.2116 268.489 8.26205C267.966 8.67319 269.223 8.69277 268.112 8.90813C268.258 7.88027 266.919 8.96687 266.27 8.42846C266.752 7.93901 267.421 8.29142 266.793 7.74322C265.915 8.56551 265.244 7.39081 264.47 7.48871C264.135 8.18373 262.816 7.62575 261.539 7.74322C261.705 7.51807 259.465 7.1363 258.46 6.78389L258.545 6.66642C258.042 7.36145 256.953 7.1363 256.074 7.2244C256.262 6.80346 256.491 6.64684 257.014 6.49021L256.22 6.43148C255.948 6.64684 255.654 6.74473 255.111 6.78389L255.508 6.27485C254.44 6.2259 253.163 6.73494 251.949 6.28464C251.697 6.7741 252.492 7.74322 250.964 7.95858C251.006 7.68449 251.132 7.2244 251.529 7.14608C251.404 7.17545 251.006 7.33208 250.818 7.20482L251.551 6.79367C251.006 6.54895 251.089 7.14608 250.629 7.06777C250.775 6.68599 250.378 6.76431 250.546 6.47063C250.692 6.44127 250.923 6.65663 251.152 6.52937C250.629 6.42169 250.043 6.14759 249.938 5.83434C249.918 6.05949 249.749 6.34337 249.332 6.36295C248.284 6.31401 249.143 5.87349 248.598 5.63855C248.241 5.88328 247.678 5.56024 247.467 6.12801C247.153 6.09865 247.195 5.83434 247.133 5.66792C246.504 5.87349 244.578 5.55045 244.976 6.20633L245.101 6.25527C245.081 6.26506 245.039 6.26506 244.996 6.27485C243.028 6.70557 241.437 5.67771 239.594 5.78539L239.657 5.58961C238.548 5.72666 237.291 5.54066 236.412 5.89307C236.097 5.87349 235.783 5.49172 235.994 5.26657C235.157 5.35467 234.988 5.56024 233.92 5.15889C234.82 4.88479 233.732 4.84563 234.82 4.97289C233.837 4.72816 233.689 4.40512 232.412 4.84563C232.937 4.38554 231.806 4.17018 231.283 4.27786L231.91 4.67922C231.324 4.70858 230.864 4.63027 230.381 4.55196L230.843 3.92545C228.916 2.98569 226.592 5.04142 225.315 3.63178C224.624 4.05271 226.404 4.01355 225.733 4.5128C224.77 4.37575 223.996 3.38705 223.682 3.36747C222.425 2.93675 222.153 4.23871 220.813 3.92545C220.939 4.17018 220.939 4.7869 219.828 4.95331C218.866 4.81627 218.866 3.91566 219.536 3.76883C219.788 3.75904 219.871 3.83735 219.851 3.91566C220.185 3.84714 220.645 3.76883 220.311 3.50452L220.122 3.72967C219.682 3.46536 218.322 3.41642 218.74 3.05422C217.945 3.23042 218.322 3.41642 218.845 3.56325C217.651 3.1619 216.857 3.44578 215.62 3.15211C215.788 3.28916 215.914 3.57304 215.726 3.56325C213.883 3.17169 214.783 3.95482 213.463 3.98419C212.815 3.59262 213.924 3.1619 212.543 3.38705C211.809 3.10316 212.521 2.76054 212.878 2.59413C211.58 2.9759 210.721 2.18298 210.05 2.06551L210.721 1.90889C210.323 1.99699 210.009 1.97741 209.695 1.95783L209.946 2.4375C209.59 2.33961 209.276 2.32003 209.339 2.12425C208.899 2.40813 209.464 2.90738 208.607 3.27937C208.167 3.01506 207.056 3.45557 207.015 2.82907C208.522 3.12274 206.973 2.20256 208.313 2.17319C208.041 2.23193 207.727 2.21235 207.392 2.11446C207.35 2.04593 207.476 1.9872 207.581 1.95783C206.219 1.33133 206.742 2.6137 205.214 2.51581C205.487 2.18298 205.005 1.84036 204.733 1.8991C205.339 1.93825 204.899 2.49623 204.293 2.73117C203.371 2.40813 203.182 2.87801 202.681 2.81928L203.245 2.9759C202.974 3.31852 202.493 3.23042 201.802 3.31852C201.802 3.04443 202.451 3.1619 202.242 3.02485C201.362 3.60241 200.65 2.33961 199.497 2.7116C199.059 2.45708 199.582 2.05572 199.163 1.88931C197.886 2.30045 197.949 1.37048 196.629 1.70331C196.902 2.18298 196.986 2.06551 196.023 2.49623L198.137 2.24172L196.692 2.87801C197.32 2.90738 198.054 2.63328 198.409 2.72139C197.718 3.08358 197.802 2.96611 198.011 3.35768C197.3 2.63328 196.252 3.71009 195.352 3.20105L195.583 2.04593C194.18 1.47816 192.861 2.54518 190.976 2.19277L191.563 2.41792C191.227 2.86822 190.369 2.4375 189.721 2.60392C189.846 2.22214 189.469 2.06551 189.238 1.82078C189.218 2.10467 187.836 1.74247 187.542 2.51581L186.767 1.97741C185.239 1.7131 184.842 3.01506 183.376 2.83886C183.879 2.4375 183.25 2.13404 184.276 1.86973C183.773 1.85015 183.334 1.76205 183.291 2.02636C183.04 1.77184 181.848 2.49624 181.428 2.11446C181.199 2.28087 181.073 2.68223 180.528 2.62349C180.486 2.54518 180.548 2.4375 180.548 2.4375C180.528 2.62349 179.648 2.66265 180.068 3.11295C178.686 1.86973 175.795 3.03464 174.581 1.99699C173.472 2.11446 172.152 2.21235 171.169 2.23193C171.252 2.11446 171.19 2.03614 171.378 2.08509C170.059 1.70331 170.436 3.18148 168.928 2.76054C168.195 2.12425 169.787 2.4375 169.305 2.19277C169.2 0.920181 167.421 2.33961 166.437 1.57605L166.688 1.50753C165.913 1.06702 164.699 1.95783 163.401 1.85015C163.401 1.85015 163.463 1.74247 163.422 1.65437C162.479 2.29066 160.783 2.47666 159.527 2.64307C159.946 2.15361 160.113 2.38855 159.904 1.87952C159.339 1.93825 160.03 2.69202 158.899 2.81928C158.543 2.54518 157.747 2.29066 157.684 1.75226L158.752 1.74247C158.25 1.03765 157.391 1.74247 156.826 1.61521L156.91 1.31175C155.277 1.39006 155.235 2.15361 153.497 2.0753L153.664 2.31024C152.68 3.05422 152.89 1.86973 151.926 2.41792L151.654 1.64458C151.026 1.81099 149.435 2.36898 148.304 2.5256C148.953 1.95783 150.272 1.64458 151.11 1.32154C150.482 1.29217 148.995 1.37048 148.66 1.75226C148.911 1.67395 149.225 1.48795 149.477 1.60542C148.702 2.21235 147.697 2.51581 146.462 2.50602C146.734 1.00828 143.279 2.14383 142.379 0.978916C140.18 1.5369 138.023 0.753765 135.448 0.851657C136.39 2.01657 134.694 0.890813 134.883 2.08509C134.296 2.1634 134.066 2.14383 134.003 2.06551L132.182 1.3509C131.742 1.00828 132.747 1.0866 132.684 0.8125C131.365 0.734187 132.119 0.313253 131.24 0C131.428 0.430723 130.8 0.616717 130.046 0.450301L131.114 0.998494C129.334 1.64458 129.502 0 127.68 0.636295L128.245 0.254518C127.303 0.46988 124.749 0.283886 123.89 1.2628C123.723 1.12575 123.471 0.802711 123.89 0.714608C121.608 0.616717 118.949 1.83057 117.148 1.27259L117.295 0.978916C116.876 1.06702 116.604 1.54669 116.059 1.2628C116.08 1.14533 116.206 0.969127 116.017 0.949548C115.808 1.05723 114.95 1.48795 114.363 1.32154L114.803 0.978916C112.563 0.636295 111.495 1.85015 109.694 2.08509C109.61 1.22364 107.852 0.978916 106.951 0.851657L106.972 0.724398C104.397 0.655874 102.701 1.54669 100.377 1.96762C98.7852 1.0866 95.3514 1.75226 92.9016 1.31175C93.2786 1.45858 92.9435 1.9872 92.5456 2.08509C91.9594 1.94804 91.1009 2.75075 91.0592 1.95783L91.2684 1.96762C90.7241 1.21386 89.6143 1.45858 88.7139 1.46837L88.7559 2.50602C86.1596 1.07681 82.7676 3.26958 81.239 2.00678C80.7365 2.29066 80.0455 2.32003 79.543 2.60392L79.4593 2.05572C77.868 1.9872 77.0933 1.95783 75.1879 2.19277L75.5021 1.78163C74.4132 1.8012 74.4969 3.43599 73.5129 3.5241L73.0313 2.7116C71.1468 2.81928 69.0531 2.19277 67.3779 3.02485C67.3779 2.90738 67.3779 2.66265 67.671 2.6137C66.7708 2.63328 64.0907 2.23193 64.6978 3.34789C64.4886 2.6137 62.7297 3.39684 61.8084 3.7884V3.24021C61.1383 3.98419 61.1594 4.17997 60.0287 4.44428C59.7356 4.39533 59.6517 4.02334 60.0705 4.14081C59.0446 3.91566 59.4842 4.6988 58.2489 4.48343L58.5838 4.11145C57.5999 4.13102 57.7254 4.30723 57.3066 4.74774C56.7623 5.00226 55.4223 4.72816 55.1291 4.24849C55.0872 4.55196 54.6684 4.98268 54.0613 4.88479C53.9356 4.70858 54.1031 4.58133 54.187 4.5128C52.449 4.24849 51.9674 5.29593 50.6901 4.83584C50.6064 4.65964 50.5018 4.57154 50.397 4.52259C51.6952 4.45407 52.7421 4.41491 52.6584 4.46386C52.5118 3.96461 51.4231 3.94503 52.0513 3.20105C51.3183 3.63178 50.1459 4.53238 49.057 4.36596C48.9941 4.31702 48.9315 4.27786 48.8686 4.19955L48.9524 4.14081C48.701 4.10166 48.5127 4.17018 48.3451 4.26807C47.9891 4.20934 47.7797 4.17018 47.4657 4.17997C47.2144 3.77861 46.1885 4.05271 45.6651 4.07229C45.8954 4.61069 45.1835 4.58133 45.9582 4.98268C45.8534 4.95331 46.0419 4.91416 46.377 4.86521C46.4398 4.84563 46.5444 4.82605 46.5864 4.79669L46.5653 4.84563C46.9004 4.80648 47.3401 4.75753 47.8426 4.70858C47.5286 5.01205 47.1726 5.28614 46.5025 5.02184C46.335 5.37425 46.1676 5.75602 46.0628 5.94202C45.0998 5.2372 43.5921 4.93373 43.2361 4.48343C41.7497 4.91416 39.572 4.97289 38.9439 6.06928C38.546 6.23569 38.3157 5.81476 38.0854 5.66792C38.3157 5.55045 38.6299 5.54066 38.7136 5.38404C37.918 5.71687 36.0963 5.6875 36.1382 6.42169C34.8819 6.18675 36.536 5.71687 35.0076 5.95181L35.133 5.71687C31.6364 4.83584 30.9036 7.96837 26.9254 6.80346C27.1976 6.87199 27.3233 6.90136 27.4279 7.01883C23.303 6.70557 19.7853 8.35015 15.535 7.72364C14.4043 7.61596 14.509 8.08584 14.0274 8.4872L13.5039 7.93901L12.7083 8.72214C11.3892 9.37801 9.25349 7.61596 7.70407 8.7613L8.16471 9.11371C7.41093 9.1235 6.00807 9.60316 5.90339 9.14307C5.86151 9.22139 5.88245 9.5738 5.48462 9.40738L5.29617 9.10392L3.80956 9.82831C2.34389 9.78916 3.36986 8.62425 1.31791 8.81024C0.626954 9.01581 -0.315266 9.95557 0.103498 10.122C0.417571 10.0926 0.982902 10.2101 1.19228 10.5038L0.606015 10.7485C1.02478 11.6393 1.12947 12.5986 3.03485 13.0098C3.2861 12.7846 3.55831 12.5595 3.8305 12.3343L4.4377 12.7161L3.51643 12.863C4.29114 13.1958 4.41676 12.8042 4.66803 12.5105C4.8774 12.7259 5.12867 12.863 5.40086 12.9217L6.029 11.9428C6.34309 12.2756 5.90339 12.6867 6.76186 12.7846C7.05499 12.3343 5.84057 12.07 6.55246 11.7078C7.30624 12.0407 7.32718 12.3833 7.78782 11.9721C7.9972 12.1875 7.9344 12.3539 7.74594 12.4812C8.16471 12.1483 9.19068 12.1973 9.23255 11.698C10.0701 12.1288 11.096 11.3554 11.473 12.1973C11.5567 11.9721 12.143 11.4239 12.6455 11.3358C12.1848 12.4518 14.6346 11.1792 14.9068 12.2854C15.179 11.3065 17.2728 11.6197 18.2989 10.9932C18.2569 11.0715 18.1941 11.2282 18.0684 11.1988C18.8223 11.1988 19.1573 11.4533 19.6807 11.5806C19.4294 10.817 20.4555 10.5429 20.8532 10.0143C22.0467 10.6506 20.7277 10.9541 21.3139 11.6197C20.9999 11.0128 22.5492 10.8562 22.0258 10.3863C22.8843 10.7681 22.6958 10.5429 23.3239 11.1303C23.0308 10.1807 23.8684 10.9051 24.1824 10.2786C25.355 10.6604 24.8106 11.1401 25.7527 10.7583C26.3809 10.9834 25.5853 11.3946 25.5853 11.3946ZM50.397 7.69428C50.397 7.70407 50.397 7.70407 50.397 7.70407C50.1876 7.73343 49.9993 7.75301 49.8736 7.77259C49.9993 7.75301 50.1459 7.73343 50.397 7.69428ZM52.5538 7.54744C52.2816 7.54744 51.9465 7.55723 51.6114 7.5866C51.4859 7.4006 51.5068 7.20482 51.7162 7.20482C51.6534 7.33208 52.1978 7.41039 52.5538 7.54744ZM46.7538 4.09187C47.0678 3.98419 47.2144 4.08208 47.2983 4.18976C47.1307 4.20934 46.9632 4.24849 46.7119 4.29744C46.7119 4.31702 46.691 4.34639 46.691 4.36596C46.7119 4.26807 46.7119 4.17018 46.7538 4.09187Z" fill="#F6781D"/>
<path d="M46.3757 4.85552C46.3337 4.8653 46.3128 4.89467 46.25 4.90446C46.3337 4.94362 46.4174 4.98277 46.5012 5.01214C46.5222 4.95341 46.5431 4.89467 46.564 4.83594C46.5012 4.83594 46.4383 4.84573 46.3757 4.85552Z" fill="#F6781D"/>
<path d="M244.97 6.20708L244.93 6.1875C244.95 6.20708 244.992 6.23645 244.992 6.2756C244.97 6.24623 244.97 6.22666 244.97 6.20708Z" fill="#F6781D"/>
<path d="M82.6455 6.92025L82.6245 6.7832L82.457 6.91046L82.6455 6.92025Z" fill="#F6781D"/>
<path d="M256.181 8.9668C256.181 9.01574 256.201 9.06469 256.284 9.11364C256.306 9.08427 256.243 9.02553 256.181 8.9668Z" fill="#F6781D"/>
<path d="M261.221 9.55469L261.871 9.81899C261.598 9.68195 261.389 9.60363 261.221 9.55469Z" fill="#F6781D"/>
<path d="M265.017 10.2095C265.1 10.1214 265.142 10.0529 265.183 9.98438L265.017 10.2095Z" fill="#F6781D"/>
<path d="M202.192 6.5293C202.131 6.5293 202.089 6.5293 202.026 6.54888C201.669 6.62719 201.921 6.59782 202.192 6.5293Z" fill="#F6781D"/>
<path d="M221.253 6.25586C221.024 6.34396 220.813 6.43206 220.584 6.48101C220.898 6.53974 221.149 6.56911 221.253 6.25586Z" fill="#F6781D"/>
<path d="M219.708 6.42142C220.022 6.54868 220.294 6.53889 220.588 6.48016C220.316 6.43121 220.002 6.3529 219.708 6.42142Z" fill="#F6781D"/>
<path d="M281.812 12.1193L281.98 12.1584C282.001 12.1193 282.023 12.0997 282.043 12.0703L281.812 12.1193Z" fill="#F6781D"/>
<path d="M282.051 12.0798L282.282 12.0406C282.197 12.0308 282.114 12.021 282.051 12.0798Z" fill="#F6781D"/>
<path d="M282.792 11.9434L282.291 12.0315C282.437 12.051 282.626 12.0902 282.792 11.9434Z" fill="#F6781D"/>
<path d="M276.758 11.3652L276.612 11.5512C276.675 11.5219 276.715 11.4533 276.758 11.3652Z" fill="#F6781D"/>
<path d="M275.165 11.2681C275.522 11.3464 275.919 11.7772 276.485 11.7086L276.61 11.5618C276.233 11.8163 275.668 10.9745 275.165 11.2681Z" fill="#F6781D"/>
<path d="M269.687 8.20264L270.942 8.48652C270.795 8.25158 270.629 7.94812 271.256 7.95791C269.853 7.17477 271.381 8.45715 269.687 8.20264Z" fill="#F6781D"/>
<path d="M265.709 7.49906C266.463 7.46969 265.835 7.1956 265.92 7.07812C265.375 7.22497 265.249 7.26412 265.709 7.49906Z" fill="#F6781D"/>
<path d="M235.742 5.07149L235.972 4.58203C235.406 4.6114 235.909 4.76803 235.742 5.07149Z" fill="#F6781D"/>
<path d="M229.247 7.1955L229.686 7.54791L230.084 7.11719L229.247 7.1955Z" fill="#F6781D"/>
<path d="M226.888 3.47475L227.139 3.41602L226.156 3.54327L226.888 3.47475Z" fill="#F6781D"/>
<path d="M175.86 1.43969L175.963 2.05641C176.363 1.96831 176.509 1.27328 175.86 1.43969Z" fill="#F6781D"/>
<path d="M153.744 1.73219C153.514 1.41893 152.907 1.21336 152.509 1.50703C153.011 1.56577 153.493 1.8105 153.744 1.73219Z" fill="#F6781D"/>
<path d="M87.4983 1.76226L87.9171 1.53711L87.1006 1.74268L87.4983 1.76226Z" fill="#F6781D"/>
</g>
</g>
<defs>
<clipPath id="clip0_232_16">
<rect width="287" height="13" fill="white"/>
</clipPath>
</defs>
</svg>
