<svg width="223" height="13" viewBox="0 0 223 13" fill="none" xmlns="http://www.w3.org/2000/svg">
<g clip-path="url(#clip0_232_236)">
<mask id="mask0_232_236" style="mask-type:luminance" maskUnits="userSpaceOnUse" x="0" y="0" width="223" height="13">
<path d="M223 0H0V13H223V0Z" fill="white"/>
</mask>
<g mask="url(#mask0_232_236)">
<path d="M222.831 12.1884C223.011 12.0415 223.092 11.6597 222.751 11.6891L222.278 12.296L222.831 12.1884Z" fill="#F6781D"/>
<path d="M221.148 10.748C220.66 11.0026 220.01 11.492 220.043 12.099C220.644 11.541 220.644 11.8053 221.311 11.1298C221.653 11.1005 221.783 11.4039 221.653 11.6291C221.832 11.4822 222.092 11.8346 222.418 11.4529C222.19 10.9145 221.67 10.8264 220.969 11.1592C220.904 11.0124 221.084 10.8655 221.148 10.748Z" fill="#F6781D"/>
<path d="M190.115 6.09766L190.294 6.19555C190.261 6.1466 190.197 6.11723 190.115 6.09766Z" fill="#F6781D"/>
<path d="M170.584 4.06278C170.731 4.06278 170.813 3.99426 170.829 3.94531C170.682 3.96489 170.553 4.00405 170.584 4.06278Z" fill="#F6781D"/>
<path d="M167.342 3.11342C167.408 3.14279 167.473 3.15257 167.538 3.17215C167.473 3.11342 167.391 3.07426 167.342 3.11342Z" fill="#F6781D"/>
<path d="M190.115 6.09827L189.644 5.84375C189.562 6.04932 189.888 6.01996 190.115 6.09827Z" fill="#F6781D"/>
<path d="M216.278 11.7269C216.393 11.7073 216.507 11.6583 216.62 11.5996C216.522 11.6192 216.425 11.629 216.327 11.629C216.327 11.6681 216.311 11.6975 216.278 11.7269Z" fill="#F6781D"/>
<path d="M198.908 6.42244L199.071 6.43223C199.136 6.36371 199.217 6.28539 199.283 6.1875L198.908 6.42244Z" fill="#F6781D"/>
<path d="M205.547 7.09777C205.4 7.05861 205.172 7.58722 205.042 7.82216C205.205 7.6068 205.335 7.5187 205.482 7.48933C205.514 7.38165 205.529 7.26418 205.547 7.09777Z" fill="#F6781D"/>
<path d="M215.608 9.36926L215.82 9.32031C215.772 9.3301 215.69 9.34968 215.608 9.36926Z" fill="#F6781D"/>
<path d="M194.201 5.83446C194.217 5.75614 194.217 5.67783 194.201 5.63867C194.169 5.7072 194.169 5.77572 194.201 5.83446Z" fill="#F6781D"/>
<path d="M8.96604 12.2756C8.94991 12.2365 8.93378 12.2169 8.93378 12.1777C8.90151 12.2463 8.91765 12.2854 8.96604 12.2756Z" fill="#F6781D"/>
<path d="M0.387362 10.788L0.484977 10.739C0.43617 10.6411 0.403632 10.5334 0.371094 10.4355L0.387362 10.788Z" fill="#F6781D"/>
<path d="M161.291 1.98723C161.308 1.99702 161.308 1.99702 161.324 1.99702C161.486 1.94807 161.389 1.94807 161.291 1.98723Z" fill="#F6781D"/>
<path d="M104.189 0.880859C104.84 1.37032 103.148 1.51715 104.14 2.05556C104.042 1.84999 105.002 1.2039 104.189 0.880859Z" fill="#F6781D"/>
<path d="M216.153 11.6387C216.055 11.629 215.975 11.629 215.877 11.6094C215.99 11.6387 216.072 11.6485 216.153 11.6387Z" fill="#F6781D"/>
<path d="M104.14 2.06641L104.238 2.12514C104.189 2.09577 104.172 2.08598 104.14 2.06641Z" fill="#F6781D"/>
<path d="M146.941 1.5957C146.959 1.69359 147.007 1.77191 147.056 1.84043C147.056 1.7817 147.039 1.71317 146.941 1.5957Z" fill="#F6781D"/>
<path d="M157.463 2.8381L157.219 2.75C157.316 2.80873 157.398 2.82831 157.463 2.8381Z" fill="#F6781D"/>
<path d="M141.332 2.12469C141.186 2.07574 141.154 1.99743 140.941 2.06595C140.959 2.09532 140.974 2.1149 140.99 2.13448C141.088 2.06595 141.186 2.03659 141.332 2.12469Z" fill="#F6781D"/>
<path d="M135.582 1.89844C135.615 1.93759 135.646 1.97675 135.679 2.01591C135.744 2.00612 135.81 1.99633 135.859 1.98654L135.582 1.89844Z" fill="#F6781D"/>
<path d="M25.7037 9.90736C25.541 9.77031 25.4109 9.61368 25.297 9.44727C25.4922 9.82904 24.7277 10.064 25.7037 9.90736Z" fill="#F6781D"/>
<path d="M216.389 11.4238C216.307 11.5511 216.226 11.6196 216.145 11.6294C216.21 11.6294 216.274 11.6294 216.34 11.6196C216.372 11.5511 216.405 11.4826 216.389 11.4238Z" fill="#F6781D"/>
<path d="M140.662 6.45145L139.767 6.33398C140.011 6.39272 140.336 6.43188 140.662 6.45145Z" fill="#F6781D"/>
<path d="M66.0478 6.53906L65.8525 6.61738C65.934 6.61738 65.999 6.5978 66.0478 6.53906Z" fill="#F6781D"/>
<path d="M137.084 6.29393C136.938 6.08836 136.776 5.97089 136.613 5.89258C136.565 5.93173 136.532 5.97089 136.499 6.02963L137.084 6.29393Z" fill="#F6781D"/>
<path d="M19.8799 11.3946C20.7258 11.3163 20.0426 10.6506 20.0914 10.2297C21.035 9.91642 20.7258 10.6995 21.1977 11.0226C21.767 10.7583 22.0274 10.0535 22.5155 10.0339C22.5805 10.1514 22.6944 10.1807 22.6294 10.3373C23.1174 9.70105 24.598 10.0828 25.1511 9.28012C25.2324 9.33885 25.2812 9.39759 25.3137 9.44654C25.0859 9.10392 24.9558 8.74172 24.8908 8.4872C25.265 8.42846 25.4601 7.95858 25.7529 8.40889C25.509 8.41868 25.5578 8.61446 25.4927 8.77108L25.8344 8.52636C26.3875 9.15286 25.3625 8.82003 25.509 9.30949C26.2086 9.00602 26.9569 8.35015 27.6077 8.46762C27.9168 9.10392 26.2899 8.8494 27.2498 9.33886L26.2574 9.19202C27.266 10.1416 25.6717 9.18223 26.6478 10.2101C27.9005 10.259 27.9005 9.72063 29.1532 9.78916C29.3159 9.39759 28.9092 9.26054 29.0719 8.86898C30.6175 8.04669 30.8941 10.3863 31.919 9.3878C32.1305 8.91792 32.0166 8.07605 33.0415 8.42846L32.9114 9.20181C34.0991 9.16265 33.2856 8.06627 34.6522 8.44804C34.5058 8.7613 33.7899 8.78087 34.0014 8.85919C34.9613 9.36822 34.4569 8.37952 35.0589 8.32078L35.3681 8.96687C36.5882 8.74172 37.8409 8.125 39.2075 7.88027C39.175 8.08584 38.996 8.31099 39.3702 8.4872C41.0459 8.01732 43.1446 8.26205 44.918 8.51657L45.4386 7.89006C45.585 7.88027 45.7802 8.125 45.6339 8.25226C46.3333 8.41868 45.585 7.89006 45.8616 7.63554C46.2357 7.56702 46.431 7.91943 46.2357 8.11521C47.2933 7.53765 49.3268 6.80346 50.6772 7.3125L50.4657 7.49849C51.4743 7.65512 51.3116 6.23569 52.3041 6.71536L52.1577 6.82304C54.2889 6.94051 56.5015 6.26506 58.2423 7.02861C58.405 6.18675 60.3573 7.26355 60.3084 6.10843C61.5938 6.59789 61.2846 6.83283 63.0255 7.10693C63.481 7.12651 63.5786 6.34337 64.1154 6.19654L64.2293 6.79367L64.8801 6.11822L65.3844 6.81325L65.8725 6.62726C65.661 6.60768 65.4008 6.38253 65.4008 6.20633C66.1653 5.88328 67.4506 6.52937 67.4995 6.83283L69.3541 6.23569C69.3378 6.48042 69.0287 6.57831 68.8009 6.74473C69.7445 6.08886 69.0775 7.37123 69.9398 6.76431C69.7933 6.63705 69.956 6.40211 69.956 6.28464C70.4766 6.62726 71.5342 6.57831 72.3151 6.39232L72.2174 6.81325C73.6491 6.85241 75.1947 6.48042 76.7891 6.4119C76.1871 6.24548 76.2359 5.52108 76.7076 5.43298L76.968 6.05949C77.2283 5.64834 76.4474 5.84413 77.0168 5.33509C77.6188 5.38404 77.5049 6.03991 77.1795 6.26506L77.8791 6.01054C77.9442 6.19654 77.7815 6.30422 77.7651 6.54895C78.0255 6.1378 79.0829 7.1363 79.4409 6.42169L79.506 6.60768C81.1003 6.53916 81.8 6.28464 83.1014 6.2259C83.069 5.67771 83.5895 5.78539 83.9474 5.33509C84.9236 5.49172 86.0298 5.89307 87.1687 5.81476C87.9659 5.52108 87.3639 5.34488 87.7056 5.01205C87.8032 5.5113 88.9583 5.43298 88.3889 5.81476C89.7718 5.69729 90.146 5.66792 91.8867 5.21762C91.6915 5.02184 91.4638 4.93374 91.5613 4.75753C91.8705 4.66943 92.2935 4.95331 92.2609 5.18825L92.1796 5.24699C94.1156 4.44428 96.7999 6.59789 98.313 5.5113L98.2316 5.57003C98.7686 5.37425 99.3055 5.19804 99.8422 5.01205C100.591 5.10015 99.403 5.39383 99.9725 5.69729C101.697 4.85542 102.738 5.80497 104.17 5.24699C105.309 6.72515 108.14 5.12952 109.653 6.06928L109.571 5.71687C109.962 5.37425 110.043 5.91265 110.336 5.99096C110.287 5.71687 109.913 5.67771 110.157 5.49172C113.46 5.07078 116.974 5.94202 120.341 6.36295C121.578 6.48042 121.106 4.57154 122.635 5.43298L122.163 6.06928C124.701 5.34488 127.256 6.19654 129.745 5.57982C129.582 5.72666 129.566 5.92244 129.338 5.91265C129.826 6.39232 131.242 5.97139 131.274 5.58961C131.648 5.63855 131.339 5.94202 131.567 6.1378C132.071 6.42169 132.917 5.56024 133.146 6.03991C133.194 6.11822 132.982 6.18675 132.884 6.2259C133.243 6.00075 134.447 6.31401 134.169 5.76581C135.065 6.0497 135.943 5.55045 136.642 5.90286C137.179 5.31551 138.189 6.26506 138.416 5.4134C138.269 6.29443 139.962 6.19654 140.58 5.80497C140.353 6.05949 141.052 6.10843 140.791 6.46084C141.459 6.48042 142.077 6.34337 142.011 5.88328C143.118 6.98946 144.55 5.13931 145.086 6.51958C147.103 6.12801 148.959 5.88328 150.764 5.75602C150.586 6.63705 148.796 5.75602 148.748 6.68599C150.472 6.39232 151.545 5.67771 153.172 5.97139C153.578 6.10843 152.879 6.34337 152.701 6.49021C154.426 6.20633 155.922 6.68599 157.484 6.3238C157.467 6.40211 157.289 6.48042 157.125 6.53916C157.418 6.52937 157.793 6.71536 157.809 6.31401L157.5 6.40211C157.125 5.78539 158.85 5.27636 158.965 4.97289C158.281 6.07907 160.395 5.36446 159.354 6.75452C159.566 6.69578 159.826 6.51958 159.826 6.24548C160.103 6.34337 160.168 6.50979 159.826 6.79367C160.916 6.64684 160.608 6.19654 161.567 6.27485C161.535 6.47063 161.323 6.52937 161.193 6.75452C161.73 6.4119 162.283 6.06928 163.064 6.28464C162.998 6.40211 163.064 6.55873 162.82 6.53916C164.203 6.57831 165.358 5.69729 166.805 6.16717C166.204 6.97967 167.262 6.48042 167.213 7.21461L168.075 7.05798L167.815 6.68599C168.53 6.74473 169.262 6.26506 169.832 6.53916L169.246 6.80346L170.612 6.75452L169.913 6.43148C170.71 6.10843 170.028 5.5113 170.938 5.7756C170.727 5.83434 171.653 5.83434 171.93 6.28464C172.337 6.07907 172.745 5.86371 173.231 6.07907C173.313 6.3238 172.956 6.87199 173.004 7.0384C173.476 6.46084 174.712 6.98946 175.298 6.37274C175.12 6.50979 175.022 6.89157 175.054 6.97967L175.461 6.50979C175.754 6.68599 175.786 6.7741 175.673 7.06777C176.649 7.2244 175.559 6.12801 176.649 6.60768C176.551 6.63705 176.567 6.71536 176.372 6.7741C177.511 7.04819 178.731 6.62726 179.756 6.98946C179.903 7.75301 178.763 7.07756 178.991 7.72364C180.585 7.74322 182.425 7.16566 183.905 7.47892L183.644 7.37124C184.116 6.36295 184.636 7.98795 185.532 7.57681C185.32 7.63554 185.141 8.125 185.222 8.01732C186.214 8.28163 187.402 7.96837 189.062 7.80196L188.802 8.04669C189.355 8.34036 190.38 8.34036 190.998 8.52636C191.259 8.28163 191.632 8.35994 191.502 7.95858C193.113 9.65211 195.619 7.53765 197.05 8.95708C196.839 8.9375 196.464 9.13328 196.644 9.15286L198.254 9.05497C198.269 8.59488 198.14 8.7613 197.912 8.38931C198.189 8.14458 198.677 7.97816 199.068 8.01732C198.287 8.24247 198.855 8.73193 199.084 9.00602C199.068 8.86898 199.23 8.72214 199.246 8.58509C199.799 9.45633 199.654 7.69428 200.597 8.35015L200.466 8.5753C200.906 8.50678 201.377 8.24247 201.801 8.36973C201.816 8.90813 201.296 8.55572 201.133 8.97666C201.752 9.0256 202.662 8.15437 203.053 8.74172C202.744 8.8494 202.371 8.81024 202.06 8.91792C202.484 9.60316 202.597 9.45633 203.021 9.60316L202.988 9.58358L203.947 9.98494L203.736 9.78916C204.941 8.54593 205.379 9.74021 206.713 8.99623C205.428 9.70105 206.388 9.45633 206.111 10.0241C206.324 10.2199 206.664 10.4548 206.502 10.6017C207.152 10.1905 207.201 11.0715 208.113 10.4744C208.08 10.6702 208.633 10.5625 208.357 11.0128C209.041 10.9443 208.324 10.6702 208.455 10.445C209.658 9.93599 210.488 11.512 212.213 10.817C213.563 10.6114 214.002 10.0143 215.254 9.8381C215.531 10.1807 214.702 10.4744 214.702 10.4744C215.223 10.8268 215.694 10.8366 216.361 10.6995C216.182 10.8464 216.248 11.003 216.361 11.2282C216.85 11.238 216.93 10.5919 217.436 10.9443C217.256 11.1401 216.996 11.4533 216.686 11.6295C217.305 11.5316 217.971 11.2477 218.606 11.1498C218.639 11.4925 218.086 11.6002 217.793 11.7861C218.493 11.7176 219.549 11.698 219.957 11.2086L219.615 10.9736C219.86 10.9834 219.567 11.4337 219.355 11.5023C218.655 11.8351 218.639 11.2282 218.672 11.0324L219.127 10.9639C219.127 9.81852 217.436 10.9345 216.637 10.7681L217.272 10.0143L216.199 10.5723C216.102 10.3471 216.133 9.88705 216.588 9.81852C216.15 9.34864 215.971 10.0339 215.629 9.53464C215.596 9.45633 215.645 9.42696 215.694 9.39759L215.027 9.56401C215.206 9.40738 215.141 8.98645 215.45 9.15286C214.588 8.56551 213.58 9.53464 213.4 8.88855L213.433 8.81024C211.904 8.89834 213.092 9.37801 211.773 9.92621L211.562 8.38931L211.221 8.95708C211.074 8.91792 210.797 8.83961 210.943 8.60467C210.26 8.9375 210.943 8.86898 210.504 9.2116C209.984 8.58509 208.471 9.2116 208.617 8.26205C208.211 8.67319 209.187 8.69277 208.324 8.90813C208.438 7.88027 207.397 8.96687 206.893 8.42846C207.267 7.93901 207.787 8.29142 207.299 7.74322C206.617 8.56551 206.096 7.39081 205.494 7.48871C205.234 8.18373 204.209 7.62575 203.216 7.74322C203.346 7.51807 201.605 7.1363 200.824 6.78389L200.89 6.66642C200.499 7.36145 199.654 7.1363 198.97 7.2244C199.117 6.80346 199.295 6.64684 199.701 6.49021L199.084 6.43148C198.872 6.64684 198.644 6.74473 198.222 6.78389L198.531 6.27485C197.701 6.2259 196.708 6.73494 195.765 6.28464C195.57 6.7741 196.187 7.74322 195 7.95858C195.033 7.68449 195.13 7.2244 195.439 7.14608C195.341 7.17545 195.033 7.33208 194.886 7.20482L195.456 6.79367C195.033 6.54895 195.097 7.14608 194.74 7.06777C194.853 6.68599 194.544 6.76431 194.675 6.47063C194.789 6.44127 194.968 6.65663 195.146 6.52937C194.74 6.42169 194.284 6.14759 194.203 5.83434C194.187 6.05949 194.056 6.34337 193.732 6.36295C192.917 6.31401 193.585 5.87349 193.162 5.63855C192.884 5.88328 192.446 5.56024 192.283 6.12801C192.039 6.09865 192.072 5.83434 192.023 5.66792C191.535 5.87349 190.038 5.55045 190.347 6.20633L190.445 6.25527C190.429 6.26506 190.396 6.26506 190.363 6.27485C188.834 6.70557 187.597 5.67771 186.165 5.78539L186.214 5.58961C185.353 5.72666 184.376 5.54066 183.693 5.89307C183.449 5.87349 183.204 5.49172 183.368 5.26657C182.717 5.35467 182.587 5.56024 181.757 5.15889C182.456 4.88479 181.61 4.84563 182.456 4.97289C181.692 4.72816 181.577 4.40512 180.585 4.84563C180.993 4.38554 180.114 4.17018 179.708 4.27786L180.195 4.67922C179.739 4.70858 179.382 4.63027 179.007 4.55196L179.366 3.92545C177.868 2.98569 176.063 5.04142 175.071 3.63178C174.534 4.05271 175.917 4.01355 175.395 4.5128C174.647 4.37575 174.046 3.38705 173.801 3.36747C172.825 2.93675 172.614 4.23871 171.573 3.92545C171.67 4.17018 171.67 4.7869 170.807 4.95331C170.059 4.81627 170.059 3.91566 170.58 3.76883C170.776 3.75904 170.84 3.83735 170.825 3.91566C171.085 3.84714 171.442 3.76883 171.182 3.50452L171.036 3.72967C170.694 3.46536 169.637 3.41642 169.962 3.05422C169.344 3.23042 169.637 3.41642 170.043 3.56325C169.116 3.1619 168.498 3.44578 167.538 3.15211C167.668 3.28916 167.766 3.57304 167.619 3.56325C166.188 3.17169 166.887 3.95482 165.862 3.98419C165.358 3.59262 166.219 3.1619 165.147 3.38705C164.577 3.10316 165.13 2.76054 165.407 2.59413C164.398 2.9759 163.731 2.18298 163.21 2.06551L163.731 1.90889C163.422 1.99699 163.178 1.97741 162.934 1.95783L163.129 2.4375C162.852 2.33961 162.608 2.32003 162.657 2.12425C162.315 2.40813 162.754 2.90738 162.088 3.27937C161.746 3.01506 160.883 3.45557 160.852 2.82907C162.022 3.12274 160.819 2.20256 161.86 2.17319C161.649 2.23193 161.405 2.21235 161.145 2.11446C161.112 2.04593 161.209 1.9872 161.291 1.95783C160.233 1.33133 160.639 2.6137 159.452 2.51581C159.664 2.18298 159.289 1.84036 159.078 1.8991C159.549 1.93825 159.207 2.49623 158.736 2.73117C158.02 2.40813 157.873 2.87801 157.484 2.81928L157.922 2.9759C157.711 3.31852 157.338 3.23042 156.801 3.31852C156.801 3.04443 157.305 3.1619 157.142 3.02485C156.459 3.60241 155.906 2.33961 155.01 2.7116C154.67 2.45708 155.076 2.05572 154.75 1.88931C153.758 2.30045 153.807 1.37048 152.781 1.70331C152.994 2.18298 153.059 2.06551 152.31 2.49623L153.953 2.24172L152.83 2.87801C153.318 2.90738 153.888 2.63328 154.164 2.72139C153.627 3.08358 153.693 2.96611 153.855 3.35768C153.303 2.63328 152.488 3.71009 151.789 3.20105L151.969 2.04593C150.879 1.47816 149.853 2.54518 148.389 2.19277L148.845 2.41792C148.584 2.86822 147.918 2.4375 147.414 2.60392C147.511 2.22214 147.218 2.06551 147.039 1.82078C147.023 2.10467 145.949 1.74247 145.721 2.51581L145.119 1.97741C143.931 1.7131 143.623 3.01506 142.484 2.83886C142.874 2.4375 142.386 2.13404 143.183 1.86973C142.793 1.85015 142.451 1.76205 142.418 2.02636C142.223 1.77184 141.296 2.49624 140.97 2.11446C140.792 2.28087 140.695 2.68223 140.271 2.62349C140.238 2.54518 140.287 2.4375 140.287 2.4375C140.271 2.62349 139.587 2.66265 139.913 3.11295C138.839 1.86973 136.593 3.03464 135.65 1.99699C134.788 2.11446 133.763 2.21235 132.999 2.23193C133.064 2.11446 133.015 2.03614 133.161 2.08509C132.136 1.70331 132.429 3.18148 131.258 2.76054C130.688 2.12425 131.925 2.4375 131.551 2.19277C131.469 0.920181 130.086 2.33961 129.322 1.57605L129.517 1.50753C128.915 1.06702 127.972 1.95783 126.963 1.85015C126.963 1.85015 127.012 1.74247 126.979 1.65437C126.247 2.29066 124.929 2.47666 123.953 2.64307C124.278 2.15361 124.409 2.38855 124.246 1.87952C123.807 1.93825 124.343 2.69202 123.465 2.81928C123.188 2.54518 122.57 2.29066 122.521 1.75226L123.351 1.74247C122.961 1.03765 122.294 1.74247 121.854 1.61521L121.919 1.31175C120.65 1.39006 120.618 2.15361 119.268 2.0753L119.398 2.31024C118.633 3.05422 118.796 1.86973 118.047 2.41792L117.836 1.64458C117.348 1.81099 116.111 2.36898 115.233 2.5256C115.737 1.95783 116.762 1.64458 117.413 1.32154C116.925 1.29217 115.77 1.37048 115.509 1.75226C115.705 1.67395 115.949 1.48795 116.144 1.60542C115.542 2.21235 114.761 2.51581 113.801 2.50602C114.013 1.00828 111.328 2.14383 110.629 0.978916C108.92 1.5369 107.245 0.753765 105.244 0.851657C105.976 2.01657 104.658 0.890813 104.804 2.08509C104.349 2.1634 104.17 2.14383 104.121 2.06551L102.706 1.3509C102.364 1.00828 103.145 1.0866 103.096 0.8125C102.071 0.734187 102.657 0.313253 101.974 0C102.12 0.430723 101.632 0.616717 101.046 0.450301L101.876 0.998494C100.493 1.64458 100.623 0 99.2078 0.636295L99.6471 0.254518C98.915 0.46988 96.9302 0.283886 96.2632 1.2628C96.1329 1.12575 95.9378 0.802711 96.2632 0.714608C94.4897 0.616717 92.4236 1.83057 91.0245 1.27259L91.1384 0.978916C90.813 1.06702 90.6015 1.54669 90.1784 1.2628C90.1948 1.14533 90.2923 0.969127 90.146 0.949548C89.9833 1.05723 89.3162 1.48795 88.8606 1.32154L89.2024 0.978916C87.4615 0.636295 86.6318 1.85015 85.2327 2.08509C85.1677 1.22364 83.801 0.978916 83.1014 0.851657L83.1176 0.724398C81.1166 0.655874 79.7988 1.54669 77.993 1.96762C76.7565 1.0866 74.0884 1.75226 72.1848 1.31175C72.4778 1.45858 72.2174 1.9872 71.9083 2.08509C71.4528 1.94804 70.7857 2.75075 70.7533 1.95783L70.9158 1.96762C70.4929 1.21386 69.6306 1.45858 68.931 1.46837L68.9636 2.50602C66.9463 1.07681 64.3107 3.26958 63.123 2.00678C62.7325 2.29066 62.1956 2.32003 61.8052 2.60392L61.7401 2.05572C60.5037 1.9872 59.9018 1.95783 58.4212 2.19277L58.6654 1.78163C57.8193 1.8012 57.8843 3.43599 57.1198 3.5241L56.7456 2.7116C55.2813 2.81928 53.6545 2.19277 52.3529 3.02485C52.3529 2.90738 52.3529 2.66265 52.5806 2.6137C51.8811 2.63328 49.7987 2.23193 50.2704 3.34789C50.1078 2.6137 48.7412 3.39684 48.0254 3.7884V3.24021C47.5047 3.98419 47.521 4.17997 46.6425 4.44428C46.4147 4.39533 46.3496 4.02334 46.675 4.14081C45.8778 3.91566 46.2195 4.6988 45.2596 4.48343L45.5198 4.11145C44.7553 4.13102 44.8528 4.30723 44.5274 4.74774C44.1045 5.00226 43.0633 4.72816 42.8355 4.24849C42.8029 4.55196 42.4775 4.98268 42.0058 4.88479C41.9082 4.70858 42.0383 4.58133 42.1035 4.5128C40.7531 4.24849 40.3788 5.29593 39.3864 4.83584C39.3214 4.65964 39.2401 4.57154 39.1587 4.52259C40.1673 4.45407 40.9808 4.41491 40.9158 4.46386C40.8019 3.96461 39.9559 3.94503 40.444 3.20105C39.8745 3.63178 38.9635 4.53238 38.1174 4.36596C38.0686 4.31702 38.0199 4.27786 37.9711 4.19955L38.0361 4.14081C37.8409 4.10166 37.6945 4.17018 37.5643 4.26807C37.2877 4.20934 37.125 4.17018 36.881 4.17997C36.6857 3.77861 35.8886 4.05271 35.4819 4.07229C35.6609 4.61069 35.1077 4.58133 35.7097 4.98268C35.6283 4.95331 35.7747 4.91416 36.0351 4.86521C36.0839 4.84563 36.1652 4.82605 36.1978 4.79669L36.1814 4.84563C36.4418 4.80648 36.7834 4.75753 37.1738 4.70858C36.9299 5.01205 36.6533 5.28614 36.1326 5.02184C36.0025 5.37425 35.8724 5.75602 35.791 5.94202C35.0427 5.2372 33.8712 4.93373 33.5946 4.48343C32.4396 4.91416 30.7476 4.97289 30.2595 6.06928C29.9504 6.23569 29.7714 5.81476 29.5925 5.66792C29.7714 5.55045 30.0155 5.54066 30.0806 5.38404C29.4624 5.71687 28.0469 5.6875 28.0795 6.42169C27.1033 6.18675 28.3886 5.71687 27.201 5.95181L27.2985 5.71687C24.5816 4.83584 24.0122 7.96837 20.9211 6.80346C21.1326 6.87199 21.2303 6.90136 21.3115 7.01883C18.1065 6.70557 15.3733 8.35015 12.0707 7.72364C11.1922 7.61596 11.2735 8.08584 10.8993 8.4872L10.4926 7.93901L9.87439 8.72214C8.84945 9.37801 7.19 7.61596 5.98609 8.7613L6.34401 9.11371C5.75832 9.1235 4.66829 9.60316 4.58695 9.14307C4.55441 9.22139 4.57068 9.5738 4.26157 9.40738L4.11514 9.10392L2.96004 9.82831C1.82121 9.78916 2.61839 8.62425 1.02402 8.81024C0.487145 9.01581 -0.244962 9.95557 0.0804182 10.122C0.324454 10.0926 0.763718 10.2101 0.926409 10.5038L0.470876 10.7485C0.796256 11.6393 0.877602 12.5986 2.35809 13.0098C2.55331 12.7846 2.76482 12.5595 2.97631 12.3343L3.44811 12.7161L2.73228 12.863C3.33423 13.1958 3.43184 12.8042 3.62707 12.5105C3.78976 12.7259 3.985 12.863 4.19649 12.9217L4.68456 11.9428C4.9286 12.2756 4.58695 12.6867 5.25399 12.7846C5.48175 12.3343 4.53814 12.07 5.09129 11.7078C5.67697 12.0407 5.69324 12.3833 6.05116 11.9721C6.21385 12.1875 6.16505 12.3539 6.01863 12.4812C6.34401 12.1483 7.14119 12.1973 7.17373 11.698C7.82449 12.1288 8.62167 11.3554 8.91452 12.1973C8.97959 11.9721 9.43513 11.4239 9.82559 11.3358C9.46767 12.4518 11.3711 11.1792 11.5826 12.2854C11.7941 11.3065 13.421 11.6197 14.2183 10.9932C14.1857 11.0715 14.1369 11.2282 14.0392 11.1988C14.625 11.1988 14.8853 11.4533 15.292 11.5806C15.0967 10.817 15.894 10.5429 16.203 10.0143C17.1304 10.6506 16.1055 10.9541 16.561 11.6197C16.317 11.0128 17.5208 10.8562 17.1141 10.3863C17.7812 10.7681 17.6347 10.5429 18.1228 11.1303C17.895 10.1807 18.5458 10.9051 18.7898 10.2786C19.7009 10.6604 19.2779 11.1401 20.01 10.7583C20.4981 10.9834 19.8799 11.3946 19.8799 11.3946ZM39.1587 7.69428C39.1587 7.70407 39.1587 7.70407 39.1587 7.70407C38.996 7.73343 38.8496 7.75301 38.752 7.77259C38.8496 7.75301 38.9635 7.73343 39.1587 7.69428ZM40.8345 7.54744C40.6229 7.54744 40.3626 7.55723 40.1023 7.5866C40.0047 7.4006 40.021 7.20482 40.1837 7.20482C40.1349 7.33208 40.5579 7.41039 40.8345 7.54744ZM36.3279 4.09187C36.5719 3.98419 36.6857 4.08208 36.7509 4.18976C36.6207 4.20934 36.4906 4.24849 36.2953 4.29744C36.2953 4.31702 36.2791 4.34639 36.2791 4.36596C36.2953 4.26807 36.2953 4.17018 36.3279 4.09187Z" fill="#F6781D"/>
<path d="M36.0342 4.85552C36.0016 4.8653 35.9853 4.89467 35.9365 4.90446C36.0016 4.94362 36.0666 4.98277 36.1317 5.01214C36.148 4.95341 36.1643 4.89467 36.1805 4.83594C36.1317 4.83594 36.0829 4.84573 36.0342 4.85552Z" fill="#F6781D"/>
<path d="M190.343 6.20708L190.312 6.1875C190.327 6.20708 190.36 6.23645 190.36 6.2756C190.343 6.24623 190.343 6.22666 190.343 6.20708Z" fill="#F6781D"/>
<path d="M64.2158 6.92025L64.1994 6.7832L64.0693 6.91046L64.2158 6.92025Z" fill="#F6781D"/>
<path d="M199.053 8.9668C199.053 9.01574 199.069 9.06469 199.134 9.11364C199.152 9.08427 199.102 9.02553 199.053 8.9668Z" fill="#F6781D"/>
<path d="M202.97 9.55469L203.475 9.81899C203.263 9.68195 203.1 9.60363 202.97 9.55469Z" fill="#F6781D"/>
<path d="M205.919 10.2095C205.984 10.1214 206.017 10.0529 206.048 9.98438L205.919 10.2095Z" fill="#F6781D"/>
<path d="M157.104 6.5293C157.057 6.5293 157.024 6.5293 156.975 6.54888C156.698 6.62719 156.893 6.59782 157.104 6.5293Z" fill="#F6781D"/>
<path d="M171.914 6.25586C171.736 6.34396 171.573 6.43206 171.395 6.48101C171.639 6.53974 171.834 6.56911 171.914 6.25586Z" fill="#F6781D"/>
<path d="M170.714 6.42142C170.958 6.54868 171.169 6.53889 171.397 6.48016C171.186 6.43121 170.942 6.3529 170.714 6.42142Z" fill="#F6781D"/>
<path d="M218.969 12.1193L219.099 12.1584C219.115 12.1193 219.132 12.0997 219.148 12.0703L218.969 12.1193Z" fill="#F6781D"/>
<path d="M219.155 12.0798L219.334 12.0406C219.268 12.0308 219.204 12.021 219.155 12.0798Z" fill="#F6781D"/>
<path d="M219.73 11.9434L219.341 12.0315C219.454 12.051 219.601 12.0902 219.73 11.9434Z" fill="#F6781D"/>
<path d="M215.042 11.3652L214.928 11.5512C214.977 11.5219 215.009 11.4533 215.042 11.3652Z" fill="#F6781D"/>
<path d="M213.804 11.2681C214.081 11.3464 214.39 11.7772 214.829 11.7086L214.927 11.5618C214.634 11.8163 214.195 10.9745 213.804 11.2681Z" fill="#F6781D"/>
<path d="M209.547 8.20264L210.523 8.48652C210.409 8.25158 210.28 7.94812 210.767 7.95791C209.677 7.17477 210.864 8.45715 209.547 8.20264Z" fill="#F6781D"/>
<path d="M206.457 7.49906C207.043 7.46969 206.555 7.1956 206.621 7.07812C206.197 7.22497 206.099 7.26412 206.457 7.49906Z" fill="#F6781D"/>
<path d="M183.173 5.07149L183.351 4.58203C182.911 4.6114 183.302 4.76803 183.173 5.07149Z" fill="#F6781D"/>
<path d="M178.125 7.1955L178.467 7.54791L178.776 7.11719L178.125 7.1955Z" fill="#F6781D"/>
<path d="M176.293 3.47475L176.488 3.41602L175.724 3.54327L176.293 3.47475Z" fill="#F6781D"/>
<path d="M136.644 1.43969L136.724 2.05641C137.034 1.96831 137.148 1.27328 136.644 1.43969Z" fill="#F6781D"/>
<path d="M119.459 1.73219C119.28 1.41893 118.809 1.21336 118.5 1.50703C118.89 1.56577 119.264 1.8105 119.459 1.73219Z" fill="#F6781D"/>
<path d="M67.9863 1.76226L68.3117 1.53711L67.6772 1.74268L67.9863 1.76226Z" fill="#F6781D"/>
</g>
</g>
<defs>
<clipPath id="clip0_232_236">
<rect width="223" height="13" fill="white"/>
</clipPath>
</defs>
</svg>
