<svg width="40" height="40" viewBox="0 0 40 40" fill="none" xmlns="http://www.w3.org/2000/svg">
<g clip-path="url(#clip0_0_3273)">
<path d="M25.9282 29.0625H14.0719L13.8526 32.1318C13.8203 32.5841 14.1785 32.9688 14.6319 32.9688H25.3682C25.8215 32.9688 26.1797 32.5841 26.1475 32.1318L25.9282 29.0625Z" fill="#140B43"/>
<path d="M34.9365 23.5962L35.2711 28.2813H38.3593V27.1095C38.3593 25.2021 36.8322 23.6457 34.9365 23.5962Z" fill="#140B43"/>
<path d="M35.7076 34.393C35.7663 35.214 35.6856 36.0329 35.4782 36.8165C37.1146 36.5168 38.3592 35.0812 38.3592 33.3594V30.625H35.4385L35.7076 34.393Z" fill="#140B43"/>
<path d="M1.64062 27.1095V28.2813H4.72875L5.06336 23.5962C3.16773 23.6457 1.64062 25.2021 1.64062 27.1095Z" fill="#140B43"/>
<path d="M4.56133 30.625H1.64062V33.3594C1.64062 35.0812 2.88516 36.5168 4.52164 36.8165C4.31422 36.033 4.23352 35.214 4.29219 34.393L4.56133 30.625Z" fill="#140B43"/>
<path d="M32.4173 21.2231C32.1993 18.1716 29.6321 15.7812 26.5728 15.7812H13.4271C10.3678 15.7812 7.80058 18.1716 7.58254 21.2232L6.62996 34.5601C6.52988 35.9612 7.02152 37.3544 7.97871 38.3823C8.9359 39.4104 10.2906 40 11.6952 40H28.3047C29.7093 40 31.064 39.4104 32.0212 38.3823C32.9784 37.3544 33.47 35.9612 33.37 34.5601L32.4173 21.2231ZM27.7888 34.4415C27.2734 34.9951 26.544 35.3125 25.7876 35.3125H14.2123C13.4559 35.3125 12.7265 34.9951 12.2111 34.4415C11.6957 33.8879 11.4311 33.1377 11.4849 32.3833L12.0431 24.5708C12.1448 23.1467 13.3429 22.0312 14.7704 22.0312H25.2294C26.657 22.0312 27.855 23.1467 27.9568 24.5708L28.515 32.3833C28.5689 33.1377 28.3043 33.8879 27.7888 34.4415Z" fill="#140B43"/>
<path d="M25.6449 25.1005C25.6157 24.6917 25.2755 24.375 24.8656 24.375H15.1341C14.7243 24.375 14.384 24.6917 14.3548 25.1005L14.2393 26.7188H25.7606L25.6449 25.1005Z" fill="#140B43"/>
<path d="M27.4836 4.6875H24.2969V2.73438C24.2969 1.22664 23.0702 0 21.5625 0H18.4375C16.9298 0 15.7031 1.22664 15.7031 2.73438V4.6875H12.5164C9.10414 4.6875 6.32812 7.46352 6.32812 10.8758C6.32812 11.2459 6.36172 11.6183 6.42789 11.9828L7.21305 16.3012C8.72609 14.5459 10.9624 13.4375 13.4271 13.4375H26.5729C29.0376 13.4375 31.274 14.5459 32.787 16.3011L33.5722 11.9826C33.6384 11.6183 33.6719 11.2459 33.6719 10.8758C33.6719 7.46352 30.8959 4.6875 27.4836 4.6875ZM18.0469 2.73438C18.0469 2.51898 18.2221 2.34375 18.4375 2.34375H21.5625C21.7779 2.34375 21.9531 2.51898 21.9531 2.73438V4.6875H18.0469V2.73438ZM23.9062 10.5469H16.0938C15.4466 10.5469 14.9219 10.0222 14.9219 9.375C14.9219 8.72781 15.4466 8.20312 16.0938 8.20312H23.9062C24.5534 8.20312 25.0781 8.72781 25.0781 9.375C25.0781 10.0222 24.5534 10.5469 23.9062 10.5469Z" fill="#140B43"/>
<path d="M33.203 2.86353C33.4821 1.82158 32.8638 0.750642 31.8219 0.471423L30.3127 0.0670483C29.2707 -0.21217 28.1998 0.406189 27.9205 1.44806L27.6797 2.34697C29.6285 2.39127 31.4177 3.09244 32.8349 4.23689L33.203 2.86353Z" fill="#140B43"/>
<path d="M7.16451 4.23697C8.5817 3.09244 10.3709 2.39127 12.3197 2.34705L12.0789 1.44814C11.7997 0.406189 10.7287 -0.212171 9.68677 0.067048L8.17756 0.471423C7.13568 0.750642 6.51732 1.82158 6.79654 2.86353L7.16451 4.23697Z" fill="#140B43"/>
</g>
<defs>
<clipPath id="clip0_0_3273">
<rect width="40" height="40" fill="white"/>
</clipPath>
</defs>
</svg>
