<svg width="40" height="40" viewBox="0 0 40 40" fill="none" xmlns="http://www.w3.org/2000/svg">
<path d="M34.8438 4.84375H26.6406V3.51562C26.6406 1.57711 25.0635 0 23.125 0H16.875C14.9365 0 13.3594 1.57711 13.3594 3.51562V4.84375H5.15625C3.21773 4.84375 1.64062 6.42086 1.64062 8.35938V11.875H10.9312C13.2107 9.4707 16.4331 7.96875 20 7.96875C23.5669 7.96875 26.7892 9.4707 29.0688 11.875H38.3594V8.35938C38.3594 6.42086 36.7823 4.84375 34.8438 4.84375ZM15.7031 4.84375V3.51562C15.7031 2.86945 16.2288 2.34375 16.875 2.34375H23.125C23.7712 2.34375 24.2969 2.86945 24.2969 3.51562V4.84375H15.7031Z" fill="#140B43"/>
<path d="M32.5001 20.4688C32.5001 23.815 31.1916 26.9582 28.8156 29.3195C28.4174 29.7153 28.0989 30.1566 27.8672 30.625H34.8438C36.7823 30.625 38.3595 29.0479 38.3595 27.1094V14.2188H30.8221C31.8887 16.0584 32.5001 18.1935 32.5001 20.4688Z" fill="#140B43"/>
<path d="M7.5 20.4688C7.5 18.1935 8.11141 16.0584 9.17797 14.2188H1.64062V27.1094C1.64062 29.0479 3.21773 30.625 5.15625 30.625H12.1329C11.9012 30.1565 11.5826 29.7152 11.1844 29.3195C8.80852 26.9582 7.5 23.815 7.5 20.4688Z" fill="#140B43"/>
<path d="M14.9219 36.4844C14.9219 38.4229 16.499 40 18.4375 40H21.5625C23.501 40 25.0781 38.4229 25.0781 36.4844V34.5312H14.9219V36.4844Z" fill="#140B43"/>
<path d="M20.7457 22.3211C20.7368 22.3179 20.7286 22.3149 20.7197 22.3118V25.5254C21.3546 25.2447 21.7299 24.646 21.8249 24.0804C21.8762 23.7754 21.95 22.7468 20.7457 22.3211Z" fill="#140B43"/>
<path d="M18.4613 18.6611C18.3823 19.0801 18.4887 19.4742 18.7322 19.6652C18.8559 19.7622 18.9997 19.8562 19.157 19.9473V17.6794C18.7446 17.8918 18.5276 18.3087 18.4613 18.6611Z" fill="#140B43"/>
<path d="M20 10.3125C14.3998 10.3125 9.84375 14.8686 9.84375 20.4688C9.84375 23.1862 10.9066 25.739 12.8366 27.657C14.1061 28.9187 14.8363 30.5175 14.9141 32.1875H25.0859C25.1637 30.5175 25.894 28.9187 27.1634 27.657C29.0934 25.739 30.1562 23.1862 30.1562 20.4688C30.1562 14.8686 25.6002 10.3125 20 10.3125ZM23.3657 24.3396C23.1583 25.5735 22.2048 26.8246 20.7196 27.1623V27.8906C20.7196 28.3221 20.3698 28.6719 19.9384 28.6719C19.507 28.6719 19.1571 28.3221 19.1571 27.8906V27.2327C18.4069 27.1805 17.8063 26.9984 16.941 26.4323C16.5799 26.196 16.4788 25.7119 16.7149 25.3508C16.951 24.9897 17.4353 24.8885 17.7964 25.1247C18.3416 25.4813 18.6727 25.6178 19.1571 25.6659V21.6976C18.5627 21.4295 18.124 21.1737 17.7681 20.8946C17.0602 20.3393 16.7374 19.3726 16.926 18.3717C17.1323 17.2773 17.8929 16.4069 18.9112 16.1001C18.9945 16.075 19.0762 16.0535 19.1571 16.0336V15.3906C19.1571 14.9591 19.507 14.6094 19.9384 14.6094C20.3698 14.6094 20.7196 14.9591 20.7196 15.3906V15.943C21.6051 16.072 22.2277 16.4998 22.5233 16.8391C22.8068 17.1645 22.7728 17.6579 22.4475 17.9414C22.1234 18.2239 21.632 18.1912 21.3481 17.8688C21.3334 17.8538 21.1261 17.6491 20.7196 17.5382V20.6495C20.903 20.7183 21.0866 20.7845 21.2663 20.8481C22.8066 21.3925 23.6308 22.763 23.3657 24.3396Z" fill="#140B43"/>
</svg>
