<svg width="40" height="40" viewBox="0 0 40 40" fill="none" xmlns="http://www.w3.org/2000/svg">
<path d="M0 32.8906V34.0625C0 36.001 1.57711 37.5781 3.51562 37.5781H36.4844C38.4229 37.5781 40 36.001 40 34.0625V32.8906H0Z" fill="#140B43"/>
<path d="M38.175 26.6406H1.82422L0.359375 30.5469H39.6398L38.175 26.6406Z" fill="#140B43"/>
<path d="M37.6562 5.9375C37.6562 3.99898 36.0791 2.42188 34.1406 2.42188H5.85938C3.92086 2.42188 2.34375 3.99898 2.34375 5.9375V24.2969H37.6562V5.9375ZM14.436 15.7479C14.178 17.1932 12.7976 18.2422 11.1538 18.2422C9.8375 18.2422 8.55156 17.6903 7.71383 16.7659C7.35164 16.3663 7.38203 15.7487 7.78172 15.3866C8.18141 15.0244 8.79898 15.0548 9.16109 15.4545C9.63469 15.977 10.3796 16.2891 11.1538 16.2891C11.9059 16.2891 12.4355 15.8395 12.5132 15.4047C12.6164 14.8269 11.8339 14.4718 11.4927 14.3459C10.2837 13.9 9.21016 13.4221 9.16508 13.402C9.11805 13.381 9.07273 13.3564 9.02961 13.3283C8.20695 12.792 7.78312 11.8514 7.92344 10.8737C8.07305 9.83164 8.83492 8.98273 9.91188 8.65836C11.9041 8.0582 13.7254 9.1057 14.103 9.81195C14.3572 10.2876 14.1777 10.8793 13.702 11.1336C13.2721 11.3634 12.7475 11.2388 12.4628 10.8616C12.2662 10.6951 11.4635 10.2309 10.4753 10.5285C9.97625 10.6788 9.87656 11.0141 9.85687 11.1512C9.84273 11.2498 9.83563 11.4864 10.0466 11.6562C10.3205 11.7762 11.2116 12.1606 12.1686 12.5137C14.1366 13.2393 14.6302 14.6602 14.436 15.7479ZM20.2313 12.3828C20.7706 12.3828 21.2079 12.82 21.2079 13.3594C21.2079 13.8988 20.7706 14.3359 20.2313 14.3359H18.1588V16.2891H20.4741C21.0134 16.2891 21.4506 16.7263 21.4506 17.2656C21.4506 17.8049 21.0134 18.2422 20.4741 18.2422H17.1822C16.6429 18.2422 16.2056 17.8049 16.2056 17.2656V9.45312C16.2056 8.91383 16.6429 8.47656 17.1822 8.47656H20.4741C21.0134 8.47656 21.4506 8.91383 21.4506 9.45312C21.4506 9.99242 21.0134 10.4297 20.4741 10.4297H18.1588V12.3828H20.2313ZM27.6562 18.2422C24.9638 18.2422 22.7734 16.0517 22.7734 13.3594C22.7734 10.667 24.9638 8.47656 27.6562 8.47656C30.3487 8.47656 32.5391 10.667 32.5391 13.3594C32.5391 16.0517 30.3487 18.2422 27.6562 18.2422Z" fill="#140B43"/>
<path d="M27.6562 16.2891C29.2743 16.2891 30.5859 14.9774 30.5859 13.3594C30.5859 11.7414 29.2743 10.4297 27.6562 10.4297C26.0382 10.4297 24.7266 11.7414 24.7266 13.3594C24.7266 14.9774 26.0382 16.2891 27.6562 16.2891Z" fill="#140B43"/>
</svg>
