<svg width="40" height="40" viewBox="0 0 40 40" fill="none" xmlns="http://www.w3.org/2000/svg">
<path d="M9.0625 20.7031V24.2188H19.2188V20.7031C19.2188 17.903 16.9407 15.625 14.1406 15.625C11.3405 15.625 9.0625 17.903 9.0625 20.7031Z" fill="#140B43"/>
<path d="M14.1406 13.2812C15.435 13.2812 16.4844 12.2319 16.4844 10.9375C16.4844 9.64308 15.435 8.59375 14.1406 8.59375C12.8462 8.59375 11.7969 9.64308 11.7969 10.9375C11.7969 12.2319 12.8462 13.2812 14.1406 13.2812Z" fill="#140B43"/>
<path d="M36.4844 0H30.625V24.2188H36.4844C38.426 24.2188 40 22.6448 40 20.7031V3.51562C40 1.57398 38.426 0 36.4844 0ZM36.4844 14.4531C36.4844 15.1003 35.9597 15.625 35.3125 15.625C34.6653 15.625 34.1406 15.1003 34.1406 14.4531V9.76562C34.1406 9.11844 34.6653 8.59375 35.3125 8.59375C35.9597 8.59375 36.4844 9.11844 36.4844 9.76562V14.4531Z" fill="#140B43"/>
<path d="M0 3.51562V20.7031C0 22.6448 1.57398 24.2188 3.51562 24.2188H6.71875V20.7031C6.71875 17.8486 8.33883 15.3658 10.7076 14.1246C9.92992 13.2876 9.45312 12.1674 9.45312 10.9375C9.45312 8.35281 11.5559 6.25 14.1406 6.25C16.7253 6.25 18.8281 8.35281 18.8281 10.9375C18.8281 12.1674 18.3513 13.2876 17.5737 14.1246C19.9424 15.3658 21.5625 17.8486 21.5625 20.7031V24.2188H28.2812V0H3.51562C1.57398 0 0 1.57398 0 3.51562ZM22.3438 3.51562H24.6875C25.3347 3.51562 25.8594 4.04031 25.8594 4.6875C25.8594 5.33469 25.3347 5.85938 24.6875 5.85938H22.3438C21.6966 5.85938 21.1719 5.33469 21.1719 4.6875C21.1719 4.04031 21.6966 3.51562 22.3438 3.51562ZM4.76562 3.51562C5.41281 3.51562 5.9375 4.04031 5.9375 4.6875C5.9375 5.33469 5.41281 5.85938 4.76562 5.85938C4.11844 5.85938 3.59375 5.33469 3.59375 4.6875C3.59375 4.04031 4.11844 3.51562 4.76562 3.51562Z" fill="#140B43"/>
<path d="M15.3121 28.9062H24.6871C26.2148 28.9062 27.5174 27.9265 28.0012 26.5625H11.998C12.4818 27.9265 13.7844 28.9062 15.3121 28.9062Z" fill="#140B43"/>
<path d="M16.4844 38.8281C16.4844 39.4753 17.0091 40 17.6562 40H22.3438C22.9909 40 23.5156 39.4753 23.5156 38.8281V31.25H16.4844V38.8281Z" fill="#140B43"/>
</svg>
