<svg width="40" height="40" viewBox="0 0 40 40" fill="none" xmlns="http://www.w3.org/2000/svg">
<g clip-path="url(#clip0_0_3242)">
<path d="M38.8284 33.75H16.1722C15.525 33.75 15.0003 34.2747 15.0003 34.9219V36.875C15.0003 38.0363 14.6353 39.1134 14.0156 40H36.8753C38.6012 40 40.0003 38.6009 40.0003 36.875V34.9219C40.0003 34.2747 39.4756 33.75 38.8284 33.75Z" fill="#140B43"/>
<path d="M10.9375 25.3918C15.2522 25.3918 18.75 21.8941 18.75 17.5793C18.75 13.2646 15.2522 9.76685 10.9375 9.76685C6.62278 9.76685 3.125 13.2646 3.125 17.5793C3.125 21.8941 6.62278 25.3918 10.9375 25.3918Z" fill="#140B43"/>
<path d="M35.3125 31.4062V1.17188C35.3125 0.524687 34.7878 0 34.1406 0H7.57812C6.93094 0 6.40625 0.524687 6.40625 1.17188V8.49016C9.35211 7.02484 12.953 7.01586 16.0159 8.78414C16.3325 8.96695 16.6352 9.16453 16.9243 9.37492H29.4531C30.1003 9.37492 30.625 9.89961 30.625 10.5468C30.625 11.194 30.1003 11.7187 29.4531 11.7187H19.2343C19.748 12.447 20.1605 13.2358 20.4652 14.0624H29.4531C30.1003 14.0624 30.625 14.5871 30.625 15.2343C30.625 15.8815 30.1003 16.4062 29.4531 16.4062H21.0262C21.1168 17.1799 21.1185 17.9664 21.028 18.7499H29.4531C30.1003 18.7499 30.625 19.2746 30.625 19.9218C30.625 20.569 30.1003 21.0937 29.4531 21.0937H20.4673C20.2703 21.626 20.0265 22.1491 19.7331 22.6573C19.5771 22.9274 19.41 23.1872 19.2338 23.4374H29.4531C30.1003 23.4374 30.625 23.9621 30.625 24.6093C30.625 25.2565 30.1003 25.7812 29.4531 25.7812H16.9304C15.0662 27.1416 12.787 27.8259 10.4919 27.7269L6.40625 34.8034V36.875C6.40625 38.6009 7.80539 40 9.53125 40C11.2571 40 12.6562 38.6009 12.6562 36.875V34.9219C12.6562 32.9802 14.2302 31.4062 16.1719 31.4062H35.3125ZM24.7656 7.03125H16.9531C16.3059 7.03125 15.7812 6.50656 15.7812 5.85938C15.7812 5.21219 16.3059 4.6875 16.9531 4.6875H24.7656C25.4128 4.6875 25.9375 5.21219 25.9375 5.85938C25.9375 6.50656 25.4128 7.03125 24.7656 7.03125Z" fill="#140B43"/>
<path d="M5.8597 26.375C5.16126 25.9718 4.52931 25.4972 3.96673 24.9663L0.314384 31.2923C-0.332804 32.4133 0.051259 33.8468 1.17227 34.494C2.29329 35.1412 3.72673 34.7571 4.37392 33.6361L8.02501 27.3122C7.27821 27.0872 6.55204 26.7747 5.8597 26.375Z" fill="#140B43"/>
</g>
<defs>
<clipPath id="clip0_0_3242">
<rect width="40" height="40" fill="white"/>
</clipPath>
</defs>
</svg>
