<svg width="84" height="60" viewBox="0 0 84 60" fill="none" xmlns="http://www.w3.org/2000/svg">
<g opacity="0.1">
<mask id="path-1-inside-1_0_5451" fill="white">
<path d="M17.9755 -5.48363e-05C27.8995 -5.48363e-05 35.9511 8.05149 35.9511 17.9755V35.951C35.9511 49.2454 25.0909 59.9184 11.9837 59.9184C8.61328 59.9184 5.99185 57.297 5.99185 53.9266C5.99185 50.7434 8.61328 47.9347 11.9837 47.9347C18.5373 47.9347 23.9674 42.6919 23.9674 35.951V35.0148C21.9077 35.5765 20.0352 35.951 17.9755 35.951C7.8643 35.951 0 28.0867 0 17.9755C0 8.05149 7.8643 -5.48363e-05 17.9755 -5.48363e-05ZM83.8859 17.9755V35.951C83.8859 49.2454 73.0257 59.9184 59.9185 59.9184C56.5481 59.9184 53.9266 57.297 53.9266 53.9266C53.9266 50.7434 56.5481 47.9347 59.9185 47.9347C66.4721 47.9347 71.9022 42.6919 71.9022 35.951V35.0148C69.8425 35.5765 67.97 35.951 65.9103 35.951C55.7991 35.951 47.9348 28.0867 47.9348 17.9755C47.9348 8.05149 55.7991 -5.48363e-05 65.9103 -5.48363e-05C75.8343 -5.48363e-05 83.8859 8.05149 83.8859 17.9755Z"/>
</mask>
<path d="M23.9674 35.0148H25.5652V32.9229L23.547 33.4733L23.9674 35.0148ZM71.9022 35.0148H73.5V32.9229L71.4818 33.4733L71.9022 35.0148ZM17.9755 -5.34058e-05V1.59777C27.0171 1.59777 34.3533 8.93395 34.3533 17.9755H35.9511H37.5489C37.5489 7.16904 28.782 -1.59788 17.9755 -1.59788V-5.34058e-05ZM35.9511 17.9755H34.3533V35.951H35.9511H37.5489V17.9755H35.9511ZM35.9511 35.951H34.3533C34.3533 48.3549 24.2165 58.3206 11.9837 58.3206V59.9184V61.5163C25.9652 61.5163 37.5489 50.136 37.5489 35.951H35.9511ZM11.9837 59.9184V58.3206C9.49574 58.3206 7.58967 56.4145 7.58967 53.9266H5.99185H4.39402C4.39402 58.1795 7.73083 61.5163 11.9837 61.5163V59.9184ZM5.99185 53.9266H7.58967C7.58967 51.5933 9.52796 49.5326 11.9837 49.5326V47.9347V46.3369C7.69861 46.3369 4.39402 49.8935 4.39402 53.9266H5.99185ZM11.9837 47.9347V49.5326C19.4034 49.5326 25.5652 43.5906 25.5652 35.951H23.9674H22.3696C22.3696 41.7932 17.6712 46.3369 11.9837 46.3369V47.9347ZM23.9674 35.951H25.5652V35.0148H23.9674H22.3696V35.951H23.9674ZM23.9674 35.0148L23.547 33.4733C21.55 34.0179 19.8326 34.3532 17.9755 34.3532V35.951V37.5489C20.2379 37.5489 22.2654 37.1352 24.3878 36.5563L23.9674 35.0148ZM17.9755 35.951V34.3532C8.74676 34.3532 1.59783 27.2043 1.59783 17.9755H0H-1.59783C-1.59783 28.9692 6.98185 37.5489 17.9755 37.5489V35.951ZM0 17.9755H1.59783C1.59783 8.92305 8.75761 1.59777 17.9755 1.59777V-5.34058e-05V-1.59788C6.97099 -1.59788 -1.59783 7.17993 -1.59783 17.9755H0ZM83.8859 17.9755H82.2881V35.951H83.8859H85.4837V17.9755H83.8859ZM83.8859 35.951H82.2881C82.2881 48.3549 72.1513 58.3206 59.9185 58.3206V59.9184V61.5163C73.9 61.5163 85.4837 50.136 85.4837 35.951H83.8859ZM59.9185 59.9184V58.3206C57.4305 58.3206 55.5245 56.4145 55.5245 53.9266H53.9266H52.3288C52.3288 58.1795 55.6656 61.5163 59.9185 61.5163V59.9184ZM53.9266 53.9266H55.5245C55.5245 51.5933 57.4627 49.5326 59.9185 49.5326V47.9347V46.3369C55.6334 46.3369 52.3288 49.8935 52.3288 53.9266H53.9266ZM59.9185 47.9347V49.5326C67.3382 49.5326 73.5 43.5906 73.5 35.951H71.9022H70.3044C70.3044 41.7932 65.6059 46.3369 59.9185 46.3369V47.9347ZM71.9022 35.951H73.5V35.0148H71.9022H70.3044V35.951H71.9022ZM71.9022 35.0148L71.4818 33.4733C69.4847 34.0179 67.7674 34.3532 65.9103 34.3532V35.951V37.5489C68.1726 37.5489 70.2002 37.1352 72.3226 36.5563L71.9022 35.0148ZM65.9103 35.951V34.3532C56.6815 34.3532 49.5326 27.2043 49.5326 17.9755H47.9348H46.337C46.337 28.9692 54.9166 37.5489 65.9103 37.5489V35.951ZM47.9348 17.9755H49.5326C49.5326 8.92305 56.6924 1.59777 65.9103 1.59777V-5.34058e-05V-1.59788C54.9058 -1.59788 46.337 7.17993 46.337 17.9755H47.9348ZM65.9103 -5.34058e-05V1.59777C74.9519 1.59777 82.2881 8.93395 82.2881 17.9755H83.8859H85.4837C85.4837 7.16904 76.7168 -1.59788 65.9103 -1.59788V-5.34058e-05Z" fill="#140B43" mask="url(#path-1-inside-1_0_5451)"/>
</g>
</svg>
