<svg width="65" height="58" viewBox="0 0 65 58" fill="none" xmlns="http://www.w3.org/2000/svg">
<path d="M0 49.5117V51.416C0 54.5661 2.5628 57.1289 5.71289 57.1289H59.2871C62.4372 57.1289 65 54.5661 65 51.416V49.5117H0Z" fill="#F9E58F"/>
<path d="M62.0353 39.3555H2.96533L0.584961 45.7031H64.4157L62.0353 39.3555Z" fill="#F9E58F"/>
<path d="M15.3613 34.9121V35.5469H26.7871V34.9121C26.7871 31.762 24.2243 29.1992 21.0742 29.1992C17.9241 29.1992 15.3613 31.762 15.3613 34.9121Z" fill="#F9E58F"/>
<path d="M49.6384 11.4258H36.9431V15.8691C36.9431 16.1648 36.8743 16.4563 36.742 16.7207L35.5811 19.043H49.6384V11.4258Z" fill="#F9E58F"/>
<path d="M21.0742 25.3906C22.4765 25.3906 23.6133 24.2538 23.6133 22.8516C23.6133 21.4493 22.4765 20.3125 21.0742 20.3125C19.6719 20.3125 18.5352 21.4493 18.5352 22.8516C18.5352 24.2538 19.6719 25.3906 21.0742 25.3906Z" fill="#F9E58F"/>
<path d="M11.5527 34.9121C11.5527 31.482 13.3765 28.4704 16.1049 26.7941C15.2433 25.7103 14.7266 24.3405 14.7266 22.8516C14.7266 19.3515 17.5741 16.5039 21.0742 16.5039C24.5743 16.5039 27.4219 19.3515 27.4219 22.8516C27.4219 24.3405 26.9052 25.7103 26.0435 26.7941C28.7719 28.4704 30.5957 31.482 30.5957 34.9121V35.5469H61.1914V5.71289C61.1914 2.5628 58.6286 0 55.4785 0H9.52148C6.3714 0 3.80859 2.5628 3.80859 5.71289V35.5469H11.5527V34.9121ZM30.7968 20.0957L33.1348 15.4196V9.52148C33.1348 8.4698 33.9874 7.61719 35.0391 7.61719H51.543C52.5947 7.61719 53.4473 8.4698 53.4473 9.52148V20.9473C53.4473 21.9989 52.5947 22.8516 51.543 22.8516H32.5C31.0843 22.8516 30.1637 21.3618 30.7968 20.0957Z" fill="#F9E58F"/>
</svg>
