<svg width="65" height="65" viewBox="0 0 65 65" fill="none" xmlns="http://www.w3.org/2000/svg">
<path d="M0 53.4473V55.3516C0 58.5017 2.5628 61.0645 5.71289 61.0645H59.2871C62.4372 61.0645 65 58.5017 65 55.3516V53.4473H0Z" fill="#95D5EE"/>
<path d="M62.0353 43.291H2.96533L0.584961 49.6387H64.4157L62.0353 43.291Z" fill="#95D5EE"/>
<path d="M61.1914 9.64844C61.1914 6.49835 58.6286 3.93555 55.4785 3.93555H9.52148C6.3714 3.93555 3.80859 6.49835 3.80859 9.64844V11.5527H61.1914V9.64844Z" fill="#95D5EE"/>
<path d="M61.1914 15.3613H3.80859V39.4824H61.1914V15.3613ZM29.1992 33.7695C29.1992 34.8212 28.3466 35.6738 27.2949 35.6738H13.3301C12.2784 35.6738 11.4258 34.8212 11.4258 33.7695V21.0742C11.4258 20.0225 12.2784 19.1699 13.3301 19.1699H27.2949C28.3466 19.1699 29.1992 20.0225 29.1992 21.0742V33.7695ZM51.6699 30.5957H35.166C34.1143 30.5957 33.2617 29.7431 33.2617 28.6914C33.2617 27.6397 34.1143 26.7871 35.166 26.7871H51.6699C52.7216 26.7871 53.5742 27.6397 53.5742 28.6914C53.5742 29.7431 52.7216 30.5957 51.6699 30.5957ZM51.6699 22.9785H35.166C34.1143 22.9785 33.2617 22.1259 33.2617 21.0742C33.2617 20.0225 34.1143 19.1699 35.166 19.1699H51.6699C52.7216 19.1699 53.5742 20.0225 53.5742 21.0742C53.5742 22.1259 52.7216 22.9785 51.6699 22.9785Z" fill="#95D5EE"/>
<path d="M15.2344 22.9785H25.3906V31.8652H15.2344V22.9785Z" fill="#95D5EE"/>
</svg>
