<svg width="34" height="34" viewBox="0 0 34 34" fill="none" xmlns="http://www.w3.org/2000/svg">
<path d="M30.7692 17.8923C30.9459 25.7783 23.9731 32.7345 16.0827 32.5716C8.39624 32.6123 1.78366 26.3484 1.39625 18.6796C0.784536 10.5018 7.87289 3.03656 16.0759 3.21303C16.2662 3.21303 16.4158 3.36913 16.4158 3.55239V17.553H30.4361C30.6197 17.553 30.7692 17.7023 30.7692 17.8923Z" fill="white"/>
<path d="M32.6259 16.0435C32.6259 16.2268 32.4763 16.3761 32.286 16.3761H17.9258C17.7423 16.3761 17.5928 16.2268 17.5928 16.0435V1.70362C17.5928 1.51358 17.7423 1.36426 17.9258 1.36426C26.0337 1.36426 32.6259 7.94713 32.6259 16.0435Z" fill="white"/>
</svg>
