<svg width="65" height="65" viewBox="0 0 65 65" fill="none" xmlns="http://www.w3.org/2000/svg">
<g clip-path="url(#clip0_0_5390)">
<path d="M63.0952 54.8438H26.2788C25.2271 54.8438 24.3745 55.6964 24.3745 56.748V59.9219C24.3745 61.809 23.7814 63.5593 22.7744 65H59.9214C62.7259 65 64.9995 62.7264 64.9995 59.9219V56.748C64.9995 55.6964 64.1469 54.8438 63.0952 54.8438Z" fill="#95D5EE"/>
<path d="M17.7744 41.262C24.7858 41.262 30.4697 35.5781 30.4697 28.5667C30.4697 21.5552 24.7858 15.8713 17.7744 15.8713C10.763 15.8713 5.0791 21.5552 5.0791 28.5667C5.0791 35.5781 10.763 41.262 17.7744 41.262Z" fill="#95D5EE"/>
<path d="M57.3828 51.0352V1.9043C57.3828 0.852617 56.5302 0 55.4785 0H12.3145C11.2628 0 10.4102 0.852617 10.4102 1.9043V13.7965C15.1972 11.4154 21.0486 11.4008 26.0258 14.2742C26.5403 14.5713 27.0321 14.8924 27.502 15.2342H47.8613C48.913 15.2342 49.7656 16.0869 49.7656 17.1385C49.7656 18.1902 48.913 19.0428 47.8613 19.0428H31.2557C32.0906 20.2263 32.7609 21.5081 33.256 22.8514H47.8613C48.913 22.8514 49.7656 23.7041 49.7656 24.7557C49.7656 25.8074 48.913 26.66 47.8613 26.66H34.1675C34.3148 27.9174 34.3176 29.1954 34.1704 30.4686H47.8613C48.913 30.4686 49.7656 31.3212 49.7656 32.3729C49.7656 33.4246 48.913 34.2772 47.8613 34.2772H33.2594C32.9393 35.1423 32.543 35.9924 32.0663 36.8181C31.8128 37.2571 31.5413 37.6792 31.2548 38.0858H47.8613C48.913 38.0858 49.7656 38.9384 49.7656 39.9901C49.7656 41.0418 48.913 41.8944 47.8613 41.8944H27.5119C24.4827 44.105 20.7789 45.217 17.0493 45.0562L10.4102 56.5556V59.9219C10.4102 62.7264 12.6838 65 15.4883 65C18.2928 65 20.5664 62.7264 20.5664 59.9219V56.748C20.5664 53.5929 23.1241 51.0352 26.2793 51.0352H57.3828ZM40.2441 11.4258H27.5488C26.4971 11.4258 25.6445 10.5732 25.6445 9.52148C25.6445 8.4698 26.4971 7.61719 27.5488 7.61719H40.2441C41.2958 7.61719 42.1484 8.4698 42.1484 9.52148C42.1484 10.5732 41.2958 11.4258 40.2441 11.4258Z" fill="#95D5EE"/>
<path d="M9.52201 42.8594C8.38705 42.2042 7.36012 41.433 6.44593 40.5703L0.510874 50.8501C-0.540806 52.6717 0.0832958 55.0011 1.90495 56.0528C3.7266 57.1044 6.05593 56.4803 7.10761 54.6587L13.0406 44.3823C11.8271 44.0167 10.6471 43.509 9.52201 42.8594Z" fill="#95D5EE"/>
</g>
<defs>
<clipPath id="clip0_0_5390">
<rect width="65" height="65" fill="white"/>
</clipPath>
</defs>
</svg>
