<svg width="65" height="65" viewBox="0 0 65 65" fill="none" xmlns="http://www.w3.org/2000/svg">
<g opacity="0.2">
<path d="M47.1187 50.1596H10.3674C4.74758 50.1596 0 45.2525 0 39.4444C0 34.8928 2.91513 30.9495 7.18484 29.5819C7.84776 19.6278 15.9919 11.9446 26.0663 11.9446C29.4199 11.9446 32.7142 12.8335 35.5944 14.5155C35.8439 14.6613 36.0254 14.9003 36.0989 15.1799C36.1723 15.4595 36.1317 15.7568 35.986 16.0065C35.914 16.1302 35.8183 16.2385 35.7044 16.3252C35.5905 16.4118 35.4607 16.4752 35.3223 16.5116C35.1839 16.548 35.0396 16.5567 34.8979 16.5372C34.7561 16.5178 34.6195 16.4706 34.496 16.3983C31.9489 14.9109 29.0344 14.1249 26.0663 14.1249C16.9112 14.1249 9.55872 21.2961 9.3272 30.4491C9.32113 30.6902 9.2353 30.9225 9.08315 31.1095C8.93101 31.2966 8.72115 31.4279 8.48642 31.4829C4.77425 32.3557 2.17972 35.6297 2.17972 39.4444C2.17972 44.071 5.93005 47.9793 10.3676 47.9793H47.1188C52.9103 47.9793 57.8037 42.9274 57.8037 36.9466C57.8037 33.3288 55.995 29.9844 52.9646 27.9999C52.723 27.8412 52.5542 27.5932 52.4951 27.3102C52.4361 27.0272 52.4916 26.7323 52.6496 26.4902C52.8083 26.2487 53.0563 26.0799 53.3391 26.0208C53.622 25.9618 53.9168 26.0172 54.1589 26.1751C57.8056 28.5645 59.9834 32.5908 59.9834 36.9472C59.9834 44.1089 54.0915 50.1596 47.1187 50.1596Z" fill="#140B43"/>
<path d="M14.8619 31.6253H8.32212C8.17899 31.6254 8.03724 31.5974 7.90498 31.5426C7.77271 31.4879 7.65253 31.4077 7.55132 31.3064C7.4501 31.2052 7.36984 31.085 7.31512 30.9527C7.2604 30.8204 7.2323 30.6786 7.23242 30.5355C7.2323 30.3923 7.26039 30.2505 7.31509 30.1182C7.36979 29.9859 7.45003 29.8656 7.55122 29.7643C7.65241 29.6631 7.77257 29.5827 7.90482 29.5279C8.03707 29.4731 8.17882 29.445 8.32196 29.445H14.8619C15.0051 29.4449 15.1469 29.4731 15.2792 29.5279C15.4115 29.5827 15.5317 29.663 15.6329 29.7643C15.7342 29.8655 15.8145 29.9858 15.8693 30.1181C15.924 30.2504 15.9522 30.3923 15.9521 30.5355C15.9521 30.6786 15.9239 30.8204 15.8691 30.9527C15.8143 31.0849 15.734 31.2051 15.6328 31.3063C15.5315 31.4075 15.4113 31.4878 15.2791 31.5425C15.1468 31.5973 15.0051 31.6254 14.8619 31.6253ZM50.9022 30.5356H48.5796C47.316 30.5356 46.2888 29.5081 46.2888 28.2442V27.7052C45.2786 27.4247 44.307 27.0202 43.3961 26.501L43.0107 26.8867C42.1188 27.7786 40.6645 27.7786 39.7726 26.8867L38.1292 25.2428C37.236 24.3495 37.236 22.8971 38.1292 22.0037L38.5146 21.6182C37.9955 20.7071 37.5911 19.7352 37.3107 18.7248H36.772C35.5085 18.7248 34.4812 17.6974 34.4812 16.4333V14.1103C34.4812 12.8462 35.5085 11.8195 36.772 11.8195H37.3109C37.5912 10.8088 37.9955 9.83676 38.5146 8.92545L38.1292 8.53992C37.236 7.64717 37.236 6.19481 38.1292 5.30078L39.7726 3.65757C40.6643 2.76546 42.1182 2.76546 43.0105 3.65757L43.3961 4.04246C44.3072 3.5238 45.2788 3.11941 46.2888 2.83845V2.29944C46.2888 1.03553 47.316 0.00878906 48.5796 0.00878906H50.9022C52.1658 0.00878906 53.1923 1.03617 53.1923 2.29944V2.83845C54.2025 3.11946 55.1742 3.5239 56.0855 4.04262L56.4711 3.65773C57.3628 2.76546 58.8166 2.76546 59.7086 3.65773L61.352 5.30078C62.2452 6.19417 62.2452 7.64653 61.352 8.53992L60.9672 8.92545C61.4857 9.83696 61.89 10.8089 62.1709 11.8193H62.7098C63.9734 11.8193 64.9998 12.8468 64.9998 14.1103V16.4333C64.9998 17.6974 63.9727 18.7248 62.7098 18.7248H62.1709C61.89 19.7351 61.4856 20.7068 60.9671 21.6182L61.3519 22.0037C62.2452 22.8971 62.2452 24.3495 61.3519 25.2428L59.7086 26.8867C58.8167 27.7786 57.3628 27.7786 56.4711 26.8867L56.0855 26.501C55.1745 27.0202 54.2028 27.4247 53.1924 27.7052V28.2442C53.1929 29.5081 52.1658 30.5356 50.9022 30.5356ZM43.2326 24.0324C43.4416 24.0324 43.6513 24.0919 43.8346 24.2134C44.9902 24.9789 46.2551 25.5048 47.5961 25.778C47.8423 25.8281 48.0637 25.9618 48.2227 26.1565C48.3816 26.3511 48.4685 26.5948 48.4685 26.8461V28.2442C48.4685 28.3052 48.5191 28.3545 48.5796 28.3545H50.9022C50.9314 28.3544 50.9594 28.3427 50.98 28.322C51.0007 28.3014 51.0124 28.2734 51.0125 28.2442V26.8461C51.0126 26.5948 51.0994 26.3511 51.2584 26.1565C51.4174 25.9618 51.6388 25.8281 51.8851 25.778C53.2266 25.5049 54.4908 24.9789 55.6471 24.2134C56.0763 23.9277 56.6519 23.985 57.0192 24.3518L58.0122 25.3452C58.0329 25.3656 58.0608 25.3771 58.0899 25.3771C58.1189 25.3771 58.1468 25.3656 58.1675 25.3452L59.8108 23.7012C59.8312 23.6805 59.8426 23.6526 59.8426 23.6236C59.8426 23.5946 59.8312 23.5667 59.8108 23.546L58.818 22.5526C58.6403 22.3749 58.5294 22.1412 58.5042 21.8911C58.479 21.641 58.5409 21.3899 58.6796 21.1803C59.4447 20.0237 59.9705 18.7591 60.2443 17.4173C60.2941 17.171 60.4276 16.9495 60.6222 16.7904C60.8167 16.6313 61.0602 16.5444 61.3115 16.5445H62.7092C62.7385 16.5445 62.7666 16.5328 62.7874 16.5121C62.8082 16.4914 62.82 16.4633 62.8201 16.434V14.1108C62.8199 14.0814 62.8082 14.0533 62.7874 14.0325C62.7666 14.0117 62.7385 14 62.7092 13.9998H61.3115C61.0602 13.9998 60.8167 13.9129 60.6222 13.7539C60.4276 13.5948 60.2941 13.3733 60.2443 13.127C59.9705 11.7858 59.4447 10.5206 58.6796 9.364C58.5409 9.15446 58.4789 8.90339 58.5041 8.65336C58.5294 8.40334 58.6403 8.16972 58.818 7.99213L59.8108 6.99829C59.8312 6.97758 59.8426 6.94971 59.8426 6.92067C59.8426 6.89163 59.8312 6.86375 59.8108 6.84305L58.1674 5.19921C58.1467 5.17884 58.1188 5.16743 58.0898 5.16743C58.0607 5.16743 58.0329 5.17884 58.0122 5.19921L57.0192 6.19289C56.8415 6.37063 56.6079 6.48151 56.3579 6.50677C56.1078 6.53203 55.8567 6.47012 55.6471 6.33152C54.4914 5.56541 53.2266 5.0395 51.8851 4.76625C51.6388 4.71616 51.4174 4.58246 51.2584 4.38781C51.0994 4.19316 51.0126 3.94951 51.0125 3.69814V2.30008C51.0124 2.27086 51.0007 2.24289 50.98 2.22223C50.9594 2.20157 50.9314 2.18989 50.9022 2.18972H48.5796C48.5503 2.18972 48.5221 2.20132 48.5013 2.222C48.4805 2.24267 48.4687 2.27074 48.4685 2.30008V3.69814C48.4685 3.94949 48.3816 4.19312 48.2227 4.38777C48.0637 4.58242 47.8423 4.71612 47.5961 4.76625C46.2551 5.03934 44.9904 5.56605 43.8346 6.33136C43.625 6.47004 43.3739 6.53201 43.1238 6.50678C42.8738 6.48154 42.6401 6.37066 42.4624 6.19289L41.469 5.19921C41.4483 5.17879 41.4204 5.16735 41.3913 5.16735C41.3623 5.16735 41.3344 5.17879 41.3136 5.19921L39.6701 6.84305C39.6497 6.86375 39.6383 6.89163 39.6383 6.92067C39.6383 6.94971 39.6497 6.97758 39.6701 6.99829L40.6637 7.99213C40.8414 8.16972 40.9523 8.40334 40.9775 8.65336C41.0028 8.90339 40.9408 9.15446 40.8021 9.364C40.0362 10.5206 39.511 11.7858 39.2372 13.127C39.1871 13.3733 39.0535 13.5948 38.8589 13.7538C38.6643 13.9129 38.4207 13.9998 38.1694 13.9998H36.7719C36.7426 14.0001 36.7146 14.0119 36.6939 14.0326C36.6732 14.0534 36.6615 14.0815 36.6614 14.1108V16.434C36.6614 16.4947 36.7114 16.5445 36.7719 16.5445H38.1694C38.4207 16.5445 38.6643 16.6314 38.8589 16.7905C39.0535 16.9495 39.1871 17.171 39.2372 17.4173C39.511 18.7591 40.0368 20.0237 40.8019 21.1803C40.9406 21.3899 41.0026 21.6411 40.9774 21.8912C40.9522 22.1413 40.8414 22.375 40.6637 22.5528L39.6701 23.546C39.6497 23.5667 39.6383 23.5946 39.6383 23.6236C39.6383 23.6526 39.6497 23.6805 39.6701 23.7012L41.3135 25.3451C41.3342 25.3655 41.3621 25.3769 41.3912 25.3769C41.4202 25.3769 41.4481 25.3655 41.4688 25.3451L42.4623 24.3518C42.5632 24.2503 42.6832 24.1699 42.8154 24.115C42.9476 24.0602 43.0894 24.0321 43.2325 24.0324H43.2326ZM49.7408 20.4966C46.8607 20.4966 44.5174 18.1527 44.5174 15.2718C44.5174 12.3909 46.8607 10.0471 49.7408 10.0471C52.6212 10.0471 54.9642 12.3909 54.9642 15.2718C54.9642 18.1527 52.621 20.4966 49.7408 20.4966ZM49.7408 12.228C48.0631 12.228 46.698 13.5936 46.698 15.2718C46.698 16.95 48.0631 18.3156 49.7408 18.3156C51.4186 18.3156 52.7838 16.95 52.7838 15.2718C52.7838 13.5936 51.4186 12.228 49.7408 12.228Z" fill="#140B43"/>
</g>
</svg>
