<svg width="309" height="281" viewBox="0 0 309 281" fill="none" xmlns="http://www.w3.org/2000/svg">
<path d="M307.427 92.2624C307.801 92.0843 308.249 92.243 308.427 92.617C308.605 92.9909 308.447 93.4385 308.073 93.6166L307.427 92.2624ZM7.19217 24.7172L7.83115 25.1099L7.19217 24.7172ZM142.466 24.7171L142.038 25.3328V25.3328L142.466 24.7171ZM303.382 95.8134C303.006 95.9867 302.56 95.8223 302.387 95.4461C302.213 95.0699 302.378 94.6244 302.754 94.4511L303.382 95.8134ZM293.268 98.7031C293.648 98.5373 294.09 98.7106 294.256 99.0902C294.421 99.4697 294.248 99.9119 293.868 100.078L293.268 98.7031ZM284.279 104.17C283.897 104.329 283.458 104.149 283.298 103.767C283.139 103.384 283.319 102.945 283.702 102.786L284.279 104.17ZM274.081 106.714C274.466 106.56 274.902 106.747 275.056 107.132C275.21 107.516 275.022 107.953 274.638 108.107L274.081 106.714ZM264.941 111.9C264.554 112.049 264.12 111.855 263.972 111.468C263.824 111.081 264.018 110.648 264.404 110.5L264.941 111.9ZM254.668 114.148C255.057 114.005 255.487 114.205 255.63 114.594C255.772 114.983 255.573 115.414 255.184 115.556L254.668 114.148ZM245.367 119.072C244.976 119.209 244.548 119.003 244.411 118.612C244.274 118.221 244.48 117.793 244.871 117.657L245.367 119.072ZM235.043 121.011C235.436 120.88 235.861 121.092 235.992 121.485C236.122 121.879 235.91 122.303 235.517 122.434L235.043 121.011ZM225.603 125.643C225.208 125.767 224.787 125.548 224.663 125.153C224.538 124.757 224.758 124.336 225.153 124.212L225.603 125.643ZM215.212 127.245C215.609 127.128 216.027 127.355 216.144 127.752C216.261 128.149 216.034 128.566 215.637 128.684L215.212 127.245ZM205.617 131.542C205.217 131.652 204.805 131.417 204.695 131.017C204.585 130.618 204.82 130.205 205.219 130.095L205.617 131.542ZM195.175 132.744C195.576 132.642 195.984 132.886 196.085 133.287C196.187 133.689 195.943 134.097 195.542 134.198L195.175 132.744ZM185.402 136.63C184.998 136.722 184.597 136.469 184.505 136.065C184.413 135.661 184.666 135.259 185.07 135.168L185.402 136.63ZM174.915 137.335C175.321 137.254 175.716 137.518 175.797 137.924C175.878 138.33 175.614 138.725 175.208 138.806L174.915 137.335ZM164.953 140.687C164.544 140.756 164.157 140.48 164.089 140.071C164.021 139.663 164.297 139.276 164.705 139.208L164.953 140.687ZM154.434 140.738C154.845 140.684 155.221 140.974 155.274 141.385C155.328 141.796 155.038 142.172 154.627 142.225L154.434 140.738ZM144.253 143.349C143.84 143.385 143.477 143.079 143.441 142.666C143.406 142.253 143.712 141.89 144.125 141.855L144.253 143.349ZM133.789 142.471C134.203 142.458 134.549 142.783 134.562 143.197C134.575 143.611 134.25 143.957 133.836 143.97L133.789 142.471ZM123.659 143.95C123.245 143.932 122.923 143.583 122.941 143.169C122.958 142.755 123.308 142.434 123.722 142.451L123.659 143.95ZM113.957 141.642C114.368 141.693 114.661 142.067 114.61 142.478C114.56 142.889 114.186 143.182 113.775 143.131L113.957 141.642ZM103.989 141.555C103.583 141.474 103.319 141.079 103.4 140.673C103.481 140.266 103.876 140.003 104.282 140.084L103.989 141.555ZM94.7372 137.83C95.1368 137.939 95.3723 138.352 95.2633 138.751C95.1542 139.151 94.7419 139.386 94.3423 139.277L94.7372 137.83ZM84.877 136.351C84.4855 136.216 84.2777 135.789 84.413 135.398C84.5483 135.006 84.9753 134.798 85.3668 134.934L84.877 136.351ZM76.2012 131.435C76.5833 131.595 76.7635 132.034 76.6036 132.416C76.4437 132.798 76.0043 132.979 75.6222 132.819L76.2012 131.435ZM66.6075 128.714C66.236 128.53 66.0833 128.081 66.2666 127.709C66.4498 127.338 66.8995 127.185 67.2709 127.368L66.6075 128.714ZM58.6062 122.759C58.9658 122.965 59.0905 123.423 58.8848 123.782C58.6792 124.142 58.221 124.267 57.8614 124.061L58.6062 122.759ZM49.424 118.883C49.0779 118.655 48.9817 118.19 49.2093 117.844C49.4368 117.498 49.9018 117.402 50.248 117.629L49.424 118.883ZM42.2186 111.978C42.5495 112.227 42.6157 112.698 42.3665 113.029C42.1173 113.359 41.6471 113.426 41.3162 113.176L42.2186 111.978ZM33.6133 106.963C33.2999 106.692 33.2654 106.219 33.5363 105.906C33.8072 105.592 34.2808 105.558 34.5941 105.829L33.6133 106.963ZM27.4016 99.1457C27.6943 99.4387 27.6942 99.9136 27.4012 100.206C27.1082 100.499 26.6334 100.499 26.3405 100.206L27.4016 99.1457ZM19.6199 92.926C19.3517 92.6103 19.3902 92.137 19.7059 91.8688C20.0216 91.6006 20.4949 91.6391 20.7631 91.9548L19.6199 92.926ZM14.7647 84.2116C15.0026 84.5507 14.9205 85.0185 14.5814 85.2563C14.2422 85.4942 13.7745 85.4121 13.5367 85.073L14.7647 84.2116ZM8.26642 76.6438C8.06686 76.2809 8.19931 75.8248 8.56229 75.6253C8.92523 75.4257 9.38129 75.5582 9.58084 75.9211L8.26642 76.6438ZM5.43561 67.098C5.58591 67.4839 5.39484 67.9187 5.00885 68.069C4.62286 68.2193 4.18811 68.0282 4.03784 67.6422L5.43561 67.098ZM1.1554 58.1045C1.06894 57.6994 1.32724 57.3009 1.73233 57.2145C2.13742 57.128 2.53592 57.3863 2.62234 57.7914L1.1554 58.1045ZM1.5051 48.1597C1.51129 48.5739 1.18054 48.9147 0.766357 48.9208C0.352203 48.927 0.0114441 48.5963 0.00527954 48.1821L1.5051 48.1597ZM0.958984 38.2208C1.04504 37.8156 1.44327 37.5569 1.84845 37.6429C2.25363 37.729 2.51233 38.1272 2.42627 38.5324L0.958984 38.2208ZM5.51965 29.3748C5.3428 29.7494 4.89581 29.9097 4.52124 29.7328C4.14667 29.556 3.98639 29.109 4.16324 28.7344L5.51965 29.3748ZM9.7739 20.0168C10.0489 19.7071 10.523 19.679 10.8327 19.954C11.1424 20.2291 11.1705 20.7031 10.8955 21.0128L9.7739 20.0168ZM18.709 14.2939C18.3658 14.5257 17.8996 14.4354 17.6678 14.0922C17.4359 13.7489 17.5262 13.2827 17.8694 13.0509L18.709 14.2939ZM27.1887 7.91692C27.5666 7.74728 28.0104 7.9161 28.1801 8.29398C28.3497 8.67187 28.1809 9.11572 27.803 9.28536L27.1887 7.91692ZM37.5692 5.67983C37.1723 5.79836 36.7545 5.57271 36.636 5.17582C36.5174 4.77892 36.7431 4.36109 37.14 4.24256L37.5692 5.67983ZM47.4484 1.78575C47.8559 1.71144 48.2465 1.98153 48.3208 2.38902C48.3951 2.79651 48.125 3.1871 47.7175 3.26141L47.4484 1.78575ZM58.0692 1.89764C57.6564 1.93206 57.2938 1.62533 57.2594 1.21255C57.225 0.79977 57.5317 0.437246 57.9445 0.40283L58.0692 1.89764ZM68.5254 0.00267571C68.9396 0.005427 69.2731 0.343436 69.2704 0.757641C69.2676 1.17185 68.9296 1.50539 68.5154 1.50264L68.5254 0.00267571ZM78.9594 2.02125C78.547 1.98319 78.2435 1.61797 78.2815 1.20551C78.3196 0.793044 78.6848 0.489535 79.0973 0.527599L78.9594 2.02125ZM89.5836 1.93644C89.9915 2.00845 90.2638 2.39751 90.1918 2.80541C90.1198 3.21332 89.7307 3.48561 89.3228 3.4136L89.5836 1.93644ZM99.5364 5.64829C99.1357 5.54347 98.8958 5.13364 99.0006 4.73291C99.1055 4.33218 99.5153 4.0923 99.916 4.19712L99.5364 5.64829ZM110.031 7.28093C110.422 7.41745 110.628 7.84514 110.491 8.23621C110.355 8.62728 109.927 8.83364 109.536 8.69712L110.031 7.28093ZM119.262 12.5311C118.883 12.3641 118.711 11.9215 118.878 11.5424C119.045 11.1634 119.488 10.9914 119.867 11.1584L119.262 12.5311ZM129.37 15.797C129.735 15.9931 129.872 16.4478 129.676 16.8127C129.479 17.1776 129.025 17.3144 128.66 17.1184L129.37 15.797ZM137.681 22.4232C137.332 22.1997 137.231 21.7359 137.454 21.3871C137.678 21.0383 138.142 20.9368 138.49 21.1602L137.681 22.4232ZM147.041 27.2069C147.364 27.4667 147.415 27.9388 147.155 28.2614C146.895 28.5841 146.423 28.6351 146.1 28.3753L147.041 27.2069ZM153.551 35.2507C153.265 34.9504 153.277 34.4757 153.578 34.1903C153.878 33.905 154.353 33.9171 154.638 34.2174L153.551 35.2507ZM161.287 42.1362C161.534 42.4686 161.465 42.9384 161.132 43.1856C160.8 43.4327 160.33 43.3636 160.083 43.0312L161.287 42.1362ZM165.693 51.5026C165.483 51.1458 165.602 50.686 165.958 50.4755C166.315 50.2651 166.775 50.3836 166.985 50.7404L165.693 51.5026ZM171.796 59.8559C171.972 60.2307 171.812 60.6775 171.437 60.8541C171.062 61.0306 170.616 60.87 170.439 60.4953L171.796 59.8559ZM174.395 69.8774C174.249 69.4897 174.445 69.0572 174.833 68.9115C175.221 68.7657 175.653 68.9618 175.799 69.3496L174.395 69.8774ZM179.074 79.1146C179.192 79.5116 178.966 79.9292 178.569 80.0472C178.172 80.1653 177.754 79.9392 177.636 79.5421L179.074 79.1146ZM180.232 89.4088C180.139 89.0052 180.391 88.6025 180.794 88.5094C181.198 88.4162 181.601 88.6679 181.694 89.0715L180.232 89.4088ZM183.724 99.1618C183.794 99.5699 183.52 99.958 183.112 100.029C182.704 100.099 182.316 99.8255 182.245 99.4174L183.724 99.1618ZM183.729 109.523C183.679 109.112 183.972 108.738 184.383 108.688C184.794 108.638 185.168 108.931 185.218 109.342L183.729 109.523ZM186.223 119.579C186.254 119.993 185.944 120.353 185.531 120.384C185.118 120.415 184.758 120.105 184.727 119.692L186.223 119.579ZM185.275 129.898C185.261 129.484 185.586 129.138 186 129.124C186.414 129.111 186.76 129.435 186.774 129.849L185.275 129.898ZM186.901 140.132C186.898 140.546 186.56 140.879 186.145 140.876C185.731 140.873 185.398 140.535 185.401 140.12L186.901 140.132ZM185.127 150.341C185.146 149.927 185.497 149.607 185.911 149.626C186.325 149.645 186.645 149.996 186.626 150.41L185.127 150.341ZM185.964 160.669C185.93 161.082 185.567 161.388 185.155 161.354C184.742 161.32 184.435 160.957 184.469 160.545L185.964 160.669ZM183.436 170.717C183.486 170.306 183.859 170.013 184.27 170.062C184.682 170.111 184.975 170.485 184.926 170.896L183.436 170.717ZM183.514 181.078C183.45 181.488 183.066 181.767 182.657 181.703C182.247 181.638 181.968 181.254 182.032 180.845L183.514 181.078ZM180.255 190.914C180.335 190.507 180.729 190.243 181.135 190.322C181.542 190.402 181.807 190.796 181.727 191.202L180.255 190.914ZM179.555 201.253C179.459 201.656 179.055 201.905 178.652 201.81C178.249 201.714 178 201.31 178.095 200.907L179.555 201.253ZM175.536 210.805C175.648 210.406 176.062 210.174 176.461 210.286C176.86 210.398 177.092 210.812 176.98 211.211L175.536 210.805ZM173.974 221.052C173.844 221.445 173.42 221.659 173.027 221.529C172.633 221.399 172.42 220.974 172.55 220.581L173.974 221.052ZM169.1 230.197C169.25 229.811 169.685 229.62 170.071 229.77C170.457 229.92 170.648 230.354 170.498 230.741L169.1 230.197ZM166.494 240.221C166.322 240.598 165.877 240.763 165.5 240.59C165.124 240.418 164.958 239.972 165.131 239.596L166.494 240.221ZM160.571 248.685C160.771 248.322 161.227 248.19 161.59 248.389C161.953 248.589 162.085 249.045 161.886 249.408L160.571 248.685ZM156.514 258.237C156.282 258.58 155.815 258.669 155.472 258.437C155.129 258.205 155.039 257.739 155.272 257.396L156.514 258.237ZM149.084 265.459C149.358 265.148 149.832 265.118 150.143 265.391C150.454 265.665 150.484 266.139 150.211 266.45L149.084 265.459ZM142.73 273.619C142.404 273.875 141.933 273.819 141.677 273.493C141.421 273.167 141.477 272.696 141.803 272.44L142.73 273.619ZM133.225 277.547C133.609 277.39 134.047 277.574 134.204 277.957C134.36 278.341 134.177 278.779 133.793 278.935L133.225 277.547ZM308.073 93.6166C306.594 94.3208 305.029 95.0543 303.382 95.8134L302.754 94.4511C304.396 93.6945 305.955 92.9637 307.427 92.2624L308.073 93.6166ZM293.868 100.078C290.843 101.399 287.64 102.768 284.279 104.17L283.702 102.786C287.054 101.387 290.251 100.021 293.268 98.7031L293.868 100.078ZM274.638 108.107C271.503 109.359 268.266 110.627 264.941 111.9L264.404 110.5C267.722 109.229 270.953 107.964 274.081 106.714L274.638 108.107ZM255.184 115.556C251.971 116.734 248.695 117.908 245.367 119.072L244.871 117.657C248.193 116.495 251.462 115.323 254.668 114.148L255.184 115.556ZM235.517 122.434C232.247 123.521 228.939 124.593 225.603 125.643L225.153 124.212C228.481 123.165 231.781 122.096 235.043 121.011L235.517 122.434ZM215.637 128.684C212.312 129.666 208.969 130.621 205.617 131.542L205.219 130.095C208.562 129.177 211.896 128.225 215.212 127.245L215.637 128.684ZM195.542 134.198C192.158 135.051 188.776 135.864 185.402 136.63L185.07 135.168C188.431 134.404 191.802 133.594 195.175 132.744L195.542 134.198ZM175.208 138.806C171.766 139.491 168.344 140.121 164.953 140.687L164.705 139.208C168.08 138.644 171.487 138.018 174.915 137.335L175.208 138.806ZM154.627 142.225C151.12 142.68 147.657 143.058 144.253 143.349L144.125 141.855C147.506 141.565 150.946 141.19 154.434 140.738L154.627 142.225ZM133.836 143.97C132.075 144.026 130.335 144.055 128.616 144.055V142.555C130.318 142.555 132.043 142.527 133.789 142.471L133.836 143.97ZM128.616 144.055C126.965 144.055 125.312 144.02 123.659 143.95L123.722 142.451C125.355 142.52 126.986 142.555 128.616 142.555V144.055ZM113.775 143.131C110.502 142.73 107.237 142.201 103.989 141.555L104.282 140.084C107.495 140.723 110.723 141.246 113.957 141.642L113.775 143.131ZM94.3423 139.277C91.1581 138.408 87.9998 137.43 84.877 136.351L85.3668 134.934C88.4591 136.002 91.5857 136.97 94.7372 137.83L94.3423 139.277ZM75.6222 132.819C72.5691 131.541 69.561 130.17 66.6075 128.714L67.2709 127.368C70.197 128.812 73.177 130.17 76.2012 131.435L75.6222 132.819ZM57.8614 124.061C54.9794 122.413 52.1636 120.684 49.424 118.883L50.248 117.629C52.9615 119.413 55.751 121.126 58.6062 122.759L57.8614 124.061ZM41.3162 113.176C38.6524 111.17 36.081 109.096 33.6133 106.963L34.5941 105.829C37.0359 107.939 39.5811 109.992 42.2186 111.978L41.3162 113.176ZM26.3405 100.206C23.9672 97.8312 21.7225 95.4008 19.6199 92.926L20.7631 91.9548C22.8383 94.3976 25.0555 96.7982 27.4016 99.1457L26.3405 100.206ZM13.5367 85.073C11.5906 82.2983 9.828 79.484 8.26642 76.6438L9.58084 75.9211C11.1145 78.7104 12.8479 81.4787 14.7647 84.2116L13.5367 85.073ZM4.03784 67.6422C2.80313 64.4711 1.83426 61.2855 1.1554 58.1045L2.62234 57.7914C3.28311 60.8876 4.22781 63.996 5.43561 67.098L4.03784 67.6422ZM0.00527954 48.1821C-0.0448303 44.8243 0.263458 41.4958 0.958984 38.2208L2.42627 38.5324C1.7551 41.6928 1.4566 44.909 1.5051 48.1597L0.00527954 48.1821ZM4.16324 28.7344C4.8663 27.2453 5.66205 25.7745 6.55322 24.3245L7.83115 25.1099C6.96838 26.5136 6.19891 27.9361 5.51965 29.3748L4.16324 28.7344ZM6.55322 24.3245C7.46472 22.8414 8.54282 21.4031 9.7739 20.0168L10.8955 21.0128C9.71756 22.3393 8.69302 23.7076 7.83115 25.1099L6.55322 24.3245ZM17.8694 13.0509C20.6551 11.1692 23.7777 9.44814 27.1887 7.91692L27.803 9.28536C24.4622 10.785 21.4162 12.4653 18.709 14.2939L17.8694 13.0509ZM37.14 4.24256C40.4103 3.26587 43.8557 2.44098 47.4484 1.78575L47.7175 3.26141C44.1767 3.90718 40.7849 4.71947 37.5692 5.67983L37.14 4.24256ZM57.9445 0.40283C61.3804 0.116371 64.9138 -0.0213131 68.5254 0.00267571L68.5154 1.50264C64.9484 1.47895 61.4599 1.61495 58.0692 1.89764L57.9445 0.40283ZM79.0973 0.527599C82.5472 0.845974 86.0478 1.3122 89.5836 1.93644L89.3228 3.4136C85.828 2.79659 82.3684 2.33585 78.9594 2.02125L79.0973 0.527599ZM99.916 4.19712C103.274 5.07544 106.649 6.1006 110.031 7.28093L109.536 8.69712C106.193 7.53011 102.856 6.51659 99.5364 5.64829L99.916 4.19712ZM119.867 11.1584C123.044 12.5581 126.215 14.102 129.37 15.797L128.66 17.1184C125.54 15.442 122.404 13.9152 119.262 12.5311L119.867 11.1584ZM138.49 21.1602C139.965 22.105 141.433 23.0851 142.895 24.1013L142.038 25.3328C140.592 24.3274 139.14 23.3578 137.681 22.4232L138.49 21.1602ZM142.895 24.1013C144.315 25.0892 145.697 26.1251 147.041 27.2069L146.1 28.3753C144.783 27.3152 143.43 26.3004 142.038 25.3328L142.895 24.1013ZM154.638 34.2174C156.997 36.6999 159.212 39.3449 161.287 42.1362L160.083 43.0312C158.042 40.2858 155.866 37.6873 153.551 35.2507L154.638 34.2174ZM166.985 50.7404C168.71 53.6644 170.312 56.7076 171.796 59.8559L170.439 60.4953C168.974 57.3865 167.394 54.3845 165.693 51.5026L166.985 50.7404ZM175.799 69.3496C176.993 72.5254 178.084 75.7843 179.074 79.1146L177.636 79.5421C176.655 76.2439 175.576 73.0185 174.395 69.8774L175.799 69.3496ZM181.694 89.0715C182.458 92.3834 183.134 95.7502 183.724 99.1618L182.245 99.4174C181.66 96.032 180.99 92.6924 180.232 89.4088L181.694 89.0715ZM185.218 109.342C185.63 112.725 185.964 116.141 186.223 119.579L184.727 119.692C184.469 116.275 184.138 112.883 183.729 109.523L185.218 109.342ZM186.774 129.849C186.885 133.266 186.927 136.697 186.901 140.132L185.401 140.12C185.427 136.705 185.385 133.294 185.275 129.898L186.774 129.849ZM186.626 150.41C186.469 153.836 186.247 157.259 185.964 160.669L184.469 160.545C184.751 157.153 184.971 153.749 185.127 150.341L186.626 150.41ZM184.926 170.896C184.515 174.316 184.044 177.713 183.514 181.078L182.032 180.845C182.559 177.498 183.028 174.119 183.436 170.717L184.926 170.896ZM181.727 191.202C181.061 194.599 180.336 197.953 179.555 201.253L178.095 200.907C178.872 197.626 179.593 194.292 180.255 190.914L181.727 191.202ZM176.98 211.211C176.037 214.566 175.034 217.85 173.974 221.052L172.55 220.581C173.602 217.402 174.598 214.139 175.536 210.805L176.98 211.211ZM170.498 230.741C169.225 234.017 167.889 237.183 166.494 240.221L165.131 239.596C166.512 236.586 167.837 233.448 169.1 230.197L170.498 230.741ZM161.886 249.408C160.164 252.542 158.371 255.493 156.514 258.237L155.272 257.396C157.101 254.694 158.869 251.783 160.571 248.685L161.886 249.408ZM150.211 266.45C147.802 269.19 145.305 271.594 142.73 273.619L141.803 272.44C144.295 270.48 146.727 268.141 149.084 265.459L150.211 266.45ZM133.793 278.935C132.142 279.611 130.466 280.131 128.769 280.484L128.463 279.016C130.066 278.682 131.654 278.19 133.225 277.547L133.793 278.935Z" fill="#140B43"/>
</svg>
