<svg width="46" height="30" viewBox="0 0 46 30" fill="none" xmlns="http://www.w3.org/2000/svg">
<path d="M32.28 22.829C31.141 22.4228 29.2823 22.3954 28.4584 22.0875C27.824 21.9225 27.225 21.6433 26.6907 21.2636C26.4661 20.3172 26.3689 19.345 26.4016 18.3728C26.8251 17.9664 27.1683 17.4839 27.4134 16.9506C27.6592 16.0353 27.8222 15.0997 27.9005 14.1552C27.9005 14.1552 28.5711 14.4443 28.8356 13.0986C29.0597 11.9423 29.4861 11.3309 29.3748 10.4767C29.2635 9.62245 28.785 9.82625 28.785 9.82625C29.3039 8.63054 29.507 7.3216 29.3748 6.02488C29.3669 5.19032 29.1873 4.36631 28.8473 3.60413C28.5072 2.84195 28.014 2.15791 27.3982 1.59458C26.7824 1.03125 26.0572 0.600682 25.2678 0.329672C24.4785 0.0586629 23.6418 -0.0469887 22.8098 0.0192926C21.9777 -0.0470297 21.1409 0.0580659 20.351 0.32808C19.5611 0.598093 18.8351 1.02728 18.2177 1.58911C17.6003 2.15093 17.1048 2.83343 16.7617 3.59441C16.4187 4.3554 16.2354 5.17867 16.2232 6.01332C16.0923 7.30892 16.2912 8.61658 16.8013 9.81469C16.8013 9.81469 16.3244 9.61089 16.2116 10.4651C16.0989 11.3193 16.518 11.9394 16.7479 13.0957C17.0124 14.4472 17.683 14.1523 17.683 14.1523C17.7621 15.0967 17.9251 16.0322 18.1701 16.9477C18.4152 17.481 18.7584 17.9635 19.1819 18.3699C19.2146 19.3421 19.1174 20.3143 18.8928 21.2607C18.36 21.6407 17.7603 21.9168 17.1251 22.0745C16.3128 22.3896 14.4526 22.43 13.3035 22.8362C11.918 23.3554 10.727 24.2905 9.89381 25.5132C9.06059 26.7358 8.6259 28.1863 8.64934 29.6657H36.924C36.9518 28.1858 36.5202 26.7337 35.6885 25.5093C34.8568 24.2849 33.666 23.3485 32.28 22.829V22.829Z" fill="white"/>
<path d="M11.0283 17.8781C12.2223 17.862 13.3917 17.5363 14.4221 16.9328C12.8466 14.545 13.6994 11.7597 13.3756 9.15803C13.3597 8.56607 13.2213 7.98384 12.9692 7.44802C12.717 6.91221 12.3566 6.43445 11.9107 6.04485C11.4647 5.65525 10.9429 5.36226 10.3781 5.18436C9.81325 5.00646 9.2177 4.9475 8.62897 5.01121H8.5885C8.00324 4.95561 7.41279 5.02057 6.85362 5.20209C6.29445 5.3836 5.77842 5.67781 5.33739 6.06655C4.89637 6.45529 4.53971 6.93031 4.28945 7.46227C4.03918 7.99424 3.90062 8.57186 3.88231 9.15947C3.5571 11.7511 4.46047 14.8514 2.84597 16.9342C3.87956 17.5278 5.05868 17.8202 6.24986 17.7783V17.7783C6.31155 18.349 6.27735 18.9259 6.14868 19.4853C5.79888 19.7767 5.37784 19.9698 4.92877 20.0447C4.03803 20.2374 3.1592 20.4816 2.29672 20.7761C1.60569 21.1372 1.02649 21.6803 0.6217 22.3467C0.216914 23.0131 0.00193705 23.7775 0 24.5572H8.16211C8.904 23.2317 10.0408 22.1707 11.4142 21.5219C12.2101 21.1884 13.0621 21.0089 13.9249 20.9929C13.9249 20.9929 14.3108 20.3829 13.0403 20.1488C12.365 20.0005 11.71 19.7719 11.089 19.468C10.8953 19.2512 11.0283 17.8781 11.0283 17.8781Z" fill="white"/>
<path d="M34.6047 17.879C33.4107 17.863 32.2413 17.5372 31.2109 16.9337C32.7864 14.546 31.9336 11.7607 32.2574 9.159C32.2733 8.56705 32.4117 7.98481 32.6639 7.449C32.916 6.91319 33.2764 6.43542 33.7224 6.04582C34.1683 5.65622 34.6901 5.36324 35.255 5.18534C35.8198 5.00744 36.4153 4.94848 37.0041 5.01218H37.0445C37.6298 4.95659 38.2202 5.02155 38.7794 5.20306C39.3386 5.38458 39.8546 5.67879 40.2956 6.06753C40.7367 6.45627 41.0933 6.93128 41.3436 7.46325C41.5938 7.99522 41.7324 8.57284 41.7507 9.16045C42.0759 11.752 41.1726 14.8524 42.7871 16.9352C41.7535 17.5288 40.5743 17.8212 39.3832 17.7793V17.7793C39.3215 18.35 39.3557 18.9269 39.4843 19.4863C39.8341 19.7777 40.2552 19.9708 40.7042 20.0457C41.595 20.2384 42.4738 20.4826 43.3363 20.777C44.0273 21.1382 44.6065 21.6813 45.0113 22.3477C45.4161 23.0141 45.6311 23.7785 45.633 24.5582H37.4709C36.729 23.2327 35.5922 22.1717 34.2188 21.5229C33.4229 21.1894 32.5709 21.0099 31.7082 20.9938C31.7082 20.9938 31.3222 20.3839 32.5927 20.1497C33.268 20.0015 33.9231 19.7729 34.544 19.469C34.7377 19.2522 34.6047 17.879 34.6047 17.879Z" fill="white"/>
</svg>
