<svg width="40" height="40" viewBox="0 0 40 40" fill="none" xmlns="http://www.w3.org/2000/svg">
<g clip-path="url(#clip0_0_5091)">
<path d="M22.54 26.3281H24.7962C24.8701 24.9073 25.0808 23.5313 25.439 22.3787C23.9693 23.1978 22.8861 24.6301 22.54 26.3281Z" fill="#140B43"/>
<path d="M28.2808 33.253C28.6589 32.7727 29.2698 31.2148 29.4189 28.6719H27.1426C27.2917 31.2148 27.9027 32.7727 28.2808 33.253Z" fill="#140B43"/>
<path d="M22.54 28.6719C22.8861 30.3698 23.9693 31.8022 25.4389 32.6213C25.0807 31.4686 24.8701 30.0927 24.7961 28.6719H22.54Z" fill="#140B43"/>
<path d="M27.1436 26.3281H29.4199C29.2707 23.7852 28.6599 22.2273 28.2818 21.7469C27.9036 22.2273 27.2926 23.7852 27.1436 26.3281Z" fill="#140B43"/>
<path d="M31.124 22.3787C31.4822 23.5314 31.6929 24.9073 31.7668 26.3281H34.023C33.6769 24.6301 32.5938 23.1978 31.124 22.3787Z" fill="#140B43"/>
<path d="M31.124 32.6213C32.5938 31.8022 33.6769 30.3698 34.0229 28.6719H31.7668C31.6929 30.0927 31.4822 31.4687 31.124 32.6213Z" fill="#140B43"/>
<path d="M36.4844 10.3125H17.7344C17.0872 10.3125 16.5625 10.8372 16.5625 11.4844V40H36.4844C38.426 40 40 38.426 40 36.4844V13.8281C40 11.8865 38.426 10.3125 36.4844 10.3125ZM28.2812 35.7031C23.758 35.7031 20.0781 32.0232 20.0781 27.5C20.0781 22.9768 23.758 19.2969 28.2812 19.2969C32.8045 19.2969 36.4844 22.9768 36.4844 27.5C36.4844 32.0232 32.8045 35.7031 28.2812 35.7031ZM35.3125 16.1719H21.25C20.6028 16.1719 20.0781 15.6472 20.0781 15C20.0781 14.3528 20.6028 13.8281 21.25 13.8281H35.3125C35.9597 13.8281 36.4844 14.3528 36.4844 15C36.4844 15.6472 35.9597 16.1719 35.3125 16.1719Z" fill="#140B43"/>
<path d="M21.0938 7.96875V1.17188C21.0938 0.524687 20.5691 0 19.9219 0H13.6719C13.0262 0 12.4987 0.522266 12.5 1.16797C12.5021 2.24672 11.6252 3.125 10.5469 3.125C9.46859 3.125 8.59164 2.24672 8.59375 1.16797C8.595 0.522266 8.06758 0 7.42188 0H1.17188C0.524687 0 0 0.524687 0 1.17188V11.0938H3.51562C4.16281 11.0938 4.6875 11.6184 4.6875 12.2656C4.6875 12.9128 4.16281 13.4375 3.51562 13.4375H0V38.8281C0 39.4753 0.524687 40 1.17188 40H14.2188V11.4844C14.2188 9.54273 15.7927 7.96875 17.7344 7.96875H21.0938ZM7.03125 35.3125C7.03125 35.9597 6.50656 36.4844 5.85938 36.4844C5.21219 36.4844 4.6875 35.9597 4.6875 35.3125V18.125C4.6875 17.4778 5.21219 16.9531 5.85938 16.9531C6.50656 16.9531 7.03125 17.4778 7.03125 18.125V35.3125ZM11.7188 35.3125C11.7188 35.9597 11.1941 36.4844 10.5469 36.4844C9.89969 36.4844 9.375 35.9597 9.375 35.3125V18.125C9.375 17.4778 9.89969 16.9531 10.5469 16.9531C11.1941 16.9531 11.7188 17.4778 11.7188 18.125V35.3125ZM10.5469 13.4375H8.20312C7.55594 13.4375 7.03125 12.9128 7.03125 12.2656C7.03125 11.6184 7.55594 11.0938 8.20312 11.0938H10.5469C11.1941 11.0938 11.7188 11.6184 11.7188 12.2656C11.7188 12.9128 11.1941 13.4375 10.5469 13.4375Z" fill="#140B43"/>
</g>
<defs>
<clipPath id="clip0_0_5091">
<rect width="40" height="40" fill="white"/>
</clipPath>
</defs>
</svg>
