<svg width="40" height="40" viewBox="0 0 40 40" fill="none" xmlns="http://www.w3.org/2000/svg">
<path d="M0 32.8906V34.0625C0 36.001 1.57711 37.5781 3.51562 37.5781H36.4844C38.4229 37.5781 40 36.001 40 34.0625V32.8906H0Z" fill="#140B43"/>
<path d="M38.175 26.6406H1.82422L0.359375 30.5469H39.6398L38.175 26.6406Z" fill="#140B43"/>
<path d="M27.7512 11.7522C28.4928 11.7522 29.0962 11.1489 29.0962 10.4073C29.0962 9.66578 28.4928 9.0625 27.7512 9.0625H25.7461V11.7552C25.7461 11.7552 27.5179 11.7522 27.7512 11.7522Z" fill="#140B43"/>
<path d="M37.6562 5.9375C37.6562 3.99898 36.0791 2.42188 34.1406 2.42188H5.85938C3.92086 2.42188 2.34375 3.99898 2.34375 5.9375V24.2969H37.6562V5.9375ZM18.8281 18.8281C18.8281 19.4753 18.3034 20 17.6562 20H8.28125C7.63406 20 7.10938 19.4753 7.10938 18.8281V17.2656C7.10938 15.1548 8.23172 13.3015 9.91063 12.2699C9.38047 11.603 9.0625 10.76 9.0625 9.84375C9.0625 7.68984 10.8148 5.9375 12.9688 5.9375C15.1227 5.9375 16.875 7.68984 16.875 9.84375C16.875 10.76 16.557 11.603 16.0269 12.2699C17.7058 13.3015 18.8281 15.1548 18.8281 17.2656V18.8281ZM28.3059 19.987C27.5114 19.987 24.6084 19.9998 24.5792 20C24.5776 20 24.5758 20 24.5741 20C24.2642 20 23.967 19.8773 23.7473 19.6586C23.5264 19.4387 23.4022 19.1398 23.4022 18.8281V7.89062C23.4022 7.24344 23.9269 6.71875 24.5741 6.71875H27.7511C29.785 6.71875 31.4398 8.37344 31.4398 10.4073C31.4398 11.2096 31.1816 11.9522 30.7449 12.5582C31.7612 13.3084 32.4219 14.5138 32.4219 15.8711C32.4219 18.1406 30.5755 19.987 28.3059 19.987Z" fill="#140B43"/>
<path d="M12.9688 11.4062C13.8317 11.4062 14.5312 10.7067 14.5312 9.84375C14.5312 8.98081 13.8317 8.28125 12.9688 8.28125C12.1058 8.28125 11.4062 8.98081 11.4062 9.84375C11.4062 10.7067 12.1058 11.4062 12.9688 11.4062Z" fill="#140B43"/>
<path d="M12.9688 13.75C11.0302 13.75 9.45312 15.3271 9.45312 17.2656V17.6562H16.4844V17.2656C16.4844 15.3271 14.9073 13.75 12.9688 13.75Z" fill="#140B43"/>
<path d="M28.3062 14.0986C28.3062 14.0986 26.0224 14.1007 25.7461 14.1019V17.6511C26.6573 17.6474 27.84 17.643 28.3062 17.643C29.2834 17.643 30.0784 16.848 30.0784 15.8708C30.0784 14.8936 29.2834 14.0986 28.3062 14.0986Z" fill="#140B43"/>
</svg>
