<svg width="40" height="40" viewBox="0 0 40 40" fill="none" xmlns="http://www.w3.org/2000/svg">
<g clip-path="url(#clip0_0_5108)">
<path d="M5.85938 9.53125C7.58526 9.53125 8.98438 8.13214 8.98438 6.40625C8.98438 4.68036 7.58526 3.28125 5.85938 3.28125C4.13349 3.28125 2.73438 4.68036 2.73438 6.40625C2.73438 8.13214 4.13349 9.53125 5.85938 9.53125Z" fill="#140B43"/>
<path d="M11.7188 16.1719V14.6094C11.7188 12.8735 10.9593 11.3123 9.75602 10.2385C8.76328 11.2477 7.38344 11.875 5.85938 11.875C4.33531 11.875 2.95547 11.2477 1.96273 10.2385C0.759453 11.3123 0 12.8735 0 14.6094V16.1719C0 16.8191 0.524687 17.3438 1.17188 17.3438H10.5469C11.1941 17.3438 11.7188 16.8191 11.7188 16.1719Z" fill="#140B43"/>
<path d="M20 6.25C21.7259 6.25 23.125 4.85089 23.125 3.125C23.125 1.39911 21.7259 0 20 0C18.2741 0 16.875 1.39911 16.875 3.125C16.875 4.85089 18.2741 6.25 20 6.25Z" fill="#140B43"/>
<path d="M15.3125 14.0625H24.6875C25.3347 14.0625 25.8594 13.5378 25.8594 12.8907V11.3282C25.8594 9.59229 25.0999 8.03104 23.8966 6.95721C22.9039 7.96643 21.5241 8.59378 20 8.59378C18.4759 8.59378 17.0961 7.96643 16.1034 6.95721C14.9001 8.03104 14.1406 9.59229 14.1406 11.3282V12.8907C14.1406 13.5378 14.6653 14.0625 15.3125 14.0625Z" fill="#140B43"/>
<path d="M34.1406 9.53125C35.8665 9.53125 37.2656 8.13214 37.2656 6.40625C37.2656 4.68036 35.8665 3.28125 34.1406 3.28125C32.4147 3.28125 31.0156 4.68036 31.0156 6.40625C31.0156 8.13214 32.4147 9.53125 34.1406 9.53125Z" fill="#140B43"/>
<path d="M38.0373 10.2385C37.0445 11.2477 35.6647 11.875 34.1406 11.875C32.6166 11.875 31.2367 11.2477 30.244 10.2385C29.0407 11.3123 28.2812 12.8735 28.2812 14.6094V16.1719C28.2812 16.8191 28.8059 17.3438 29.4531 17.3438H38.8281C39.4753 17.3438 40 16.8191 40 16.1719V14.6094C40 12.8735 39.2405 11.3123 38.0373 10.2385Z" fill="#140B43"/>
<path d="M8.67188 20.0781V23.5938H14.9219V20.0781C14.9219 19.4309 14.3972 18.9062 13.75 18.9062H9.84375C9.19656 18.9062 8.67188 19.4309 8.67188 20.0781Z" fill="#140B43"/>
<path d="M30.1562 18.9062H26.25C25.6028 18.9062 25.0781 19.4309 25.0781 20.0781V23.5938H31.3281V20.0781C31.3281 19.4309 30.8034 18.9062 30.1562 18.9062Z" fill="#140B43"/>
<path d="M25.0781 28.6719C25.0781 31.4764 22.8045 33.75 20 33.75C17.1954 33.75 14.9219 31.4764 14.9219 28.6719V25.9375H8.67188V28.6719C8.67188 34.9282 13.7437 40 20 40C26.2563 40 31.3281 34.9282 31.3281 28.6719V25.9375H25.0781V28.6719Z" fill="#140B43"/>
</g>
<defs>
<clipPath id="clip0_0_5108">
<rect width="40" height="40" fill="white"/>
</clipPath>
</defs>
</svg>
