<svg width="65" height="65" viewBox="0 0 65 65" fill="none" xmlns="http://www.w3.org/2000/svg">
<path d="M52.6851 54.8438H15.8687C14.817 54.8438 13.9644 55.6964 13.9644 56.748V59.9219C13.9644 61.809 13.3713 63.5593 12.3643 65H49.5112C52.3158 65 54.5894 62.7264 54.5894 59.9219V56.748C54.5894 55.6964 53.7368 54.8438 52.6851 54.8438Z" fill="#95D5EE"/>
<path d="M36.3854 42.623L44.6182 34.7583L37.9008 30.0547L33.3262 40.4808C32.4898 42.387 34.8803 44.0608 36.3854 42.623Z" fill="#95D5EE"/>
<path d="M63.1043 1.20824C61.0941 -0.199291 58.3235 0.289225 56.9158 2.2994L54.7314 5.41927L62.0111 10.5164L64.1955 7.39657C65.6031 5.38639 65.1144 2.61577 63.1043 1.20824Z" fill="#95D5EE"/>
<path d="M39.8184 26.751L52.5708 8.55542L59.849 13.6564L47.0966 31.852L39.8184 26.751Z" fill="#95D5EE"/>
<path d="M46.9727 51.0352V37.7764L39.0165 45.3769C37.9394 46.4058 36.5445 46.9727 35.0892 46.9727C35.0888 46.9727 35.0886 46.9727 35.0882 46.9727C34.4971 46.9725 26.0253 46.9727 26.0253 46.9727C24.943 46.9727 24.0716 46.0699 24.1231 44.9763C24.1714 43.9521 25.0537 43.1641 26.0791 43.1641H29.6781C29.1966 41.8152 29.241 40.3128 29.8387 38.9506L31.8892 34.2773H9.57531C8.54991 34.2773 7.66759 33.4893 7.61935 32.4651C7.5678 31.3715 8.43921 30.4688 9.52148 30.4688H33.5603L35.2314 26.6602H9.57531C8.54991 26.6602 7.66759 25.8722 7.61935 24.8479C7.5678 23.7543 8.43921 22.8516 9.52148 22.8516H37.8766L46.9727 9.8607V1.9043C46.9727 0.852617 46.12 0 45.0684 0H1.9043C0.852617 0 0 0.852617 0 1.9043V59.8216C0 62.669 2.33022 65.0536 5.17715 64.9991C7.93597 64.9463 10.1562 62.6934 10.1562 59.9219V56.748C10.1562 53.5929 12.714 51.0352 15.8691 51.0352H46.9727ZM17.1387 7.61719H29.834C30.8857 7.61719 31.7383 8.4698 31.7383 9.52148C31.7383 10.5732 30.8857 11.4258 29.834 11.4258H17.1387C16.087 11.4258 15.2344 10.5732 15.2344 9.52148C15.2344 8.4698 16.087 7.61719 17.1387 7.61719ZM9.52148 15.2344H37.4512C38.5029 15.2344 39.3555 16.087 39.3555 17.1387C39.3555 18.1904 38.5029 19.043 37.4512 19.043H9.52148C8.4698 19.043 7.61719 18.1904 7.61719 17.1387C7.61719 16.087 8.4698 15.2344 9.52148 15.2344ZM9.52148 41.8945C8.4698 41.8945 7.61719 41.0419 7.61719 39.9902C7.61719 38.9386 8.4698 38.0859 9.52148 38.0859H19.6777C20.7294 38.0859 21.582 38.9386 21.582 39.9902C21.582 41.0419 20.7294 41.8945 19.6777 41.8945H9.52148Z" fill="#95D5EE"/>
</svg>
