<svg width="65" height="58" viewBox="0 0 65 58" fill="none" xmlns="http://www.w3.org/2000/svg">
<path d="M0 49.5117V51.416C0 54.5661 2.5628 57.1289 5.71289 57.1289H59.2871C62.4372 57.1289 65 54.5661 65 51.416V49.5117H0Z" fill="#F9A78F"/>
<path d="M62.0353 39.3555H2.96533L0.584961 45.7031H64.4157L62.0353 39.3555Z" fill="#F9A78F"/>
<path d="M61.1914 5.71289C61.1914 2.5628 58.6286 0 55.4785 0H9.52148C6.3714 0 3.80859 2.5628 3.80859 5.71289V35.5469H61.1914V5.71289ZM24.4655 22.9315C25.1225 23.7528 24.9893 24.9511 24.1681 25.6081C23.3468 26.2651 22.1485 26.1319 21.4915 25.3106L16.4134 18.963C15.857 18.2675 15.857 17.2793 16.4134 16.5839L21.4915 10.2362C22.1485 9.41497 23.3469 9.2818 24.1681 9.93878C24.9893 10.5958 25.1225 11.7941 24.4655 12.6153L20.339 17.7734L24.4655 22.9315ZM36.8927 7.41863L31.8146 29.0005C31.5737 30.0243 30.5485 30.6589 29.5247 30.4181C28.501 30.1773 27.8663 29.152 28.1072 28.1282L33.1853 6.54634C33.4261 5.52259 34.4514 4.88795 35.4751 5.12878C36.499 5.36961 37.1337 6.39488 36.8927 7.41863ZM48.5866 18.963L43.5085 25.3106C42.8515 26.1319 41.6531 26.2651 40.8319 25.6081C40.0107 24.9511 39.8775 23.7528 40.5345 22.9315L44.661 17.7734L40.5345 12.6153C39.8775 11.7941 40.0107 10.5958 40.8319 9.93878C41.6532 9.2818 42.8515 9.41497 43.5085 10.2362L48.5866 16.5839C49.1429 17.2793 49.1429 18.2675 48.5866 18.963Z" fill="#F9A78F"/>
</svg>
