<svg width="126" height="126" viewBox="0 0 126 126" fill="none" xmlns="http://www.w3.org/2000/svg">
<g opacity="0.3" clip-path="url(#clip0_0_5053)">
<path d="M24.7347 99.4656C6.47427 80.67 15.6169 49.6368 41.9594 45.5831C43.2728 45.3266 44.7689 45.3071 46.0551 45.2604C47.6294 62.747 57.8616 80.9288 72.5698 84.3286C85.8364 87.3281 91.5911 74.2052 85.2062 64.2031C77.5701 52.3318 65.3292 43.0643 51.3518 40.6128C51.2971 29.5107 55.6218 19.1896 67.0851 14.701C86.4092 7.17731 109.038 23.5519 113.888 42.1031C114.273 44.0733 117.319 43.6146 116.934 41.6445C113.164 16.4056 80.8016 -0.590456 58.5089 13.3762C49.9014 18.875 46.0239 29.0407 45.8688 40.1155C31.4093 39.7351 18.6366 49.3881 12.5167 62.0366C5.4953 76.7022 11.0173 91.7133 21.8091 102.287C23.5072 104.001 26.2231 101.152 24.7347 99.4656ZM73.2141 57.9549C77.3955 61.9106 82.0704 66.9971 83.2247 72.9076C84.4062 78.6078 76.6071 79.5177 73.2226 79.2921C68.9986 78.958 65.6022 75.5307 63.018 72.4221C57.2475 65.9137 52.8052 55.7366 51.5385 45.7577C59.6407 47.4478 67.0975 52.4682 73.2141 57.9549Z" fill="#F9A78F"/>
<path d="M30.9758 112.223C31.7372 106.347 32.1062 100.207 31.3716 94.3513C31.0412 91.9618 27.7577 92.6027 27.8781 94.9657C28.1192 99.691 27.2839 104.49 26.4757 109.079C23.7754 108.516 20.8648 107.925 18.1913 107.152C16.1473 106.461 13.19 104.584 10.9285 105.571C9.79733 106.064 9.66136 107.114 9.9454 108.217C10.6683 110.871 15.0749 111.442 17.3288 112.161C21.0246 113.28 24.5644 113.952 28.3419 114.442C29.6002 114.605 30.8126 113.482 30.9758 112.223Z" fill="#F9A78F"/>
</g>
<defs>
<clipPath id="clip0_0_5053">
<rect width="111.695" height="111.695" fill="white" transform="translate(125.124 14.3556) rotate(97.3844)"/>
</clipPath>
</defs>
</svg>
